<svg width="261" height="111" viewBox="0 0 261 111" fill="none" xmlns="http://www.w3.org/2000/svg">
<rect width="261" height="111" rx="7" fill="#F8F9FB"/>
<g clip-path="url(#clip0)">
<path fill-rule="evenodd" clip-rule="evenodd" d="M144.923 73.4665C137.744 78.7818 127.302 81.6138 118.296 81.6138C105.678 81.6138 94.3658 76.952 85.7511 69.1968C85.0985 68.5869 85.6641 67.7591 86.4908 68.2383C95.7581 73.6408 107.201 76.8649 119.035 76.8649C126.997 76.8649 135.786 75.2093 143.879 71.7674C145.097 71.2882 146.098 72.5952 144.923 73.4665Z" fill="#FF9900"/>
<path fill-rule="evenodd" clip-rule="evenodd" d="M147.926 70.0249C147.012 68.8486 141.834 69.4585 139.528 69.7635C138.832 69.8507 138.702 69.2407 139.354 68.805C143.488 65.8859 150.232 66.7573 151.015 67.7158C151.798 68.6743 150.797 75.471 146.925 78.695C146.316 79.1742 145.75 78.9128 146.011 78.2593C146.881 76.0809 148.839 71.2448 147.926 70.0249Z" fill="#FF9900"/>
<path fill-rule="evenodd" clip-rule="evenodd" d="M139.659 48.3278V45.4959C139.659 45.0602 139.964 44.7988 140.355 44.7988L152.973 44.7988C153.364 44.7988 153.712 45.1038 153.712 45.4959V47.8921C153.712 48.2843 153.364 48.8071 152.755 49.6784L146.229 59.002C148.665 58.9584 151.232 59.307 153.408 60.5269C153.886 60.7883 154.017 61.2239 154.06 61.6161V64.6223C154.06 65.0579 153.625 65.5372 153.147 65.2758C149.274 63.2281 144.097 63.0103 139.833 65.3193C139.398 65.5372 138.919 65.1015 138.919 64.6658V61.7903C138.919 61.3547 138.919 60.5704 139.398 59.8734L146.968 49.0249H140.399C140.007 49.0249 139.659 48.7199 139.659 48.3278ZM93.6701 65.8857H89.8414C89.4934 65.8421 89.1888 65.5808 89.1453 65.2322V45.5395C89.1453 45.1474 89.4934 44.8424 89.8849 44.8424H93.4527C93.8442 44.8424 94.1053 45.1473 94.1488 45.4959V48.0664H94.2358C95.1495 45.583 96.9334 44.4067 99.2828 44.4067C101.676 44.4067 103.199 45.583 104.243 48.0664C105.157 45.583 107.288 44.4067 109.551 44.4067C111.161 44.4067 112.901 45.0602 113.989 46.5851C115.207 48.2407 114.946 50.6369 114.946 52.7718V65.2322C114.946 65.6243 114.598 65.9293 114.206 65.9293H110.421C110.03 65.8857 109.725 65.5808 109.725 65.2322V54.7759C109.725 53.9481 109.812 51.8568 109.638 51.0726C109.333 49.7656 108.507 49.3735 107.375 49.3735C106.462 49.3735 105.461 49.9834 105.07 50.9855C104.678 51.9875 104.721 53.6431 104.721 54.7759V65.2322C104.721 65.6243 104.373 65.9293 103.982 65.9293H100.153C99.7614 65.8857 99.4569 65.5808 99.4569 65.2322V54.7759C99.4569 52.5975 99.8049 49.3299 97.1074 49.3299C94.3663 49.3299 94.4534 52.4668 94.4534 54.7759V65.2322C94.4099 65.5808 94.1053 65.8857 93.6701 65.8857ZM164.59 44.4067C170.289 44.4067 173.379 49.2863 173.379 55.5165C173.379 61.529 169.984 66.3214 164.59 66.3214C159.02 66.3214 155.975 61.4418 155.975 55.3422C155.931 49.1992 159.02 44.4067 164.59 44.4067ZM164.59 48.4585C161.761 48.4585 161.587 52.3361 161.587 54.7323C161.587 57.1285 161.544 62.2696 164.546 62.2696C167.504 62.2696 167.679 58.1306 167.679 55.6037C167.679 53.9481 167.591 51.944 167.113 50.3755C166.678 48.9814 165.808 48.4585 164.59 48.4585ZM180.731 65.8857H176.902C176.511 65.8421 176.206 65.5372 176.206 65.1886V45.4523C176.25 45.1038 176.554 44.7988 176.946 44.7988L180.514 44.7988C180.861 44.7988 181.123 45.0602 181.21 45.3652V48.3714H181.297C182.384 45.6702 183.863 44.4067 186.518 44.4067C188.215 44.4067 189.911 45.0167 190.999 46.7158C192 48.2843 192 50.9419 192 52.8589V65.2758C191.956 65.6244 191.652 65.8857 191.26 65.8857H187.431C187.084 65.8421 186.779 65.5808 186.736 65.2758V54.558C186.736 52.3797 186.996 49.2428 184.342 49.2428C183.429 49.2428 182.559 49.8527 182.124 50.8112C181.601 52.0311 181.514 53.2074 181.514 54.558V65.1886C181.471 65.5808 181.123 65.8857 180.731 65.8857ZM129.608 56.475C129.608 57.9563 129.652 59.2199 128.912 60.5704C128.303 61.6597 127.346 62.3132 126.258 62.3132C124.779 62.3132 123.909 61.1804 123.909 59.5248C123.909 56.2572 126.824 55.6472 129.608 55.6472V56.475ZM133.481 65.8421C133.22 66.06 132.872 66.1036 132.567 65.9293C131.305 64.8837 131.044 64.3608 130.348 63.3588C128.26 65.4936 126.737 66.1471 124.039 66.1471C120.82 66.1471 118.296 64.1431 118.296 60.1783C118.296 57.0414 119.993 54.9502 122.386 53.9045C124.474 52.9896 127.39 52.8153 129.608 52.5539V52.0747C129.608 51.1597 129.695 50.0705 129.13 49.2863C128.651 48.5892 127.781 48.2843 126.998 48.2843C125.519 48.2842 124.213 49.0249 123.909 50.5934C123.822 50.9419 123.604 51.2904 123.256 51.2904L119.558 50.8983C119.253 50.8112 118.905 50.5934 118.992 50.1141C119.862 45.583 123.909 44.2324 127.564 44.2324C129.434 44.2324 131.871 44.7117 133.35 46.1494C135.221 47.8921 135.047 50.2448 135.047 52.7718V58.7406C135.047 60.5269 135.787 61.3111 136.483 62.3132C136.744 62.6617 136.787 63.0974 136.483 63.3153C135.656 63.9688 134.264 65.1886 133.481 65.8421ZM79.3558 56.475C79.3558 57.9563 79.3993 59.2199 78.6596 60.5704C78.0505 61.6597 77.0933 62.3132 76.0056 62.3132C74.5263 62.3132 73.6561 61.1804 73.6561 59.5248C73.6561 56.2572 76.5712 55.6472 79.3558 55.6472V56.475ZM83.1846 65.8421C82.9235 66.06 82.5754 66.1036 82.2709 65.9293C81.0092 64.8837 80.7481 64.3608 80.0519 63.3588C77.9635 65.4936 76.4407 66.1471 73.7432 66.1471C70.5235 66.1471 68 64.1431 68 60.1783C68 57.0414 69.6968 54.9501 72.0898 53.9045C74.1782 52.9896 77.0933 52.8153 79.3123 52.5539V52.0747C79.3123 51.1597 79.3993 50.0705 78.8337 49.2863C78.3551 48.5892 77.4849 48.2842 76.7018 48.2842C75.2225 48.2842 73.9172 49.0249 73.6126 50.5934C73.5256 50.9419 73.3081 51.2904 72.96 51.2904L69.2618 50.8983C68.9572 50.8112 68.6091 50.5933 68.6961 50.1141C69.5663 45.583 73.6126 44.2324 77.2674 44.2324C79.1382 44.2324 81.5747 44.7117 83.0541 46.1494C84.9249 47.8921 84.7509 50.2448 84.7509 52.7718V58.7405C84.7509 60.5269 85.4905 61.3111 86.1866 62.3132C86.4477 62.6617 86.4912 63.0974 86.1866 63.3153C85.36 63.9688 83.9677 65.1886 83.1846 65.8421Z" fill="#3F3356"/>
</g>
<defs>
<clipPath id="clip0">
<rect width="124" height="37.7812" fill="white" transform="translate(68 44)"/>
</clipPath>
</defs>
</svg>
