<svg width="132" height="32" viewBox="0 0 132 32" fill="none" xmlns="http://www.w3.org/2000/svg">
<path fill-rule="evenodd" clip-rule="evenodd" d="M12.8155 11.717L18.674 14.6463L24.5325 11.717V0H12.8155V11.717ZM0 22.0634L6.20908 32L16.1457 25.7909L16.1463 18.8823L9.93661 15.8543L0 22.0634ZM37.5587 22.0634L31.3496 32L21.413 25.7909L21.4123 18.8823L27.622 15.8543L37.5587 22.0634Z" fill="#83C6F2"/>
<path d="M73.4946 5.10483H69.5266L63.5106 15.1528L57.5266 5.10483H53.5586L61.6226 18.5448V27.5048H65.3986V18.5448L73.4946 5.10483Z" fill="#051A26"/>
<path d="M87.4156 4.04883V11.8248C85.8796 10.5448 83.9276 9.80883 81.7196 9.80883C76.4716 9.80883 72.7276 13.6808 72.7276 18.8968C72.7276 24.0488 76.4716 27.9528 81.7196 27.9528C84.1196 27.9528 86.2636 27.0568 87.7996 25.5528L88.2796 27.5368H90.9676V4.04883H87.4156ZM81.9756 24.5608C78.7436 24.5608 76.3436 22.1288 76.3436 18.8648C76.3436 15.6328 78.7436 13.2008 81.9756 13.2008C85.2396 13.2008 87.6396 15.6328 87.6396 18.8648C87.6396 22.0968 85.2396 24.5608 81.9756 24.5608Z" fill="#051A26"/>
<path d="M112.455 18.9288C112.455 13.9048 108.935 9.80883 103.623 9.80883C98.5668 9.80883 94.7588 13.7128 94.7588 18.8648C94.7588 24.0488 98.5668 27.9528 103.623 27.9528C107.495 27.9528 110.663 25.7128 112.039 22.0648H108.295C107.367 23.6648 105.703 24.6248 103.623 24.6248C100.807 24.6248 98.7908 22.8968 98.3428 20.0808H112.359C112.423 19.6968 112.455 19.3128 112.455 18.9288ZM103.623 13.0408C106.279 13.0408 108.231 14.5768 108.871 17.2008H98.4388C99.0148 14.6408 100.967 13.0408 103.623 13.0408Z" fill="#051A26"/>
<path d="M127.534 10.2248L122.478 23.0568L117.294 10.2248H113.55L120.846 27.5048H124.078L131.182 10.2248H127.534Z" fill="#051A26"/>
</svg>
