<svg width="132" height="32" viewBox="0 0 132 32" fill="none" xmlns="http://www.w3.org/2000/svg">
<path fill-rule="evenodd" clip-rule="evenodd" d="M12.8155 11.717L18.674 14.6463L24.5325 11.717V0H12.8155V11.717ZM0 22.0634L6.20908 32L16.1457 25.7909L16.1463 18.8823L9.93661 15.8543L0 22.0634ZM37.5587 22.0634L31.3496 32L21.413 25.7909L21.4123 18.8823L27.622 15.8543L37.5587 22.0634Z" fill="#B0B1B1"/>
<path d="M73.4948 5.1041H69.5268L63.5108 15.1521L57.5268 5.1041H53.5588L61.6228 18.5441V27.5041H65.3988V18.5441L73.4948 5.1041Z" fill="#051A26"/>
<path d="M87.4158 4.0481V11.8241C85.8798 10.5441 83.9278 9.8081 81.7198 9.8081C76.4718 9.8081 72.7278 13.6801 72.7278 18.8961C72.7278 24.0481 76.4718 27.9521 81.7198 27.9521C84.1198 27.9521 86.2638 27.0561 87.7998 25.5521L88.2798 27.5361H90.9678V4.0481H87.4158ZM81.9758 24.5601C78.7438 24.5601 76.3438 22.1281 76.3438 18.8641C76.3438 15.6321 78.7438 13.2001 81.9758 13.2001C85.2398 13.2001 87.6398 15.6321 87.6398 18.8641C87.6398 22.0961 85.2398 24.5601 81.9758 24.5601Z" fill="#051A26"/>
<path d="M112.455 18.9281C112.455 13.9041 108.935 9.8081 103.623 9.8081C98.5671 9.8081 94.7591 13.7121 94.7591 18.8641C94.7591 24.0481 98.5671 27.9521 103.623 27.9521C107.495 27.9521 110.663 25.7121 112.039 22.0641H108.295C107.367 23.6641 105.703 24.6241 103.623 24.6241C100.807 24.6241 98.7911 22.8961 98.3431 20.0801H112.359C112.423 19.6961 112.455 19.3121 112.455 18.9281ZM103.623 13.0401C106.279 13.0401 108.231 14.5761 108.871 17.2001H98.4391C99.0151 14.6401 100.967 13.0401 103.623 13.0401Z" fill="#051A26"/>
<path d="M127.535 10.2241L122.479 23.0561L117.295 10.2241H113.551L120.847 27.5041H124.079L131.183 10.2241H127.535Z" fill="#051A26"/>
</svg>
