<svg width="106" height="106" viewBox="0 0 106 106" fill="none" xmlns="http://www.w3.org/2000/svg">
<circle cx="53" cy="53" r="53" fill="#5A80DC"/>
<path fill-rule="evenodd" clip-rule="evenodd" d="M38 62H68C69.6569 62 71 60.6569 71 59V40C71 38.3431 69.6569 37 68 37H38C36.3431 37 35 38.3431 35 40V59C35 60.6569 36.3431 62 38 62ZM38 40H68V59H38V40Z" fill="white"/>
<path d="M38 40V39.5H37.5V40H38ZM68 40H68.5V39.5H68V40ZM68 59V59.5H68.5V59H68ZM38 59H37.5V59.5H38V59ZM38 62.5H68V61.5H38V62.5ZM68 62.5C69.933 62.5 71.5 60.933 71.5 59H70.5C70.5 60.3807 69.3807 61.5 68 61.5V62.5ZM71.5 59V40H70.5V59H71.5ZM71.5 40C71.5 38.067 69.933 36.5 68 36.5V37.5C69.3807 37.5 70.5 38.6193 70.5 40H71.5ZM68 36.5H38V37.5H68V36.5ZM38 36.5C36.067 36.5 34.5 38.067 34.5 40H35.5C35.5 38.6193 36.6193 37.5 38 37.5V36.5ZM34.5 40V59H35.5V40H34.5ZM34.5 59C34.5 60.933 36.067 62.5 38 62.5V61.5C36.6193 61.5 35.5 60.3807 35.5 59H34.5ZM38 40.5H68V39.5H38V40.5ZM67.5 40V59H68.5V40H67.5ZM68 58.5H38V59.5H68V58.5ZM38.5 59V40H37.5V59H38.5Z" fill="white"/>
<rect x="33" y="65" width="40" height="3" fill="white"/>
<rect x="39.2798" y="43.6001" width="15" height="2" fill="white"/>
<rect x="39.2798" y="47.6001" width="24" height="2" fill="white"/>
<rect x="39.2798" y="51.6001" width="24" height="2" fill="white"/>
</svg>
