<svg width="22" height="22" viewBox="0 0 22 22" fill="none" xmlns="http://www.w3.org/2000/svg">
<g clip-path="url(#clip0)">
<path fill-rule="evenodd" clip-rule="evenodd" d="M10.1694 2.70035C10.5485 2.70035 10.8559 2.39301 10.8559 2.01388V1.09858C10.8559 0.719454 10.5485 0.412109 10.1694 0.412109C9.79025 0.412109 9.48291 0.719454 9.48291 1.09858V2.01388C9.48291 2.39301 9.79025 2.70035 10.1694 2.70035Z" fill="#B9A602"/>
<path fill-rule="evenodd" clip-rule="evenodd" d="M20.009 8.87891H19.0937C18.7146 8.87891 18.4072 9.18625 18.4072 9.56538C18.4072 9.94451 18.7146 10.2519 19.0937 10.2519H20.009C20.3881 10.2519 20.6955 9.94451 20.6955 9.56538C20.6955 9.18625 20.3881 8.87891 20.009 8.87891Z" fill="#B9A602"/>
<path fill-rule="evenodd" clip-rule="evenodd" d="M2.38883 9.56538C2.38883 9.18625 2.08148 8.87891 1.70236 8.87891H0.787058C0.40793 8.87891 0.100586 9.18625 0.100586 9.56538C0.100586 9.94451 0.40793 10.2519 0.787058 10.2519H1.70236C2.08148 10.2519 2.38883 9.94451 2.38883 9.56538Z" fill="#B9A602"/>
<path fill-rule="evenodd" clip-rule="evenodd" d="M16.5448 5.01673C16.7268 5.01657 16.9013 4.94414 17.0299 4.81537L17.6797 4.17008C17.9318 3.8996 17.9243 3.47811 17.6629 3.21669C17.4015 2.95527 16.98 2.94783 16.7095 3.19987L16.0597 3.84515C15.8636 4.04147 15.805 4.33652 15.9111 4.59288C16.0173 4.84924 16.2673 5.01649 16.5448 5.01673Z" fill="#B9A602"/>
<path fill-rule="evenodd" clip-rule="evenodd" d="M4.27893 3.84515L3.62907 3.19987C3.35859 2.94783 2.93709 2.95527 2.67567 3.21669C2.41425 3.47811 2.40682 3.8996 2.65885 4.17008L3.30871 4.81537C3.57919 5.0674 4.00069 5.05996 4.26211 4.79854C4.52352 4.53712 4.53096 4.11563 4.27893 3.84515Z" fill="#B9A602"/>
<path fill-rule="evenodd" clip-rule="evenodd" d="M17.9489 14.8268C17.6784 14.5748 17.2569 14.5822 16.9955 14.8436C16.7341 15.1051 16.7266 15.5266 16.9787 15.797L17.6285 16.4423C17.899 16.6944 18.3205 16.6869 18.5819 16.4255C18.8433 16.1641 18.8508 15.7426 18.5988 15.4721L17.9489 14.8268Z" fill="#B9A602"/>
<path fill-rule="evenodd" clip-rule="evenodd" d="M2.38879 14.8268L1.73893 15.4721C1.48689 15.7426 1.49433 16.1641 1.75575 16.4255C2.01717 16.6869 2.43867 16.6944 2.70914 16.4423L3.359 15.797C3.61104 15.5266 3.6036 15.1051 3.34218 14.8436C3.08076 14.5822 2.65927 14.5748 2.38879 14.8268Z" fill="#B9A602"/>
<path fill-rule="evenodd" clip-rule="evenodd" d="M16.8048 10.7096C16.8092 7.56625 14.5326 4.88393 11.4304 4.37732C8.3281 3.8707 5.31648 5.68943 4.32066 8.67088C3.32485 11.6523 4.63899 14.9159 7.42301 16.3753C7.28027 16.5963 7.20402 16.8536 7.20334 17.1167V18.4896C7.20334 20.0061 8.43271 21.2355 9.94923 21.2355H10.8645C12.381 21.2355 13.6104 20.0061 13.6104 18.4896V17.1167C13.6097 16.8536 13.5335 16.5963 13.3907 16.3753C15.491 15.2656 16.805 13.085 16.8048 10.7096ZM12.2283 17.1168V17.5744H9.94007C9.56094 17.5744 9.2536 17.8818 9.2536 18.2609C9.2536 18.64 9.56094 18.9474 9.94007 18.9474H12.1459C11.9525 19.4946 11.4358 19.861 10.8554 19.8627H9.94007C9.18181 19.8627 8.56712 19.248 8.56712 18.4897V17.1168H12.2283ZM10.3981 15.7436C7.61786 15.7436 5.364 13.4898 5.364 10.7095C5.364 7.92923 7.61786 5.67537 10.3981 5.67537C13.1784 5.67537 15.4323 7.92923 15.4323 10.7095C15.4323 12.0454 14.9013 13.3266 13.9562 14.2708C13.0111 15.215 11.7295 15.7448 10.3936 15.7436H10.3981Z" fill="#3E3C3C"/>
<path fill-rule="evenodd" clip-rule="evenodd" d="M10.3979 6.81836C10.0188 6.81836 9.71143 7.1257 9.71143 7.50483C9.71143 7.88396 10.0188 8.1913 10.3979 8.1913C11.787 8.19382 12.9124 9.31928 12.915 10.7084C12.915 11.0875 13.2223 11.3948 13.6014 11.3948C13.9806 11.3948 14.2879 11.0875 14.2879 10.7084C14.2854 8.56102 12.5452 6.82088 10.3979 6.81836Z" fill="#B9A602"/>
</g>
<defs>
<clipPath id="clip0">
<rect width="21.0518" height="21.5095" fill="white"/>
</clipPath>
</defs>
</svg>
