<svg width="22" height="25" viewBox="0 0 22 25" fill="none" xmlns="http://www.w3.org/2000/svg">
<path d="M15.1215 20.2666C16.2468 20.2666 17.1591 19.2796 17.1591 18.062C17.1591 16.8445 16.2468 15.8574 15.1215 15.8574C13.9962 15.8574 13.084 16.8445 13.084 18.062C13.084 19.2796 13.9962 20.2666 15.1215 20.2666Z" fill="#FFCEBF"/>
<path d="M17.3444 24.0048H12.9004V22.6708C12.9004 21.343 13.8952 20.2666 15.1224 20.2666C16.3496 20.2666 17.3444 21.343 17.3444 22.6708V24.0048H17.3444Z" fill="#3C87D0"/>
<path d="M19.5668 20.2666C20.6921 20.2666 21.6044 19.2796 21.6044 18.062C21.6044 16.8445 20.6921 15.8574 19.5668 15.8574C18.4415 15.8574 17.5293 16.8445 17.5293 18.062C17.5293 19.2796 18.4415 20.2666 19.5668 20.2666Z" fill="#FFCEBF"/>
<path d="M21.7878 24.0048H17.3438V22.6708C17.3438 21.343 18.3386 20.2666 19.5657 20.2666C20.7929 20.2666 21.7877 21.343 21.7877 22.6708V24.0048H21.7878Z" fill="#3C87D0"/>
<path d="M14.2027 7.33847H16.042C16.1619 6.95245 16.3605 6.60065 16.623 6.30872C17.0091 5.87923 17.2392 5.28474 17.2136 4.632C17.1677 3.46249 16.2857 2.5123 15.2046 2.46752C14.0112 2.4181 13.0293 3.45027 13.0293 4.73056C13.0293 5.34453 13.2553 5.90113 13.622 6.30891C13.8844 6.60069 14.0828 6.95245 14.2027 7.33833V7.33847Z" fill="#FDB97E"/>
<path d="M14.2031 7.33887H16.0425V8.15387C16.0425 8.70344 15.6307 9.14897 15.1228 9.14897C14.6149 9.14897 14.2031 8.70344 14.2031 8.15387V7.33887Z" fill="#537983"/>
<path d="M15.1218 1.73982C14.9401 1.73982 14.793 1.58059 14.793 1.38407V0.556928C14.793 0.360407 14.9401 0.201172 15.1218 0.201172C15.3034 0.201172 15.4506 0.360407 15.4506 0.556928V1.38407C15.4506 1.58054 15.3034 1.73982 15.1218 1.73982Z" fill="#FEA95C"/>
<path d="M13.3283 2.29054C13.2441 2.29054 13.16 2.25581 13.0958 2.18631L12.5553 1.60139C12.4269 1.46248 12.4269 1.23722 12.5553 1.09831C12.6837 0.959434 12.8918 0.959388 13.0203 1.09835L13.5608 1.68327C13.6892 1.82218 13.6892 2.04744 13.5608 2.18635C13.4966 2.25577 13.4125 2.29054 13.3283 2.29054Z" fill="#FEA95C"/>
<path d="M16.9167 2.29054C16.8325 2.29054 16.7484 2.25581 16.6842 2.18635C16.5558 2.04744 16.5558 1.82218 16.6842 1.68327L17.2247 1.09835C17.3532 0.959388 17.5613 0.959434 17.6897 1.09831C17.8181 1.23722 17.8181 1.46248 17.6897 1.60139L17.1492 2.18631C17.085 2.25577 17.0008 2.29054 16.9167 2.29054Z" fill="#FEA95C"/>
<path d="M18.896 3.92537H18.1315C17.9499 3.92537 17.8027 3.76614 17.8027 3.56962C17.8027 3.3731 17.9499 3.21387 18.1315 3.21387H18.896C19.0776 3.21387 19.2248 3.3731 19.2248 3.56962C19.2248 3.76614 19.0776 3.92537 18.896 3.92537Z" fill="#FEA95C"/>
<path d="M12.1128 3.92537H11.3483C11.1667 3.92537 11.0195 3.76614 11.0195 3.56962C11.0195 3.3731 11.1667 3.21387 11.3483 3.21387H12.1128C12.2944 3.21387 12.4416 3.3731 12.4416 3.56962C12.4416 3.76614 12.2944 3.92537 12.1128 3.92537Z" fill="#FEA95C"/>
<path d="M18.3196 13.1777H17.9585V10.7998C17.9585 10.4331 17.6838 10.1357 17.3448 10.1357H12.7798C12.4408 10.1357 12.166 10.4331 12.166 10.7998C12.166 11.1666 12.4408 11.4639 12.7798 11.4639H16.7311V13.1777H16.37C16.2317 13.1777 16.1493 13.3444 16.226 13.4689L17.2008 15.051C17.2693 15.1622 17.4203 15.1622 17.4889 15.051L18.4637 13.4689C18.5403 13.3444 18.4578 13.1777 18.3196 13.1777Z" fill="#3C87D0"/>
<path d="M1.90872 15.3135C0.854563 15.3135 0 16.2381 0 17.3787V20.9205H11.4489V17.3787C11.4489 16.2381 10.5943 15.3135 9.54014 15.3135C9.4652 15.3135 1.85131 15.3135 1.90872 15.3135Z" fill="#C4E2FF"/>
<path d="M9.54006 15.3135C9.51917 15.3135 8.91211 15.3135 8.04883 15.3135C9.10298 15.3135 9.95754 16.2381 9.95754 17.3787V20.9205H11.4488V17.3787C11.4488 16.2381 10.5942 15.3135 9.54006 15.3135Z" fill="#B3DAFE"/>
<path d="M3.95703 11.3359V14.4376L5.71892 15.7085L7.48081 14.4376V11.3359H3.95703Z" fill="#FFBFB1"/>
<path d="M9.97017 6.82817C9.95044 6.82817 9.93094 6.82891 9.91143 6.82979C9.5749 4.65259 7.8256 2.99316 5.71781 2.99316C3.61002 2.99316 1.86072 4.65259 1.52419 6.82979C1.50468 6.82896 1.48513 6.82817 1.46545 6.82817C0.667992 6.82817 0.0214844 7.52763 0.0214844 8.39047C0.0214844 9.25331 0.667949 9.95282 1.46545 9.95282C1.48517 9.95282 1.50468 9.95208 1.52419 9.9512C1.86072 12.1284 3.61002 13.7878 5.71781 13.7878C7.8256 13.7878 9.5749 12.1284 9.91143 9.9512C9.93094 9.95203 9.95049 9.95282 9.97017 9.95282C10.7676 9.95282 11.4141 9.25336 11.4141 8.39047C11.4141 7.52759 10.7677 6.82817 9.97017 6.82817Z" fill="#FFCEBF"/>
<path d="M9.97017 6.82817C9.95044 6.82817 9.93094 6.82891 9.91143 6.82979C9.5749 4.65259 7.8256 2.99316 5.71781 2.99316C3.61002 2.99316 1.86072 4.65259 1.52419 6.82979C1.50468 6.82896 1.48513 6.82817 1.46545 6.82817C0.667992 6.82817 0.0214844 7.52763 0.0214844 8.39047C0.0214844 9.25331 0.667949 9.95282 1.46545 9.95282C1.48517 9.95282 1.50468 9.95208 1.52419 9.9512C1.86072 12.1284 3.61002 13.7878 5.71781 13.7878C7.8256 13.7878 9.5749 12.1284 9.91143 9.9512C9.93094 9.95203 9.95049 9.95282 9.97017 9.95282C10.7676 9.95282 11.4141 9.25336 11.4141 8.39047C11.4141 7.52759 10.7677 6.82817 9.97017 6.82817Z" fill="#FFCEBF"/>
<path d="M9.97134 6.82813C9.95162 6.82813 9.93211 6.82887 9.9126 6.82975C9.57607 4.65255 7.82677 2.99316 5.71898 2.99316C5.50784 2.99316 5.30051 3.01055 5.09766 3.04272C6.92013 3.33158 8.3671 4.87068 8.66991 6.8298C8.68941 6.82896 8.70896 6.82817 8.72864 6.82817C9.5261 6.82817 10.1726 7.52764 10.1726 8.39048C10.1726 9.25332 9.52614 9.95283 8.72864 9.95283C8.70892 9.95283 8.68941 9.95209 8.66991 9.95125C8.3671 11.9104 6.92013 13.4495 5.09766 13.7383C5.30055 13.7705 5.50788 13.7879 5.71898 13.7879C7.82677 13.7879 9.57607 12.1285 9.9126 9.9513C9.93211 9.95214 9.95166 9.95288 9.97134 9.95288C10.7688 9.95288 11.4153 9.25341 11.4153 8.39053C11.4153 7.52764 10.7688 6.82813 9.97134 6.82813Z" fill="#FFBFB1"/>
<path d="M3.64325 9.50407C3.46166 9.50407 3.31445 9.34484 3.31445 9.14832V8.30106C3.31445 8.10455 3.46166 7.94531 3.64325 7.94531C3.82484 7.94531 3.97205 8.10455 3.97205 8.30106V9.14832C3.97205 9.34484 3.82484 9.50407 3.64325 9.50407Z" fill="#384949"/>
<path d="M7.79559 9.50407C7.61401 9.50407 7.4668 9.34484 7.4668 9.14832V8.30106C7.4668 8.10455 7.61401 7.94531 7.79559 7.94531C7.97718 7.94531 8.12439 8.10455 8.12439 8.30106V9.14832C8.12439 9.34484 7.97718 9.50407 7.79559 9.50407Z" fill="#384949"/>
<path d="M5.7182 11.9201C5.03895 11.9201 4.48633 11.3221 4.48633 10.5872C4.48633 10.3907 4.63354 10.2314 4.81513 10.2314C4.99671 10.2314 5.14392 10.3907 5.14392 10.5872C5.14392 10.9298 5.40156 11.2086 5.7182 11.2086C6.03488 11.2086 6.29252 10.9298 6.29252 10.5872C6.29252 10.3907 6.43974 10.2314 6.62132 10.2314C6.80291 10.2314 6.95012 10.3907 6.95012 10.5872C6.95012 11.3221 6.3975 11.9201 5.7182 11.9201Z" fill="#FFB09E"/>
<path d="M8.6295 1.47546C8.31158 0.923926 7.74611 0.556641 7.1011 0.556641H3.64216C1.87984 0.556641 0.451172 2.10245 0.451172 4.00926V6.8302H6.49108C7.10905 6.8302 7.6725 6.57831 8.0991 6.16453C8.39739 6.56999 8.85711 6.8302 9.37325 6.8302H10.9834V4.0584C10.9834 2.6438 9.93257 1.49536 8.6295 1.47546Z" fill="#C4573A"/>
<path d="M5.71753 15.709L4.81445 16.7292L5.14179 18.1171H6.29331L6.62064 16.7292L5.71753 15.709Z" fill="#FD544D"/>
<path d="M5.14182 18.1172L4.63281 20.9206H6.80213L6.29312 18.1172H5.14182Z" fill="#FD544D"/>
<path d="M3.95614 14.4375L2.4668 15.313L4.56802 17.0075L5.71803 15.7084L3.95614 14.4375Z" fill="#B3DAFE"/>
<path d="M7.48064 14.4375L8.96998 15.313L6.86876 17.0075L5.71875 15.7084L7.48064 14.4375Z" fill="#B3DAFE"/>
<path d="M8.6975 10.557H8.15236C7.95389 10.557 7.79297 10.3829 7.79297 10.1682C7.79297 9.95341 7.95389 9.7793 8.15236 9.7793H8.6975C8.89597 9.7793 9.05689 9.95341 9.05689 10.1682C9.05689 10.3829 8.89602 10.557 8.6975 10.557Z" fill="#FFB09E"/>
<path d="M3.28345 10.557H2.7383C2.53983 10.557 2.37891 10.3829 2.37891 10.1682C2.37891 9.95341 2.53983 9.7793 2.7383 9.7793H3.28345C3.48192 9.7793 3.64284 9.95341 3.64284 10.1682C3.64284 10.3829 3.48196 10.557 3.28345 10.557Z" fill="#FFB09E"/>
<path d="M7.48064 14.4375L8.96998 15.313L6.86876 17.0075L5.71875 15.7084L7.48064 14.4375Z" fill="#B3DAFE"/>
<path d="M8.63096 1.47546C8.31303 0.923926 7.74756 0.556641 7.10256 0.556641H5.61133C6.25633 0.556641 6.8218 0.92388 7.13973 1.47546C8.4428 1.49531 9.49364 2.64375 9.49364 4.0584V6.8302H10.9849V4.0584C10.9849 2.6438 9.93403 1.49536 8.63096 1.47546Z" fill="#A74B30"/>
<path d="M7.47912 14.4375L6.80954 14.9205L7.47723 15.313L6.24609 16.3058L6.86725 17.0075L8.96846 15.313L7.47912 14.4375Z" fill="#8AC9FE"/>
<path d="M17.2128 4.63197C17.167 3.46247 16.2849 2.51231 15.2039 2.4675C15.0255 2.4601 14.8519 2.47735 14.6855 2.51552C15.6004 2.7265 16.3022 3.59227 16.343 4.63197C16.3686 5.28467 16.1385 5.8792 15.7524 6.30869C15.4899 6.60062 15.2913 6.95237 15.1714 7.33844H16.0413C16.1612 6.95242 16.3598 6.60062 16.6223 6.30869C17.0084 5.8792 17.2384 5.28471 17.2128 4.63197Z" fill="#FEA95C"/>
<path d="M15.1722 7.33887V8.15387C15.1722 8.53314 14.976 8.86272 14.6875 9.03065C14.817 9.10601 14.9651 9.14897 15.1224 9.14897C15.6304 9.14897 16.0421 8.70344 16.0421 8.15391V7.33891H15.1722V7.33887Z" fill="#3E5959"/>
<path d="M15.1213 15.8574C14.9046 15.8574 14.6959 15.8944 14.5 15.9622C15.3214 16.2465 15.9162 17.0789 15.9162 18.062C15.9162 19.0451 15.3214 19.8775 14.5 20.1618C14.6959 20.2297 14.9046 20.2666 15.1213 20.2666C16.2466 20.2666 17.1589 19.2796 17.1589 18.062C17.1589 16.8444 16.2466 15.8574 15.1213 15.8574Z" fill="#FFBFB1"/>
<path d="M19.5666 15.8574C19.3499 15.8574 19.1412 15.8944 18.9453 15.9622C19.7667 16.2465 20.3615 17.079 20.3615 18.062C20.3615 19.0451 19.7667 19.8776 18.9453 20.1619C19.1412 20.2297 19.3499 20.2667 19.5667 20.2667C20.692 20.2667 21.6042 19.2796 21.6042 18.062C21.6042 16.8444 20.6919 15.8574 19.5666 15.8574Z" fill="#FFBFB1"/>
<path d="M15.1213 20.2666C14.9056 20.2666 14.6972 20.3005 14.5 20.3626C15.4246 20.6535 16.1007 21.5764 16.1007 22.6708V24.0048H17.3434V22.6708C17.3434 21.343 16.3485 20.2666 15.1213 20.2666Z" fill="#0078C8"/>
<path d="M19.5647 20.2666C19.349 20.2666 19.1406 20.3005 18.9434 20.3626C19.868 20.6535 20.544 21.5764 20.544 22.6708V24.0048H21.7867V22.6708C21.7868 21.343 20.7919 20.2666 19.5647 20.2666Z" fill="#0078C8"/>
</svg>
