<svg width="261" height="111" viewBox="0 0 261 111" fill="none" xmlns="http://www.w3.org/2000/svg">
<rect width="261" height="111" rx="7" fill="#F8F9FB"/>
<path fill-rule="evenodd" clip-rule="evenodd" d="M52.0273 50.375C53.86 43.2588 60.3199 38 68.0078 38C77.1207 38 84.5078 45.3876 84.5078 54.5C84.5078 63.6124 77.1207 71 68.0078 71C60.3199 71 53.86 65.7412 52.0273 58.625C52.011 58.5624 52 58.4967 52 58.4288C52 57.995 52.3518 57.6432 52.7862 57.6432H59.4391C59.5893 57.6433 59.7363 57.6867 59.8626 57.7681C59.9888 57.8495 60.089 57.9655 60.1511 58.1023C60.1511 58.1023 60.1611 58.1207 60.1648 58.1301C61.5368 61.0893 64.5317 63.1428 68.0078 63.1428C72.7812 63.1428 76.6501 59.2739 76.6501 54.5C76.6501 49.7261 72.7801 45.8572 68.0067 45.8572C64.5307 45.8572 61.5352 47.9107 60.1638 50.8704C60.1606 50.8793 60.1506 50.8977 60.1506 50.8977C60.0265 51.1686 59.7557 51.3568 59.4386 51.3568H52.7857C52.3518 51.3568 52 51.005 52 50.5712C52 50.5033 52.0116 50.4376 52.0273 50.375ZM108.908 58.3678H111.152C111.216 58.3678 111.278 58.3802 111.337 58.4045C111.396 58.4287 111.449 58.4643 111.494 58.5092C111.539 58.5541 111.575 58.6074 111.599 58.666C111.624 58.7247 111.636 58.7876 111.636 58.8511C111.636 58.9267 111.617 59.0011 111.583 59.0683C109.911 62.3808 106.479 64.6537 102.515 64.6537C96.9075 64.6537 92.3607 60.1069 92.3607 54.4995C92.3607 48.8915 96.9075 44.3453 102.515 44.3453C106.479 44.3453 109.911 46.6181 111.583 49.9306C111.618 49.9978 111.636 50.0722 111.636 50.1478C111.636 50.2114 111.624 50.2743 111.599 50.3329C111.575 50.3916 111.539 50.4449 111.494 50.4898C111.449 50.5346 111.396 50.5702 111.337 50.5945C111.278 50.6187 111.216 50.6312 111.152 50.6311H108.908C108.833 50.631 108.76 50.6139 108.694 50.581C108.628 50.548 108.57 50.5002 108.525 50.4413C107.221 48.515 105.017 47.2465 102.514 47.2465C98.5088 47.2465 95.262 50.4938 95.262 54.4995C95.262 58.5046 98.5088 61.7519 102.514 61.7519C105.016 61.7519 107.221 60.4845 108.524 58.5577C108.569 58.4987 108.627 58.451 108.694 58.418C108.76 58.3851 108.833 58.3679 108.908 58.3678ZM117.355 42.3296C117.718 41.9668 117.922 41.4748 117.922 40.9618C117.922 40.4487 117.718 39.9567 117.355 39.5939C116.992 39.2311 116.5 39.0273 115.987 39.0273C115.474 39.0273 114.982 39.2311 114.619 39.5939C114.257 39.9567 114.053 40.4487 114.053 40.9618C114.053 41.4748 114.257 41.9668 114.619 42.3296C114.982 42.6924 115.474 42.8962 115.987 42.8962C116.5 42.8962 116.992 42.6924 117.355 42.3296ZM117.438 44.8291V63.6866C117.438 63.75 117.426 63.8129 117.402 63.8715C117.377 63.9301 117.342 63.9833 117.297 64.0281C117.252 64.073 117.199 64.1085 117.14 64.1328C117.081 64.157 117.019 64.1694 116.955 64.1694H115.02C114.892 64.1692 114.769 64.1182 114.679 64.0276C114.588 63.937 114.537 63.8142 114.537 63.6861V44.8291H117.438ZM123.24 48.0291C124.754 45.894 127.091 44.4957 130.017 44.3579C130.144 44.36 130.265 44.4117 130.354 44.502C130.443 44.5923 130.493 44.7139 130.493 44.8406V46.779C130.493 46.8427 130.48 46.9057 130.456 46.9645C130.432 47.0234 130.396 47.0768 130.351 47.1219C130.306 47.1669 130.253 47.2026 130.194 47.227C130.135 47.2514 130.072 47.2639 130.008 47.2639C126.23 47.5132 123.24 50.6569 123.24 54.5V63.6861C123.24 63.7496 123.227 63.8124 123.203 63.8711C123.179 63.9298 123.143 63.9831 123.098 64.028C123.054 64.0728 123 64.1084 122.942 64.1327C122.883 64.157 122.82 64.1694 122.757 64.1694H120.822C120.555 64.1694 120.339 63.9532 120.339 63.6861V45.3124C120.339 45.1842 120.39 45.0614 120.481 44.9708C120.571 44.8802 120.694 44.8292 120.822 44.8291H122.757C122.885 44.8292 123.008 44.8802 123.098 44.9708C123.189 45.0614 123.24 45.1842 123.24 45.3124V48.0291ZM147.039 58.3678H149.284C149.347 58.3678 149.41 58.3802 149.469 58.4045C149.527 58.4287 149.581 58.4643 149.626 58.5092C149.671 58.5541 149.706 58.6074 149.731 58.666C149.755 58.7247 149.768 58.7876 149.768 58.8511C149.767 58.9267 149.749 59.0011 149.714 59.0683C148.042 62.3808 144.611 64.6537 140.647 64.6537C135.039 64.6537 130.493 60.1069 130.493 54.4995C130.493 48.8915 135.039 44.3453 140.647 44.3453C144.611 44.3453 148.042 46.6181 149.714 49.9306C149.749 49.9977 149.768 50.0722 149.768 50.1478C149.768 50.2114 149.755 50.2743 149.731 50.3329C149.706 50.3916 149.671 50.4449 149.626 50.4898C149.581 50.5346 149.527 50.5702 149.469 50.5945C149.41 50.6187 149.347 50.6312 149.284 50.6311H147.039C146.965 50.6311 146.892 50.6139 146.825 50.581C146.759 50.5481 146.701 50.5003 146.656 50.4413C145.352 48.515 143.148 47.2465 140.646 47.2465C136.64 47.2465 133.394 50.4938 133.394 54.4995C133.394 58.5046 136.64 61.7519 140.646 61.7519C143.148 61.7519 145.352 60.4845 146.656 58.5577C146.701 58.4987 146.759 58.4508 146.825 58.4179C146.892 58.3849 146.965 58.3678 147.039 58.3678ZM153.151 38.5438H155.086C155.214 38.5438 155.337 38.5947 155.427 38.6853C155.518 38.7759 155.569 38.8988 155.569 39.027V63.6866C155.569 63.8148 155.518 63.9377 155.427 64.0284C155.337 64.119 155.214 64.1699 155.086 64.1699H153.151C152.884 64.1699 152.668 63.9537 152.668 63.6866V39.027C152.668 38.8989 152.719 38.7761 152.81 38.6855C152.9 38.5949 153.023 38.5439 153.151 38.5438ZM158.471 54.5C158.471 48.892 163.017 44.3458 168.625 44.3458C174.232 44.3458 178.778 48.892 178.778 54.5005C178.778 54.6704 178.773 54.8402 178.764 55.0085C178.758 55.1322 178.704 55.2488 178.615 55.3342C178.525 55.4196 178.406 55.4674 178.282 55.4676H161.438C161.911 59.0152 164.947 61.7529 168.625 61.7529C171.122 61.7529 173.324 60.4887 174.628 58.5677C174.672 58.506 174.731 58.4557 174.799 58.421C174.866 58.3864 174.941 58.3683 175.017 58.3684H177.261C177.344 58.3677 177.426 58.3883 177.498 58.4284C177.57 58.4685 177.631 58.5265 177.674 58.597C177.718 58.6675 177.742 58.7479 177.745 58.8306C177.748 58.9133 177.73 58.9953 177.692 59.0688C176.02 62.3814 172.589 64.6542 168.625 64.6542C163.017 64.6542 158.471 60.1075 158.471 54.5ZM168.625 47.2471C165.289 47.2471 162.482 49.4999 161.635 52.5658H175.615C174.768 49.4999 171.961 47.2471 168.625 47.2471ZM204.811 38.9102C205.355 38.3661 206.093 38.0605 206.863 38.0605C207.632 38.0605 208.37 38.3661 208.914 38.9102C209.458 39.4543 209.764 40.1923 209.764 40.9618C209.764 41.7312 209.458 42.4692 208.914 43.0133C208.37 43.5574 207.632 43.863 206.863 43.863C206.093 43.863 205.355 43.5574 204.811 43.0133C204.267 42.4692 203.961 41.7312 203.961 40.9618C203.961 40.1923 204.267 39.4543 204.811 38.9102ZM209.281 63.6861V44.8291H204.446V63.6861C204.446 63.7496 204.458 63.8124 204.482 63.8711C204.507 63.9298 204.542 63.9831 204.587 64.028C204.632 64.0728 204.685 64.1084 204.744 64.1327C204.803 64.157 204.865 64.1694 204.929 64.1694H208.797C208.925 64.1692 209.048 64.1182 209.139 64.0276C209.23 63.937 209.28 63.8142 209.281 63.6861ZM201.67 57.0163C200.549 61.4064 196.573 64.6542 191.832 64.6542C186.226 64.6542 181.679 60.108 181.679 54.5C181.679 48.8925 186.226 44.3458 191.832 44.3458C196.573 44.3458 200.551 47.5941 201.67 51.9852C201.677 52.017 201.681 52.0495 201.682 52.082C201.682 52.2102 201.631 52.3332 201.54 52.4239C201.449 52.5146 201.327 52.5657 201.198 52.5658H197.106C197.013 52.5655 196.923 52.5387 196.845 52.4886C196.768 52.4384 196.706 52.367 196.667 52.2829L196.666 52.2839C196.242 51.3583 195.561 50.5739 194.704 50.0239C193.847 49.474 192.851 49.1817 191.832 49.1818C188.896 49.1818 186.514 51.5624 186.514 54.5C186.514 57.4376 188.896 59.8182 191.832 59.8182C193.979 59.8182 195.825 58.5461 196.666 56.7161L196.667 56.7166C196.706 56.6325 196.768 56.5612 196.845 56.5111C196.923 56.4611 197.014 56.4344 197.106 56.4342H201.198C201.327 56.4343 201.449 56.4854 201.54 56.5761C201.631 56.6668 201.682 56.7898 201.682 56.918C201.681 56.9511 201.677 56.9841 201.67 57.0163ZM71.9366 54.4999C71.9366 56.6698 70.1776 58.4288 68.0078 58.4288C65.8379 58.4288 64.0789 56.6698 64.0789 54.4999C64.0789 52.3301 65.8379 50.5711 68.0078 50.5711C70.1776 50.5711 71.9366 52.3301 71.9366 54.4999Z" fill="#161616"/>
</svg>
