<svg width="114" height="24" viewBox="0 0 114 24" fill="none" xmlns="http://www.w3.org/2000/svg">
<path fill-rule="evenodd" clip-rule="evenodd" d="M0.958074 8.86842C2.27147 3.7686 6.90096 -0.00012207 12.4105 -0.00012207C18.9413 -0.00012207 24.2352 5.29417 24.2352 11.8246C24.2352 18.355 18.9413 23.6493 12.4105 23.6493C6.90096 23.6493 2.27147 19.8806 0.958074 14.7808C0.946391 14.7359 0.938477 14.6888 0.938477 14.6402C0.938477 14.3293 1.1906 14.0772 1.5019 14.0772H6.2697C6.37736 14.0773 6.48271 14.1084 6.57318 14.1667C6.66366 14.225 6.73545 14.3082 6.77999 14.4062C6.77999 14.4062 6.78715 14.4194 6.78979 14.4262C7.77305 16.5468 9.91933 18.0185 12.4105 18.0185C15.8313 18.0185 18.604 15.2458 18.604 11.8246C18.604 8.40337 15.8306 5.63072 12.4097 5.63072C9.91858 5.63072 7.77191 7.1024 6.78903 9.22344C6.78677 9.22985 6.77961 9.24304 6.77961 9.24304C6.69067 9.43713 6.49658 9.57204 6.26933 9.57204H1.50152C1.1906 9.57204 0.938477 9.31992 0.938477 9.009C0.938477 8.96038 0.946768 8.91327 0.958074 8.86842ZM41.7213 14.5965H43.3298C43.3753 14.5964 43.4204 14.6054 43.4625 14.6227C43.5046 14.6401 43.5428 14.6656 43.575 14.6978C43.6073 14.7299 43.6329 14.7681 43.6503 14.8102C43.6678 14.8522 43.6768 14.8973 43.6769 14.9428C43.6765 14.997 43.6633 15.0504 43.6384 15.0985C42.4403 17.4724 39.9809 19.1012 37.14 19.1012C33.1214 19.1012 29.863 15.8428 29.863 11.8242C29.863 7.80527 33.1214 4.54721 37.14 4.54721C39.9809 4.54721 42.4403 6.17605 43.6388 8.54997C43.6636 8.59812 43.6766 8.65145 43.6769 8.70562C43.6768 8.75115 43.6678 8.79622 43.6503 8.83827C43.6329 8.88032 43.6073 8.91851 43.575 8.95068C43.5428 8.98284 43.5046 9.00833 43.4625 9.02571C43.4204 9.04309 43.3753 9.05201 43.3298 9.05196H41.7213C41.6682 9.05192 41.6158 9.03962 41.5682 9.01602C41.5206 8.99243 41.4791 8.95817 41.4469 8.91591C40.5123 7.53543 38.9328 6.62641 37.1396 6.62641C34.269 6.62641 31.9422 8.9536 31.9422 11.8242C31.9422 14.6945 34.269 17.0217 37.1396 17.0217C38.9324 17.0217 40.5123 16.1134 41.4465 14.7325C41.4788 14.6903 41.5204 14.6561 41.568 14.6325C41.6157 14.6089 41.6681 14.5966 41.7213 14.5965ZM47.7752 3.1027C48.0352 2.84271 48.1812 2.4901 48.1812 2.12242C48.1812 1.75474 48.0352 1.40213 47.7752 1.14214C47.5152 0.882155 47.1626 0.736097 46.7949 0.736097C46.4272 0.736097 46.0746 0.882155 45.8146 1.14214C45.5546 1.40213 45.4086 1.75474 45.4086 2.12242C45.4086 2.4901 45.5546 2.84271 45.8146 3.1027C46.0746 3.36268 46.4272 3.50874 46.7949 3.50874C47.1626 3.50874 47.5152 3.36268 47.7752 3.1027ZM47.8349 4.89394V18.4082C47.8349 18.4536 47.8259 18.4987 47.8085 18.5407C47.7911 18.5827 47.7656 18.6208 47.7334 18.653C47.7013 18.6851 47.6631 18.7106 47.6211 18.7279C47.579 18.7453 47.534 18.7542 47.4885 18.7541H46.102C46.0102 18.754 45.9222 18.7175 45.8572 18.6526C45.7923 18.5877 45.7558 18.4996 45.7557 18.4078V4.89394H47.8349ZM51.9925 7.1872C53.0776 5.6571 54.7524 4.655 56.8493 4.55626C56.9401 4.55774 57.0268 4.59482 57.0905 4.65952C57.1543 4.72422 57.1902 4.81137 57.1903 4.90223V6.29138C57.1904 6.33699 57.1815 6.38216 57.164 6.42432C57.1466 6.46648 57.1211 6.50478 57.0888 6.53705C57.0566 6.56933 57.0183 6.59493 56.9762 6.61239C56.934 6.62986 56.8889 6.63885 56.8433 6.63885C54.1354 6.81749 51.9925 9.07043 51.9925 11.8246V18.4078C51.9926 18.4533 51.9837 18.4984 51.9663 18.5404C51.9489 18.5824 51.9234 18.6206 51.8912 18.6528C51.859 18.685 51.8208 18.7105 51.7788 18.7279C51.7368 18.7453 51.6917 18.7542 51.6462 18.7541H50.2601C50.0682 18.7541 49.9137 18.5993 49.9137 18.4078V5.24028C49.9138 5.14845 49.9503 5.06042 50.0153 4.99549C50.0802 4.93056 50.1682 4.89403 50.2601 4.89394H51.6462C51.738 4.89403 51.826 4.93056 51.891 4.99549C51.9559 5.06042 51.9924 5.14845 51.9925 5.24028V7.1872ZM69.0482 14.5965H70.6567C70.7023 14.5964 70.7474 14.6054 70.7894 14.6227C70.8315 14.6401 70.8698 14.6656 70.902 14.6978C70.9342 14.7299 70.9598 14.7681 70.9773 14.8102C70.9948 14.8522 71.0038 14.8973 71.0038 14.9428C71.0034 14.997 70.9903 15.0504 70.9654 15.0985C69.7673 17.4724 67.3079 19.1012 64.4674 19.1012C60.4484 19.1012 57.1903 15.8428 57.1903 11.8242C57.1903 7.80527 60.4484 4.54721 64.4674 4.54721C67.3079 4.54721 69.7673 6.17605 70.9654 8.54997C70.9905 8.59802 71.0037 8.6514 71.0038 8.70562C71.0038 8.75115 70.9948 8.79622 70.9773 8.83827C70.9598 8.88032 70.9342 8.91851 70.902 8.95068C70.8698 8.98284 70.8315 9.00833 70.7894 9.02571C70.7474 9.04309 70.7023 9.05201 70.6567 9.05196H69.0482C68.9951 9.05195 68.9426 9.03967 68.895 9.01607C68.8473 8.99247 68.8057 8.9582 68.7735 8.91591C67.8392 7.53543 66.2594 6.62641 64.467 6.62641C61.596 6.62641 59.2692 8.9536 59.2692 11.8242C59.2692 14.6945 61.596 17.0217 64.467 17.0217C66.2594 17.0217 67.8392 16.1134 68.7735 14.7325C68.8057 14.6902 68.8473 14.656 68.8949 14.6324C68.9426 14.6088 68.9951 14.5965 69.0482 14.5965ZM73.4286 0.389564H74.8148C74.9066 0.389563 74.9948 0.426041 75.0598 0.490983C75.1248 0.555924 75.1614 0.644017 75.1615 0.735908V18.4082C75.1614 18.5001 75.1248 18.5882 75.0598 18.6531C74.9948 18.718 74.9066 18.7545 74.8148 18.7545H73.4286C73.2372 18.7545 73.0823 18.5996 73.0823 18.4082V0.735908C73.0824 0.644082 73.1189 0.556046 73.1838 0.491116C73.2488 0.426185 73.3368 0.389663 73.4286 0.389564ZM77.2407 11.8246C77.2407 7.80565 80.4987 4.54759 84.5177 4.54759C88.5363 4.54759 91.794 7.80565 91.794 11.825C91.794 11.9467 91.7902 12.0684 91.7842 12.189C91.7796 12.2777 91.7413 12.3612 91.677 12.4225C91.6127 12.4837 91.5273 12.5179 91.4386 12.5181H79.367C79.7062 15.0604 81.8822 17.0224 84.5177 17.0224C86.3075 17.0224 87.885 16.1164 88.8197 14.7397C88.8516 14.6955 88.8935 14.6595 88.9421 14.6346C88.9907 14.6098 89.0444 14.5968 89.099 14.5969H90.7071C90.7663 14.5964 90.8248 14.6112 90.8766 14.6399C90.9285 14.6686 90.9721 14.7102 91.0031 14.7607C91.0342 14.8112 91.0517 14.8689 91.0539 14.9281C91.0561 14.9874 91.0429 15.0462 91.0157 15.0989C89.8173 17.4728 87.3586 19.1016 84.5177 19.1016C80.4987 19.1016 77.2407 15.8432 77.2407 11.8246ZM84.5177 6.62679C82.1272 6.62679 80.1151 8.24131 79.5083 10.4385H89.5271C88.9199 8.24131 86.9082 6.62679 84.5177 6.62679ZM110.451 0.652202C110.84 0.262276 111.369 0.0432181 111.921 0.0432181C112.472 0.0432181 113.001 0.262276 113.391 0.652202C113.781 1.04213 114 1.57098 114 2.12242C114 2.67386 113.781 3.20271 113.391 3.59264C113.001 3.98256 112.472 4.20162 111.921 4.20162C111.369 4.20162 110.84 3.98256 110.451 3.59264C110.061 3.20271 109.842 2.67386 109.842 2.12242C109.842 1.57098 110.061 1.04213 110.451 0.652202ZM113.654 18.4078V4.89394H110.189V18.4078C110.189 18.4533 110.198 18.4984 110.215 18.5404C110.232 18.5824 110.258 18.6206 110.29 18.6528C110.322 18.685 110.36 18.7105 110.402 18.7279C110.444 18.7453 110.49 18.7542 110.535 18.7541H113.307C113.399 18.754 113.487 18.7175 113.552 18.6526C113.617 18.5877 113.654 18.4996 113.654 18.4078ZM108.199 13.6279C107.396 16.7741 104.547 19.1016 101.149 19.1016C97.1316 19.1016 93.8732 15.8436 93.8728 11.8246C93.8728 7.80602 97.1316 4.54759 101.149 4.54759C104.547 4.54759 107.398 6.87553 108.2 10.0224C108.205 10.0452 108.207 10.0684 108.208 10.0918C108.208 10.1836 108.171 10.2718 108.106 10.3368C108.041 10.4018 107.953 10.4384 107.862 10.4385H104.929C104.862 10.4383 104.798 10.419 104.742 10.3831C104.686 10.3472 104.642 10.296 104.614 10.2357L104.614 10.2365C104.31 9.57309 103.822 9.01094 103.208 8.61683C102.593 8.22273 101.879 8.01325 101.149 8.0133C99.045 8.0133 97.3381 9.7194 97.3381 11.8246C97.3381 13.9298 99.045 15.6359 101.149 15.6359C102.688 15.6359 104.011 14.7243 104.614 13.4127L104.614 13.4131C104.642 13.3529 104.686 13.3018 104.742 13.2659C104.798 13.23 104.862 13.2109 104.929 13.2107H107.862C107.953 13.2108 108.041 13.2474 108.106 13.3124C108.171 13.3774 108.208 13.4656 108.208 13.5575C108.208 13.5812 108.205 13.6049 108.199 13.6279ZM15.2259 11.8609C15.2259 13.4159 13.9653 14.6765 12.4103 14.6765C10.8553 14.6765 9.59469 13.4159 9.59469 11.8609C9.59469 10.3059 10.8553 9.04528 12.4103 9.04528C13.9653 9.04528 15.2259 10.3059 15.2259 11.8609Z" fill="#161616"/>
</svg>
