<svg width="146" height="27" viewBox="0 0 146 27" fill="none" xmlns="http://www.w3.org/2000/svg">
<path d="M13.4733 0H5.92221L5.90775 0.0262543L4.86561 1.9246H13.4733C19.8493 1.9246 25.0214 7.09508 25.0214 13.4733C25.0214 19.8514 19.8509 25.0219 13.4733 25.0219C7.09562 25.0219 1.9246 19.8509 1.9246 13.4733C1.92408 12.2668 2.11301 11.0677 2.48451 9.91983H4.68933C3.12636 13.7822 4.26976 18.2123 7.50671 20.8358C10.7437 23.4593 15.3145 23.6605 18.7695 21.3315C22.2244 19.0026 23.7526 14.6901 22.5351 10.7053C21.3175 6.72061 17.6399 3.99879 13.4733 3.99869H3.72757L2.67151 5.92275H13.4733C16.8665 5.92344 19.8423 8.18792 20.7476 11.4582C21.6528 14.7284 20.265 18.2008 17.3551 19.9462C14.4453 21.6917 10.7284 21.2813 8.26943 18.943C5.81047 16.6048 5.21367 12.9133 6.81057 9.91929H9.30848C7.64118 11.8766 7.56053 14.7304 9.11462 16.7787C10.6687 18.827 13.4388 19.5179 15.7728 18.4393C18.1068 17.3608 19.3758 14.8034 18.8229 12.2924C18.2701 9.78134 16.0444 7.99333 13.4733 7.99469H1.53346L0.476863 9.91983C0.160588 11.0778 0.000218791 12.2728 0 13.4733C0 20.9139 6.03205 26.9465 13.4733 26.9465C20.9145 26.9465 26.9465 20.9139 26.9465 13.4733C26.9465 6.03259 20.9139 0 13.4733 0ZM13.4733 9.91983C15.4358 9.91983 17.0267 11.5108 17.0267 13.4733C17.0267 15.4358 15.4358 17.0267 13.4733 17.0267C11.5108 17.0267 9.91983 15.4358 9.91983 13.4733C9.91983 11.5108 11.5108 9.91983 13.4733 9.91983ZM32.8687 13.7578C32.8687 10.0147 35.38 7.38495 39.1462 7.38495C41.4678 7.38495 43.3629 8.40297 44.3579 10.1095L42.1788 11.6494C41.4914 10.559 40.4493 10.0382 39.2175 10.0382C37.1814 10.0382 35.8301 11.4849 35.8301 13.7578C35.8301 16.0081 37.1803 17.4768 39.2175 17.4768C40.4498 17.4768 41.4914 16.9319 42.1788 15.842L44.3579 17.3819C43.3629 19.1115 41.4678 20.1065 39.1462 20.1065C35.38 20.1065 32.8687 17.4768 32.8687 13.7578ZM44.7673 13.7578C44.7673 10.2515 47.255 7.38495 51.1165 7.38495C55.0016 7.38495 57.4652 10.2515 57.4652 13.7578C57.4652 17.2405 55.0006 20.1065 51.1165 20.1065C47.2577 20.1065 44.7673 17.2399 44.7673 13.7578ZM54.5039 13.7578C54.5039 11.5546 53.2008 10.0147 51.1165 10.0147C49.0323 10.0147 47.7287 11.5546 47.7287 13.7578C47.7287 15.9369 49.0317 17.4768 51.1165 17.4768C53.2013 17.4768 54.5039 15.9369 54.5039 13.7578ZM76.4358 7.71554L72.7388 19.7738H69.6172L67.0041 11.269L64.368 19.7738H61.2421L57.5665 7.71554H60.4341L62.9315 16.4095L65.6137 7.71554H68.3886L71.0714 16.4095L73.5452 7.71554H76.4358ZM117.046 7.71554L113.346 19.7738H110.225L107.611 11.269L104.975 19.7738H101.856L98.1792 7.71822H101.047L103.544 16.4121L106.224 7.71554H108.999L111.681 16.4095L114.156 7.71554H117.046ZM85.0853 7.66946V10.3699C84.6466 10.2972 84.2032 10.2576 83.7586 10.2515C81.6502 10.2515 80.5368 11.3177 80.5368 13.8285V19.7759H77.6483V7.71554H80.4881V9.73015C81.0807 8.33278 82.3832 7.50336 84.0415 7.50336C84.3965 7.49643 84.7499 7.55268 85.0853 7.66946ZM97.076 7.71554V18.5655C97.076 22.6167 94.8256 24.843 90.8451 24.843C88.7844 24.843 86.8893 24.2273 85.7518 23.1611L87.0549 21.0527C88.0729 21.8564 89.4001 22.2609 90.6796 22.2609C92.9064 22.2609 94.233 21.0056 94.233 18.5639V17.5239C93.5461 18.8506 92.0775 19.6559 90.3002 19.6559C87.7418 19.6559 86.1312 18.0453 86.1312 15.1075V7.71554H89.0213V14.3734C89.0213 16.2214 89.7794 17.0267 91.2952 17.0267C93.0484 17.0267 94.2094 15.961 94.2094 14.2073V7.71554H97.076ZM117.807 3.90278C117.807 2.86011 118.541 2.10195 119.655 2.10195C120.744 2.10195 121.476 2.86011 121.476 3.90278C121.476 4.94545 120.742 5.70307 119.655 5.70307C118.541 5.70307 117.807 4.94491 117.807 3.90278ZM118.21 7.71661H121.1V19.7748H118.21V7.71661ZM122.554 17.8084L124.117 15.984C125.065 17.0267 126.534 17.6423 128.074 17.6423C129.447 17.6423 130.206 17.1215 130.206 16.3634C130.206 15.7236 129.731 15.3212 128.524 15.0367L126.557 14.5867C124.046 13.9946 122.98 12.8335 122.98 11.1752C122.98 8.94842 124.828 7.38495 127.955 7.38495C130.087 7.38495 131.864 8.119 132.906 9.30419L131.366 11.1752C130.324 10.2751 129.139 9.84857 127.883 9.84857C126.533 9.84857 125.87 10.3463 125.87 11.0809C125.87 11.6494 126.272 12.0046 127.552 12.2886L129.637 12.7864C132.171 13.3549 133.095 14.5154 133.095 16.1737C133.095 18.5666 131.247 20.1065 128.05 20.1065C125.657 20.1065 123.644 19.2063 122.554 17.8084ZM145.93 14.6102H136.951C137.259 16.553 138.538 17.5952 140.504 17.5952C141.855 17.5952 142.991 17.098 143.868 16.0789L145.598 17.7849C144.461 19.2535 142.636 20.1065 140.409 20.1065C136.572 20.1065 134.013 17.5952 134.013 13.8049C134.013 10.0618 136.478 7.38495 140.125 7.38495C143.631 7.38495 146 9.82499 146 13.4968C146 13.869 145.976 14.2409 145.93 14.6102ZM136.951 12.6449H143.113C142.971 10.8677 141.88 9.89679 140.152 9.89679C138.373 9.89625 137.26 10.9148 136.951 12.6449Z" fill="#0066F5"/>
</svg>
