<svg width="92" height="37" viewBox="0 0 92 37" fill="none" xmlns="http://www.w3.org/2000/svg">
<path fill-rule="evenodd" clip-rule="evenodd" d="M0 12.909C0 8.60596 3.11444 5.55322 7.45051 5.55322C10.3335 5.55322 12.0807 6.80209 13.012 8.08156L10.5951 10.351C9.92632 9.36197 8.90829 8.83804 7.62584 8.83804C5.38664 8.83804 3.81434 10.4668 3.81434 12.909C3.81434 15.3516 5.38664 17.0082 7.62584 17.0082C8.90829 17.0082 9.92632 16.4278 10.5951 15.4957L13.012 17.7364C12.0807 19.0432 10.3335 20.2949 7.45051 20.2949C3.11444 20.2949 0 17.2412 0 12.909Z" fill="white"/>
<path fill-rule="evenodd" clip-rule="evenodd" d="M14.8457 19.9446V5.9011H18.5427V7.82077C19.531 6.5719 21.2796 5.55322 23.0249 5.55322V9.15767C22.7623 9.0993 22.414 9.07246 22.0049 9.07246C20.7842 9.07246 19.1526 9.7701 18.5427 10.6692V19.9446H14.8457Z" fill="white"/>
<path fill-rule="evenodd" clip-rule="evenodd" d="M30.8757 8.48969C28.5776 8.48969 27.5874 10.2036 27.4102 11.5994H34.3413C34.2536 10.2634 33.3204 8.48969 30.8757 8.48969ZM23.5996 12.909C23.5996 8.83804 26.5972 5.55322 30.8757 5.55322C35.0681 5.55322 37.9219 8.69352 37.9219 13.286V14.1014H27.4705C27.7024 15.8737 29.1309 17.357 31.5163 17.357C32.711 17.357 34.3686 16.8335 35.2726 15.9617L36.9015 18.3451C35.505 19.6255 33.2926 20.2949 31.11 20.2949C26.83 20.2949 23.5996 17.4163 23.5996 12.909Z" fill="white"/>
<path fill-rule="evenodd" clip-rule="evenodd" d="M49.6791 15.4083V10.4364C49.0697 9.50712 47.7284 8.8382 46.4785 8.8382C44.3816 8.8382 42.9252 10.4952 42.9252 12.9365C42.9252 15.3513 44.3816 17.0079 46.4785 17.0079C47.7284 17.0079 49.0697 16.3404 49.6791 15.4083ZM49.6791 19.9448V18.1424C48.5734 19.539 47.0299 20.295 45.3421 20.295C41.7908 20.295 39.1123 17.6175 39.1123 12.9365C39.1123 8.3444 41.7634 5.55292 45.3421 5.55292C47.003 5.55292 48.5734 6.28021 49.6791 7.7042V0.552734H53.4035V19.9448H49.6791Z" fill="white"/>
<path fill-rule="evenodd" clip-rule="evenodd" d="M56.4907 5.90118H60.1886V19.9447H56.4907V5.90118ZM56.1104 2.17952C56.1104 0.958895 57.1312 0 58.3246 0C59.5486 0 60.5364 0.958895 60.5364 2.17952C60.5364 3.40156 59.5486 4.38964 58.3246 4.38964C57.1312 4.38964 56.1104 3.40156 56.1104 2.17952Z" fill="white"/>
<path fill-rule="evenodd" clip-rule="evenodd" d="M64.5836 16.4568V9.12879H62.2549V5.90094H64.5836V2.06348H68.308V5.90094H71.1608V9.12879H68.308V15.4678C68.308 16.34 68.7764 17.008 69.5904 17.008C70.1418 17.008 70.6664 16.8042 70.8728 16.6013L71.6571 19.3909C71.1038 19.8871 70.114 20.2947 68.5705 20.2947C65.982 20.2947 64.5836 18.9555 64.5836 16.4568Z" fill="white"/>
<path fill-rule="evenodd" clip-rule="evenodd" d="M46.5068 35.9884L43.5389 26.423L40.5692 35.9884H36.612L32.332 21.9463H36.1751L38.7947 31.395L41.8794 21.9463H45.1692L48.2539 31.395L50.8749 21.9463H54.7152L50.4385 35.9884H46.5068Z" fill="white"/>
<path fill-rule="evenodd" clip-rule="evenodd" d="M56.5498 21.9463H60.2477V35.9884H56.5498V21.9463Z" fill="white"/>
<path fill-rule="evenodd" clip-rule="evenodd" d="M62.2314 34.1579L63.833 31.5703C64.8524 32.5306 66.9483 33.49 68.6936 33.49C70.2942 33.49 71.0511 32.8498 71.0511 31.977C71.0511 29.652 62.6962 31.5402 62.6962 26.0175C62.6962 23.6624 64.7638 21.5986 68.4617 21.5986C70.8456 21.5986 72.7413 22.4116 74.1378 23.5174L72.6517 26.0462C71.8076 25.1452 70.207 24.4188 68.49 24.4188C67.1501 24.4188 66.2791 25.0289 66.2791 25.8122C66.2791 27.9056 74.6025 26.162 74.6025 31.832C74.6025 34.3914 72.4189 36.3389 68.5197 36.3389C66.0745 36.3389 63.7161 35.5231 62.2314 34.1579Z" fill="white"/>
<path fill-rule="evenodd" clip-rule="evenodd" d="M82.7844 24.5346C80.4839 24.5346 79.4951 26.251 79.3193 27.6448H86.2485C86.159 26.3065 85.2291 24.5346 82.7844 24.5346ZM75.5068 28.9525C75.5068 24.8839 78.502 21.5991 82.7844 21.5991C86.9748 21.5991 89.8272 24.7389 89.8272 29.331V30.1459H79.3763C79.6106 31.9196 81.0382 33.4015 83.4249 33.4015C84.6192 33.4015 86.2778 32.8794 87.178 32.0067L88.8082 34.3914C87.4117 35.6714 85.198 36.3389 83.0172 36.3389C78.7377 36.3389 75.5068 33.4603 75.5068 28.9525Z" fill="white"/>
<path fill-rule="evenodd" clip-rule="evenodd" d="M91.0232 22.6617C91.0232 22.5788 90.9945 22.511 90.9356 22.4564C90.8776 22.4023 90.8116 22.3759 90.7386 22.3759H90.3144V22.9338H90.7386C90.8116 22.9338 90.8776 22.9088 90.9356 22.8566C90.9945 22.8038 91.0232 22.7398 91.0232 22.6617ZM91.2716 23.7585H90.9983L90.5878 23.1352H90.3144V23.7585H90.0933V22.1801H90.7386C90.8776 22.1801 90.9973 22.2248 91.0996 22.3143C91.2009 22.4023 91.2514 22.519 91.2514 22.6617C91.2514 22.8123 91.2038 22.9291 91.1052 23.0091C91.0077 23.0882 90.9229 23.1296 90.8484 23.1296L91.2716 23.7585ZM91.791 22.9667C91.791 22.6414 91.676 22.3656 91.4455 22.1387C91.2165 21.9113 90.9412 21.7974 90.6203 21.7974C90.2951 21.7974 90.0189 21.9113 89.7926 22.1387C89.5641 22.3656 89.45 22.6414 89.45 22.9667C89.45 23.2868 89.5641 23.5627 89.7926 23.7915C90.0189 24.0216 90.2951 24.1365 90.6203 24.1365C90.9412 24.1365 91.2165 24.0216 91.4455 23.7915C91.676 23.5627 91.791 23.2868 91.791 22.9667ZM91.9998 22.9667C91.9998 23.3475 91.8655 23.6728 91.5968 23.9416C91.3277 24.2099 91.003 24.3441 90.6203 24.3441C90.2399 24.3441 89.9138 24.2099 89.6451 23.9416C89.3755 23.6728 89.2412 23.3475 89.2412 22.9667C89.2412 22.5854 89.3755 22.2606 89.6451 21.9918C89.9138 21.724 90.2399 21.5889 90.6203 21.5889C91.0077 21.5889 91.3334 21.7221 91.5997 21.9885C91.8655 22.2554 91.9998 22.5817 91.9998 22.9667Z" fill="#004977"/>
<mask id="mask0_1946:188" style="mask-type:alpha" maskUnits="userSpaceOnUse" x="1" y="21" width="33" height="15">
<path d="M1.50391 35.3426H33.1383V21.1572H1.50391" fill="white"/>
</mask>
<g mask="url(#mask0_1946:188)">
<path fill-rule="evenodd" clip-rule="evenodd" d="M29.6033 38.7065C29.5878 45.453 24.0744 50.9094 17.2871 50.8949C10.5002 50.8799 5.01083 45.3983 5.02542 38.6522C5.04142 31.9043 10.5548 26.4475 17.3417 26.4619C24.1285 26.4774 29.6184 31.9585 29.6033 38.7065Z" fill="#D03027"/>
</g>
<mask id="mask1_1946:188" style="mask-type:alpha" maskUnits="userSpaceOnUse" x="1" y="21" width="33" height="15">
<path d="M1.50391 35.3426H33.1383V21.1572H1.50391V35.3426Z" fill="white"/>
</mask>
<g mask="url(#mask1_1946:188)">
<path fill-rule="evenodd" clip-rule="evenodd" d="M17.2485 23.7386C16.9153 23.7386 16.6452 23.4702 16.6452 23.1393C16.6452 22.8084 16.9153 22.54 17.2485 22.54H17.2979C17.648 22.5391 17.9068 22.7943 17.9144 23.1253C17.9214 23.4562 17.6574 23.7301 17.3247 23.7376L17.2485 23.7386ZM19.8221 23.9386C19.7915 23.9386 19.76 23.9363 19.7289 23.9311L19.6668 23.9218C19.3374 23.8704 19.112 23.5647 19.1633 23.2375C19.2146 22.9107 19.5224 22.6835 19.8522 22.7373L19.9144 22.7471C20.2433 22.7981 20.4687 23.1042 20.4174 23.4314C20.3713 23.7273 20.1144 23.9386 19.8221 23.9386ZM14.7388 23.9489C14.4461 23.9489 14.1897 23.7376 14.1431 23.4417C14.0918 23.1145 14.3172 22.8088 14.6466 22.7574L14.696 22.7499C15.024 22.6915 15.3369 22.9093 15.3953 23.2347C15.4537 23.5605 15.2348 23.8713 14.9068 23.9293L14.832 23.9419C14.8005 23.9466 14.7694 23.9489 14.7388 23.9489ZM22.2664 24.5374C22.2009 24.5374 22.1346 24.5271 22.0697 24.5047L22.0198 24.4883C21.7031 24.386 21.5299 24.0475 21.6329 23.7329C21.7365 23.4174 22.0772 23.2463 22.3934 23.3487L22.4631 23.3716C22.7779 23.4796 22.9449 23.8208 22.8367 24.1335C22.7501 24.3813 22.5162 24.5374 22.2664 24.5374ZM12.2955 24.5542C12.0461 24.5542 11.8127 24.3995 11.7261 24.1522C11.6165 23.84 11.7826 23.4978 12.097 23.3894C12.0993 23.3884 12.1337 23.3768 12.136 23.3763C12.4504 23.2716 12.8057 23.4338 12.9125 23.7465C13.0198 24.0587 12.8659 24.3934 12.552 24.5014L12.328 23.9438L12.4941 24.5206C12.4287 24.5435 12.3614 24.5542 12.2955 24.5542ZM24.5727 25.5181C24.4828 25.5181 24.3911 25.4971 24.3045 25.4522L24.2485 25.4232C23.9529 25.2713 23.8372 24.9095 23.9911 24.6159C24.144 24.3219 24.5082 24.2074 24.8038 24.3598C24.8042 24.3598 24.8325 24.3743 24.8329 24.3747C25.128 24.5276 25.2569 24.8964 25.1031 25.1895C24.9948 25.3966 24.7882 25.5181 24.5727 25.5181ZM9.98166 25.5401C9.76377 25.5401 9.55295 25.4227 9.44566 25.2166C9.29225 24.923 9.40801 24.5612 9.70354 24.4093L9.74636 24.3869C10.0372 24.2275 10.4047 24.3331 10.5652 24.6229C10.7261 24.9132 10.6193 25.2774 10.3275 25.4368L10.2588 25.4727C10.1699 25.5186 10.0753 25.5401 9.98166 25.5401ZM26.7417 26.883C26.6137 26.883 26.4847 26.8423 26.3751 26.7587L26.3332 26.7278L26.6588 26.2216L27.0207 25.742L27.1097 25.8084C27.3737 26.0094 27.4235 26.3856 27.2207 26.6483C27.1021 26.8021 26.9228 26.883 26.7417 26.883ZM7.85742 26.8844C7.67672 26.8844 7.49742 26.804 7.37836 26.6502C7.17601 26.3875 7.22589 26.0112 7.48989 25.8102L7.54872 25.7658C7.81601 25.5681 8.19436 25.6247 8.39248 25.8906C8.5906 26.1571 8.53413 26.5324 8.26636 26.7287L8.22448 26.7605C8.11483 26.8442 7.98542 26.8844 7.85742 26.8844ZM28.6094 28.5391C28.4584 28.5391 28.3082 28.4812 28.1929 28.3629L28.1492 28.3176C27.9167 28.0796 27.9228 27.7006 28.1619 27.4701C28.4005 27.2397 28.7831 27.2457 29.0146 27.4832C29.0155 27.4841 29.0381 27.507 29.0386 27.5075C29.2692 27.7454 29.2729 28.1353 29.0339 28.3648C28.9139 28.4802 28.7609 28.5391 28.6094 28.5391ZM5.97931 28.5527C5.82919 28.5527 5.67954 28.4975 5.56284 28.3863C5.32189 28.1582 5.31295 27.7791 5.5426 27.5398L5.5826 27.4977C5.81036 27.2565 6.19248 27.2443 6.43531 27.471C6.67813 27.6982 6.68989 28.0768 6.46213 28.3185L6.41554 28.3666C6.29695 28.4901 6.13836 28.5527 5.97931 28.5527ZM30.2169 30.4851C30.0268 30.4851 29.84 30.3958 29.7228 30.2303L29.6828 30.1724C29.4946 29.8994 29.5647 29.5264 29.84 29.3394C30.1148 29.1529 30.4899 29.2221 30.6781 29.4955L30.7097 29.5409C30.9012 29.8115 30.8358 30.1854 30.5628 30.3757C30.4574 30.4491 30.3365 30.4851 30.2169 30.4851ZM4.39484 30.4963C4.27672 30.4963 4.15766 30.4617 4.05272 30.3902C3.77884 30.2023 3.70966 29.8293 3.89884 29.5567L3.93601 29.503C4.1266 29.2314 4.50307 29.1655 4.77601 29.3543C5.04942 29.5437 5.11625 29.9171 4.92566 30.1887L4.89178 30.2369C4.77507 30.4056 4.58636 30.4963 4.39484 30.4963ZM31.4711 32.654C31.2438 32.654 31.0259 32.5254 30.9238 32.3071L30.8988 32.2557C30.7562 31.9566 30.8838 31.599 31.1849 31.4573C31.4852 31.3143 31.8456 31.4419 31.9887 31.7406L32.0179 31.8023C32.1581 32.1029 32.0268 32.4586 31.7247 32.5979C31.6424 32.6358 31.5562 32.654 31.4711 32.654ZM3.14166 32.6652C3.05507 32.6652 2.96707 32.6465 2.88331 32.6068C2.58213 32.4647 2.4546 32.1071 2.59766 31.8084L2.62448 31.7523C2.76754 31.4536 3.1266 31.3255 3.42825 31.4686C3.72895 31.6107 3.85695 31.9678 3.7139 32.2669L3.68707 32.323C3.58354 32.5385 3.36754 32.6652 3.14166 32.6652ZM32.3487 34.9856C32.0904 34.9856 31.8546 34.8234 31.7784 34.563L32.3515 34.3742L31.7619 34.506C31.6678 34.1886 31.8499 33.8558 32.1694 33.7613C32.4894 33.6693 32.8245 33.8492 32.9186 34.1666C32.9191 34.168 32.9308 34.2073 32.9313 34.2082C33.0231 34.5261 32.8424 34.8692 32.5224 34.9608C32.464 34.9776 32.4056 34.9856 32.3487 34.9856ZM2.2579 35.0071C2.20331 35.0071 2.14778 35.0001 2.09272 34.9846C1.77225 34.8935 1.58637 34.5625 1.67719 34.2442L1.69743 34.1746C1.7939 33.8576 2.1299 33.6767 2.44942 33.7749C2.76801 33.8703 2.94872 34.2049 2.85225 34.5214L2.83766 34.5719C2.76237 34.835 2.52048 35.0071 2.2579 35.0071ZM32.8565 37.4476C32.5548 37.4476 32.2946 37.2241 32.2584 36.9194L32.2504 36.8586C32.2104 36.5304 32.4452 36.2318 32.7765 36.1916C33.1078 36.1546 33.4075 36.3851 33.448 36.7137L33.4555 36.7773C33.4955 37.1059 33.2593 37.4036 32.9285 37.4429C32.9045 37.4462 32.88 37.4476 32.8565 37.4476ZM1.76566 37.4597C1.74119 37.4597 1.71672 37.4583 1.69178 37.4555C1.36095 37.4153 1.12566 37.1161 1.16613 36.788L1.17366 36.7272C1.21319 36.3986 1.51248 36.1612 1.84425 36.2037C2.1746 36.243 2.41084 36.5412 2.37131 36.8698L2.36378 36.9334C2.32613 37.2372 2.0659 37.4597 1.76566 37.4597ZM32.9562 39.9437C32.9478 39.9437 32.9388 39.9437 32.9299 39.9432C32.5972 39.9287 32.3388 39.6515 32.3534 39.321L32.3558 39.265C32.3666 38.9345 32.656 38.6835 32.9788 38.6863C33.3115 38.697 33.5727 38.9742 33.5619 39.3052L33.5591 39.3683C33.5449 39.6899 33.2776 39.9437 32.9562 39.9437ZM1.67484 39.9596C1.3539 39.9596 1.08707 39.7086 1.07248 39.387L1.06966 39.3178C1.05884 38.9868 1.32001 38.7101 1.65272 38.6994C1.98778 38.6919 2.26448 38.9476 2.27578 39.2785L2.27766 39.3337C2.29272 39.6641 2.03484 39.9441 1.70213 39.9586C1.69272 39.9591 1.68378 39.9596 1.67484 39.9596ZM32.6518 42.43C32.6094 42.43 32.5666 42.4258 32.5238 42.4164C32.1981 42.3468 31.9911 42.028 32.0616 41.7045L32.072 41.6522C32.1379 41.3278 32.4555 41.1197 32.7821 41.1819C33.1087 41.2469 33.3205 41.5629 33.2551 41.8868L33.2405 41.9574C33.1798 42.2379 32.9294 42.43 32.6518 42.43ZM1.98825 42.4412C1.70919 42.4412 1.45837 42.2477 1.3986 41.9653C1.39813 41.9639 1.38919 41.9191 1.38872 41.9177C1.32237 41.5933 1.53131 41.2684 1.85742 41.202C2.18731 41.138 2.50072 41.3362 2.56707 41.6606L1.97978 41.798L2.57884 41.7181C2.64801 42.0415 2.43954 42.3594 2.11342 42.4276C2.07154 42.4365 2.02966 42.4412 1.98825 42.4412ZM31.9473 44.8312C31.8758 44.8312 31.8028 44.8186 31.7318 44.791C31.4207 44.6727 31.2654 44.3264 31.3845 44.0174L31.4047 43.9646C31.5209 43.6547 31.8687 43.4976 32.1802 43.6121C32.4927 43.7276 32.6513 44.0721 32.5351 44.3825L32.5111 44.4465C32.4188 44.6849 32.1901 44.8312 31.9473 44.8312ZM2.69742 44.842C2.4546 44.842 2.2259 44.6956 2.13366 44.4573C2.13319 44.4563 2.12048 44.4217 2.12001 44.4208C2.00237 44.1113 2.15437 43.7538 2.46542 43.6364C2.77648 43.5205 3.12001 43.6621 3.2386 43.9711L2.68425 44.2095L3.26025 44.0281C3.37931 44.3371 3.22401 44.684 2.91295 44.8022C2.8419 44.8293 2.76895 44.842 2.69742 44.842ZM30.8621 47.088C30.7581 47.088 30.6532 47.0613 30.5572 47.0053C30.2697 46.8374 30.1737 46.4705 30.3426 46.1854L30.3718 46.1354C30.5384 45.8488 30.9078 45.7511 31.1958 45.9157C31.4842 46.0811 31.5831 46.4476 31.4165 46.7341L31.3826 46.7921C31.2701 46.9823 31.0692 47.088 30.8621 47.088ZM3.78354 47.0997C3.57742 47.0997 3.37601 46.994 3.26354 46.8047L3.23295 46.7514C3.06637 46.4654 3.16378 46.0956 3.45225 45.9306C3.74119 45.7661 4.10825 45.8605 4.27437 46.1466L4.3026 46.1957C4.47201 46.4808 4.37648 46.8477 4.08942 47.0165C3.99342 47.0726 3.88801 47.0997 3.78354 47.0997ZM29.4301 49.1185C29.3002 49.1185 29.1708 49.0783 29.064 48.9928C28.8061 48.7867 28.7492 48.4295 28.9548 48.172C28.9572 48.1696 28.9878 48.1318 28.9897 48.1294C29.2 47.8728 29.5854 47.8284 29.8433 48.0378C30.1012 48.2472 30.1454 48.6174 29.9351 48.8736C29.9346 48.8741 29.9238 48.8876 29.9233 48.8881C29.8005 49.0372 29.6146 49.1185 29.4301 49.1185ZM5.22166 49.1531C5.04848 49.1531 4.87625 49.0793 4.75719 48.9358L4.71154 48.8811C4.5026 48.6235 4.54354 48.2468 4.80284 48.0388C5.06213 47.8307 5.44236 47.8719 5.65084 48.1299L5.68566 48.172C5.89836 48.4263 5.8626 48.804 5.60613 49.0152C5.49366 49.1078 5.35719 49.1531 5.22166 49.1531ZM27.6819 50.9472C27.5167 50.9472 27.352 50.8798 27.2329 50.748C27.0104 50.5022 27.0306 50.1231 27.2786 49.9024L27.3294 49.8571C27.5793 49.6379 27.9605 49.6617 28.1807 49.9099C28.4014 50.1581 28.3774 50.5367 28.128 50.7555L28.0847 50.7934C27.9694 50.8967 27.8254 50.9472 27.6819 50.9472ZM6.97413 50.9504C6.83201 50.9504 6.68989 50.9004 6.57507 50.8004L6.53131 50.762C6.28001 50.5452 6.25319 50.1665 6.47201 49.9169C6.69036 49.6668 7.07154 49.6402 7.32283 49.858L7.37319 49.902C7.62307 50.1203 7.64707 50.4993 7.42636 50.7471C7.30731 50.8812 7.14072 50.9504 6.97413 50.9504ZM25.6664 52.4467C25.4687 52.4467 25.2753 52.3504 25.16 52.1737C24.9784 51.8961 25.0579 51.5249 25.3369 51.3449L25.3995 51.3057C25.6819 51.1313 26.0541 51.2159 26.2306 51.4973C26.4071 51.7778 26.3205 52.1471 26.0381 52.3224L25.9944 52.3499C25.8927 52.4154 25.7788 52.4467 25.6664 52.4467ZM8.99107 52.4467C8.88189 52.4467 8.7713 52.4172 8.67201 52.356L8.60707 52.3144C8.32848 52.1326 8.2513 51.761 8.43483 51.4847C8.61789 51.208 8.99154 51.1318 9.27013 51.3136L9.3106 51.3389C9.59295 51.5142 9.67954 51.8834 9.50354 52.1644C9.38872 52.3462 9.19201 52.4467 8.99107 52.4467ZM23.4329 53.6041C23.1991 53.6041 22.976 53.468 22.8781 53.2404C22.7468 52.9366 22.8885 52.5841 23.1948 52.4542L23.2527 52.4294C23.5595 52.298 23.9139 52.4392 24.0447 52.744C24.176 53.0478 24.0344 53.4003 23.728 53.5302L23.6701 53.555C23.5925 53.5882 23.512 53.6041 23.4329 53.6041ZM11.2221 53.6059C11.1426 53.6059 11.0621 53.59 10.9845 53.5569L10.936 53.5368C10.6278 53.411 10.48 53.0609 10.6066 52.7547C10.7327 52.449 11.0838 52.3027 11.3934 52.4275L11.4598 52.456C11.7661 52.586 11.9078 52.9384 11.777 53.2423C11.6786 53.4694 11.456 53.6059 11.2221 53.6059ZM21.0687 54.3814C20.7958 54.3814 20.5398 54.2024 20.4715 53.9303C20.3911 53.6092 20.5722 53.2881 20.8951 53.2081L20.9558 53.1932C21.28 53.1123 21.6066 53.3077 21.6875 53.6288C21.768 53.95 21.5718 54.2753 21.2485 54.3552C21.2485 54.3552 21.2179 54.3632 21.2174 54.3632C21.168 54.3753 21.1181 54.3814 21.0687 54.3814ZM13.6127 54.3922C13.5642 54.3922 13.5153 54.3861 13.4659 54.3739L13.4193 54.3632C13.0941 54.2903 12.8899 53.9696 12.9633 53.6466C13.0358 53.3241 13.3577 53.1231 13.6838 53.1937L13.7586 53.2119C14.0819 53.2918 14.2781 53.6172 14.1977 53.9378C14.129 54.2103 13.8833 54.3922 13.6127 54.3922ZM18.5544 54.7848C18.2395 54.7848 17.9741 54.5417 17.9534 54.2253C17.9308 53.8953 18.1826 53.6097 18.5148 53.5872L18.5647 53.584C18.8937 53.5475 19.1892 53.7981 19.2184 54.1281C19.2475 54.4576 19.0024 54.7484 18.6701 54.7769L18.5953 54.7834C18.5817 54.7843 18.568 54.7848 18.5544 54.7848ZM16.0998 54.7867C16.0819 54.7867 16.064 54.7858 16.0461 54.7839L15.9962 54.7801C15.664 54.7577 15.4127 54.4726 15.4348 54.1426C15.4569 53.8121 15.7407 53.5615 16.0767 53.5844L16.152 53.5905C16.4838 53.6195 16.7289 53.9102 16.6998 54.2398C16.6725 54.5516 16.4089 54.7867 16.0998 54.7867Z" fill="white"/>
</g>
<path fill-rule="evenodd" clip-rule="evenodd" d="M28.0471 25.5667C28.0424 26.869 26.9761 27.9231 25.665 27.9165C24.3539 27.9128 23.2946 26.8512 23.2998 25.549C23.305 24.2453 24.3718 23.1931 25.6824 23.1973C26.9939 23.2015 28.0518 24.264 28.0471 25.5667Z" fill="#018BBB"/>
</svg>
