<svg width="61" height="61" viewBox="0 0 61 61" fill="none" xmlns="http://www.w3.org/2000/svg">
<circle cx="30.5" cy="30.5" r="30.5" fill="#051A26"/>
<path d="M38.7272 37.8328H38.1915C37.8198 36.9497 37.8196 36.088 38.1911 35.2094H38.7272C39.3247 35.2094 39.8108 34.7233 39.8108 34.1258C39.8108 33.5283 39.3247 33.0421 38.7272 33.0421H36.5714C36.8458 32.7287 37.0126 32.3189 37.0126 31.8705V28.4753C37.0126 27.4931 36.2135 26.694 35.2313 26.694H34.3547C34.4291 26.5457 34.4712 26.3785 34.4712 26.2016C34.4712 25.5933 33.9769 25.0983 33.3692 25.0983H33.0677C32.7986 24.4331 32.7984 23.7833 33.0672 23.1223H33.3692C33.9769 23.1223 34.4712 22.6274 34.4712 22.019C34.4712 21.4114 33.9769 20.917 33.3692 20.917H23.0857C21.3245 20.917 19.8918 22.3492 19.8918 24.1097C19.8918 24.9611 20.2245 25.7626 20.8286 26.3668C20.9487 26.4869 21.0769 26.5958 21.2114 26.6939H20.9754C20.3779 26.6939 19.8918 27.18 19.8918 27.7776C19.8918 28.3751 20.3779 28.8612 20.9754 28.8612H21.5115C21.8829 29.7397 21.8828 30.6014 21.5111 31.4845H20.9754C20.3779 31.4845 19.8918 31.9706 19.8918 32.5681C19.8918 32.7967 19.9631 33.0089 20.0844 33.1838C19.4476 33.4556 19 34.0882 19 34.8235V38.2187C19 39.201 19.7985 40 20.7801 40H38.7271C39.3246 40 39.8107 39.5139 39.8107 38.9164C39.8108 38.3189 39.3247 37.8328 38.7272 37.8328V37.8328ZM38.7272 33.6518C38.9885 33.6518 39.2011 33.8645 39.2011 34.1258C39.2011 34.3871 38.9885 34.5997 38.7272 34.5997H33.2255C33.0571 34.5997 32.9206 34.7362 32.9206 34.9045C32.9206 35.0729 33.0571 35.2094 33.2255 35.2094H37.5371C37.418 35.544 37.3451 35.8799 37.3176 36.2162C37.3176 36.2162 37.1958 36.8196 37.5378 37.8328H21.2554C21.2076 37.8328 21.1672 37.7924 21.1672 37.7445V35.2976C21.1672 35.2498 21.2076 35.2094 21.2554 35.2094H24.2755L24.2757 36.2106C24.2565 36.5103 24.4028 36.6285 24.4927 36.6724C24.5838 36.7169 24.7709 36.76 25.0012 36.5496C25.0028 36.5481 25.0044 36.5466 25.0059 36.5452L25.858 35.7325L26.7101 36.5452C26.7116 36.5467 26.7132 36.5481 26.7148 36.5496C26.8496 36.6728 26.9696 36.7091 27.0643 36.7091C27.132 36.7091 27.1868 36.6906 27.2248 36.6718C27.3148 36.6275 27.461 36.5088 27.4403 36.2098L27.4407 35.2094H31.7245C31.8929 35.2094 32.0293 35.0729 32.0293 34.9046C32.0293 34.7362 31.8929 34.5997 31.7245 34.5997H27.4409L27.4413 33.6519H38.7272V33.6518ZM22.3851 29.8681C22.3576 29.5318 22.2833 29.1959 22.1643 28.8613H34.7572C34.8051 28.8613 34.8455 28.9017 34.8455 28.9495V31.3963C34.8455 31.4441 34.8051 31.4846 34.7572 31.4846H27.4422L27.4426 30.4777H29.5761C29.7445 30.4777 29.8809 30.3412 29.8809 30.1729C29.8809 30.0045 29.7445 29.868 29.5761 29.868H22.3851V29.8681ZM24.2747 31.4846H22.1636C22.2826 31.1495 22.357 30.8136 22.3848 30.4777H24.2745L24.2747 31.4846ZM26.8329 30.4778L26.8307 35.8177L26.0683 35.0905C25.9506 34.9782 25.7653 34.9782 25.6475 35.0905L24.8853 35.8176L24.8842 30.4777H26.8329V30.4778ZM20.5015 24.1097C20.5015 22.6855 21.6607 21.5267 23.0857 21.5267H33.3692C33.6407 21.5267 33.8615 21.7476 33.8615 22.0191C33.8615 22.2912 33.6407 22.5127 33.3692 22.5127H27.7496C27.5812 22.5127 27.4447 22.6492 27.4447 22.8175C27.4447 22.9859 27.5812 23.1224 27.7496 23.1224H32.4177C32.2025 23.7781 32.2028 24.4397 32.4185 25.0984H23.0857C22.8235 25.0984 22.5753 24.9951 22.3879 24.8086C22.2003 24.6201 22.0971 24.3719 22.0971 24.1097C22.0971 23.5653 22.5406 23.1224 23.0857 23.1224H26.2486C26.417 23.1224 26.5535 22.9859 26.5535 22.8175C26.5535 22.6492 26.417 22.5127 26.2486 22.5127H23.0857C22.2044 22.5127 21.4874 23.2291 21.4874 24.1097C21.4874 24.5342 21.6537 24.9351 21.9568 25.2397C22.2603 25.5417 22.6612 25.7081 23.0857 25.7081H33.3692C33.6407 25.7081 33.8615 25.9295 33.8615 26.2017C33.8615 26.4731 33.6407 26.694 33.3692 26.694H23.0857C22.3972 26.694 21.7487 26.4247 21.2597 25.9357C20.7707 25.4467 20.5015 24.7983 20.5015 24.1097V24.1097ZM20.9754 28.2516C20.714 28.2516 20.5015 28.039 20.5015 27.7776C20.5015 27.5163 20.714 27.3037 20.9754 27.3037H35.2313C35.8774 27.3037 36.4029 27.8293 36.4029 28.4754V31.8705C36.4029 32.5166 35.8773 33.0422 35.2313 33.0422H27.4416L27.442 32.0943H34.7572C35.142 32.0943 35.4551 31.7812 35.4551 31.3964V28.9495C35.4551 28.5647 35.142 28.2516 34.7572 28.2516H20.9754V28.2516ZM20.9754 32.0943H24.2748L24.275 33.0421H20.9754C20.7141 33.0421 20.5015 32.8295 20.5015 32.5682C20.5015 32.3069 20.714 32.0943 20.9754 32.0943V32.0943ZM38.7272 39.3903H20.7801C20.1347 39.3903 19.6097 38.8647 19.6097 38.2187V34.8235C19.6097 34.1774 20.1347 33.6518 20.7801 33.6518H24.2751L24.2753 34.5997H21.2554C20.8706 34.5997 20.5576 34.9128 20.5576 35.2976V37.7445C20.5576 38.1293 20.8707 38.4424 21.2554 38.4424H38.7272C38.9885 38.4424 39.2011 38.655 39.2011 38.9163C39.2011 39.1777 38.9885 39.3903 38.7272 39.3903Z" fill="white"/>
</svg>
