<svg width="54" height="48" viewBox="0 0 54 48" fill="none" xmlns="http://www.w3.org/2000/svg">
<path d="M50.3488 42.5487H49.0013C48.0664 40.3274 48.066 38.1601 49.0003 35.95H50.3488C51.8517 35.95 53.0743 34.7274 53.0743 33.2244C53.0743 31.7215 51.8517 30.4987 50.3488 30.4987H44.9263C45.6165 29.7102 46.0361 28.6794 46.0361 27.5516V19.0117C46.0361 16.541 44.0262 14.531 41.5556 14.531H39.3506C39.5377 14.158 39.6437 13.7375 39.6437 13.2926C39.6437 11.7624 38.4002 10.5174 36.8718 10.5174H36.1133C35.4364 8.84409 35.4359 7.20972 36.1121 5.54712H36.8718C38.4002 5.54712 39.6437 4.30217 39.6437 2.77198C39.6437 1.24352 38.4002 0 36.8718 0H11.0053C6.5755 0 2.97162 3.60256 2.97162 8.03069C2.97162 10.1722 3.80854 12.1884 5.328 13.708C5.63011 14.0101 5.95257 14.284 6.29098 14.5309H5.69718C4.19428 14.5309 2.97162 15.7535 2.97162 17.2565C2.97162 18.7595 4.19428 19.9822 5.69718 19.9822H7.0457C7.97995 22.1921 7.97964 24.3595 7.04467 26.5807H5.69718C4.19428 26.5807 2.97162 27.8034 2.97162 29.3064C2.97162 29.8814 3.15104 30.415 3.45612 30.8551C1.85426 31.5386 0.728516 33.1298 0.728516 34.9794V43.5194C0.728516 45.9901 2.73708 48 5.20592 48H50.3487C51.8516 48 53.0742 46.7773 53.0742 45.2743C53.0743 43.7714 51.8517 42.5487 50.3488 42.5487ZM50.3488 32.0323C51.0061 32.0323 51.5408 32.5671 51.5408 33.2244C51.5408 33.8817 51.0061 34.4165 50.3488 34.4165H36.5102C36.0866 34.4165 35.7434 34.7598 35.7434 35.1832C35.7434 35.6067 36.0866 35.95 36.5102 35.95H47.3554C47.0557 36.7917 46.8725 37.6365 46.8033 38.4826C46.8033 38.4826 46.497 40.0003 47.357 42.5487H6.4017C6.28147 42.5487 6.17984 42.447 6.17984 42.3267V36.172C6.17984 36.0518 6.28147 35.9501 6.4017 35.9501H13.9981L13.9986 38.4685C13.9502 39.2224 14.3184 39.5195 14.5444 39.6299C14.7736 39.7419 15.2443 39.8504 15.8234 39.321C15.8274 39.3173 15.8314 39.3137 15.8353 39.31L17.9786 37.2657L20.1219 39.31C20.1258 39.3138 20.1298 39.3174 20.1338 39.321C20.4728 39.6309 20.7746 39.7224 21.0129 39.7224C21.1832 39.7224 21.321 39.6757 21.4167 39.6286C21.643 39.5171 22.0107 39.2186 21.9586 38.4664L21.9597 35.9501H32.7347C33.1583 35.9501 33.5015 35.6068 33.5015 35.1833C33.5015 34.7599 33.1583 34.4166 32.7347 34.4166H21.9602L21.9612 32.0324H50.3488V32.0323ZM9.2431 22.5149C9.17398 21.6689 8.9872 20.8241 8.68774 19.9824H40.3631C40.4834 19.9824 40.5851 20.084 40.5851 20.2043V26.359C40.5851 26.4792 40.4834 26.5808 40.3631 26.5808H21.9634L21.9645 24.0483H27.3308C27.7544 24.0483 28.0976 23.705 28.0976 23.2815C28.0976 22.8581 27.7544 22.5147 27.3308 22.5147H9.2431V22.5149ZM13.9961 26.5809H8.686C8.98525 25.7381 9.17235 24.8933 9.24228 24.0484H13.9956L13.9961 26.5809ZM20.4309 24.0485L20.4254 37.4801L18.5077 35.6511C18.2115 35.3685 17.7455 35.3685 17.4492 35.6511L15.5319 37.4799L15.5291 24.0484H20.4309V24.0485ZM4.50519 8.03079C4.50519 4.44827 7.42111 1.53367 11.0053 1.53367H36.8718C37.5546 1.53367 38.1101 2.08923 38.1101 2.77208C38.1101 3.45666 37.5545 4.01366 36.8718 4.01366H22.7366C22.3131 4.01366 21.9698 4.35697 21.9698 4.78044C21.9698 5.20391 22.3131 5.54723 22.7366 5.54723H34.4783C33.937 7.19673 33.9378 8.86086 34.4803 10.5175H11.0053C10.3458 10.5175 9.72147 10.2577 9.25015 9.78877C8.77842 9.31459 8.51864 8.69033 8.51864 8.03079C8.51864 6.66131 9.63416 5.54723 11.0053 5.54723H18.9611C19.3846 5.54723 19.7279 5.20391 19.7279 4.78044C19.7279 4.35697 19.3846 4.01366 18.9611 4.01366H11.0053C8.78855 4.01366 6.98507 5.8157 6.98507 8.03079C6.98507 9.09846 7.40343 10.1069 8.16571 10.8731C8.92923 11.6327 9.9376 12.0511 11.0053 12.0511H36.8718C37.5546 12.0511 38.1101 12.6081 38.1101 13.2927C38.1101 13.9755 37.5545 14.5311 36.8718 14.5311H11.0053C9.27346 14.5311 7.64236 13.8538 6.41243 12.6237C5.18251 11.3938 4.50519 9.7627 4.50519 8.03079ZM5.69718 18.4488C5.03989 18.4488 4.50519 17.9141 4.50519 17.2567C4.50519 16.5995 5.03989 16.0646 5.69718 16.0646H41.5556C43.1806 16.0646 44.5025 17.3867 44.5025 19.0118V27.5517C44.5025 29.1768 43.1805 30.4988 41.5556 30.4988H21.9618L21.9628 28.1146H40.363C41.331 28.1146 42.1185 27.3271 42.1185 26.3592V20.2045C42.1185 19.2365 41.331 18.449 40.363 18.449H5.69718V18.4488ZM5.69718 28.1145H13.9964L13.997 30.4987H5.69728C5.03999 30.4987 4.50529 29.9639 4.50529 29.3066C4.50519 28.6493 5.03989 28.1145 5.69718 28.1145ZM50.3488 46.4664H5.20592C3.58269 46.4664 2.26208 45.1444 2.26208 43.5194V34.9794C2.26208 33.3543 3.58269 32.0323 5.20592 32.0323H13.9972L13.9977 34.4165H6.4017C5.43371 34.4165 4.64627 35.204 4.64627 36.1719V42.3266C4.64627 43.2946 5.43381 44.0821 6.4017 44.0821H50.3488C51.0061 44.0821 51.5408 44.6169 51.5408 45.2742C51.5408 45.9315 51.0061 46.4664 50.3488 46.4664Z" fill="#83C6F2"/>
</svg>
