<svg width="11" height="15" viewBox="0 0 11 15" fill="none" xmlns="http://www.w3.org/2000/svg">
<circle cx="5.42363" cy="7.47831" r="5.33964" fill="#5898C1"/>
<path d="M5.80267 4.20719V6.9838C5.80267 7.27506 5.78972 7.56145 5.76383 7.843C5.73795 8.12131 5.70397 8.42227 5.6619 8.74588H4.95803C4.91273 8.42227 4.87713 8.12131 4.85124 7.843C4.82859 7.56145 4.81726 7.27506 4.81726 6.9838V4.20719H5.80267ZM4.61824 10.5953C4.61824 10.5015 4.63442 10.4141 4.66678 10.3332C4.70238 10.2491 4.75092 10.1763 4.81241 10.1148C4.87389 10.0533 4.94509 10.0047 5.02599 9.96915C5.1069 9.93355 5.19589 9.91575 5.29298 9.91575C5.38682 9.91575 5.4742 9.93355 5.5551 9.96915C5.63924 10.0047 5.71044 10.0533 5.76869 10.1148C5.83018 10.1763 5.87872 10.2491 5.91432 10.3332C5.94991 10.4141 5.96771 10.5015 5.96771 10.5953C5.96771 10.6924 5.94991 10.7814 5.91432 10.8623C5.87872 10.9432 5.83018 11.0144 5.76869 11.0759C5.71044 11.1374 5.63924 11.1843 5.5551 11.2167C5.4742 11.2523 5.38682 11.2701 5.29298 11.2701C5.19589 11.2701 5.1069 11.2523 5.02599 11.2167C4.94509 11.1843 4.87389 11.1374 4.81241 11.0759C4.75092 11.0144 4.70238 10.9432 4.66678 10.8623C4.63442 10.7814 4.61824 10.6924 4.61824 10.5953Z" fill="white"/>
</svg>
