<svg width="261" height="111" viewBox="0 0 261 111" fill="none" xmlns="http://www.w3.org/2000/svg">
<rect width="261" height="111" rx="7" fill="#F8F9FB"/>
<path fill-rule="evenodd" clip-rule="evenodd" d="M56.9506 62.1812V68.0222C66.7708 68.0222 74.4681 58.5537 71.283 48.1988C70.5848 45.9745 69.3593 43.952 67.711 42.3034C66.0627 40.6547 64.0404 39.4289 61.8163 38.7303C51.4667 35.5434 42 43.2425 42 52.9774H47.8392C47.848 51.4905 48.216 50.0277 48.9119 48.7136C49.6078 47.3995 50.6111 46.2731 51.8361 45.4303C53.0612 44.5875 54.4718 44.0532 55.9478 43.873C57.4238 43.6928 58.9216 43.8721 60.3134 44.3954C61.5126 44.8299 62.6017 45.5225 63.5036 46.4244C64.4055 47.3263 65.0982 48.4154 65.5326 49.6146C67.9087 56.0447 63.1888 62.1228 57.0393 62.1808V56.429H51.2001V62.1812H46.7767V58.4648H43.0657V62.1812H46.7767V66.6951H51.2001V62.1812H56.9753C56.9671 62.1812 56.9588 62.1812 56.9506 62.1812ZM88.9762 44.9177C91.4544 44.9177 93.666 45.543 95.3466 46.6941C96.3201 47.3141 97.0271 48.1988 97.56 49.5187C98.0912 50.581 98.3559 51.9968 98.3559 53.5014C98.3559 55.0061 98.093 56.4219 97.56 57.5731C97.0778 58.6665 96.3147 59.6129 95.3483 60.3159C93.579 61.5547 91.4556 62.1741 88.978 62.1741H83.5812V44.9177H88.9762ZM88.4468 47.8452H86.7663V59.3513H88.5339C90.4809 59.3513 91.9855 58.9107 93.1349 58.2001C94.3784 57.3155 95.089 55.7149 95.089 53.5103C95.089 51.3058 94.4619 49.7922 93.1349 48.9964C91.8967 48.2005 90.305 47.8452 88.4468 47.8452ZM101.441 44.7891C101.669 44.6974 101.913 44.6535 102.159 44.6601H102.152C102.685 44.6601 103.131 44.8377 103.396 45.193C103.57 45.3661 103.708 45.5731 103.799 45.8014C103.891 46.0296 103.935 46.2742 103.929 46.52C103.929 47.0128 103.733 47.4855 103.384 47.8339C103.036 48.1824 102.563 48.3782 102.07 48.3782C101.578 48.3782 101.105 48.1824 100.756 47.8339C100.408 47.4855 100.212 47.0128 100.212 46.52C100.202 46.2654 100.253 46.0122 100.361 45.7813C100.469 45.5505 100.631 45.3488 100.832 45.193C101.005 45.0182 101.212 44.8807 101.441 44.7891ZM103.65 49.9699H100.566V62.0941H103.65V49.9699ZM114.545 50.8836C113.693 50.1729 112.692 49.7087 111.624 49.7087C110.844 49.6916 110.07 49.8412 109.353 50.1475C108.636 50.4539 107.992 50.91 107.465 51.4852C106.36 52.6557 105.757 54.212 105.785 55.8215C105.785 57.5038 106.318 59.0067 107.384 60.1578C108.45 61.3089 109.86 61.8401 111.542 61.8401C112.625 61.8571 113.683 61.5147 114.55 60.8666V61.1313C114.55 62.1048 114.285 62.9077 113.754 63.4407C113.223 63.9736 112.511 64.2365 111.542 64.2365C110.121 64.2365 109.242 63.7036 108.181 62.2007L106.05 64.2365L106.138 64.3253C106.581 64.9453 107.288 65.5689 108.173 66.1835C109.057 66.7982 110.207 67.0717 111.534 67.0717C113.392 67.0717 114.808 66.5388 115.868 65.3894C116.929 64.2401 117.549 62.8225 117.549 60.9643V49.9699H114.545V50.8836ZM111.795 59.0919C112.683 59.0919 113.393 58.8237 113.926 58.2037L113.946 58.1984C114.477 57.5855 114.742 56.7772 114.742 55.8091C114.742 54.8409 114.479 54.0433 113.946 53.4197C113.413 52.7962 112.702 52.5315 111.814 52.5315C110.926 52.5315 110.215 52.7998 109.682 53.4197C109.15 54.0397 108.867 54.8462 108.867 55.8144C108.867 56.7825 109.13 57.5802 109.663 58.2037C110.196 58.8272 110.906 59.0919 111.795 59.0919ZM123.5 49.9681H120.403L120.384 49.9699V62.0923H123.5V49.9681ZM121.17 44.7891C121.398 44.698 121.642 44.6541 121.888 44.66C122.133 44.6538 122.377 44.6976 122.605 44.7886C122.834 44.8797 123.041 45.0163 123.215 45.1901C123.389 45.3639 123.526 45.5713 123.617 45.7996C123.709 46.0279 123.753 46.2724 123.747 46.5182C123.747 47.011 123.551 47.4837 123.202 47.8322C122.854 48.1806 122.381 48.3764 121.888 48.3764C121.396 48.3764 120.923 48.1806 120.575 47.8322C120.226 47.4837 120.03 47.011 120.03 46.5182C120.024 46.2726 120.068 46.0282 120.159 45.8C120.251 45.5718 120.387 45.3645 120.561 45.1907C120.735 45.017 120.942 44.8803 121.17 44.7891ZM127.108 46.6941H130.112L130.204 50.0569H133.027V52.8015H130.195V57.3954C130.195 58.1984 130.286 58.7295 130.55 58.9942C130.728 59.2607 131.261 59.3495 131.972 59.3495L133.037 59.2607V62.0053H132.86C132.362 62.079 131.858 62.1087 131.355 62.0941C129.858 62.0941 128.699 61.7406 128.081 61.1206C127.463 60.5006 127.108 59.3566 127.108 57.7578V52.7127H125.331V49.9699H127.108V46.6941ZM150.37 44.9177H147.274L147.277 44.9283V62.1741H150.37V44.9177ZM179.746 59.2696C180.294 58.8478 180.798 58.3716 181.25 57.8484V57.8378L183.284 59.8736C182.046 61.6429 180.277 62.6164 178.065 62.6164C177.252 62.6304 176.446 62.4721 175.699 62.1518C174.952 61.8315 174.281 61.3566 173.731 60.7582C172.574 59.6071 171.954 58.0207 171.954 56.2443C171.934 54.5654 172.572 52.9454 173.731 51.7303C174.969 50.4921 176.385 49.8722 178.065 49.8722C180.101 49.8722 181.781 50.668 183.108 52.3503L181.074 54.3044C180.19 53.2421 179.129 52.6221 178.156 52.6221C177.737 52.603 177.319 52.6809 176.936 52.8497C176.552 53.0186 176.213 53.2739 175.944 53.5956C175.32 54.3044 175.056 55.1002 175.056 56.1626C175.056 57.2249 175.324 58.019 175.944 58.7295C176.224 59.0358 176.564 59.2812 176.943 59.4502C177.322 59.6192 177.732 59.7083 178.147 59.7119C178.71 59.7148 179.264 59.5617 179.746 59.2696ZM191.948 50.3109C192.648 50.6306 193.259 51.1188 193.724 51.7321L193.694 51.7179C194.147 52.2495 194.453 52.8899 194.582 53.5761C194.837 54.3186 194.958 55.1006 194.938 55.8854V57.0366H186.798C186.89 57.8289 187.153 58.4524 187.686 58.8947C188.296 59.366 189.048 59.6165 189.818 59.6053C190.342 59.6249 190.862 59.5021 191.323 59.25C191.658 59.1056 191.96 58.8947 192.211 58.63C192.304 58.5369 192.397 58.4546 192.486 58.3758C192.653 58.2279 192.806 58.0922 192.921 57.9195L194.956 59.8736L194.867 59.9624C193.54 61.6447 191.857 62.4405 189.823 62.4405C187.965 62.4405 186.548 61.8152 185.4 60.6641C184.252 59.5129 183.719 58.0083 183.719 56.1501C183.687 54.5173 184.219 52.9232 185.224 51.6362C186.286 50.398 187.702 49.778 189.383 49.778C190.267 49.7567 191.145 49.9391 191.948 50.3109ZM187.885 53.1497C187.499 53.545 187.225 54.0353 187.089 54.5709H191.785C191.697 54.0379 191.52 53.505 191.165 53.1497C190.811 52.7074 190.195 52.5297 189.484 52.5297C189.189 52.5167 188.895 52.5651 188.62 52.6719C188.344 52.7786 188.094 52.9413 187.885 53.1497ZM201.688 49.7905C203.28 49.7905 204.603 50.1457 205.492 50.9416L205.497 50.9434C206.476 51.7392 206.918 52.885 206.918 54.3062V62.0941H203.911V61.1206C202.848 61.9218 201.779 62.3641 200.637 62.3641C199.494 62.3641 198.512 62.0977 197.718 61.3906C196.924 60.6836 196.569 59.799 196.569 58.6478C196.569 57.415 197.016 56.3491 197.99 55.6385C198.963 54.9279 200.202 54.5726 201.706 54.5726C202.458 54.5675 203.205 54.6876 203.918 54.9279V54.308C203.928 54.0534 203.876 53.8001 203.769 53.5693C203.661 53.3385 203.499 53.1367 203.298 52.9809C202.844 52.6213 202.278 52.4327 201.699 52.448C200.461 52.448 199.576 52.8975 198.78 54.2245L196.826 52.3663C197.261 51.4781 198.064 50.8545 198.86 50.4122C199.755 50.029 200.715 49.818 201.688 49.7905ZM201.521 57.1361C200.896 57.1361 200.455 57.2267 200.1 57.4913L200.102 57.486C199.937 57.5973 199.798 57.741 199.691 57.9085C199.584 58.0759 199.513 58.2635 199.482 58.4595C199.482 58.8148 199.654 59.0813 199.924 59.3477C200.194 59.6142 200.635 59.703 201.168 59.703C202.143 59.7211 203.09 59.3738 203.822 58.7295V57.5784C203.083 57.3118 202.306 57.1625 201.521 57.1361ZM215.134 49.6981C216.639 49.6981 217.785 50.1457 218.673 51.1192C219.469 52.0927 219.911 53.4203 220 55.102V62.1918H216.918V55.1127C216.931 54.4109 216.713 53.7243 216.298 53.1586C216.105 52.9234 215.86 52.7366 215.583 52.6132C215.305 52.4898 215.002 52.4332 214.699 52.448C214.362 52.4376 214.027 52.5038 213.719 52.6416C213.411 52.7795 213.139 52.9854 212.922 53.2439C212.48 53.7732 212.303 54.5673 212.303 55.4555V62.1776H209.206V50.0534H212.215V50.7639C212.922 50.0534 213.895 49.6981 215.134 49.6981ZM139.671 49.7905C141.262 49.7905 142.586 50.1457 143.474 50.9416L143.476 50.9434C144.364 51.7392 144.897 52.885 144.897 54.3062V62.0923H141.889V61.1189C140.827 61.92 139.758 62.3624 138.615 62.3624C137.473 62.3624 136.491 62.0959 135.697 61.3889C134.903 60.6818 134.547 59.7972 134.547 58.646C134.547 57.4132 134.995 56.3473 135.969 55.6367C136.942 54.9262 138.181 54.5709 139.685 54.5709C140.437 54.5657 141.184 54.6858 141.897 54.9262V54.3062C141.906 54.0516 141.855 53.7983 141.747 53.5675C141.64 53.3367 141.478 53.135 141.277 52.9792C140.823 52.6195 140.257 52.4309 139.678 52.4462C138.44 52.4462 137.555 52.8957 136.759 54.2227L134.805 52.3645C135.24 51.4763 136.043 50.8528 136.839 50.4104C137.735 50.0274 138.696 49.817 139.671 49.7905ZM139.411 57.1361C138.786 57.1361 138.345 57.2267 137.99 57.4913L137.992 57.486C137.716 57.7607 137.504 58.0932 137.372 58.4595C137.372 58.8148 137.544 59.0813 137.814 59.3477C138.084 59.6142 138.525 59.703 139.058 59.703C140.033 59.7211 140.98 59.3738 141.712 58.7295V57.5784C140.973 57.3118 140.197 57.1625 139.411 57.1361ZM156.523 60.9525C157.979 61.9245 159.69 62.443 161.441 62.4423C163.785 62.4329 166.03 61.4974 167.688 59.8396C169.345 58.1817 170.279 55.9361 170.288 53.592C170.288 51.8415 169.769 50.1302 168.796 48.6747C167.823 47.2192 166.441 46.0849 164.824 45.4151C163.206 44.7454 161.426 44.5703 159.71 44.9121C157.993 45.2539 156.416 46.0971 155.178 47.3352C153.941 48.5733 153.098 50.1506 152.757 51.8676C152.416 53.5846 152.592 55.3642 153.262 56.9814C153.932 58.5985 155.067 59.9804 156.523 60.9525ZM158.243 48.7177C159.19 48.0869 160.303 47.7511 161.441 47.7529L161.434 47.7564C162.19 47.755 162.938 47.9028 163.637 48.1914C164.335 48.48 164.97 48.9037 165.504 49.4382C166.038 49.9726 166.462 50.6073 166.75 51.3058C167.038 52.0043 167.186 52.7529 167.184 53.5086C167.184 54.6464 166.845 55.7586 166.213 56.7042C165.58 57.6499 164.681 58.3866 163.629 58.8211C162.577 59.2557 161.42 59.3686 160.305 59.1455C159.189 58.9224 158.164 58.3734 157.36 57.568C156.557 56.7625 156.01 55.7367 155.789 54.6204C155.569 53.5041 155.684 52.3475 156.121 51.2968C156.558 50.2461 157.296 49.3485 158.243 48.7177Z" fill="#0080FF"/>
</svg>
