<svg width="261" height="111" viewBox="0 0 261 111" fill="none" xmlns="http://www.w3.org/2000/svg">
<rect width="261" height="111" rx="7" fill="#F8F9FB"/>
<path d="M125.415 43.536C124.526 43.5082 123.803 44.2031 123.775 45.0647V53.0699C119.967 50.0124 114.381 50.6239 111.323 54.4319C110.072 56.0163 109.377 57.962 109.377 59.9911C109.294 64.8831 113.185 68.9135 118.077 68.9969C122.969 69.0803 127 65.1889 127.083 60.2968V45.1759C127.083 44.7312 126.916 44.3142 126.611 44.0085C126.277 43.7027 125.86 43.536 125.415 43.536ZM123.331 62.1313C122.775 63.4655 121.719 64.5218 120.384 65.1055C118.995 65.6892 117.438 65.6892 116.048 65.1055C114.714 64.5496 113.686 63.4655 113.13 62.1591C112.546 60.7971 112.546 59.2406 113.13 57.8508C113.686 56.5166 114.742 55.4603 116.048 54.9044C117.438 54.3207 118.995 54.3207 120.384 54.9044C121.719 55.4881 122.775 56.5444 123.331 57.8786C123.914 59.2128 123.914 60.7693 123.331 62.1313ZM143.9 53.737C140.453 50.2903 134.838 50.2903 131.392 53.737C129.724 55.4048 128.807 57.6562 128.807 59.9911C128.723 64.8831 132.615 68.9135 137.507 68.9969C142.399 69.0803 146.429 65.1889 146.512 60.2968V59.9911C146.512 58.8236 146.29 57.684 145.845 56.6C145.401 55.5159 144.734 54.5431 143.9 53.737ZM142.76 62.1035C142.482 62.7706 142.065 63.3543 141.565 63.8547C141.064 64.355 140.453 64.7719 139.814 65.0499C138.424 65.6336 136.867 65.6336 135.478 65.0499C134.143 64.494 133.087 63.4099 132.531 62.1035C131.947 60.7415 131.947 59.185 132.531 57.7952C133.087 56.461 134.143 55.4326 135.478 54.8488C136.867 54.2651 138.424 54.2651 139.814 54.8488C140.481 55.1268 141.064 55.5437 141.565 56.0441C142.065 56.5444 142.482 57.1559 142.76 57.7952C143.344 59.2128 143.344 60.7693 142.76 62.1035ZM180.507 52.7642C180.507 52.5418 180.451 52.3194 180.368 52.1249C180.284 51.9303 180.145 51.7635 180.006 51.5967C179.867 51.4578 179.673 51.3188 179.478 51.2354C179.284 51.152 179.061 51.0964 178.839 51.0964C178.533 51.0964 178.227 51.1798 177.949 51.3466L168.499 57.4894V45.2037C168.499 44.759 168.332 44.342 168.026 44.0363C167.721 43.7305 167.304 43.536 166.859 43.536C165.942 43.536 165.219 44.2587 165.191 45.1759V67.1624C165.191 67.6071 165.358 68.024 165.664 68.3298C165.969 68.6633 166.386 68.8301 166.831 68.8301C167.276 68.8301 167.693 68.6633 167.999 68.3298C168.304 68.024 168.499 67.6071 168.471 67.1624V61.4642L170.389 60.2134L177.699 68.4132C178.005 68.6911 178.394 68.8579 178.811 68.8301C179.033 68.8301 179.256 68.8023 179.45 68.6911C179.645 68.6077 179.812 68.4966 179.979 68.3298C180.118 68.163 180.256 67.9962 180.34 67.8017C180.423 67.6071 180.479 67.3847 180.479 67.1624C180.479 66.7454 180.312 66.3285 180.034 66.0227L173.252 58.3789L179.867 54.0706C180.312 53.7926 180.534 53.2923 180.507 52.7642ZM153.072 56.0441C153.573 55.5437 154.184 55.1268 154.851 54.8488C155.546 54.5709 156.269 54.4041 157.019 54.4041C157.686 54.4041 158.326 54.5153 158.937 54.7377C159.549 54.9878 160.132 55.3214 160.633 55.7661C160.938 56.0163 161.328 56.1274 161.717 56.1274C162.161 56.1552 162.606 55.9885 162.912 55.6549C163.218 55.3492 163.384 54.9044 163.384 54.4597C163.384 53.9872 163.19 53.5146 162.801 53.2089C161.216 51.7913 159.16 51.013 157.019 51.0686C152.127 51.0686 148.152 55.0434 148.152 59.9355C148.152 64.8275 152.099 68.7745 156.964 68.8023C159.104 68.8023 161.161 68.0518 162.773 66.662C163.106 66.3563 163.301 65.9115 163.301 65.439C163.329 64.5496 162.634 63.8269 161.772 63.7991H161.661C161.272 63.7991 160.911 63.9103 160.605 64.1326C160.105 64.5774 159.549 64.9109 158.937 65.1611C158.326 65.3834 157.659 65.4946 157.019 65.4946C156.269 65.4946 155.546 65.3556 154.851 65.0499C154.184 64.7719 153.6 64.355 153.072 63.8547C150.904 61.6866 150.904 58.1843 153.044 56.0163C153.072 56.0718 153.072 56.0719 153.072 56.0441ZM213.333 52.236C213 51.9303 212.639 51.7079 212.222 51.5689C211.749 51.4022 211.249 51.291 210.748 51.2354C210.248 51.1798 209.748 51.152 209.247 51.152C208.247 51.152 207.218 51.3188 206.273 51.6801C205.328 52.0137 204.467 52.514 203.688 53.1255V52.7919C203.661 51.8747 202.882 51.1798 201.965 51.2076C201.549 51.2215 201.154 51.3928 200.86 51.687C200.566 51.9812 200.394 52.3762 200.381 52.7919V67.218C200.408 68.1352 201.187 68.8301 202.104 68.8023C202.52 68.7884 202.915 68.6171 203.209 68.3229C203.503 68.0287 203.674 67.6337 203.688 67.218V60.0188C203.688 59.2684 203.827 58.5457 204.133 57.8508C204.411 57.1837 204.8 56.6 205.328 56.0996C205.829 55.5993 206.44 55.1824 207.079 54.9044C207.774 54.6265 208.497 54.4597 209.247 54.4597C209.998 54.4597 210.721 54.5987 211.416 54.8488C211.638 54.96 211.86 55.0156 212.11 55.0156C212.333 55.0156 212.555 54.9878 212.75 54.8766C212.944 54.7932 213.111 54.6821 213.278 54.5153C213.417 54.3763 213.556 54.1817 213.639 53.9872C213.723 53.7926 213.778 53.5702 213.778 53.3479C213.806 52.9309 213.639 52.5418 213.333 52.236ZM197.99 56.6C196.573 53.3201 193.348 51.1798 189.79 51.152C184.898 51.152 180.951 55.099 180.924 59.9911C180.924 64.8831 184.898 68.8579 189.79 68.8579C191.903 68.8579 193.96 68.1074 195.572 66.7176L195.628 66.662C195.767 66.5509 195.906 66.4119 195.989 66.2451C196.517 65.4668 196.322 64.4384 195.572 63.9103C194.933 63.4933 194.099 63.5767 193.543 64.1048C193.487 64.1604 193.32 64.2994 193.32 64.3272L193.293 64.355C192.82 64.7441 192.292 65.0777 191.708 65.2723C191.097 65.4946 190.458 65.6058 189.79 65.578C189.179 65.578 188.595 65.4946 188.012 65.3C187.456 65.1055 186.927 64.8553 186.455 64.494C185.982 64.1604 185.565 63.7435 185.232 63.271C184.871 62.7984 184.62 62.2425 184.454 61.6866H196.962C197.406 61.6866 197.823 61.5198 198.129 61.2141C198.463 60.9083 198.629 60.4914 198.602 60.0466C198.629 58.8514 198.407 57.684 197.99 56.6ZM184.454 58.3789C184.62 57.7952 184.871 57.2671 185.232 56.7945C185.565 56.322 185.982 55.9051 186.455 55.5715C186.927 55.238 187.456 54.96 188.012 54.7654C188.567 54.5709 189.179 54.4875 189.763 54.4875C190.346 54.4875 190.958 54.5709 191.514 54.7654C192.626 55.1268 193.598 55.8495 194.293 56.7945C194.655 57.2671 194.905 57.823 195.099 58.3789H184.454ZM207.691 66.4397C207.052 66.4397 206.551 66.9678 206.551 67.6071C206.551 68.2464 207.079 68.7467 207.719 68.7467C208.358 68.7467 208.858 68.2186 208.858 67.6071C208.858 66.94 208.33 66.4397 207.691 66.4397ZM207.691 68.4966C207.191 68.5243 206.774 68.1352 206.746 67.6349C206.718 67.1346 207.107 66.7176 207.608 66.6898C208.108 66.662 208.525 67.0512 208.553 67.5515V67.6071C208.58 68.0796 208.191 68.4966 207.719 68.4966H207.691Z" fill="#0091E2"/>
<path d="M207.969 67.6071C208.108 67.5793 208.191 67.4681 208.191 67.3291C208.191 67.2179 208.163 67.1346 208.08 67.079C207.969 67.0234 207.83 66.9956 207.691 66.9956C207.552 66.9956 207.385 66.9956 207.246 67.0234V68.163H207.496V67.7183H207.608C207.747 67.7183 207.83 67.7739 207.858 67.885C207.885 67.9684 207.913 68.0796 207.941 68.163H208.219C208.163 68.0796 208.136 67.9684 208.136 67.885C208.163 67.7739 208.08 67.6627 207.969 67.6071ZM207.635 67.5237H207.496V67.1901H207.635C207.802 67.1901 207.885 67.2735 207.885 67.3569C207.913 67.4681 207.774 67.5515 207.635 67.5237ZM106.348 47.2606C106.181 47.1216 104.68 45.982 101.456 45.982C100.622 45.982 99.76 46.0654 98.9261 46.2043C98.3146 41.9516 94.7845 39.8947 94.6456 39.7835L93.7839 39.2832L93.228 40.0893C92.5331 41.1733 92.005 42.3963 91.6992 43.6471C91.1155 46.0654 91.4768 48.3446 92.6999 50.2903C91.2267 51.1242 88.8362 51.3188 88.3359 51.3466H48.8659C47.8375 51.3466 47.0036 52.1804 47.0036 53.2089C46.948 56.6555 47.5317 60.1022 48.727 63.3543C50.089 66.9122 52.118 69.5528 54.7308 71.1649C57.6772 72.9717 62.4859 74.0001 67.906 74.0001C70.3521 74.0001 72.7981 73.7777 75.2163 73.333C78.5796 72.7215 81.8039 71.5541 84.7781 69.8585C87.2241 68.441 89.42 66.6342 91.2823 64.5217C94.4232 60.9917 96.2855 57.0447 97.6475 53.5424H98.2034C101.622 53.5424 103.735 52.1804 104.902 51.013C105.68 50.2903 106.264 49.4009 106.681 48.4002L106.931 47.6775L106.348 47.2606Z" fill="#0091E2"/>
<path d="M52.535 50.2069H57.8162C58.0664 50.2069 58.2888 50.0123 58.2888 49.7343V45.0091C58.2888 44.7589 58.0942 44.5365 57.8162 44.5365H52.535C52.2849 44.5365 52.0625 44.7311 52.0625 45.0091V49.7343C52.0903 50.0123 52.2849 50.2069 52.535 50.2069ZM59.8175 50.2069H65.0987C65.3489 50.2069 65.5712 50.0123 65.5712 49.7343V45.0091C65.5712 44.7589 65.3767 44.5365 65.0987 44.5365H59.8175C59.5674 44.5365 59.345 44.7311 59.345 45.0091V49.7343C59.3728 50.0123 59.5674 50.2069 59.8175 50.2069ZM67.239 50.2069H72.5202C72.7703 50.2069 72.9927 50.0123 72.9927 49.7343V45.0091C72.9927 44.7589 72.7981 44.5365 72.5202 44.5365H67.239C66.9888 44.5365 66.7665 44.7311 66.7665 45.0091V49.7343C66.7665 50.0123 66.961 50.2069 67.239 50.2069ZM74.5493 50.2069H79.8305C80.0806 50.2069 80.303 50.0123 80.303 49.7343V45.0091C80.303 44.7589 80.1084 44.5365 79.8305 44.5365H74.5493C74.2991 44.5365 74.0767 44.7311 74.0767 45.0091V49.7343C74.0767 50.0123 74.2991 50.2069 74.5493 50.2069ZM59.8175 43.4525H65.0987C65.3489 43.4525 65.5712 43.2301 65.5712 42.98V38.2547C65.5712 38.0045 65.3767 37.7822 65.0987 37.7822H59.8175C59.5674 37.7822 59.345 37.9767 59.345 38.2547V42.98C59.3728 43.2301 59.5674 43.4525 59.8175 43.4525ZM67.239 43.4525H72.5202C72.7703 43.4525 72.9927 43.2301 72.9927 42.98V38.2547C72.9927 38.0045 72.7981 37.7822 72.5202 37.7822H67.239C66.9888 37.7822 66.7665 37.9767 66.7665 38.2547V42.98C66.7665 43.2301 66.961 43.4525 67.239 43.4525ZM74.5493 43.4525H79.8305C80.0806 43.4525 80.303 43.2301 80.303 42.98V38.2547C80.303 38.0045 80.0806 37.7822 79.8305 37.7822H74.5493C74.2991 37.7822 74.0767 37.9767 74.0767 38.2547V42.98C74.0767 43.2301 74.2991 43.4525 74.5493 43.4525ZM74.5493 36.6703H79.8305C80.0806 36.6703 80.303 36.4758 80.303 36.1978V31.4725C80.303 31.2224 80.0806 31 79.8305 31H74.5493C74.2991 31 74.0767 31.1946 74.0767 31.4725V36.1978C74.0767 36.448 74.2991 36.6703 74.5493 36.6703ZM81.9151 50.2069H87.1963C87.4465 50.2069 87.6689 50.0123 87.6689 49.7343V45.0091C87.6689 44.7589 87.4743 44.5365 87.1963 44.5365H81.9151C81.665 44.5365 81.4426 44.7311 81.4426 45.0091V49.7343C81.4704 50.0123 81.665 50.2069 81.9151 50.2069Z" fill="#0091E2"/>
</svg>
