<svg width="106" height="106" viewBox="0 0 106 106" fill="none" xmlns="http://www.w3.org/2000/svg">
<circle cx="53" cy="53" r="53" fill="#4BBFE1"/>
<path fill-rule="evenodd" clip-rule="evenodd" d="M72.952 44.864H63.304V35.216C63.304 33.4399 61.8641 32 60.088 32H32.216C30.4399 32 29 33.4399 29 35.216V52.368C29 54.1441 30.4399 55.584 32.216 55.584H32.827L32.4518 56.5381C31.9452 57.8013 32.2886 59.2467 33.3093 60.1471C34.33 61.0474 35.807 61.2077 36.9971 60.5473L41.864 57.8459V65.2427C41.864 67.0188 43.3038 68.4587 45.08 68.4587H59.2518L68.1709 73.4113C69.361 74.0717 70.8379 73.9114 71.8587 73.0111C72.8794 72.1107 73.2228 70.6653 72.7161 69.4021L72.3409 68.448H72.952C74.7281 68.448 76.168 67.0081 76.168 65.232V48.08C76.168 46.3038 74.7281 44.864 72.952 44.864ZM41.8641 48.08V54.1582L35.4321 57.728L37.5761 52.368H32.2161V35.216H60.0881V44.864H45.0801C43.304 44.864 41.8641 46.3038 41.8641 48.08ZM72.9521 65.2319H67.5921L69.7361 70.5919L60.0881 65.2319H45.0801V48.0799H72.9521V65.2319Z" fill="white"/>
<path d="M63.304 44.864H62.8401V45.3278H63.304V44.864ZM32.827 55.584L33.2587 55.7537L33.5079 55.1201H32.827V55.584ZM32.4518 56.5381L32.8824 56.7107L32.8835 56.7078L32.4518 56.5381ZM36.9971 60.5473L37.2222 60.9529L37.2222 60.9529L36.9971 60.5473ZM41.864 57.8459H42.3278V57.0579L41.6389 57.4403L41.864 57.8459ZM59.2518 68.4587L59.477 68.0532L59.372 67.9948H59.2518V68.4587ZM68.1709 73.4113L67.9457 73.8168L67.9458 73.8169L68.1709 73.4113ZM72.7161 69.4021L72.2845 69.5718L72.2856 69.5747L72.7161 69.4021ZM72.3409 68.448V67.9841H71.6601L71.9093 68.6177L72.3409 68.448ZM41.8641 54.1582L42.0892 54.5638L42.328 54.4313V54.1582H41.8641ZM35.4321 57.728L35.0014 57.5557L34.5172 58.7662L35.6572 58.1336L35.4321 57.728ZM37.5761 52.368L38.0068 52.5403L38.2612 51.9041H37.5761V52.368ZM32.2161 52.368H31.7523V52.8318H32.2161V52.368ZM32.2161 35.216V34.7522H31.7523V35.216H32.2161ZM60.0881 35.216H60.5519V34.7522H60.0881V35.216ZM60.0881 44.864V45.3278H60.5519V44.864H60.0881ZM72.9521 65.2319V65.6957H73.416V65.2319H72.9521ZM67.5921 65.2319V64.7681H66.907L67.1615 65.4042L67.5921 65.2319ZM69.7361 70.5919L69.5109 70.9974L70.6513 71.631L70.1668 70.4196L69.7361 70.5919ZM60.0881 65.2319L60.3134 64.8264L60.2083 64.7681H60.0881V65.2319ZM45.0801 65.2319H44.6163V65.6957H45.0801V65.2319ZM45.0801 48.0799V47.6161H44.6163V48.0799H45.0801ZM72.9521 48.0799H73.416V47.6161H72.9521V48.0799ZM72.952 44.4001H63.304V45.3278H72.952V44.4001ZM63.7678 44.864V35.216H62.8401V44.864H63.7678ZM63.7678 35.216C63.7678 33.1837 62.1203 31.5362 60.088 31.5362V32.4638C61.6079 32.4638 62.8401 33.696 62.8401 35.216H63.7678ZM60.088 31.5362H32.216V32.4638H60.088V31.5362ZM32.216 31.5362C30.1837 31.5362 28.5362 33.1837 28.5362 35.216H29.4638C29.4638 33.696 30.696 32.4638 32.216 32.4638V31.5362ZM28.5362 35.216V52.368H29.4638V35.216H28.5362ZM28.5362 52.368C28.5362 54.4003 30.1837 56.0478 32.216 56.0478V55.1201C30.696 55.1201 29.4638 53.888 29.4638 52.368H28.5362ZM32.216 56.0478H32.827V55.1201H32.216V56.0478ZM32.3954 55.4142L32.0202 56.3683L32.8835 56.7078L33.2587 55.7537L32.3954 55.4142ZM32.0213 56.3654C31.4416 57.8108 31.8345 59.4647 33.0025 60.4949L33.6161 59.7992C32.7426 59.0287 32.4487 57.7918 32.8823 56.7107L32.0213 56.3654ZM33.0025 60.4949C34.1704 61.5252 35.8604 61.7086 37.2222 60.9529L36.7721 60.1418C35.7536 60.7069 34.4896 60.5697 33.6161 59.7992L33.0025 60.4949ZM37.2222 60.9529L42.0891 58.2515L41.6389 57.4403L36.772 60.1418L37.2222 60.9529ZM41.4001 57.8459V65.2427H42.3278V57.8459H41.4001ZM41.4001 65.2427C41.4001 67.275 43.0477 68.9225 45.08 68.9225V67.9948C43.56 67.9948 42.3278 66.7627 42.3278 65.2427H41.4001ZM45.08 68.9225H59.2518V67.9948H45.08V68.9225ZM59.0266 68.8642L67.9457 73.8168L68.396 73.0058L59.477 68.0532L59.0266 68.8642ZM67.9458 73.8169C69.3076 74.5726 70.9976 74.3891 72.1655 73.3589L71.5518 72.6632C70.6783 73.4337 69.4144 73.5709 68.3959 73.0057L67.9458 73.8169ZM72.1655 73.3589C73.3335 72.3287 73.7264 70.6748 73.1466 69.2294L72.2856 69.5747C72.7192 70.6558 72.4253 71.8927 71.5518 72.6632L72.1655 73.3589ZM73.1478 69.2323L72.7726 68.2782L71.9093 68.6177L72.2845 69.5718L73.1478 69.2323ZM72.3409 68.9118H72.952V67.9841H72.3409V68.9118ZM72.952 68.9118C74.9843 68.9118 76.6318 67.2643 76.6318 65.232H75.7041C75.7041 66.7519 74.4719 67.9841 72.952 67.9841V68.9118ZM76.6318 65.232V48.08H75.7041V65.232H76.6318ZM76.6318 48.08C76.6318 46.0477 74.9843 44.4001 72.952 44.4001V45.3278C74.4719 45.3278 75.7041 46.56 75.7041 48.08H76.6318ZM41.4003 48.08V54.1582H42.328V48.08H41.4003ZM41.639 53.7527L35.207 57.3224L35.6572 58.1336L42.0892 54.5638L41.639 53.7527ZM35.8628 57.9003L38.0068 52.5403L37.1454 52.1957L35.0014 57.5557L35.8628 57.9003ZM37.5761 51.9041H32.2161V52.8318H37.5761V51.9041ZM32.68 52.368V35.216H31.7523V52.368H32.68ZM32.2161 35.6799H60.0881V34.7522H32.2161V35.6799ZM59.6243 35.216V44.864H60.5519V35.216H59.6243ZM60.0881 44.4002H45.0801V45.3278H60.0881V44.4002ZM45.0801 44.4002C43.0478 44.4002 41.4003 46.0477 41.4003 48.08H42.328C42.328 46.56 43.5601 45.3278 45.0801 45.3278V44.4002ZM72.9521 64.7681H67.5921V65.6957H72.9521V64.7681ZM67.1615 65.4042L69.3055 70.7642L70.1668 70.4196L68.0228 65.0596L67.1615 65.4042ZM69.9614 70.1864L60.3134 64.8264L59.8629 65.6374L69.5109 70.9974L69.9614 70.1864ZM60.0881 64.7681H45.0801V65.6957H60.0881V64.7681ZM45.544 65.2319V48.0799H44.6163V65.2319H45.544ZM45.0801 48.5438H72.9521V47.6161H45.0801V48.5438ZM72.4883 48.0799V65.2319H73.416V48.0799H72.4883Z" fill="white"/>
<path fill-rule="evenodd" clip-rule="evenodd" d="M49.3684 54.5119H68.6644C69.5524 54.5119 70.2724 53.792 70.2724 52.9039C70.2724 52.0158 69.5524 51.2959 68.6644 51.2959H49.3684C48.4803 51.2959 47.7604 52.0158 47.7604 52.9039C47.7604 53.792 48.4803 54.5119 49.3684 54.5119Z" fill="white" stroke="white" stroke-width="0.927692"/>
<path fill-rule="evenodd" clip-rule="evenodd" d="M49.3684 60.9439H68.6644C69.5524 60.9439 70.2724 60.224 70.2724 59.3359C70.2724 58.4478 69.5524 57.7279 68.6644 57.7279H49.3684C48.4803 57.7279 47.7604 58.4478 47.7604 59.3359C47.7604 60.224 48.4803 60.9439 49.3684 60.9439Z" fill="white" stroke="white" stroke-width="0.927692"/>
</svg>
