<svg width="54" height="54" viewBox="0 0 54 54" fill="none" xmlns="http://www.w3.org/2000/svg">
<path d="M28.0547 42.8203C28.0547 43.4029 27.5826 43.875 27 43.875C26.4174 43.875 25.9453 43.4029 25.9453 42.8203C25.9453 42.2378 26.4174 41.7656 27 41.7656C27.5826 41.7656 28.0547 42.2378 28.0547 42.8203Z" fill="#83C6F2"/>
<path d="M50.5195 33.3281C50.5195 29.8386 47.6809 27 44.1914 27C40.7019 27 37.8633 29.8386 37.8633 33.3281C37.8633 36.8177 40.7019 39.6562 44.1914 39.6562C47.6809 39.6562 50.5195 36.8177 50.5195 33.3281ZM44.1914 37.5469C41.8653 37.5469 39.9727 35.6542 39.9727 33.3281C39.9727 31.002 41.8653 29.1094 44.1914 29.1094C46.5175 29.1094 48.4102 31.002 48.4102 33.3281C48.4102 35.6542 46.5175 37.5469 44.1914 37.5469Z" fill="#83C6F2"/>
<path d="M44.1914 39.6562C41.5337 39.6562 38.8834 40.7596 37.078 42.5484C34.7017 39.4255 31.0375 37.5469 27 37.5469C23.1335 37.5469 19.3869 39.311 16.9224 42.5484C15.1166 40.76 12.4667 39.6562 9.80859 39.6562C4.4919 39.6562 0 44.0031 0 49.1484V51.2578C0 51.8404 0.472137 52.3125 1.05469 52.3125H52.9453C53.5279 52.3125 54 51.8404 54 51.2578V49.1484C54 44.0031 49.5081 39.6562 44.1914 39.6562ZM2.10938 49.1484C2.10938 45.1464 5.63516 41.7656 9.80859 41.7656C12.0922 41.7656 14.3569 42.7775 15.7589 44.3859C14.832 46.1764 14.3438 48.172 14.3438 50.2031H2.10938V49.1484ZM27 39.6562C32.8688 39.6562 37.5469 44.418 37.5469 50.2031H16.4531C16.4531 44.341 21.2268 39.6562 27 39.6562ZM51.8906 50.2031H39.6562C39.6562 48.172 39.168 46.1764 38.2411 44.3859C39.6431 42.7775 41.9078 41.7656 44.1914 41.7656C48.3648 41.7656 51.8906 45.1464 51.8906 49.1484V50.2031Z" fill="#83C6F2"/>
<path d="M16.1367 33.3281C16.1367 29.8386 13.2981 27 9.80859 27C6.31906 27 3.48047 29.8386 3.48047 33.3281C3.48047 36.8177 6.31906 39.6562 9.80859 39.6562C13.2981 39.6562 16.1367 36.8177 16.1367 33.3281ZM9.80859 37.5469C7.48251 37.5469 5.58984 35.6542 5.58984 33.3281C5.58984 31.002 7.48251 29.1094 9.80859 29.1094C12.1347 29.1094 14.0273 31.002 14.0273 33.3281C14.0273 35.6542 12.1347 37.5469 9.80859 37.5469Z" fill="#83C6F2"/>
<path d="M35.4375 29.1094C35.4375 24.4568 31.6526 20.6719 27 20.6719C22.3474 20.6719 18.5625 24.4568 18.5625 29.1094C18.5625 33.7619 22.3474 37.5469 27 37.5469C31.6526 37.5469 35.4375 33.7619 35.4375 29.1094ZM27 35.4375C23.5105 35.4375 20.6719 32.5989 20.6719 29.1094C20.6719 25.6198 23.5105 22.7812 27 22.7812C30.4895 22.7812 33.3281 25.6198 33.3281 29.1094C33.3281 32.5989 30.4895 35.4375 27 35.4375Z" fill="#83C6F2"/>
<path d="M35.3465 7.82158C35.2225 7.43967 34.8925 7.16158 34.495 7.1039L29.9458 6.44348L27.9089 2.27911C27.7322 1.91698 27.3647 1.6875 26.9618 1.6875C26.5589 1.6875 26.1914 1.91698 26.0142 2.2787L23.9778 6.44348L19.4286 7.10349C19.031 7.16116 18.701 7.43967 18.577 7.82158C18.453 8.20349 18.5564 8.62248 18.844 8.90263L22.1382 12.1133L21.3608 16.6472C21.2928 17.0427 21.4556 17.4427 21.7806 17.6784C22.1036 17.9132 22.5337 17.9466 22.8913 17.7587L26.9618 15.6184L31.0339 17.7587C31.389 17.9458 31.8195 17.9144 32.1446 17.6784C32.4692 17.4423 32.632 17.0427 32.564 16.6468L31.7857 12.1133L35.0796 8.90263C35.3671 8.62248 35.4706 8.20349 35.3465 7.82158ZM29.9157 10.9898C29.6673 11.232 29.5536 11.5814 29.6125 11.9233L30.123 14.8975L27.4525 13.4934C27.1451 13.3319 26.778 13.3319 26.4707 13.4934L23.801 14.8975L24.3111 11.9233C24.3696 11.581 24.2559 11.232 24.0074 10.9898L21.847 8.88409L24.8318 8.45068C25.1771 8.40083 25.4749 8.1833 25.6278 7.87019L26.9618 5.14284L28.2954 7.87019C28.4486 8.18372 28.7465 8.40083 29.0913 8.45068L32.0766 8.88409L29.9157 10.9898Z" fill="#83C6F2"/>
<path d="M51.1106 15.7264C50.9866 15.3445 50.6566 15.0664 50.259 15.0087L47.177 14.5609L45.7989 11.7676C45.6213 11.4075 45.255 11.1797 44.8534 11.1797C44.8534 11.1797 44.8534 11.1797 44.8529 11.1797C44.4517 11.1797 44.085 11.4075 43.9074 11.7676L42.5285 14.5609L39.446 15.0087C39.0489 15.0664 38.7189 15.3445 38.5949 15.7264C38.4704 16.1083 38.5738 16.5273 38.8614 16.8074L41.0915 18.9823L40.565 22.0516C40.4974 22.4471 40.6597 22.8468 40.9848 23.0828C41.3094 23.3189 41.74 23.3502 42.0951 23.1636L44.8529 21.7146L47.61 23.1636C47.9651 23.3502 48.396 23.3189 48.7207 23.0828C49.0453 22.8472 49.2076 22.4471 49.1401 22.0516L48.6136 18.9823L50.8441 16.8074C51.1316 16.5273 51.2346 16.1083 51.1106 15.7264ZM46.7444 17.8592C46.4955 18.1015 46.3822 18.4504 46.4412 18.7924L46.6999 20.3019L45.344 19.5896C45.0367 19.4281 44.6696 19.4281 44.3627 19.5896L43.0056 20.3023L43.2647 18.7924C43.3232 18.4504 43.2099 18.1015 42.9615 17.8592L41.864 16.7889L43.3805 16.5689C43.7241 16.519 44.0211 16.3032 44.1748 15.9921L44.8529 14.6181L45.5307 15.9917C45.6843 16.3032 45.9814 16.519 46.325 16.5689L47.8415 16.7889L46.7444 17.8592Z" fill="#83C6F2"/>
<path d="M15.2512 15.7264C15.1272 15.3445 14.7972 15.0664 14.3997 15.0087L11.3176 14.5609L9.93949 11.7676C9.76192 11.4075 9.39567 11.1797 8.99398 11.1797C8.59229 11.1797 8.22562 11.4075 8.04806 11.7676L6.66913 14.5609L3.58665 15.0087C3.18949 15.0664 2.85949 15.3445 2.73548 15.7264C2.61106 16.1083 2.71447 16.5273 3.00204 16.8074L5.23212 18.9823L4.70602 22.0516C4.63804 22.4471 4.80077 22.8468 5.12542 23.0828C5.45006 23.3189 5.88059 23.3502 6.23614 23.1636L8.99357 21.7146L11.7506 23.1636C12.1082 23.3514 12.5383 23.3177 12.8613 23.0828C13.186 22.8472 13.3487 22.4471 13.2807 22.0516L12.7542 18.9823L14.9847 16.8074C15.2723 16.5273 15.3753 16.1083 15.2512 15.7264ZM10.8846 17.8592C10.6362 18.1015 10.5229 18.4504 10.5814 18.7924L10.8405 20.3019L9.48424 19.5896C9.17731 19.4281 8.81023 19.4281 8.5033 19.5896L7.1458 20.3023L7.40494 18.7924C7.46386 18.4504 7.35015 18.1015 7.10172 17.8592L6.00419 16.7889L7.52112 16.5689C7.86431 16.519 8.16135 16.3032 8.31502 15.9921L8.99316 14.6181L9.67087 15.9917C9.82455 16.3032 10.1216 16.519 10.4652 16.5689L11.9817 16.7889L10.8846 17.8592Z" fill="#83C6F2"/>
<path d="M31.6218 43.1466C31.1348 42.8265 30.481 42.9621 30.1613 43.449C29.8412 43.9356 29.9767 44.5894 30.4637 44.9095C31.4388 45.5502 32.2183 46.4433 32.7177 47.4923C32.9673 48.0176 33.596 48.2421 34.1229 47.9912C34.6491 47.7411 34.8723 47.1116 34.6223 46.5859C33.9573 45.1884 32.9195 43.999 31.6218 43.1466Z" fill="#83C6F2"/>
</svg>
