<svg width="53" height="53" viewBox="0 0 53 53" fill="none" xmlns="http://www.w3.org/2000/svg">
<g clip-path="url(#clip0)">
<path d="M52.3131 24.6417C51.8476 24.0928 40.7223 11.2168 26.5003 11.2168C12.2778 11.2168 1.15312 24.0928 0.686516 24.6422C-0.228928 25.7186 -0.228928 27.2804 0.687055 28.3578C1.15312 28.9068 12.2778 41.7822 26.5003 41.7822C40.7223 41.7822 51.8476 28.9057 52.3136 28.3568C53.2291 27.2804 53.2291 25.7186 52.3131 24.6417ZM30.8445 18.9515C31.8009 18.4295 33.1345 19.0285 33.8228 20.2889C34.5112 21.5499 34.2937 22.9954 33.3374 23.5174C32.3816 24.04 31.0474 23.4405 30.3586 22.1801C29.6708 20.9191 29.8876 19.4736 30.8445 18.9515ZM26.5003 37.1173C16.5655 37.1173 8.2049 29.4875 5.3111 26.4995C7.26523 24.4813 11.7144 20.3486 17.4562 17.8773C16.3363 19.5812 15.6797 21.6171 15.6797 23.8086C15.6797 29.7846 20.5238 34.6287 26.4998 34.6287C32.4758 34.6287 37.3205 29.7846 37.3205 23.8086C37.3205 21.6171 36.6644 19.5812 35.5445 17.8773C41.2863 20.3492 45.7349 24.4813 47.689 26.4995C44.7952 29.4891 36.4346 37.1173 26.5003 37.1173Z" fill="#050402"/>
</g>
<defs>
<clipPath id="clip0">
<rect width="53" height="53" fill="white"/>
</clipPath>
</defs>
</svg>
