<svg width="23" height="23" viewBox="0 0 23 23" fill="none" xmlns="http://www.w3.org/2000/svg">
<path fill-rule="evenodd" clip-rule="evenodd" d="M1.84326 6.16871C1.84326 5.19091 2.23169 4.25317 2.92309 3.56176C3.6145 2.87036 4.55224 2.48193 5.53004 2.48193H16.5904C17.5682 2.48193 18.5059 2.87036 19.1973 3.56176C19.8887 4.25317 20.2771 5.19091 20.2771 6.16871V17.229C20.2771 18.2068 19.8887 19.1446 19.1973 19.836C18.5059 20.5274 17.5682 20.9158 16.5904 20.9158H5.53004C4.55224 20.9158 3.6145 20.5274 2.92309 19.836C2.23169 19.1446 1.84326 18.2068 1.84326 17.229V6.16871ZM5.53004 4.32532C5.04114 4.32532 4.57227 4.51953 4.22656 4.86524C3.88086 5.21094 3.68665 5.67981 3.68665 6.16871V17.229C3.68665 17.7179 3.88086 18.1868 4.22656 18.5325C4.57227 18.8782 5.04114 19.0724 5.53004 19.0724H11.0602V12.6206H10.1385C9.89406 12.6206 9.65962 12.5235 9.48677 12.3506C9.31392 12.1778 9.21681 11.9433 9.21681 11.6989C9.21681 11.4544 9.31392 11.22 9.48677 11.0471C9.65962 10.8743 9.89406 10.7772 10.1385 10.7772H11.0602V9.39464C11.0602 8.53907 11.4001 7.71854 12.005 7.11356C12.61 6.50858 13.4306 6.16871 14.2861 6.16871H14.8391C15.0836 6.16871 15.318 6.26581 15.4909 6.43867C15.6637 6.61152 15.7608 6.84595 15.7608 7.0904C15.7608 7.33485 15.6637 7.56929 15.4909 7.74214C15.318 7.91499 15.0836 8.01209 14.8391 8.01209H14.2861C14.1046 8.01209 13.9248 8.04786 13.757 8.11733C13.5893 8.18681 13.4369 8.28865 13.3085 8.41703C13.1801 8.54541 13.0783 8.69782 13.0088 8.86556C12.9393 9.0333 12.9036 9.21308 12.9036 9.39464V10.7772H14.8391C15.0836 10.7772 15.318 10.8743 15.4909 11.0471C15.6637 11.22 15.7608 11.4544 15.7608 11.6989C15.7608 11.9433 15.6637 12.1778 15.4909 12.3506C15.318 12.5235 15.0836 12.6206 14.8391 12.6206H12.9036V19.0724H16.5904C17.0793 19.0724 17.5481 18.8782 17.8938 18.5325C18.2395 18.1868 18.4337 17.7179 18.4337 17.229V6.16871C18.4337 5.67981 18.2395 5.21094 17.8938 4.86524C17.5481 4.51953 17.0793 4.32532 16.5904 4.32532H5.53004Z" fill="#CECECE"/>
</svg>
