<svg width="61" height="61" viewBox="0 0 61 61" fill="none" xmlns="http://www.w3.org/2000/svg">
<circle cx="30.5" cy="30.5" r="30.5" fill="#051A26"/>
<mask id="path-2-inside-1_2968:132" fill="white">
<path d="M35.707 27.707H34.1798V23.7848C34.1798 23.623 34.0486 23.4918 33.8868 23.4918C33.725 23.4918 33.5938 23.623 33.5938 23.7848V27.707H32.9664V18.5859H33.5938V22.5082C33.5938 22.67 33.725 22.8012 33.8868 22.8012C34.0486 22.8012 34.1798 22.67 34.1798 22.5082V18.293C34.1798 18.1312 34.0486 18 33.8868 18H32.6735C32.5116 18 32.3805 18.1312 32.3805 18.293V19.2134H28.4268C28.2649 19.2134 28.1338 19.3446 28.1338 19.5064V20.427H24.7868C24.5236 20.4814 24.4424 20.6332 24.543 20.8824L25.6479 22.5398L24.543 24.1973C24.4424 24.4464 24.5236 24.5982 24.7868 24.6527H29.6266C29.7884 24.6527 29.9195 24.5216 29.9195 24.3598V23.4395H32.3805V27.707H30.8535C30.6917 27.707 30.5606 27.8382 30.5606 28V30.1336H29.0653C28.9034 30.1336 28.7723 30.2648 28.7723 30.4266C28.7723 30.5884 28.9034 30.7195 29.0653 30.7195H30.5606V37.4141H26.293V30.7195H27.7883C27.9502 30.7195 28.0813 30.5884 28.0813 30.4266C28.0813 30.2648 27.9502 30.1336 27.7883 30.1336H26C25.8382 30.1336 25.7071 30.2648 25.7071 30.4266V32.5605H21.1465C20.9847 32.5605 20.8536 32.6917 20.8536 32.8535V34.9871H19.1766C19.0147 34.9871 18.8836 35.1183 18.8836 35.2801C18.8836 35.4419 19.0147 35.573 19.1766 35.573H20.8535V37.4141H16.5859V35.573H17.8996C18.0615 35.573 18.1926 35.4419 18.1926 35.2801C18.1926 35.1183 18.0615 34.9871 17.8996 34.9871H16.293C16.1311 34.9871 16 35.1183 16 35.2801V37.707C16 37.8688 16.1311 38 16.293 38L35.707 37.9999C35.8689 37.9999 36 37.8687 36 37.707V28C36 27.8382 35.8689 27.707 35.707 27.707ZM29.3336 24.0668H25.3342L26.2438 22.7023C26.3094 22.6039 26.3094 22.4757 26.2438 22.3773L25.3342 21.0129H28.1338V23.1465C28.1338 23.3083 28.2649 23.4395 28.4268 23.4395H29.3336V24.0668ZM28.7197 22.8536V19.7994H32.3805V22.8536H28.7197ZM21.4395 33.1464H25.7071V37.414H21.4395V33.1464ZM35.4141 37.414H31.1465L31.1465 28.293H35.4141V37.414Z"/>
</mask>
<path d="M35.707 27.707H34.1798V23.7848C34.1798 23.623 34.0486 23.4918 33.8868 23.4918C33.725 23.4918 33.5938 23.623 33.5938 23.7848V27.707H32.9664V18.5859H33.5938V22.5082C33.5938 22.67 33.725 22.8012 33.8868 22.8012C34.0486 22.8012 34.1798 22.67 34.1798 22.5082V18.293C34.1798 18.1312 34.0486 18 33.8868 18H32.6735C32.5116 18 32.3805 18.1312 32.3805 18.293V19.2134H28.4268C28.2649 19.2134 28.1338 19.3446 28.1338 19.5064V20.427H24.7868C24.5236 20.4814 24.4424 20.6332 24.543 20.8824L25.6479 22.5398L24.543 24.1973C24.4424 24.4464 24.5236 24.5982 24.7868 24.6527H29.6266C29.7884 24.6527 29.9195 24.5216 29.9195 24.3598V23.4395H32.3805V27.707H30.8535C30.6917 27.707 30.5606 27.8382 30.5606 28V30.1336H29.0653C28.9034 30.1336 28.7723 30.2648 28.7723 30.4266C28.7723 30.5884 28.9034 30.7195 29.0653 30.7195H30.5606V37.4141H26.293V30.7195H27.7883C27.9502 30.7195 28.0813 30.5884 28.0813 30.4266C28.0813 30.2648 27.9502 30.1336 27.7883 30.1336H26C25.8382 30.1336 25.7071 30.2648 25.7071 30.4266V32.5605H21.1465C20.9847 32.5605 20.8536 32.6917 20.8536 32.8535V34.9871H19.1766C19.0147 34.9871 18.8836 35.1183 18.8836 35.2801C18.8836 35.4419 19.0147 35.573 19.1766 35.573H20.8535V37.4141H16.5859V35.573H17.8996C18.0615 35.573 18.1926 35.4419 18.1926 35.2801C18.1926 35.1183 18.0615 34.9871 17.8996 34.9871H16.293C16.1311 34.9871 16 35.1183 16 35.2801V37.707C16 37.8688 16.1311 38 16.293 38L35.707 37.9999C35.8689 37.9999 36 37.8687 36 37.707V28C36 27.8382 35.8689 27.707 35.707 27.707ZM29.3336 24.0668H25.3342L26.2438 22.7023C26.3094 22.6039 26.3094 22.4757 26.2438 22.3773L25.3342 21.0129H28.1338V23.1465C28.1338 23.3083 28.2649 23.4395 28.4268 23.4395H29.3336V24.0668ZM28.7197 22.8536V19.7994H32.3805V22.8536H28.7197ZM21.4395 33.1464H25.7071V37.414H21.4395V33.1464ZM35.4141 37.414H31.1465L31.1465 28.293H35.4141V37.414Z" fill="#83C6F2"/>
<path d="M34.1798 27.707H32.4211V29.4657H34.1798V27.707ZM33.5938 27.707V29.4657H35.3524V27.707H33.5938ZM32.9664 27.707H31.2078V29.4657H32.9664V27.707ZM32.9664 18.5859V16.8273H31.2078V18.5859H32.9664ZM33.5938 18.5859H35.3524V16.8273H33.5938V18.5859ZM32.3805 19.2134V20.9721H34.1391V19.2134H32.3805ZM28.1338 20.427V22.1856H29.8924V20.427H28.1338ZM24.7868 20.427V18.6683H24.6066L24.4301 18.7049L24.7868 20.427ZM24.543 20.8824L22.9123 21.5409L22.9798 21.708L23.0797 21.8579L24.543 20.8824ZM25.6479 22.5398L27.1112 23.5153L27.7615 22.5398L27.1112 21.5643L25.6479 22.5398ZM24.543 24.1973L23.0797 23.2218L22.9798 23.3717L22.9123 23.5388L24.543 24.1973ZM24.7868 24.6527L24.4301 26.3748L24.6066 26.4114H24.7868V24.6527ZM29.9195 23.4395V21.6809H28.1609V23.4395H29.9195ZM32.3805 23.4395H34.1391V21.6809H32.3805V23.4395ZM32.3805 27.707V29.4657H34.1391V27.707H32.3805ZM30.5606 30.1336V31.8922H32.3192V30.1336H30.5606ZM30.5606 30.7195H32.3192V28.9609H30.5606V30.7195ZM30.5606 37.4141V39.1727H32.3192V37.4141H30.5606ZM26.293 37.4141H24.5344V39.1727H26.293V37.4141ZM26.293 30.7195V28.9609H24.5344V30.7195H26.293ZM25.7071 32.5605V34.3191H27.4657V32.5605H25.7071ZM20.8536 34.9871V36.7457H22.6122V34.9871H20.8536ZM20.8535 35.573H22.6122V33.8144H20.8535V35.573ZM20.8535 37.4141V39.1727H22.6122V37.4141H20.8535ZM16.5859 37.4141H14.8273V39.1727H16.5859V37.4141ZM16.5859 35.573V33.8144H14.8273V35.573H16.5859ZM16.293 38V39.7586H16.293L16.293 38ZM35.707 37.9999V36.2413H35.707L35.707 37.9999ZM29.3336 24.0668V25.8254H31.0923V24.0668H29.3336ZM25.3342 24.0668L23.8709 23.0913L22.0482 25.8254H25.3342V24.0668ZM26.2438 22.7023L24.7807 21.7266L24.7805 21.7268L26.2438 22.7023ZM26.2438 22.3773L24.7805 23.3528L24.7807 23.3531L26.2438 22.3773ZM25.3342 21.0129V19.2543H22.0482L23.8709 21.9884L25.3342 21.0129ZM28.1338 21.0129H29.8924V19.2543H28.1338V21.0129ZM29.3336 23.4395H31.0923V21.6809H29.3336V23.4395ZM28.7197 22.8536H26.9611V24.6122H28.7197V22.8536ZM28.7197 19.7994V18.0407H26.9611V19.7994H28.7197ZM32.3805 19.7994H34.1392V18.0407H32.3805V19.7994ZM32.3805 22.8536V24.6122H34.1392V22.8536H32.3805ZM21.4395 33.1464V31.3878H19.6809V33.1464H21.4395ZM25.7071 33.1464H27.4657V31.3878H25.7071V33.1464ZM25.7071 37.414V39.1726H27.4657V37.414H25.7071ZM21.4395 37.414H19.6809V39.1726H21.4395V37.414ZM35.4141 37.414V39.1726H37.1727V37.414H35.4141ZM31.1465 37.414L29.3879 37.414L29.3879 39.1726H31.1465V37.414ZM31.1465 28.293V26.5343H29.3879L29.3879 28.293L31.1465 28.293ZM35.4141 28.293H37.1727V26.5343H35.4141V28.293ZM35.707 25.9484H34.1798V29.4657H35.707V25.9484ZM35.9384 27.707V23.7848H32.4211V27.707H35.9384ZM35.9384 23.7848C35.9384 22.6519 35.02 21.7332 33.8868 21.7332V25.2504C33.0772 25.2504 32.4211 24.5941 32.4211 23.7848H35.9384ZM33.8868 21.7332C32.7535 21.7332 31.8352 22.6519 31.8352 23.7848H35.3524C35.3524 24.5941 34.6964 25.2504 33.8868 25.2504V21.7332ZM31.8352 23.7848V27.707H35.3524V23.7848H31.8352ZM33.5938 25.9484H32.9664V29.4657H33.5938V25.9484ZM34.7251 27.707V18.5859H31.2078V27.707H34.7251ZM32.9664 20.3446H33.5938V16.8273H32.9664V20.3446ZM31.8352 18.5859V22.5082H35.3524V18.5859H31.8352ZM31.8352 22.5082C31.8352 23.6411 32.7535 24.5598 33.8868 24.5598V21.0425C34.6964 21.0425 35.3524 21.6989 35.3524 22.5082H31.8352ZM33.8868 24.5598C35.02 24.5598 35.9384 23.6411 35.9384 22.5082H32.4211C32.4211 21.6989 33.0772 21.0425 33.8868 21.0425V24.5598ZM35.9384 22.5082V18.293H32.4211V22.5082H35.9384ZM35.9384 18.293C35.9384 17.1601 35.02 16.2414 33.8868 16.2414V19.7586C33.0772 19.7586 32.4211 19.1023 32.4211 18.293H35.9384ZM33.8868 16.2414H32.6735V19.7586H33.8868V16.2414ZM32.6735 16.2414C31.5402 16.2414 30.6219 17.1601 30.6219 18.293H34.1391C34.1391 19.1023 33.483 19.7586 32.6735 19.7586V16.2414ZM30.6219 18.293V19.2134H34.1391V18.293H30.6219ZM32.3805 17.4548H28.4268V20.9721H32.3805V17.4548ZM28.4268 17.4548C27.2935 17.4548 26.3752 18.3735 26.3752 19.5064H29.8924C29.8924 20.3157 29.2363 20.9721 28.4268 20.9721V17.4548ZM26.3752 19.5064V20.427H29.8924V19.5064H26.3752ZM28.1338 18.6683H24.7868V22.1856H28.1338V18.6683ZM24.4301 18.7049C24.0745 18.7785 23.3755 19.0091 22.9779 19.7519C22.5804 20.4947 22.7763 21.2042 22.9123 21.5409L26.1737 20.2239C26.209 20.3115 26.3953 20.8205 26.079 21.4115C25.7627 22.0025 25.2359 22.1299 25.1434 22.149L24.4301 18.7049ZM23.0797 21.8579L24.1847 23.5153L27.1112 21.5643L26.0063 19.9069L23.0797 21.8579ZM24.1847 21.5643L23.0797 23.2218L26.0063 25.1728L27.1112 23.5153L24.1847 21.5643ZM22.9123 23.5388C22.7763 23.8755 22.5804 24.585 22.9779 25.3278C23.3755 26.0706 24.0745 26.3012 24.4301 26.3748L25.1434 22.9306C25.2359 22.9498 25.7627 23.0772 26.079 23.6682C26.3953 24.2592 26.209 24.7682 26.1737 24.8558L22.9123 23.5388ZM24.7868 26.4114H29.6266V22.8941H24.7868V26.4114ZM29.6266 26.4114C30.7598 26.4114 31.6782 25.4927 31.6782 24.3598H28.1609C28.1609 23.5504 28.817 22.8941 29.6266 22.8941V26.4114ZM31.6782 24.3598V23.4395H28.1609V24.3598H31.6782ZM29.9195 25.1981H32.3805V21.6809H29.9195V25.1981ZM30.6219 23.4395V27.707H34.1391V23.4395H30.6219ZM32.3805 25.9484H30.8535V29.4657H32.3805V25.9484ZM30.8535 25.9484C29.7203 25.9484 28.8019 26.8671 28.8019 28H32.3192C32.3192 28.8093 31.6631 29.4657 30.8535 29.4657V25.9484ZM28.8019 28V30.1336H32.3192V28H28.8019ZM30.5606 28.375H29.0653V31.8922H30.5606V28.375ZM29.0653 28.375C27.932 28.375 27.0137 29.2936 27.0137 30.4266H30.5309C30.5309 31.2359 29.8749 31.8922 29.0653 31.8922V28.375ZM27.0137 30.4266C27.0137 31.5595 27.932 32.4782 29.0653 32.4782V28.9609C29.8749 28.9609 30.5309 29.6172 30.5309 30.4266H27.0137ZM29.0653 32.4782H30.5606V28.9609H29.0653V32.4782ZM28.8019 30.7195V37.4141H32.3192V30.7195H28.8019ZM30.5606 35.6554H26.293V39.1727H30.5606V35.6554ZM28.0516 37.4141V30.7195H24.5344V37.4141H28.0516ZM26.293 32.4782H27.7883V28.9609H26.293V32.4782ZM27.7883 32.4782C28.9216 32.4782 29.8399 31.5595 29.8399 30.4266H26.3227C26.3227 29.6172 26.9788 28.9609 27.7883 28.9609V32.4782ZM29.8399 30.4266C29.8399 29.2936 28.9216 28.375 27.7883 28.375V31.8922C26.9788 31.8922 26.3227 31.2359 26.3227 30.4266H29.8399ZM27.7883 28.375H26V31.8922H27.7883V28.375ZM26 28.375C24.8668 28.375 23.9484 29.2936 23.9484 30.4266H27.4657C27.4657 31.2359 26.8096 31.8922 26 31.8922V28.375ZM23.9484 30.4266V32.5605H27.4657V30.4266H23.9484ZM25.7071 30.8019H21.1465V34.3191H25.7071V30.8019ZM21.1465 30.8019C20.0133 30.8019 19.0949 31.7206 19.0949 32.8535H22.6122C22.6122 33.6628 21.9561 34.3191 21.1465 34.3191V30.8019ZM19.0949 32.8535V34.9871H22.6122V32.8535H19.0949ZM20.8536 33.2285H19.1766V36.7457H20.8536V33.2285ZM19.1766 33.2285C18.0433 33.2285 17.125 34.1472 17.125 35.2801H20.6422C20.6422 36.0894 19.9861 36.7457 19.1766 36.7457V33.2285ZM17.125 35.2801C17.125 36.413 18.0433 37.3317 19.1766 37.3317V33.8144C19.9861 33.8144 20.6422 34.4708 20.6422 35.2801H17.125ZM19.1766 37.3317H20.8535V33.8144H19.1766V37.3317ZM19.0949 35.573V37.4141H22.6122V35.573H19.0949ZM20.8535 35.6554H16.5859V39.1727H20.8535V35.6554ZM18.3446 37.4141V35.573H14.8273V37.4141H18.3446ZM16.5859 37.3317H17.8996V33.8144H16.5859V37.3317ZM17.8996 37.3317C19.0329 37.3317 19.9512 36.413 19.9512 35.2801H16.434C16.434 34.4708 17.09 33.8144 17.8996 33.8144V37.3317ZM19.9512 35.2801C19.9512 34.1472 19.0329 33.2285 17.8996 33.2285V36.7457C17.09 36.7457 16.434 36.0894 16.434 35.2801H19.9512ZM17.8996 33.2285H16.293V36.7457H17.8996V33.2285ZM16.293 33.2285C15.1597 33.2285 14.2414 34.1472 14.2414 35.2801H17.7586C17.7586 36.0894 17.1025 36.7457 16.293 36.7457V33.2285ZM14.2414 35.2801V37.707H17.7586V35.2801H14.2414ZM14.2414 37.707C14.2414 38.8399 15.1597 39.7586 16.293 39.7586V36.2414C17.1025 36.2414 17.7586 36.8977 17.7586 37.707H14.2414ZM16.293 39.7586L35.707 39.7585L35.707 36.2413L16.293 36.2414L16.293 39.7586ZM35.707 39.7585C36.8403 39.7585 37.7586 38.8399 37.7586 37.707H34.2414C34.2414 36.8976 34.8975 36.2413 35.707 36.2413V39.7585ZM37.7586 37.707V28H34.2414V37.707H37.7586ZM37.7586 28C37.7586 26.8671 36.8403 25.9484 35.707 25.9484V29.4657C34.8975 29.4657 34.2414 28.8093 34.2414 28H37.7586ZM29.3336 22.3082H25.3342V25.8254H29.3336V22.3082ZM26.7975 25.0423L27.7071 23.6778L24.7805 21.7268L23.8709 23.0913L26.7975 25.0423ZM27.7069 23.6781C28.1666 22.9889 28.1666 22.0908 27.7069 21.4016L24.7807 23.3531C24.4523 22.8607 24.4523 22.219 24.7807 21.7266L27.7069 23.6781ZM27.7071 21.4018L26.7975 20.0374L23.8709 21.9884L24.7805 23.3528L27.7071 21.4018ZM25.3342 22.7715H28.1338V19.2543H25.3342V22.7715ZM26.3752 21.0129V23.1465H29.8924V21.0129H26.3752ZM26.3752 23.1465C26.3752 24.2794 27.2935 25.1981 28.4268 25.1981V21.6809C29.2363 21.6809 29.8924 22.3372 29.8924 23.1465H26.3752ZM28.4268 25.1981H29.3336V21.6809H28.4268V25.1981ZM27.575 23.4395V24.0668H31.0923V23.4395H27.575ZM30.4784 22.8536V19.7994H26.9611V22.8536H30.4784ZM28.7197 21.558H32.3805V18.0407H28.7197V21.558ZM30.6219 19.7994V22.8536H34.1392V19.7994H30.6219ZM32.3805 21.0949H28.7197V24.6122H32.3805V21.0949ZM21.4395 34.9051H25.7071V31.3878H21.4395V34.9051ZM23.9484 33.1464V37.414H27.4657V33.1464H23.9484ZM25.7071 35.6554H21.4395V39.1726H25.7071V35.6554ZM23.1981 37.414V33.1464H19.6809V37.414H23.1981ZM35.4141 35.6554H31.1465V39.1726H35.4141V35.6554ZM32.9052 37.414L32.9051 28.293L29.3879 28.293L29.3879 37.414L32.9052 37.414ZM31.1465 30.0516H35.4141V26.5343H31.1465V30.0516ZM33.6554 28.293V37.414H37.1727V28.293H33.6554Z" fill="white" mask="url(#path-2-inside-1_2968:132)"/>
</svg>
