<svg width="169" height="41" viewBox="0 0 169 41" fill="none" xmlns="http://www.w3.org/2000/svg">
<path fill-rule="evenodd" clip-rule="evenodd" d="M16.42 15.0124L23.9262 18.7656L31.4324 15.0124V0H16.42V15.0124ZM0 28.2686L7.95539 40.9999L20.6867 33.0445L20.6875 24.1928L12.7313 20.3132L0 28.2686ZM48.1222 28.2686L40.1668 40.9999L27.4355 33.0445L27.4347 24.1928L35.3909 20.3132L48.1222 28.2686Z" fill="#83C6F2"/>
<path d="M94.1651 6.53952H89.0811L81.3731 19.4135L73.7061 6.53952H68.6221L78.9541 23.7595V35.2395H83.7921V23.7595L94.1651 6.53952Z" fill="#9DA2A6"/>
<path d="M112.001 5.18652V15.1495C110.033 13.5095 107.532 12.5665 104.703 12.5665C97.9794 12.5665 93.1824 17.5275 93.1824 24.2105C93.1824 30.8115 97.9794 35.8135 104.703 35.8135C107.778 35.8135 110.525 34.6655 112.493 32.7385L113.108 35.2805H116.552V5.18652H112.001ZM105.031 31.4675C100.89 31.4675 97.8154 28.3515 97.8154 24.1695C97.8154 20.0285 100.89 16.9125 105.031 16.9125C109.213 16.9125 112.288 20.0285 112.288 24.1695C112.288 28.3105 109.213 31.4675 105.031 31.4675Z" fill="#9DA2A6"/>
<path d="M144.083 24.2515C144.083 17.8145 139.573 12.5665 132.767 12.5665C126.289 12.5665 121.41 17.5685 121.41 24.1695C121.41 30.8115 126.289 35.8135 132.767 35.8135C137.728 35.8135 141.787 32.9435 143.55 28.2695H138.753C137.564 30.3195 135.432 31.5495 132.767 31.5495C129.159 31.5495 126.576 29.3355 126.002 25.7275H143.96C144.042 25.2355 144.083 24.7435 144.083 24.2515ZM132.767 16.7075C136.17 16.7075 138.671 18.6755 139.491 22.0375H126.125C126.863 18.7575 129.364 16.7075 132.767 16.7075Z" fill="#9DA2A6"/>
<path d="M163.403 13.0995L156.925 29.5405L150.284 13.0995H145.487L154.835 35.2395H158.975L168.077 13.0995H163.403Z" fill="#9DA2A6"/>
</svg>
