<svg width="261" height="111" viewBox="0 0 261 111" fill="none" xmlns="http://www.w3.org/2000/svg">
<rect width="261" height="111" rx="7" fill="#F8F9FB"/>
<path d="M102.334 52.4175H94.7715C94.6777 52.4175 94.5879 52.4548 94.5216 52.521C94.4553 52.5873 94.4181 52.6772 94.418 52.7709V56.4686C94.4181 56.5624 94.4553 56.6523 94.5216 56.7187C94.5878 56.785 94.6777 56.8224 94.7715 56.8226H97.7218V61.4164C97.7218 61.4164 97.0593 61.6425 95.2278 61.6425C93.067 61.6425 90.0485 60.8527 90.0485 54.2152C90.0485 47.5764 93.1916 46.7027 96.1425 46.7027C98.6968 46.7027 99.7973 47.1527 100.497 47.3691C100.717 47.4366 100.921 47.2177 100.921 47.0223L101.765 43.4498C101.765 43.3585 101.734 43.2483 101.63 43.1735C101.345 42.9708 99.6104 42 95.2278 42C90.1789 42 85 44.1482 85 54.474C85 64.8006 90.9295 66.3392 95.9261 66.3392C100.063 66.3392 102.573 64.5712 102.573 64.5712C102.676 64.5139 102.688 64.3694 102.688 64.303V52.7707C102.688 52.5758 102.529 52.4175 102.334 52.4175ZM141.311 43.2372C141.311 43.1908 141.302 43.1448 141.285 43.1018C141.267 43.0588 141.242 43.0197 141.209 42.9866C141.176 42.9536 141.138 42.9274 141.095 42.9094C141.052 42.8914 141.006 42.8821 140.96 42.8819H136.701C136.655 42.8821 136.609 42.8914 136.566 42.9094C136.523 42.9273 136.484 42.9535 136.451 42.9865C136.418 43.0195 136.392 43.0587 136.375 43.1017C136.357 43.1447 136.348 43.1908 136.348 43.2372L136.349 51.4667H129.712V43.2372C129.712 43.1908 129.703 43.1448 129.686 43.1018C129.668 43.0588 129.643 43.0196 129.61 42.9866C129.577 42.9536 129.538 42.9274 129.496 42.9094C129.453 42.8914 129.407 42.8821 129.36 42.8819H125.102C125.008 42.8824 124.919 42.9201 124.853 42.9868C124.787 43.0534 124.75 43.1435 124.75 43.2372V65.5204C124.75 65.7168 124.908 65.8767 125.102 65.8767H129.36C129.555 65.8767 129.712 65.7166 129.712 65.5204V55.989H136.349L136.338 65.5204C136.338 65.7168 136.496 65.8767 136.691 65.8767H140.959C141.154 65.8767 141.31 65.7166 141.311 65.5204V43.2372ZM110.37 46.1615C110.37 44.628 109.141 43.3889 107.624 43.3889C106.109 43.3889 104.879 44.628 104.879 46.1615C104.879 47.6932 106.109 48.9355 107.624 48.9355C109.141 48.9355 110.37 47.6932 110.37 46.1615ZM110.066 60.8199V50.534C110.066 50.4403 110.029 50.3502 109.963 50.2836C109.897 50.2171 109.807 50.1794 109.713 50.1789H105.468C105.274 50.1789 105.099 50.3798 105.099 50.5753V65.3117C105.099 65.7449 105.369 65.8735 105.719 65.8735H109.543C109.963 65.8735 110.066 65.6673 110.066 65.3049V60.8199ZM157.494 50.2125H153.268C153.075 50.2125 152.917 50.3721 152.917 50.5687V61.4948C152.917 61.4948 151.843 62.2804 150.32 62.2804C148.796 62.2804 148.392 61.589 148.392 60.0971V50.5687C148.392 50.3721 148.234 50.2125 148.04 50.2125H143.751C143.558 50.2125 143.399 50.3721 143.399 50.5687V60.8184C143.399 65.2498 145.869 66.3339 149.267 66.3339C152.054 66.3339 154.301 64.7942 154.301 64.7942C154.301 64.7942 154.408 65.6055 154.457 65.7018C154.505 65.7978 154.631 65.8947 154.768 65.8947L157.496 65.8827C157.69 65.8827 157.848 65.7226 157.848 65.527L157.847 50.5689C157.847 50.3721 157.689 50.2125 157.494 50.2125ZM167.377 62.2669C165.911 62.2223 164.917 61.557 164.917 61.557V54.5006C164.917 54.5006 165.898 53.8994 167.101 53.7919C168.623 53.6556 170.089 54.1153 170.089 57.7452C170.089 61.5731 169.428 62.3285 167.377 62.2669ZM169.044 49.7121C166.644 49.7121 165.011 50.7829 165.011 50.7829V43.2374C165.011 43.0407 164.854 42.8819 164.66 42.8819H160.389C160.343 42.8821 160.297 42.8915 160.254 42.9095C160.211 42.9275 160.172 42.9537 160.14 42.9868C160.107 43.0198 160.081 43.0589 160.064 43.1019C160.046 43.1449 160.037 43.191 160.037 43.2374V65.5204C160.037 65.7168 160.195 65.8767 160.39 65.8767H163.353C163.486 65.8767 163.587 65.8079 163.662 65.6876C163.735 65.5678 163.842 64.6602 163.842 64.6602C163.842 64.6602 165.588 66.315 168.894 66.315C172.774 66.315 175 64.3465 175 57.4781C175 50.6096 171.445 49.7121 169.044 49.7121ZM122.304 50.177H119.11L119.105 45.9569C119.105 45.7972 119.023 45.7174 118.838 45.7174H114.485C114.316 45.7174 114.225 45.7919 114.225 45.9544V50.3155C114.225 50.3155 112.044 50.8419 111.896 50.8847C111.823 50.906 111.758 50.9506 111.712 51.0119C111.666 51.0731 111.641 51.1477 111.641 51.2242V53.9647C111.641 54.1618 111.799 54.3204 111.993 54.3204H114.225V60.9129C114.225 65.8098 117.66 66.2908 119.978 66.2908C121.037 66.2908 122.304 65.9509 122.513 65.8733C122.639 65.8268 122.713 65.6958 122.713 65.5538L122.716 62.5392C122.716 62.3424 122.55 62.1837 122.363 62.1837C122.177 62.1837 121.701 62.2594 121.211 62.2594C119.642 62.2594 119.11 61.5298 119.11 60.5855L119.11 54.3202H122.304C122.499 54.3202 122.657 54.1614 122.657 53.9645V50.5318C122.657 50.4853 122.648 50.4393 122.63 50.3963C122.613 50.3533 122.587 50.3143 122.554 50.2813C122.521 50.2483 122.483 50.2222 122.44 50.2043C122.397 50.1864 122.351 50.1771 122.304 50.177Z" fill="#121110"/>
</svg>
