<svg width="58" height="58" viewBox="0 0 58 58" fill="none" xmlns="http://www.w3.org/2000/svg">
<path d="M28.9702 1C27.9663 1 26.9631 1.05397 25.9649 1.16155C25.0501 1.255 24.1464 1.40826 23.2549 1.59422C23.0824 1.63032 22.9097 1.6684 22.7372 1.70823C17.4845 2.90415 12.6882 5.58977 8.9235 9.44304C8.57342 9.80189 8.23069 10.1714 7.89556 10.5513C-2.27408 22.2265 -1.05363 39.9351 10.6216 50.1048C21.7991 59.8409 38.6241 59.1931 49.0199 48.6264C49.3706 48.2675 49.7132 47.8981 50.0478 47.5181C54.5358 42.4071 57.0091 35.8365 57.0051 29.0347C57.0051 13.5514 44.4534 0.999883 28.9702 1ZM10.1692 10.8448C10.3168 10.6915 10.4701 10.5448 10.6205 10.3962C10.7944 10.2252 10.9672 10.0533 11.1448 9.88786C11.3009 9.74208 11.4616 9.6019 11.6214 9.45986C11.8017 9.30006 11.9812 9.14026 12.1662 8.98607C12.3288 8.8487 12.4961 8.71694 12.6624 8.58424C12.8493 8.43472 13.0362 8.2852 13.2287 8.14129C13.3988 8.01326 13.5717 7.88898 13.7455 7.76749C13.9389 7.62919 14.1333 7.48714 14.3305 7.35818C14.5071 7.23857 14.6856 7.12269 14.865 7.00775C15.065 6.87972 15.2659 6.75356 15.4687 6.63395C15.6513 6.52496 15.835 6.41773 16.0201 6.31248C16.2269 6.19474 16.4346 6.07979 16.6434 5.96766C16.8303 5.86801 17.0172 5.77048 17.2041 5.67516C17.4171 5.56769 17.6321 5.46396 17.8479 5.3621C18.0348 5.27333 18.2292 5.18455 18.4217 5.10044C18.6413 5.007 18.8637 4.91355 19.0861 4.8201C19.2796 4.74066 19.4721 4.6631 19.6674 4.58834C19.8935 4.50237 20.1225 4.422 20.3514 4.34164C20.5467 4.27342 20.7421 4.2052 20.9402 4.14072C21.1729 4.06596 21.4074 3.99681 21.6429 3.92859C21.8401 3.87158 22.0354 3.81271 22.2335 3.75945C22.3092 3.73982 22.3849 3.72393 22.4606 3.70431C19.6945 6.39016 17.6418 9.7235 16.4882 13.4025C14.2702 12.8175 12.123 11.9912 10.0851 10.9382C10.1159 10.9055 10.1421 10.8728 10.1692 10.8448ZM8.82538 12.3493C11.0702 13.5656 13.4505 14.5129 15.9173 15.1715C14.708 19.3762 14.0733 23.7253 14.0305 28.1002H2.82593C3.02953 22.331 5.13927 16.792 8.82538 12.3493ZM8.82538 45.7201C5.1395 41.2773 3.02976 35.7383 2.82593 29.9692H14.0305C14.0733 34.3442 14.7079 38.6932 15.9173 42.8979C13.4507 43.5568 11.0703 44.504 8.82538 45.7201ZM22.2279 54.3137C22.0391 54.2661 21.8438 54.2044 21.6494 54.1474C21.413 54.0782 21.1757 54.0091 20.942 53.9334C20.7449 53.8698 20.5505 53.8016 20.3561 53.7334C20.1262 53.654 19.8963 53.5727 19.6693 53.4858C19.4749 53.4119 19.2833 53.3344 19.0908 53.2559C18.8675 53.1624 18.6441 53.069 18.4226 52.9755C18.232 52.8914 18.0423 52.8049 17.8535 52.7157C17.6358 52.6129 17.419 52.5083 17.1994 52.3999C17.0125 52.3064 16.8256 52.213 16.6387 52.1111C16.4275 51.998 16.2182 51.8822 16.0088 51.7626C15.8219 51.6588 15.6444 51.5523 15.464 51.4439C15.2584 51.3205 15.0566 51.1934 14.8547 51.0636C14.6772 50.9505 14.4996 50.8355 14.3249 50.7178C14.1258 50.5832 13.9287 50.443 13.7333 50.3029C13.5623 50.1805 13.3913 50.058 13.2231 49.9291C13.0297 49.7833 12.84 49.6328 12.6512 49.4815C12.4858 49.3497 12.3213 49.2189 12.1597 49.0834C11.9728 48.9282 11.7924 48.7666 11.6111 48.6058C11.4522 48.4647 11.2924 48.3255 11.1373 48.1816C10.9588 48.0152 10.7859 47.8424 10.6121 47.6713C10.4617 47.5228 10.3084 47.376 10.1608 47.2237C10.1337 47.1947 10.1075 47.1648 10.0804 47.1368C12.1182 46.0834 14.2654 45.2567 16.4836 44.6716C17.6373 48.3505 19.6899 51.6837 22.4559 54.3698C22.3802 54.3502 22.3036 54.3343 22.2279 54.3137ZM28.0358 55.1267C24.0371 54.5586 20.5318 50.3851 18.3264 44.2221C21.5149 43.5082 24.7687 43.1251 28.0358 43.0792V55.1267ZM28.0358 41.2102C24.57 41.2558 21.1188 41.6674 17.7395 42.4382C16.5661 38.384 15.9472 34.1895 15.8995 29.9692H28.0358V41.2102ZM28.0358 28.1002H15.8995C15.947 23.8799 16.566 19.6854 17.7395 15.6313C21.1188 16.4019 24.5701 16.8135 28.0358 16.8592V28.1002ZM28.0358 14.9902C24.7686 14.9446 21.5149 14.5616 18.3264 13.8473C20.5318 7.68432 24.0371 3.51087 28.0358 2.9427V14.9902ZM49.1152 12.3493C52.8011 16.7921 54.9108 22.3311 55.1146 28.1002H43.91C43.8673 23.7253 43.2326 19.3762 42.0233 15.1715C44.4899 14.5126 46.8703 13.5653 49.1152 12.3493ZM35.7052 3.75477C35.9014 3.80337 36.0967 3.86504 36.2911 3.92205C36.5275 3.9912 36.7649 4.06035 36.9985 4.13605C37.1957 4.19959 37.3901 4.26781 37.5844 4.33603C37.8143 4.41546 38.0442 4.49676 38.2713 4.58367C38.4657 4.65749 38.6572 4.73506 38.8498 4.81355C39.0731 4.907 39.2964 5.00045 39.5179 5.0939C39.7086 5.17801 39.8983 5.26456 40.087 5.35369C40.3048 5.45649 40.5216 5.56115 40.7412 5.66955C40.9281 5.763 41.115 5.85645 41.3019 5.95831C41.5131 6.07138 41.7224 6.18726 41.9317 6.30688C42.1186 6.41061 42.2962 6.51714 42.4765 6.62554C42.6821 6.74889 42.884 6.87598 43.0858 7.00588C43.2634 7.11895 43.4409 7.2339 43.6157 7.35164C43.8147 7.48621 44.011 7.62545 44.2063 7.76562C44.3782 7.88804 44.5492 8.01139 44.7184 8.13942C44.9109 8.28427 45.0997 8.43472 45.2894 8.58611C45.4538 8.71694 45.6192 8.84777 45.7809 8.9842C45.9678 9.13933 46.1482 9.301 46.3294 9.46173C46.4883 9.60284 46.6481 9.74208 46.8032 9.88599C46.9817 10.0523 47.1546 10.2252 47.3284 10.3962C47.4789 10.5448 47.6321 10.6915 47.7798 10.8438C47.8069 10.8728 47.833 10.9027 47.8601 10.9308C45.8224 11.9842 43.6751 12.8108 41.457 13.396C40.301 9.71661 38.2457 6.38362 35.4772 3.6987C35.5529 3.71833 35.6295 3.73421 35.7052 3.75477ZM29.9048 2.9427C33.9035 3.51087 37.4088 7.68432 39.6142 13.8473C36.4257 14.5613 33.1719 14.9443 29.9048 14.9902V2.9427ZM29.9048 16.8592C33.3706 16.8136 36.8218 16.402 40.201 15.6313C41.3744 19.6854 41.9934 23.8799 42.041 28.1002H29.9048V16.8592ZM29.9048 29.9692H42.041C41.9935 34.1895 41.3745 38.384 40.201 42.4382C36.8218 41.6676 33.3706 41.2559 29.9048 41.2102V29.9692ZM29.9048 55.1267V43.0792C33.172 43.1248 36.4257 43.5078 39.6142 44.2221C37.4088 50.3851 33.9035 54.5586 29.9048 55.1267ZM47.7714 47.2246C47.6237 47.377 47.4714 47.5237 47.3209 47.6723C47.1471 47.8433 46.9733 48.0162 46.7948 48.1825C46.6397 48.3274 46.4799 48.4629 46.321 48.6077C46.1397 48.7684 45.9594 48.9292 45.7744 49.0843C45.6108 49.2207 45.4445 49.3525 45.2781 49.4852C45.0912 49.6347 44.9043 49.7842 44.7118 49.9281C44.5418 50.0562 44.3689 50.1805 44.1951 50.3019C44.0016 50.4402 43.8072 50.5823 43.6101 50.7112C43.4334 50.8309 43.255 50.9467 43.0755 51.0607C42.8756 51.1897 42.6741 51.3143 42.4709 51.4345C42.284 51.5439 42.1055 51.6504 41.9214 51.756C41.7146 51.8738 41.5065 51.9887 41.2972 52.1008C41.1103 52.2005 40.9234 52.298 40.7365 52.3933C40.5234 52.5008 40.3085 52.6045 40.0926 52.7064C39.9057 52.7952 39.7114 52.8839 39.5189 52.968C39.2992 53.0615 39.0768 53.1549 38.8544 53.2484C38.661 53.3269 38.4685 53.4054 38.2741 53.4792C38.0461 53.5661 37.8171 53.6474 37.5872 53.7269C37.3929 53.7951 37.1985 53.8633 37.0013 53.9268C36.7677 54.0025 36.5341 54.0717 36.2958 54.1399C36.1005 54.1978 35.9042 54.2558 35.707 54.3091C35.6314 54.3287 35.5557 54.3446 35.48 54.3642C38.2461 51.6783 40.2988 48.345 41.4523 44.666C43.6703 45.251 45.8176 46.0773 47.8555 47.1303C47.8246 47.1639 47.7985 47.1966 47.7714 47.2246ZM49.1152 45.7201C46.8704 44.5039 44.49 43.5565 42.0233 42.8979C43.2325 38.6932 43.8673 34.3442 43.91 29.9692H55.1146C54.9111 35.7383 52.8013 41.2774 49.1152 45.7201Z" fill="#83C6F2" stroke="#83C6F2" stroke-width="1.5"/>
</svg>
