<svg width="92" height="31" viewBox="0 0 92 31" fill="none" xmlns="http://www.w3.org/2000/svg">
<g clip-path="url(#clip0)">
<path d="M11.33 0.175171H12.1481C14.9884 0.237242 17.7823 1.38556 19.7891 3.41839C19.0481 4.17877 18.2918 4.90811 17.5663 5.66848C16.4394 4.64431 15.081 3.85289 13.5991 3.57357C11.4072 3.10804 9.04543 3.52702 7.20852 4.78397C5.20182 6.10298 3.84343 8.33755 3.55014 10.7273C3.22598 13.086 3.88974 15.5688 5.41793 17.4C6.88437 19.1845 9.12262 20.3018 11.4381 20.3793C13.5991 20.5035 15.8528 19.8363 17.4273 18.3155C18.6622 17.2448 19.2333 15.6154 19.4186 14.0326C16.8562 14.0326 14.2937 14.0481 11.7313 14.0326V10.8359H22.5213C23.077 14.2654 22.2743 18.1293 19.681 20.5811C17.9522 22.3191 15.5595 23.3433 13.1206 23.545C10.7589 23.7778 8.31992 23.3277 6.22062 22.1794C3.70451 20.8294 1.6978 18.5483 0.709875 15.8637C-0.216299 13.3963 -0.231735 10.6031 0.632695 8.12027C1.41994 5.8547 2.93269 3.8529 4.87766 2.45629C6.74545 1.0752 9.01459 0.314831 11.33 0.175171Z" fill="#4285F4"/>
<path d="M73.2299 0.982178H76.5325V23.1417C75.4371 23.1417 74.3252 23.1572 73.2299 23.1261C73.245 15.7551 73.2299 8.36868 73.2299 0.982178Z" fill="#0F9D58"/>
<path d="M29.8691 8.66343C31.9067 8.27545 34.1142 8.70994 35.7967 9.93584C37.3249 11.0221 38.39 12.729 38.7142 14.5912C39.1309 16.7481 38.6061 19.1069 37.2169 20.8138C35.7195 22.7225 33.2652 23.7467 30.8725 23.5915C28.6805 23.4674 26.5504 22.3656 25.2537 20.5656C23.7873 18.5793 23.4322 15.8481 24.2349 13.5205C25.0376 11.0221 27.3067 9.11344 29.8691 8.66343ZM30.3322 11.6118C29.4987 11.829 28.7269 12.3101 28.1712 12.9929C26.6739 14.7929 26.7664 17.7258 28.4181 19.4017C29.3598 20.3638 30.7799 20.8138 32.0919 20.55C33.3115 20.3328 34.3766 19.5104 34.9631 18.4241C35.9819 16.5774 35.6886 14.0326 34.1295 12.5894C33.1262 11.6583 31.6598 11.2704 30.3322 11.6118Z" fill="#DB4437"/>
<path d="M46.2314 8.66349C48.5623 8.2134 51.1093 8.86517 52.8536 10.5101C55.6939 13.0705 56.0026 17.8655 53.5791 20.8139C52.1126 22.676 49.7355 23.7002 47.3891 23.5916C45.1509 23.5295 42.9435 22.4122 41.616 20.5656C40.1187 18.5328 39.7945 15.7396 40.6435 13.3653C41.4925 10.9446 43.7153 9.09797 46.2314 8.66349ZM46.6945 11.6119C45.861 11.8291 45.0891 12.3101 44.5335 12.9774C43.0515 14.7464 43.1133 17.6328 44.7032 19.3242C45.6449 20.3329 47.1113 20.8294 48.4697 20.5501C49.6737 20.3174 50.7542 19.5104 51.3408 18.4242C52.3442 16.562 52.0509 14.0171 50.4764 12.5739C49.4731 11.6428 48.0066 11.2705 46.6945 11.6119Z" fill="#F4B400"/>
<path d="M60.1089 9.56337C61.8841 8.44607 64.2458 8.13572 66.1599 9.09784C66.7619 9.36162 67.2559 9.8117 67.7344 10.2617C67.7499 9.84268 67.7344 9.40819 67.7499 8.97371C68.7841 8.98923 69.8184 8.97371 70.868 8.98923V22.676C70.8526 24.7399 70.3277 26.9278 68.8458 28.4331C67.225 30.0935 64.7398 30.6056 62.5016 30.2642C60.1089 29.9072 58.025 28.1538 57.0989 25.9347C58.025 25.4847 58.9975 25.1278 59.9546 24.7088C60.4948 25.9813 61.5908 27.0675 62.9646 27.3158C64.3385 27.564 65.9284 27.2227 66.8237 26.0744C67.7808 24.895 67.7808 23.2811 67.7344 21.838C67.0244 22.5363 66.2063 23.157 65.2184 23.3898C63.0727 23.9949 60.7109 23.2501 59.0592 21.7915C57.3922 20.3328 56.4043 18.0826 56.4968 15.8481C56.5432 13.3187 57.9633 10.8824 60.1089 9.56337ZM63.3043 11.5496C62.3626 11.7048 61.4827 12.2324 60.8808 12.9618C59.4298 14.6998 59.4298 17.4775 60.8962 19.1844C61.7298 20.1931 63.0727 20.7517 64.3694 20.6121C65.5888 20.4879 66.7157 19.7121 67.3177 18.6413C68.3364 16.8257 68.1667 14.3584 66.7929 12.7756C65.9439 11.798 64.5854 11.3169 63.3043 11.5496Z" fill="#4285F4"/>
<path d="M80.4999 10.3547C82.3522 8.61669 85.2077 8.02702 87.5854 8.94257C89.8386 9.79601 91.2747 11.953 91.9999 14.172C88.6506 15.5687 85.3163 16.9497 81.9662 18.3463C82.4298 19.2309 83.1399 20.0378 84.0966 20.3637C85.4399 20.8447 87.0449 20.674 88.1719 19.774C88.6197 19.4326 88.9747 18.9826 89.314 18.5481C90.1628 19.1222 91.0124 19.6809 91.8612 20.255C90.6573 22.0706 88.6347 23.3431 86.4584 23.5448C84.0506 23.8397 81.4882 22.9086 79.9285 21.0154C77.3662 18.036 77.6134 13.0392 80.4999 10.3547ZM82.1516 13.2255C81.6269 13.9858 81.4106 14.9169 81.4264 15.8324C83.6646 14.9014 85.9028 13.9703 88.141 13.0238C87.7708 12.1547 86.8752 11.6271 85.9646 11.4874C84.4983 11.2237 82.9696 12.0151 82.1516 13.2255Z" fill="#DB4437"/>
</g>
<defs>
<clipPath id="clip0">
<rect width="92" height="30.9062" fill="white"/>
</clipPath>
</defs>
</svg>
