<svg width="261" height="111" viewBox="0 0 261 111" fill="none" xmlns="http://www.w3.org/2000/svg">
<rect width="261" height="111" rx="7" fill="#F8F9FB"/>
<g clip-path="url(#clip0)">
<path d="M85.6641 36.2266H86.7229C90.3989 36.3069 94.0149 37.7931 96.6121 40.4241C95.6531 41.4082 94.6742 42.3521 93.7353 43.3362C92.2768 42.0107 90.5187 40.9864 88.6008 40.6249C85.7639 40.0224 82.7073 40.5646 80.3299 42.1914C77.7327 43.8986 75.9746 46.7906 75.5951 49.8835C75.1755 52.9362 76.0346 56.1496 78.0124 58.5195C79.9103 60.8291 82.8072 62.2752 85.8039 62.3755C88.6008 62.5363 91.5177 61.6727 93.5554 59.7045C95.1537 58.3187 95.8928 56.2099 96.1326 54.1613C92.8162 54.1613 89.4998 54.1814 86.1834 54.1613V50.0241H100.148C100.867 54.4626 99.8286 59.4634 96.4722 62.6367C94.2347 64.886 91.1381 66.2115 87.9815 66.4727C84.9248 66.774 81.7683 66.1914 79.0513 64.7053C75.7949 62.958 73.1977 60.0057 71.9191 56.5313C70.7204 53.3379 70.7004 49.7228 71.8192 46.5094C72.8381 43.5772 74.7959 40.9864 77.3132 39.1789C79.7305 37.3914 82.6674 36.4073 85.6641 36.2266Z" fill="#4285F4"/>
<path d="M165.777 37.271H170.051V65.9506C168.634 65.9506 167.195 65.9707 165.777 65.9305C165.796 56.3907 165.777 46.8309 165.777 37.271Z" fill="#0F9D58"/>
<path d="M109.658 47.2124C112.295 46.7102 115.152 47.2726 117.33 48.8592C119.307 50.265 120.686 52.4742 121.106 54.8843C121.645 57.6759 120.966 60.7286 119.168 62.9379C117.23 65.4082 114.053 66.7337 110.957 66.5328C108.12 66.3722 105.363 64.9462 103.684 62.6166C101.787 60.0459 101.327 56.5111 102.366 53.4985C103.405 50.265 106.342 47.7948 109.658 47.2124ZM110.257 51.0283C109.179 51.3094 108.18 51.932 107.46 52.8157C105.523 55.1454 105.642 58.9412 107.78 61.1102C108.999 62.3554 110.837 62.9379 112.535 62.5965C114.113 62.3152 115.492 61.2509 116.251 59.845C117.569 57.455 117.19 54.1613 115.172 52.2935C113.873 51.0885 111.975 50.5864 110.257 51.0283Z" fill="#DB4437"/>
<path d="M130.835 47.2124C133.851 46.6299 137.148 47.4734 139.405 49.6023C143.081 52.9161 143.481 59.122 140.344 62.9379C138.446 65.3479 135.37 66.6735 132.333 66.5329C129.436 66.4526 126.579 65.0065 124.861 62.6166C122.923 59.9856 122.504 56.3705 123.603 53.2977C124.702 50.1647 127.578 47.7747 130.835 47.2124ZM131.434 51.0283C130.355 51.3094 129.356 51.932 128.637 52.7956C126.719 55.0851 126.799 58.8208 128.857 61.0099C130.076 62.3154 131.974 62.958 133.732 62.5965C135.29 62.2953 136.688 61.2509 137.448 59.845C138.746 57.435 138.367 54.1412 136.329 52.2734C135.03 51.0684 133.132 50.5864 131.434 51.0283Z" fill="#F4B400"/>
<path d="M148.795 48.3771C151.092 46.9311 154.149 46.5294 156.626 47.7746C157.406 48.116 158.045 48.6985 158.664 49.2809C158.684 48.7386 158.664 48.1763 158.684 47.6139C160.023 47.634 161.361 47.6139 162.72 47.634V65.3479C162.7 68.0191 162.021 70.8508 160.103 72.799C158.005 74.9479 154.788 75.6107 151.892 75.1688C148.795 74.7069 146.098 72.4375 144.899 69.5655C146.098 68.9831 147.357 68.5211 148.595 67.9789C149.294 69.6258 150.713 71.0316 152.491 71.3529C154.269 71.6742 156.327 71.2325 157.485 69.7462C158.724 68.2199 158.724 66.1312 158.664 64.2633C157.745 65.1672 156.686 65.9705 155.408 66.2717C152.631 67.055 149.574 66.091 147.436 64.2032C145.279 62.3153 144 59.4031 144.12 56.5111C144.18 53.2374 146.018 50.0843 148.795 48.3771ZM152.93 50.9478C151.712 51.1486 150.573 51.8315 149.794 52.7754C147.916 55.0248 147.916 58.6198 149.814 60.829C150.893 62.1345 152.631 62.8575 154.309 62.6767C155.887 62.5161 157.346 61.5119 158.125 60.1261C159.443 57.7763 159.224 54.583 157.446 52.5345C156.347 51.2692 154.589 50.6466 152.93 50.9478Z" fill="#4285F4"/>
<path d="M175.186 49.4015C177.584 47.1521 181.279 46.3889 184.357 47.5738C187.273 48.6784 189.132 51.47 190.07 54.342C185.735 56.1496 181.42 57.937 177.084 59.7445C177.684 60.8894 178.603 61.9337 179.841 62.3554C181.58 62.978 183.657 62.7571 185.116 61.5923C185.695 61.1504 186.155 60.568 186.594 60.0056C187.692 60.7487 188.792 61.4718 189.891 62.2149C188.332 64.5646 185.715 66.2115 182.898 66.4726C179.782 66.8542 176.466 65.6492 174.447 63.199C171.131 59.3429 171.451 52.8759 175.186 49.4015ZM177.324 53.1169C176.645 54.101 176.365 55.306 176.386 56.491C179.282 55.2859 182.179 54.0809 185.076 52.8559C184.597 51.7311 183.438 51.0483 182.259 50.8675C180.361 50.5261 178.383 51.5504 177.324 53.1169Z" fill="#DB4437"/>
</g>
<defs>
<clipPath id="clip0">
<rect width="119.07" height="40" fill="white" transform="translate(71 36)"/>
</clipPath>
</defs>
</svg>
