<svg width="81" height="58" viewBox="0 0 81 58" fill="none" xmlns="http://www.w3.org/2000/svg">
<path d="M79.1096 16.3634L40.9277 1.09068C40.6243 0.969774 40.2861 0.969774 39.9827 1.09068L1.80092 16.3634C1.56453 16.4578 1.36186 16.6208 1.21909 16.8315C1.07631 17.0422 1 17.2909 1 17.5455C1 17.8 1.07631 18.0487 1.21909 18.2594C1.36186 18.4701 1.56453 18.6331 1.80092 18.7275L15.0007 24.0077V50.6364C15.0007 50.8868 15.0747 51.1317 15.2134 51.3403C15.3521 51.5489 15.5493 51.7119 15.7802 51.8089C23.9591 55.2532 32.2621 57 40.4552 57C48.6484 57 56.9514 55.2532 65.1302 51.8089C65.3612 51.7119 65.5584 51.5489 65.6971 51.3403C65.8358 51.1317 65.9098 50.8868 65.9098 50.6364V24.0077L72.2734 21.4623V31.7061C71.0737 32.0159 70.0281 32.7526 69.3327 33.7781C68.6372 34.8037 68.3397 36.0476 68.4958 37.2769C68.6519 38.5061 69.251 39.6362 70.1808 40.4553C71.1105 41.2744 72.3071 41.7263 73.5462 41.7263C74.7852 41.7263 75.9818 41.2744 76.9115 40.4553C77.8413 39.6362 78.4404 38.5061 78.5965 37.2769C78.7526 36.0476 78.4551 34.8037 77.7596 33.7781C77.0642 32.7526 76.0186 32.0159 74.8189 31.7061V20.4441L79.1096 18.7275C79.3459 18.6331 79.5486 18.4701 79.6914 18.2594C79.8342 18.0487 79.9105 17.8 79.9105 17.5455C79.9105 17.2909 79.8342 17.0422 79.6914 16.8315C79.5486 16.6208 79.3459 16.4578 79.1096 16.3634ZM63.3643 49.7852C55.7518 52.8843 48.0487 54.4545 40.4552 54.4545C32.8618 54.4545 25.1586 52.8843 17.5461 49.7852V25.0259L39.9827 34.0002C40.2861 34.1211 40.6243 34.1211 40.9277 34.0002L63.3643 25.0259V49.7852ZM76.0916 36.6364C76.0916 37.1398 75.9423 37.6319 75.6626 38.0505C75.3829 38.4691 74.9854 38.7954 74.5202 38.9881C74.0551 39.1807 73.5433 39.2311 73.0496 39.1329C72.5558 39.0347 72.1022 38.7923 71.7462 38.4363C71.3903 38.0803 71.1478 37.6267 71.0496 37.133C70.9514 36.6392 71.0018 36.1274 71.1945 35.6623C71.3871 35.1971 71.7134 34.7996 72.132 34.5199C72.5506 34.2402 73.0427 34.0909 73.5462 34.0909C74.221 34.0918 74.8679 34.3603 75.3451 34.8374C75.8223 35.3146 76.0907 35.9615 76.0916 36.6364ZM40.4552 31.4468L5.70024 17.5455L40.4552 3.64409L75.2102 17.5455L40.4552 31.4468Z" fill="#83C6F2" stroke="#83C6F2" stroke-width="1.5"/>
</svg>
