<svg width="61" height="61" viewBox="0 0 61 61" fill="none" xmlns="http://www.w3.org/2000/svg">
<circle cx="30.5" cy="30.5" r="30.5" fill="#051A26"/>
<path d="M30.9492 36.2383C30.9492 36.4864 30.7481 36.6875 30.5 36.6875C30.2519 36.6875 30.0508 36.4864 30.0508 36.2383C30.0508 35.9902 30.2519 35.7891 30.5 35.7891C30.7481 35.7891 30.9492 35.9902 30.9492 36.2383Z" fill="white"/>
<path d="M40.5176 32.1953C40.5176 30.709 39.3085 29.5 37.8223 29.5C36.336 29.5 35.127 30.709 35.127 32.1953C35.127 33.6816 36.336 34.8906 37.8223 34.8906C39.3085 34.8906 40.5176 33.6816 40.5176 32.1953ZM37.8223 33.9922C36.8315 33.9922 36.0254 33.1861 36.0254 32.1953C36.0254 31.2046 36.8315 30.3984 37.8223 30.3984C38.813 30.3984 39.6191 31.2046 39.6191 32.1953C39.6191 33.1861 38.813 33.9922 37.8223 33.9922Z" fill="white"/>
<path d="M37.8223 34.8906C36.6903 34.8906 35.5614 35.3605 34.7925 36.1225C33.7803 34.7924 32.2197 33.9922 30.5 33.9922C28.8532 33.9922 27.2574 34.7436 26.2077 36.1225C25.4386 35.3607 24.3099 34.8906 23.1777 34.8906C20.9132 34.8906 19 36.7421 19 38.9336V39.832C19 40.0802 19.2011 40.2812 19.4492 40.2812H41.5508C41.7989 40.2812 42 40.0802 42 39.832V38.9336C42 36.7421 40.0868 34.8906 37.8223 34.8906ZM19.8984 38.9336C19.8984 37.229 21.4002 35.7891 23.1777 35.7891C24.1504 35.7891 25.115 36.22 25.7121 36.9051C25.3173 37.6677 25.1094 38.5177 25.1094 39.3828H19.8984V38.9336ZM30.5 34.8906C32.9997 34.8906 34.9922 36.9188 34.9922 39.3828H26.0078C26.0078 36.886 28.0411 34.8906 30.5 34.8906ZM41.1016 39.3828H35.8906C35.8906 38.5177 35.6827 37.6677 35.2879 36.9051C35.885 36.22 36.8496 35.7891 37.8223 35.7891C39.5998 35.7891 41.1016 37.229 41.1016 38.9336V39.3828Z" fill="white"/>
<path d="M25.873 32.1953C25.873 30.709 24.664 29.5 23.1777 29.5C21.6915 29.5 20.4824 30.709 20.4824 32.1953C20.4824 33.6816 21.6915 34.8906 23.1777 34.8906C24.664 34.8906 25.873 33.6816 25.873 32.1953ZM23.1777 33.9922C22.187 33.9922 21.3809 33.1861 21.3809 32.1953C21.3809 31.2046 22.187 30.3984 23.1777 30.3984C24.1685 30.3984 24.9746 31.2046 24.9746 32.1953C24.9746 33.1861 24.1685 33.9922 23.1777 33.9922Z" fill="white"/>
<path d="M34.0938 30.3984C34.0938 28.4168 32.4817 26.8047 30.5 26.8047C28.5183 26.8047 26.9062 28.4168 26.9062 30.3984C26.9062 32.3801 28.5183 33.9922 30.5 33.9922C32.4817 33.9922 34.0938 32.3801 34.0938 30.3984ZM30.5 33.0938C29.0137 33.0938 27.8047 31.8847 27.8047 30.3984C27.8047 28.9122 29.0137 27.7031 30.5 27.7031C31.9863 27.7031 33.1953 28.9122 33.1953 30.3984C33.1953 31.8847 31.9863 33.0938 30.5 33.0938Z" fill="white"/>
<path d="M34.0552 21.3314C34.0024 21.1687 33.8618 21.0503 33.6925 21.0257L31.7549 20.7444L30.8873 18.9707C30.812 18.8165 30.6555 18.7188 30.4839 18.7188C30.3123 18.7188 30.1558 18.8165 30.0803 18.9706L29.2129 20.7444L27.2753 21.0256C27.106 21.0501 26.9654 21.1687 26.9126 21.3314C26.8598 21.4941 26.9038 21.6725 27.0263 21.7919L28.4294 23.1593L28.0983 25.0905C28.0694 25.2589 28.1387 25.4293 28.2771 25.5297C28.4147 25.6297 28.5979 25.6439 28.7502 25.5639L30.4839 24.6523L32.2183 25.5639C32.3696 25.6436 32.5529 25.6302 32.6914 25.5297C32.8297 25.4291 32.899 25.2589 32.87 25.0903L32.5386 23.1593L33.9415 21.7919C34.064 21.6725 34.108 21.4941 34.0552 21.3314ZM31.7421 22.6808C31.6363 22.784 31.5878 22.9328 31.6129 23.0785L31.8303 24.3452L30.6929 23.7472C30.562 23.6784 30.4056 23.6784 30.2747 23.7472L29.1377 24.3452L29.3549 23.0785C29.3798 22.9326 29.3314 22.784 29.2256 22.6808L28.3054 21.784L29.5767 21.5994C29.7237 21.5781 29.8506 21.4855 29.9157 21.3521L30.4839 20.1905L31.0519 21.3521C31.1172 21.4857 31.2441 21.5781 31.3909 21.5994L32.6624 21.784L31.7421 22.6808Z" fill="white"/>
<path d="M40.7689 24.6983C40.7161 24.5356 40.5755 24.4172 40.4062 24.3926L39.0935 24.2019L38.5065 23.0121C38.4309 22.8588 38.2749 22.7617 38.1038 22.7617C38.1038 22.7617 38.1038 22.7617 38.1036 22.7617C37.9327 22.7617 37.7765 22.8588 37.7009 23.0121L37.1136 24.2019L35.8006 24.3926C35.6315 24.4172 35.4909 24.5356 35.4381 24.6983C35.3851 24.8609 35.4292 25.0394 35.5516 25.1587L36.5015 26.0851L36.2772 27.3924C36.2485 27.5608 36.3176 27.731 36.4561 27.8316C36.5943 27.9321 36.7777 27.9455 36.929 27.866L38.1036 27.2488L39.2779 27.866C39.4291 27.9455 39.6127 27.9321 39.751 27.8316C39.8892 27.7312 39.9584 27.5608 39.9296 27.3924L39.7053 26.0851L40.6554 25.1587C40.7779 25.0394 40.8217 24.8609 40.7689 24.6983V24.6983ZM38.9092 25.6067C38.8032 25.7099 38.755 25.8585 38.7801 26.0042L38.8903 26.6471L38.3128 26.3437C38.1819 26.2749 38.0255 26.2749 37.8948 26.3437L37.3168 26.6473L37.4271 26.0042C37.4521 25.8585 37.4038 25.7099 37.298 25.6067L36.8305 25.1508L37.4764 25.0571C37.6228 25.0359 37.7493 24.9439 37.8148 24.8115L38.1036 24.2262L38.3923 24.8113C38.4577 24.9439 38.5842 25.0359 38.7306 25.0571L39.3765 25.1508L38.9092 25.6067Z" fill="white"/>
<path d="M25.4955 24.6983C25.4426 24.5356 25.3021 24.4172 25.1328 24.3926L23.82 24.2019L23.2331 23.0121C23.1574 22.8588 23.0014 22.7617 22.8303 22.7617C22.6592 22.7617 22.5031 22.8588 22.4274 23.0121L21.8401 24.2019L20.5272 24.3926C20.3581 24.4172 20.2175 24.5356 20.1647 24.6983C20.1117 24.8609 20.1557 25.0394 20.2782 25.1587L21.2281 26.0851L21.004 27.3924C20.975 27.5608 21.0443 27.731 21.1826 27.8316C21.3209 27.9321 21.5043 27.9455 21.6557 27.866L22.8302 27.2488L24.0044 27.866C24.1568 27.946 24.34 27.9316 24.4775 27.8316C24.6158 27.7312 24.6851 27.5608 24.6562 27.3924L24.4319 26.0851L25.3819 25.1587C25.5044 25.0394 25.5483 24.8609 25.4955 24.6983ZM23.6356 25.6067C23.5298 25.7099 23.4815 25.8585 23.5064 26.0042L23.6168 26.6471L23.0392 26.3437C22.9084 26.2749 22.7521 26.2749 22.6213 26.3437L22.0431 26.6473L22.1535 26.0042C22.1786 25.8585 22.1302 25.7099 22.0244 25.6067L21.5569 25.1508L22.203 25.0571C22.3492 25.0359 22.4757 24.9439 22.5412 24.8115L22.83 24.2262L23.1186 24.8113C23.1841 24.9439 23.3106 25.0359 23.457 25.0571L24.1029 25.1508L23.6356 25.6067Z" fill="white"/>
<path d="M32.4694 36.3774C32.262 36.241 31.9835 36.2987 31.8473 36.5062C31.711 36.7134 31.7687 36.9919 31.9761 37.1282C32.3915 37.4011 32.7235 37.7815 32.9362 38.2283C33.0425 38.452 33.3103 38.5476 33.5347 38.4408C33.7588 38.3343 33.8539 38.0661 33.7474 37.8422C33.4642 37.247 33.0221 36.7404 32.4694 36.3774V36.3774Z" fill="white"/>
</svg>
