<svg width="58" height="58" viewBox="0 0 58 58" fill="none" xmlns="http://www.w3.org/2000/svg">
<path d="M44.1663 56.9994H2.16626C1.7556 56.9994 1.37293 56.7824 1.16293 56.4277C0.952931 56.073 0.945931 55.6344 1.14193 55.2727L22.1419 16.7727C22.5503 16.0237 23.7823 16.0237 24.1906 16.7727L45.1906 55.2727C45.3866 55.6344 45.3796 56.073 45.1696 56.4277C44.9596 56.7824 44.5769 56.9994 44.1663 56.9994ZM4.13093 54.666H42.1993L23.1663 19.7687L4.13093 54.666Z" fill="#83C6F2" stroke="#83C6F2" stroke-width="1.5"/>
<path d="M55.8331 56.9987H44.1665C43.5225 56.9987 42.9998 56.476 42.9998 55.832C42.9998 55.188 43.5225 54.6654 44.1665 54.6654H53.8591L43.0675 35.042L38.6201 44.2447C38.3401 44.8234 37.6471 45.0684 37.0615 44.786C36.4805 44.506 36.2378 43.8084 36.5201 43.2274L41.9521 31.99C42.1435 31.598 42.5355 31.3437 42.9718 31.332C43.4105 31.353 43.8141 31.5537 44.0241 31.9364L56.8575 55.2697C57.0558 55.6314 57.0511 56.07 56.8388 56.4247C56.6265 56.7817 56.2461 56.9987 55.8331 56.9987Z" fill="#83C6F2" stroke="#83C6F2" stroke-width="1.5"/>
<path d="M23.1667 18.5C22.5227 18.5 22 17.9773 22 17.3333V2.16667C22 1.52267 22.5227 1 23.1667 1H37.1667C37.638 1 38.065 1.28467 38.2447 1.721C38.4267 2.15733 38.3263 2.659 37.9927 2.99267L34.1497 6.83333L37.9903 10.674C38.324 11.0077 38.4243 11.5093 38.2423 11.9457C38.065 12.382 37.638 12.6667 37.1667 12.6667H24.3333V17.3333C24.3333 17.9773 23.8107 18.5 23.1667 18.5ZM24.3333 10.3333H34.3503L31.6763 7.65933C31.2213 7.20433 31.2213 6.46467 31.6763 6.00967L34.3503 3.33333H24.3333V10.3333Z" fill="#83C6F2" stroke="#83C6F2" stroke-width="1.5"/>
<path d="M26.6665 36.0017C26.6385 36.0017 26.6128 36.0017 26.5825 35.9994C26.2441 35.976 25.9361 35.8057 25.7331 35.535L23.1665 32.1143L20.5998 35.535C20.3968 35.8057 20.0865 35.9737 19.7505 35.9994C19.3981 36.0274 19.0808 35.9014 18.8428 35.661L14.9228 31.741C14.4678 31.286 14.4678 30.5463 14.9228 30.0913C15.3778 29.6363 16.1175 29.6363 16.5725 30.0913L19.5405 33.0594L22.2331 29.4683C22.6718 28.8803 23.6588 28.8803 24.0998 29.4683L26.7925 33.0594L29.7605 30.0913C30.2155 29.6363 30.9551 29.6363 31.4101 30.0913C31.8651 30.5463 31.8651 31.286 31.4101 31.741L27.4901 35.661C27.2708 35.8804 26.9745 36.0017 26.6665 36.0017Z" fill="#83C6F2" stroke="#83C6F2" stroke-width="1.5"/>
</svg>
