<svg width="56" height="56" viewBox="0 0 56 56" fill="none" xmlns="http://www.w3.org/2000/svg">
<path d="M47.4251 13.058C47.2594 13.2003 47.0588 13.2937 46.8418 13.3263C42.1518 14.0403 38.7708 12.9273 36.0595 12.0313C34.3912 11.483 32.9538 11.007 31.5002 11.007C29.0479 11.007 27.1485 12.2553 25.3122 13.4617C24.8852 13.7417 24.4699 14.0147 24.0592 14.2644L17.9785 20.3451C17.1455 21.1781 16.9402 22.4451 17.4675 23.4974C17.9318 24.4284 18.8675 25.0071 19.9082 25.0071H20.8415C21.4762 25.0071 22.0712 24.7971 22.5612 24.4004C23.0069 24.0364 23.5202 23.6094 24.0685 23.1497C27.0575 20.6507 29.4725 18.6884 31.0895 18.0817C31.2248 18.0304 31.3602 18.007 31.5002 18.007C31.7755 18.007 32.0485 18.105 32.2632 18.2917L49.1262 32.9054L56.0001 30.18V7.70996L47.4251 13.058Z" fill="black"/>
<path d="M10.5537 32.0068C9.7907 32.0068 9.079 32.3871 8.6567 33.0218L7.3827 34.9328C7.133 35.3061 7 35.7471 7 36.1975V36.7272C7 37.9872 8.0197 39.0069 9.2797 39.0069C10.0427 39.0069 10.7544 38.6266 11.1767 37.9919L12.4507 36.0809C12.7004 35.7077 12.8334 35.2666 12.8334 34.8162V34.2865C12.8333 33.0265 11.8137 32.0068 10.5537 32.0068Z" fill="black"/>
<path d="M15.2203 34.3398H15.141C14.4223 34.3398 13.748 34.6781 13.3163 35.2521L10.9573 38.3998C10.661 38.7942 10.5 39.2725 10.5 39.7673V40.227C10.5 41.487 11.5197 42.5067 12.7797 42.5067H12.859C13.5777 42.5067 14.252 42.1684 14.6837 41.5944L17.0427 38.4467C17.339 38.0524 17.5 37.574 17.5 37.0794V36.6197C17.5 35.3595 16.4803 34.3398 15.2203 34.3398Z" fill="black"/>
<path d="M19.8863 36.6729H19.807C19.0883 36.6729 18.414 37.0111 17.9823 37.5851L15.6233 40.7329C15.327 41.1271 15.166 41.6056 15.166 42.1001V42.5598C15.166 43.8198 16.1857 44.8396 17.4457 44.8396H17.525C18.2437 44.8396 18.918 44.5013 19.3497 43.9273L21.7087 40.7796C22.005 40.3853 22.166 39.9069 22.166 39.4123V38.9526C22.166 37.6924 21.1463 36.6729 19.8863 36.6729Z" fill="black"/>
<path d="M24.5543 39.0068H24.475C23.7563 39.0068 23.082 39.3451 22.6503 39.9191L20.2913 43.0668C19.995 43.4611 19.834 43.9395 19.834 44.4341V44.8938C19.834 46.1538 20.8537 47.1735 22.1137 47.1735H22.193C22.9117 47.1735 23.586 46.8352 24.0177 46.2612L26.3767 43.1135C26.673 42.7192 26.8317 42.2385 26.8317 41.7462V41.2865H26.834C26.8339 40.0265 25.8143 39.0068 24.5543 39.0068Z" fill="black"/>
<path d="M30.5339 45.9689L28.4222 44.1699C28.3522 44.2796 28.3195 44.4102 28.2425 44.5152L26.7422 46.5149L28.3125 47.9709C28.8118 48.4679 29.5492 48.4399 29.9902 47.9989C30.5712 47.4179 30.8022 46.3049 30.5339 45.9689Z" fill="black"/>
<path d="M48.2977 35.4298L31.3063 20.5525C29.8106 21.3878 27.3933 23.4085 25.5663 24.9368C25.011 25.4035 24.4906 25.8375 24.038 26.2061C23.1257 26.9504 22.022 27.3401 20.8437 27.3401H19.9104C17.9784 27.3401 16.2447 26.2668 15.3814 24.5401C14.4014 22.5894 14.7817 20.2421 16.3287 18.6951L22.8434 12.2714C23.1771 12.0684 23.5154 11.8467 23.8584 11.6227C20.1997 10.876 16.0417 10.8247 11.3961 11.555C9.04641 11.9353 6.66881 11.275 4.86041 9.76998L0 7.66309V30.1774L6.0667 32.6997L6.71541 31.7267C7.56941 30.4434 9.00441 29.6734 10.5537 29.6734C12.292 29.6734 13.79 30.6511 14.5764 32.0744C14.7631 32.0487 14.9474 32.0067 15.1387 32.0067C16.933 32.0067 18.4474 32.9844 19.2384 34.4077C19.4297 34.382 19.6141 34.34 19.8054 34.34C21.5997 34.34 23.1141 35.3177 23.9051 36.741C24.0941 36.7177 24.2784 36.6733 24.4721 36.6733H24.5538C27.0971 36.6733 29.1668 38.743 29.1668 41.2863V41.7413L32.0951 44.231C32.0974 44.2357 32.1021 44.238 32.1068 44.2427L33.2221 45.19C33.8708 45.708 34.7201 46.0067 35.5858 46.0067C36.5495 46.0067 37.3335 45.2227 37.3335 44.259C37.3335 43.7387 37.1025 43.251 36.7035 42.9173L26.0845 34.0693C25.5898 33.6563 25.5222 32.9213 25.9352 32.4266C26.3482 31.9343 27.0832 31.8643 27.5802 32.2796L40.6982 43.2113C41.0599 43.51 41.5125 43.6733 41.9815 43.6733H42.3245C43.4328 43.6733 44.3312 42.7726 44.3312 41.6666C44.3312 41.0833 44.0862 40.5373 43.6522 40.1546L30.7512 29.4049C30.2565 28.9919 30.1889 28.2569 30.6042 27.7599C31.0195 27.2629 31.7545 27.2022 32.2469 27.6106L45.1059 38.3253C45.1269 38.3416 45.1479 38.3603 45.1666 38.3766L45.3579 38.5353C45.7219 38.841 46.1839 39.0066 46.6576 39.0066H46.9703C48.088 39.0066 49.0003 38.0943 49.0003 36.9766C49 36.3771 48.7457 35.8195 48.2977 35.4298Z" fill="black"/>
</svg>
