<svg width="51" height="54" viewBox="0 0 51 54" fill="none" xmlns="http://www.w3.org/2000/svg">
<path d="M42.445 15.5127C41.2664 14.7253 39.5367 14.8774 38.7954 15.9868C38.7918 15.9906 33.0957 24.5306 31.6938 26.6313C31.6909 26.6357 31.6895 26.6407 31.6865 26.645L31.3934 27.0838C31.2536 27.293 30.9707 27.3492 30.7615 27.2094C30.5525 27.0697 30.4962 26.7869 30.6359 26.5777L30.7118 26.4643C31.5374 25.1839 31.1868 23.4734 29.9151 22.6238C28.6307 21.7656 26.8937 22.1112 26.0355 23.3956L24.9085 25.0785C24.7708 25.2846 24.4923 25.34 24.2862 25.2023C24.0803 25.0647 24.025 24.7862 24.1627 24.5802L24.2278 24.4844C25.0091 23.315 24.4182 21.7395 23.2494 20.9586C21.9648 20.1003 20.2328 20.449 19.3746 21.7335L18.231 23.435C18.0971 23.6355 17.826 23.6894 17.6255 23.5555C17.4251 23.4216 17.3713 23.1505 17.5052 22.9501L17.5932 22.8213C18.3037 21.7578 17.6979 20.1735 16.5662 19.4174C15.2819 18.5593 13.5448 18.9048 12.6866 20.1892L9.8244 24.4569C7.1693 28.4308 4.71599 35.4482 14.2296 41.8047C25.568 49.3804 30.9199 44.6429 34.8834 38.3337C35.8394 36.8119 35.1447 35.0718 34.095 34.3704L32.2649 37.1095C32.0347 37.454 31.769 37.3345 31.6977 37.2868C31.6264 37.2392 31.4216 37.0459 31.6519 36.7012C31.8741 36.3686 43.2166 19.3925 43.2166 19.3925C44.0748 18.1078 43.7293 16.3709 42.445 15.5127ZM43.7149 13.6121C46.0452 15.1691 46.6744 18.3317 45.1173 20.6622L36.5091 33.5459C37.7174 35.1063 38.1314 37.4603 36.8191 39.5493C34.7662 42.8172 31.7914 46.7004 26.9688 47.7305C22.8977 48.6002 18.3153 47.2834 12.9597 43.7051C8.14305 40.4868 5.52731 36.6899 5.18523 32.4197C4.94497 29.4205 5.89187 26.2278 7.92375 23.1867L10.7882 18.9156C12.343 16.5886 15.5057 15.9594 17.8361 17.5164C18.3657 17.8703 18.8342 18.3307 19.2103 18.8559C20.8252 17.9512 22.879 17.9617 24.5194 19.0577C25.1041 19.4484 25.5872 19.9314 25.96 20.4698C27.5614 19.6147 29.5726 19.6453 31.1853 20.7229C31.5893 20.9928 31.9472 21.3136 32.2524 21.6754C32.5155 21.281 32.7853 20.8766 33.0561 20.4707L35.6849 16.53C36.4011 15.4566 36.728 14.9667 36.8994 14.7197L36.8951 14.7169C38.3125 12.5951 41.4357 12.0892 43.7149 13.6121Z" fill="white"/>
</svg>
