<svg width="56" height="56" viewBox="0 0 56 56" fill="none" xmlns="http://www.w3.org/2000/svg">
<path d="M47.4241 13.057C47.2584 13.1993 47.0578 13.2927 46.8408 13.3253C42.1508 14.0393 38.7698 12.9263 36.0585 12.0303C34.3902 11.482 32.9528 11.006 31.4992 11.006C29.0469 11.006 27.1475 12.2543 25.3112 13.4607C24.8842 13.7407 24.4689 14.0137 24.0582 14.2634L17.9775 20.3441C17.1445 21.1771 16.9392 22.4441 17.4665 23.4964C17.9308 24.4274 18.8665 25.0061 19.9072 25.0061H20.8405C21.4752 25.0061 22.0702 24.7961 22.5602 24.3994C23.0059 24.0354 23.5192 23.6084 24.0675 23.1487C27.0565 20.6497 29.4715 18.6874 31.0885 18.0807C31.2238 18.0294 31.3592 18.006 31.4992 18.006C31.7745 18.006 32.0475 18.104 32.2622 18.2907L49.1252 32.9044L55.9991 30.179V7.70898L47.4241 13.057Z" fill="black"/>
<path d="M10.5537 32.0059C9.7907 32.0059 9.079 32.3862 8.6567 33.0209L7.3827 34.9319C7.133 35.3052 7 35.7462 7 36.1966V36.7263C7 37.9863 8.0197 39.006 9.2797 39.006C10.0427 39.006 10.7544 38.6257 11.1767 37.991L12.4507 36.08C12.7004 35.7067 12.8334 35.2657 12.8334 34.8153V34.2856C12.8333 33.0256 11.8137 32.0059 10.5537 32.0059Z" fill="black"/>
<path d="M15.2203 34.3398H15.141C14.4223 34.3398 13.748 34.6781 13.3163 35.2521L10.9573 38.3998C10.661 38.7942 10.5 39.2725 10.5 39.7673V40.227C10.5 41.487 11.5197 42.5067 12.7797 42.5067H12.859C13.5777 42.5067 14.252 42.1684 14.6837 41.5944L17.0427 38.4467C17.339 38.0524 17.5 37.574 17.5 37.0794V36.6197C17.5 35.3595 16.4803 34.3398 15.2203 34.3398Z" fill="black"/>
<path d="M19.8863 36.6738H19.807C19.0883 36.6738 18.414 37.0121 17.9823 37.5861L15.6233 40.7338C15.327 41.1281 15.166 41.6065 15.166 42.1011V42.5608C15.166 43.8208 16.1857 44.8405 17.4457 44.8405H17.525C18.2437 44.8405 18.918 44.5022 19.3497 43.9282L21.7087 40.7805C22.005 40.3862 22.166 39.9078 22.166 39.4132V38.9535C22.166 37.6934 21.1463 36.6738 19.8863 36.6738Z" fill="black"/>
<path d="M24.5543 39.0059H24.475C23.7563 39.0059 23.082 39.3442 22.6503 39.9182L20.2913 43.0659C19.995 43.4602 19.834 43.9386 19.834 44.4332V44.8929C19.834 46.1529 20.8537 47.1726 22.1137 47.1726H22.193C22.9117 47.1726 23.586 46.8343 24.0177 46.2603L26.3767 43.1126C26.673 42.7183 26.8317 42.2376 26.8317 41.7453V41.2856H26.834C26.8339 40.0256 25.8143 39.0059 24.5543 39.0059Z" fill="black"/>
<path d="M30.5339 45.9689L28.4222 44.1699C28.3522 44.2796 28.3195 44.4102 28.2425 44.5152L26.7422 46.5149L28.3125 47.9709C28.8118 48.4679 29.5492 48.4399 29.9902 47.9989C30.5712 47.4179 30.8022 46.3049 30.5339 45.9689Z" fill="black"/>
<path d="M48.2977 35.4308L31.3063 20.5535C29.8106 21.3888 27.3933 23.4095 25.5663 24.9378C25.011 25.4045 24.4906 25.8385 24.038 26.2071C23.1257 26.9514 22.022 27.3411 20.8437 27.3411H19.9104C17.9784 27.3411 16.2447 26.2678 15.3814 24.5411C14.4014 22.5904 14.7817 20.2431 16.3287 18.6961L22.8434 12.2724C23.1771 12.0694 23.5154 11.8477 23.8584 11.6237C20.1997 10.877 16.0417 10.8257 11.3961 11.556C9.04641 11.9363 6.66881 11.276 4.86041 9.77095L0 7.66406V30.1784L6.0667 32.7007L6.71541 31.7277C7.56941 30.4444 9.00441 29.6744 10.5537 29.6744C12.292 29.6744 13.79 30.6521 14.5764 32.0754C14.7631 32.0497 14.9474 32.0077 15.1387 32.0077C16.933 32.0077 18.4474 32.9854 19.2384 34.4087C19.4297 34.383 19.6141 34.341 19.8054 34.341C21.5997 34.341 23.1141 35.3187 23.9051 36.742C24.0941 36.7187 24.2784 36.6742 24.4721 36.6742H24.5538C27.0971 36.6742 29.1668 38.744 29.1668 41.2872V41.7422L32.0951 44.232C32.0974 44.2367 32.1021 44.239 32.1068 44.2437L33.2221 45.191C33.8708 45.709 34.7201 46.0077 35.5858 46.0077C36.5495 46.0077 37.3335 45.2237 37.3335 44.26C37.3335 43.7397 37.1025 43.252 36.7035 42.9183L26.0845 34.0703C25.5898 33.6573 25.5222 32.9222 25.9352 32.4275C26.3482 31.9352 27.0832 31.8652 27.5802 32.2805L40.6982 43.2122C41.0599 43.511 41.5125 43.6742 41.9815 43.6742H42.3245C43.4328 43.6742 44.3312 42.7735 44.3312 41.6675C44.3312 41.0843 44.0862 40.5382 43.6522 40.1555L30.7512 29.4058C30.2565 28.9928 30.1889 28.2578 30.6042 27.7608C31.0195 27.2638 31.7545 27.2031 32.2469 27.6115L45.1059 38.3263C45.1269 38.3425 45.1479 38.3612 45.1666 38.3775L45.3579 38.5363C45.7219 38.842 46.1839 39.0075 46.6576 39.0075H46.9703C48.088 39.0075 49.0003 38.0953 49.0003 36.9775C49 36.3781 48.7457 35.8205 48.2977 35.4308Z" fill="black"/>
</svg>
