<svg width="51" height="55" viewBox="0 0 51 55" fill="none" xmlns="http://www.w3.org/2000/svg">
<path d="M42.445 16.4776C41.2664 15.6902 39.5367 15.8422 38.7954 16.9516C38.7918 16.9554 33.0957 25.4954 31.6938 27.5961C31.6909 27.6006 31.6895 27.6055 31.6865 27.6099L31.3934 28.0486C31.2536 28.2578 30.9707 28.314 30.7615 28.1743C30.5525 28.0346 30.4962 27.7517 30.6359 27.5426L30.7118 27.4291C31.5374 26.1487 31.1868 24.4383 29.9151 23.5886C28.6307 22.7305 26.8937 23.076 26.0355 24.3605L24.9085 26.0434C24.7708 26.2494 24.4923 26.3048 24.2862 26.1672C24.0803 26.0296 24.025 25.7511 24.1627 25.5451L24.2278 25.4492C25.0091 24.2798 24.4182 22.7043 23.2494 21.9234C21.9648 21.0651 20.2328 21.4139 19.3746 22.6984L18.231 24.3999C18.0971 24.6003 17.826 24.6542 17.6255 24.5203C17.4251 24.3864 17.3713 24.1154 17.5052 23.9149L17.5932 23.7861C18.3037 22.7227 17.6979 21.1384 16.5662 20.3822C15.2819 19.5241 13.5448 19.8696 12.6866 21.154L9.8244 25.4218C7.1693 29.3956 4.71599 36.413 14.2296 42.7695C25.568 50.3452 30.9199 45.6078 34.8834 39.2985C35.8394 37.7767 35.1447 36.0366 34.095 35.3353L32.2649 38.0743C32.0347 38.4188 31.769 38.2993 31.6977 38.2517C31.6264 38.2041 31.4216 38.0107 31.6519 37.666C31.8741 37.3335 43.2166 20.3573 43.2166 20.3573C44.0748 19.0727 43.7293 17.3357 42.445 16.4776ZM43.7149 14.5769C46.0452 16.1339 46.6744 19.2966 45.1173 21.627L36.5091 34.5107C37.7174 36.0712 38.1314 38.4252 36.8191 40.5142C34.7662 43.7821 31.7914 47.6653 26.9688 48.6954C22.8977 49.565 18.3153 48.2482 12.9597 44.6699C8.14305 41.4517 5.52731 37.6548 5.18523 33.3845C4.94497 30.3853 5.89187 27.1927 7.92375 24.1516L10.7882 19.8805C12.343 17.5534 15.5057 16.9242 17.8361 18.4813C18.3657 18.8351 18.8342 19.2955 19.2103 19.8208C20.8252 18.9161 22.879 18.9265 24.5194 20.0225C25.1041 20.4132 25.5872 20.8963 25.96 21.4347C27.5614 20.5796 29.5726 20.6102 31.1853 21.6877C31.5893 21.9576 31.9472 22.2784 32.2524 22.6403C32.5155 22.2459 32.7853 21.8414 33.0561 21.4355L35.6849 17.4949C36.4011 16.4215 36.728 15.9315 36.8994 15.6846L36.8951 15.6817C38.3125 13.5599 41.4357 13.0541 43.7149 14.5769Z" fill="black"/>
</svg>
