<svg width="51" height="55" viewBox="0 0 51 55" fill="none" xmlns="http://www.w3.org/2000/svg">
<path d="M8.49791 16.4776C9.67643 15.6902 11.4062 15.8422 12.1475 16.9516C12.1511 16.9554 17.8472 25.4954 19.2491 27.5961C19.2519 27.6006 19.2534 27.6055 19.2563 27.6099L19.5495 28.0486C19.6893 28.2578 19.9722 28.314 20.1813 28.1743C20.3904 28.0346 20.4467 27.7517 20.3069 27.5426L20.2311 27.4291C19.4055 26.1487 19.7561 24.4383 21.0278 23.5886C22.3121 22.7305 24.0492 23.076 24.9074 24.3605L26.0344 26.0434C26.1721 26.2494 26.4506 26.3048 26.6566 26.1672C26.8626 26.0296 26.9179 25.7511 26.7802 25.5451L26.7151 25.4492C25.9337 24.2798 26.5247 22.7043 27.6935 21.9234C28.9781 21.0651 30.7101 21.4139 31.5683 22.6984L32.7119 24.3999C32.8458 24.6003 33.1169 24.6542 33.3173 24.5203C33.5178 24.3864 33.5716 24.1154 33.4377 23.9149L33.3497 23.7861C32.6392 22.7227 33.245 21.1384 34.3767 20.3822C35.661 19.5241 37.3981 19.8696 38.2563 21.154L41.1185 25.4218C43.7736 29.3956 46.2269 36.413 36.7132 42.7695C25.3748 50.3452 20.023 45.6078 16.0595 39.2985C15.1034 37.7767 15.7982 36.0366 16.8479 35.3353L18.678 38.0743C18.9082 38.4188 19.1739 38.2993 19.2452 38.2517C19.3164 38.2041 19.5213 38.0107 19.291 37.666C19.0688 37.3335 7.72626 20.3573 7.72626 20.3573C6.86807 19.0727 7.21353 17.3357 8.49791 16.4776ZM7.22799 14.5769C4.89766 16.1339 4.26849 19.2966 5.82555 21.627L14.4337 34.5107C13.2255 36.0712 12.8115 38.4252 14.1238 40.5142C16.1766 43.7821 19.1515 47.6653 23.9741 48.6954C28.0452 49.565 32.6276 48.2482 37.9831 44.6699C42.7998 41.4517 45.4156 37.6548 45.7576 33.3845C45.9979 30.3853 45.051 27.1927 43.0191 24.1516L40.1547 19.8805C38.5999 17.5534 35.4372 16.9242 33.1068 18.4813C32.5771 18.8351 32.1086 19.2955 31.7326 19.8208C30.1176 18.9161 28.0638 18.9265 26.4235 20.0225C25.8387 20.4132 25.3557 20.8963 24.9829 21.4347C23.3814 20.5796 21.3703 20.6102 19.7575 21.6877C19.3536 21.9576 18.9956 22.2784 18.6905 22.6403C18.4274 22.2459 18.1575 21.8414 17.8868 21.4355L15.2579 17.4949C14.5417 16.4215 14.2149 15.9315 14.0434 15.6846L14.0477 15.6817C12.6304 13.5599 9.50718 13.0541 7.22799 14.5769Z" fill="black"/>
</svg>
