<svg width="261" height="111" viewBox="0 0 261 111" fill="none" xmlns="http://www.w3.org/2000/svg">
<rect width="261" height="111" rx="7" fill="#F8F9FB"/>
<path fill-rule="evenodd" clip-rule="evenodd" d="M81 36V38.7367H100.465V36H81ZM103.223 36V38.7367H130.961C130.961 38.7367 128.128 36 124.375 36H103.223ZM136.402 36V38.7367H153.184L152.188 36H136.402ZM165.215 36L164.219 38.7367H180.848V36H165.215ZM81 41.3221V44.0588H100.465V41.3221H81ZM103.223 41.3262V44.059H134.18C134.18 44.059 133.818 41.9526 133.187 41.3262H103.223ZM136.402 41.3262V44.059H155.023L154.101 41.3262H136.402ZM163.223 41.3262L162.301 44.059H180.848V41.3262H163.223ZM86.5938 46.6443V49.385H95.0233V46.6443H86.5938ZM108.816 46.6443V49.385H117.246V46.6443H108.816ZM125.445 46.6443V49.385H133.875C133.875 49.385 134.41 47.9376 134.41 46.6443H125.445ZM141.996 46.6443V49.385H156.941L155.945 46.6443H141.996ZM161.387 46.6443L160.387 49.385H175.406V46.6443H161.387ZM86.5938 51.9707V54.7074H95.0233V51.9707H86.5938ZM108.816 51.9707V54.7074H130.348C130.348 54.7074 132.149 53.3031 132.723 51.9707H108.816ZM141.996 51.9707V54.7074H150.426V53.1838L150.961 54.7074H166.402L166.977 53.1838V54.7074H175.406V51.9707H159.582L158.742 54.2886L157.898 51.9707H141.996ZM86.5938 57.2929V60.0295H95.0233V57.2929H86.5938ZM108.816 57.2929V60.0295H132.723C132.149 58.7014 130.348 57.2929 130.348 57.2929H108.816ZM141.996 57.2929V60.0295H150.426V57.2929H141.996ZM151.957 57.2929L152.976 60.0295H164.555L165.523 57.2929H151.957ZM166.976 57.2929V60.0295H175.406V57.2929H166.976ZM86.5938 62.615V65.3517H95.0233V62.615H86.5938ZM108.816 62.615V65.3517H117.246V62.615H108.816ZM125.445 62.615V65.3517H134.41C134.41 64.06 133.875 62.615 133.875 62.615H125.445ZM141.996 62.615V65.3517H150.426V62.615H141.996ZM153.871 62.615L154.859 65.3517H162.621L163.617 62.615H153.871ZM166.976 62.615V65.3517H175.406V62.615H166.976ZM81.1524 67.9371V70.6779H100.617V67.9371H81.1524ZM103.223 67.9371V70.6779H133.187C133.818 70.0502 134.18 67.9371 134.18 67.9371H103.223ZM136.555 67.9371V70.6779H150.426V67.9371H136.555ZM155.789 67.9371L156.805 70.6779H160.754L161.707 67.9371H155.789ZM166.976 67.9371V70.6779H181V67.9371H166.976ZM81.1524 73.2633V76H100.617V73.2633H81.1524ZM103.223 73.2633V75.9962H124.375C128.128 75.9962 130.961 73.2633 130.961 73.2633H103.223ZM136.555 73.2633V76H150.426V73.2633H136.555ZM157.715 73.2633L158.691 75.9924L158.859 75.9962L159.852 73.2633H157.715ZM166.976 73.2633V76H181V73.2633H166.976Z" fill="#1F70C1"/>
</svg>
