<svg width="23" height="23" viewBox="0 0 23 23" fill="none" xmlns="http://www.w3.org/2000/svg">
<path fill-rule="evenodd" clip-rule="evenodd" d="M2.72314 6.16865C2.72314 5.19087 3.11157 4.25314 3.80296 3.56175C4.49435 2.87035 5.43208 2.48193 6.40986 2.48193H17.47C18.4478 2.48193 19.3855 2.87035 20.0769 3.56175C20.7683 4.25314 21.1567 5.19087 21.1567 6.16865V17.2288C21.1567 18.2066 20.7683 19.1443 20.0769 19.8357C19.3855 20.5271 18.4478 20.9155 17.47 20.9155H6.40986C5.43208 20.9155 4.49435 20.5271 3.80296 19.8357C3.11157 19.1443 2.72314 18.2066 2.72314 17.2288V6.16865ZM6.40986 4.32529C5.92097 4.32529 5.45211 4.5195 5.10641 4.8652C4.76071 5.2109 4.5665 5.67976 4.5665 6.16865V17.2288C4.5665 17.7177 4.76071 18.1866 5.10641 18.5322C5.45211 18.8779 5.92097 19.0722 6.40986 19.0722H17.47C17.9589 19.0722 18.4278 18.8779 18.7735 18.5322C19.1192 18.1866 19.3134 17.7177 19.3134 17.2288V6.16865C19.3134 5.67976 19.1192 5.2109 18.7735 4.8652C18.4278 4.5195 17.9589 4.32529 17.47 4.32529H6.40986ZM11.9399 8.93369C11.2066 8.93369 10.5033 9.225 9.98476 9.74355C9.46621 10.2621 9.1749 10.9654 9.1749 11.6987C9.1749 12.4321 9.46621 13.1354 9.98476 13.6539C10.5033 14.1724 11.2066 14.4638 11.9399 14.4638C12.6733 14.4638 13.3766 14.1724 13.8951 13.6539C14.4137 13.1354 14.705 12.4321 14.705 11.6987C14.705 10.9654 14.4137 10.2621 13.8951 9.74355C13.3766 9.225 12.6733 8.93369 11.9399 8.93369ZM7.33154 11.6987C7.33154 10.4765 7.81706 9.30434 8.68131 8.4401C9.54555 7.57585 10.7177 7.09033 11.9399 7.09033C13.1622 7.09033 14.3343 7.57585 15.1986 8.4401C16.0628 9.30434 16.5483 10.4765 16.5483 11.6987C16.5483 12.9209 16.0628 14.0931 15.1986 14.9573C14.3343 15.8216 13.1622 16.3071 11.9399 16.3071C10.7177 16.3071 9.54555 15.8216 8.68131 14.9573C7.81706 14.0931 7.33154 12.9209 7.33154 11.6987ZM17.0092 8.01201C17.3758 8.01201 17.7275 7.86635 17.9868 7.60708C18.246 7.3478 18.3917 6.99616 18.3917 6.62949C18.3917 6.26282 18.246 5.91117 17.9868 5.6519C17.7275 5.39263 17.3758 5.24697 17.0092 5.24697C16.6425 5.24697 16.2909 5.39263 16.0316 5.6519C15.7723 5.91117 15.6266 6.26282 15.6266 6.62949C15.6266 6.99616 15.7723 7.3478 16.0316 7.60708C16.2909 7.86635 16.6425 8.01201 17.0092 8.01201Z" fill="#CECECE"/>
</svg>
