<svg width="31" height="31" viewBox="0 0 31 31" fill="none" xmlns="http://www.w3.org/2000/svg">
<g clip-path="url(#clip0)">
<path d="M27.5967 0.371094H2.74462C1.22882 0.371094 0 1.59992 0 3.11571V27.9677C0 29.4836 1.22882 30.7124 2.74462 30.7124H27.5966C29.1125 30.7124 30.3413 29.4836 30.3413 27.9677V3.11571C30.3413 1.59992 29.1125 0.371094 27.5967 0.371094ZM9.38889 26.5698C9.38889 27.0109 9.03131 27.3685 8.59017 27.3685H5.19019C4.74905 27.3685 4.39147 27.0109 4.39147 26.5698V12.3172C4.39147 11.8761 4.74905 11.5185 5.19019 11.5185H8.59017C9.03131 11.5185 9.38889 11.8761 9.38889 12.3172V26.5698ZM6.89018 10.175C5.10632 10.175 3.66018 8.72885 3.66018 6.94499C3.66018 5.16113 5.10632 3.71499 6.89018 3.71499C8.67404 3.71499 10.1202 5.16113 10.1202 6.94499C10.1202 8.72885 8.67412 10.175 6.89018 10.175ZM27.1571 26.6341C27.1571 27.0397 26.8282 27.3685 26.4227 27.3685H22.7743C22.3687 27.3685 22.0399 27.0397 22.0399 26.6341V19.9489C22.0399 18.9516 22.3324 15.5787 19.4336 15.5787C17.1851 15.5787 16.729 17.8873 16.6374 18.9234V26.6341C16.6374 27.0397 16.3087 27.3685 15.9031 27.3685H12.3744C11.9689 27.3685 11.64 27.0397 11.64 26.6341V12.2529C11.64 11.8473 11.9689 11.5185 12.3744 11.5185H15.9031C16.3086 11.5185 16.6374 11.8473 16.6374 12.2529V13.4963C17.4712 12.2451 18.7103 11.2794 21.3484 11.2794C27.1905 11.2794 27.1571 16.7373 27.1571 19.7362V26.6341Z" fill="#828282"/>
</g>
<defs>
<clipPath id="clip0">
<rect width="30.3413" height="30.3413" fill="white" transform="translate(0 0.371094)"/>
</clipPath>
</defs>
</svg>
