<svg width="106" height="106" viewBox="0 0 106 106" fill="none" xmlns="http://www.w3.org/2000/svg">
<circle cx="53" cy="53" r="53" fill="#FFAF30"/>
<path d="M59.4399 38.7185C56.6372 38.7185 54.068 40.3198 52.8224 42.7598C51.0318 39.176 46.6721 37.7273 43.013 39.481C40.5218 40.701 38.8868 43.141 38.8868 45.9623C38.8868 46.1148 38.8868 46.3435 38.8868 46.496C39.0425 48.326 39.8989 50.0797 41.3002 51.2997L52.1995 61.9748C52.3553 62.1273 52.5888 62.2035 52.8224 62.2035C53.0559 62.2035 53.2896 62.1273 53.4452 61.9748L64.3446 51.2997C64.5003 51.1473 64.7338 50.9186 64.8895 50.766C65.9794 49.546 66.6023 48.0973 66.7579 46.496C66.7579 46.3435 66.7579 46.1148 66.7579 45.9623C66.8358 41.9973 63.4882 38.7185 59.4399 38.7185ZM32.503 42.836C32.3472 42.3023 31.7244 41.921 31.1794 41.9973C30.9459 41.9973 30.7124 42.0735 30.4787 42.226L20.2023 49.3935C19.5016 49.851 19.5016 50.9947 20.2023 51.4523L30.5567 58.696C31.1016 59.0773 31.958 58.9248 32.3472 58.391C32.7365 57.8573 32.5808 57.0186 32.0358 56.6373L23.1606 50.461L32.0358 44.2848C32.503 43.9798 32.7365 43.3698 32.503 42.836ZM85.5982 49.3935L75.1661 42.226C74.9324 42.0735 74.6989 41.9973 74.4653 41.9973C73.9203 41.9973 73.3754 42.3023 73.1419 42.836C72.9861 43.3698 73.1419 43.9798 73.609 44.2848L82.4841 50.461L73.609 56.6373C73.0639 57.0186 72.9083 57.8573 73.2976 58.391C73.6868 58.9248 74.5432 59.0773 75.0882 58.696L85.4425 51.5286C86.2211 51.071 86.2211 49.9273 85.5982 49.3935Z" fill="white"/>
</svg>
