<svg width="239" height="546" viewBox="0 0 239 546" fill="none" xmlns="http://www.w3.org/2000/svg">
<g clip-path="url(#clip0)">
<path d="M119.471 546C53.4892 546 0.000473022 526.425 0.000473022 502.278C0.000473022 478.132 53.4892 458.557 119.471 458.557C185.453 458.557 238.941 478.132 238.941 502.278C238.941 526.425 185.453 546 119.471 546Z" fill="#EBEBEB"/>
<path d="M54.7879 96.6143C58.6565 93.5692 77.1286 85.0026 86.0566 81.3295L94.5522 74.321L96.0451 74.0011L97.6565 64.2733C97.6565 64.2733 85.7604 62.105 82.8989 59.2909C80.0375 56.4768 94.0604 6.19095 94.0604 6.19095C94.0604 6.19095 90.4229 2.96218 89.7356 0C89.7356 0 127.622 6.07838 129.494 11.5703C131.366 17.0621 124.162 39.7761 124.103 50.1615C124.187 56.0332 124.706 61.8906 125.655 67.6857L126.55 67.4902C127.071 67.5672 134.305 70.7841 134.305 70.7841C139.204 71.1218 163.518 71.6017 169.448 74.6409C190.005 85.1685 180.461 108.753 177.41 114.767C174.359 120.78 166.237 132.072 162.534 136.811C158.831 141.551 149.826 161.794 148.019 171.765C145.016 188.264 155.295 231.464 157.054 236.986C155.819 237.775 154.541 238.495 153.227 239.142C153.262 239.142 190.55 474.339 192.026 481.697L187.659 483.658C188.536 486.828 189.401 490.092 190.029 492.948C192.037 501.733 192.63 503.967 192.683 506.437C192.736 508.908 188.406 528.606 186.759 529.862C185.112 531.118 170.437 530.763 168.304 530.01C166.172 529.258 160.277 504.69 159.773 501.798C159.442 499.885 159.11 493.504 159.732 487.189C157.554 486.521 155.44 485.658 153.417 484.612C153.417 484.612 132.018 380.628 129.038 363.998L102.971 268.367C102.971 268.367 99.9492 344.477 99.8248 346.61C99.7004 348.743 101.401 438.775 101.655 446.056C101.655 446.056 100.109 447.318 97.7809 448.894C98.3908 452.545 98.755 456.232 98.871 459.931C98.9068 462.842 98.6708 465.749 98.166 468.616C98.166 468.616 88.1242 471.401 85.0969 470.85L82.4132 469.037C80.4919 469.475 78.7102 470.385 77.2294 471.685C74.6997 473.871 68.0762 475.696 64.338 476.519C59.5985 477.55 43.2888 476.383 41.6122 475.53C39.9356 474.677 40.6287 471.454 42.9274 469.724C45.226 467.994 52.2464 465.624 55.9313 463.326C58.8935 461.477 66.0383 456.507 69.0123 454.25C67.1343 453.983 65.9494 453.805 65.9494 453.805C65.9494 453.805 62.3059 363.714 62.7739 351.433C63.242 339.151 59.3319 247.863 59.1719 237.685L59.2608 237.721C57.9079 237.238 56.6679 236.484 55.6173 235.505C55.6173 235.505 66.9388 172.458 66.9388 169.194C66.9388 165.929 67.0454 156.059 67.0454 156.059C67.0454 156.059 47.2107 164.069 27.1686 156.871C21.9848 155.011 19.5736 145.567 19.5736 140.792C19.5736 136.017 32.8382 113.866 54.7879 96.6143Z" fill="black"/>
<path d="M79.5293 106.241L99.4055 103.783C103.606 95.684 125.656 67.6855 125.656 67.6855L93.8603 85.9385L96.0463 74.0009C81.5613 91.4837 79.5293 106.241 79.5293 106.241ZM87.4857 148.701C85.3825 152.895 78.2614 183.27 78.2614 183.27C76.7626 172.167 75.3348 152.973 75.3348 152.973C79.4605 151.773 83.517 150.347 87.4857 148.701Z" fill="url(#paint0_linear)"/>
<path d="M93.8591 85.9395L84.6586 92.8769L92.0877 90.0628L99.4043 97.563L93.8591 85.9395Z" fill="black"/>
<path d="M87.4858 148.702C83.5171 150.348 79.4607 151.774 75.335 152.973C75.335 152.973 76.7628 172.168 78.2616 183.271C78.2616 183.271 85.3827 152.896 87.4858 148.702ZM87.7465 90.5486L93.8604 85.9395L97.5039 93.6056L92.018 101.378L92.2253 104.666L84.9798 105.567C86.3247 102.356 87.1718 100.525 87.1718 100.525L87.7465 90.5486Z" fill="url(#paint1_linear)"/>
<path fill-rule="evenodd" clip-rule="evenodd" d="M58.6153 110.382L66.9509 109.055C68.4794 108.095 69.9131 107.277 70.6596 107.277C72.5731 107.165 99.4104 103.8 99.4104 103.8C99.4104 103.8 123.214 96.7262 132.533 90.322C137.237 87.0932 144.975 77.8809 144.975 77.8809C144.975 77.8809 142.729 86.4178 139.252 89.6703C135.573 93.1124 129.222 101.981 100.886 108.036C98.6225 108.516 72.2117 110.755 64.1842 110.945C62.9579 111.022 59.4447 111.537 59.4447 111.537L55.8783 117.301H53.8403C54.6934 114.28 58.6153 110.382 58.6153 110.382Z" fill="url(#paint2_linear)"/>
<path d="M27.1694 156.872C21.9856 155.012 19.5744 145.568 19.5744 140.793C19.5744 136.018 32.839 113.867 54.7887 96.6152C58.6573 93.5701 77.1294 85.0035 86.0574 81.3304L94.553 74.3219L96.0459 74.002L86.3596 83.9904C86.3596 83.9904 64.3625 93.0843 52.7685 100.887C45.1972 105.97 28.9704 127.28 25.3684 137.079C22.2581 145.544 24.9774 152.571 28.3306 157.269C27.9573 157.138 27.5663 156.996 27.1694 156.872Z" fill="url(#paint3_linear)"/>
<path d="M55.6419 235.47C55.6419 235.47 66.9397 172.459 66.9397 169.194C66.9397 165.93 67.0463 156.06 67.0463 156.06L71.1934 155.225C71.1934 155.225 71.1934 166.623 70.8912 171.718C70.5891 176.813 59.2854 237.686 59.2854 237.686C57.9325 237.203 56.6926 236.449 55.6419 235.47Z" fill="url(#paint4_linear)"/>
<path d="M65.95 453.806C65.95 453.806 62.3065 363.714 62.7745 351.433C63.2426 339.152 59.368 248.716 59.1725 237.822L59.2614 237.703C59.2614 237.703 66.809 240.873 73.2725 242.075C73.2725 242.075 66.2403 242.526 63.2425 242.075L68.9892 454.238C67.1348 453.983 65.95 453.806 65.95 453.806Z" fill="url(#paint5_linear)"/>
<path d="M134.75 372.428C137.297 386.451 159.774 487.176 159.774 487.176C157.583 486.514 155.455 485.655 153.418 484.611C153.418 484.611 132.019 380.627 129.039 363.997L102.972 268.366L102.593 260.072C102.593 260.072 131.184 352.836 134.75 372.428Z" fill="url(#paint6_linear)"/>
<path d="M57.8114 137.677C57.8114 137.677 84.0326 143.275 102.594 144.075C121.155 144.875 144.994 133.684 144.994 133.684C144.994 133.684 122.339 141.445 106.142 141.421C89.9451 141.397 57.8114 137.677 57.8114 137.677Z" fill="url(#paint7_linear)"/>
<path d="M129.496 11.5703C129.97 12.9506 129.863 15.427 129.448 18.5195C126.332 13.9518 119.803 10.5216 112.901 8.99909C104.056 7.04998 89.7373 0 89.7373 0C89.7373 0 127.623 6.07838 129.496 11.5703Z" fill="url(#paint8_linear)"/>
<path d="M82.8997 59.2914C80.0442 56.4714 94.0612 6.19141 94.0612 6.19141C96.4718 7.50226 99.0186 8.54524 101.656 9.30169C101.656 9.30169 88.0302 51.4001 85.0681 60.6717C84.2779 60.3271 83.5464 59.8614 82.8997 59.2914Z" fill="url(#paint9_linear)"/>
<path d="M97.6573 64.2734L104.956 65.3931L101.656 81.46L93.8597 85.9388L96.0458 74.0012L97.6573 64.2734Z" fill="url(#paint10_linear)"/>
<path d="M42.9274 469.695C45.232 467.971 52.2464 465.595 55.9314 463.297C58.8936 461.448 66.0383 456.478 69.0124 454.221C69.0124 454.221 72.567 454.321 74.208 454.221C74.208 454.221 61.6128 465.21 55.1671 466.863C49.8648 468.22 43.5554 472.408 41.393 475.359C40.0126 474.334 40.7414 471.342 42.9274 469.695Z" fill="url(#paint11_linear)"/>
<path fill-rule="evenodd" clip-rule="evenodd" d="M44.066 115.928C46.6668 114.346 52.9525 113.789 55.8555 113.605C55.3132 114.332 54.8261 115.099 54.3981 115.898C52.0283 116.111 47.1171 116.615 45.1205 117.279C42.419 118.179 38.817 126.426 38.817 126.426H36.5717C36.5717 126.426 40.618 118.031 44.066 115.928Z" fill="url(#paint12_linear)"/>
<path d="M167.145 487.178C167.145 487.178 163.175 500.602 163.46 504.803C163.697 508.292 167.328 523.926 172.222 530.491C170.917 530.456 169.619 530.292 168.347 529.999C166.208 529.247 160.32 504.678 159.816 501.787C159.484 499.874 159.153 493.493 159.775 487.178C159.775 487.178 165.142 487.575 167.145 487.178Z" fill="url(#paint13_linear)"/>
</g>
<defs>
<linearGradient id="paint0_linear" x1="108.647" y1="127.077" x2="81.0518" y2="120.477" gradientUnits="userSpaceOnUse">
<stop stop-color="#42D1E2"/>
<stop offset="0.24" stop-color="#76D9D6"/>
<stop offset="0.61" stop-color="#BFE6C4"/>
<stop offset="0.87" stop-color="#EDEDB9"/>
<stop offset="1" stop-color="#FFF0B5"/>
</linearGradient>
<linearGradient id="paint1_linear" x1="91.2893" y1="85.2522" x2="78.3919" y2="186.031" gradientUnits="userSpaceOnUse">
<stop stop-color="#42D1E2"/>
<stop offset="0.11" stop-color="#3DC1D0"/>
<stop offset="0.34" stop-color="#2F96A2"/>
<stop offset="0.66" stop-color="#1A5158"/>
<stop offset="1"/>
</linearGradient>
<linearGradient id="paint2_linear" x1="146.793" y1="83.7341" x2="63.6096" y2="116.525" gradientUnits="userSpaceOnUse">
<stop/>
<stop offset="0.15" stop-color="#1A5158"/>
<stop offset="0.28" stop-color="#2F96A2"/>
<stop offset="0.38" stop-color="#3DC1D0"/>
<stop offset="0.42" stop-color="#42D1E2"/>
<stop offset="0.7" stop-color="#9BE0CD"/>
<stop offset="1" stop-color="#FFF0B5"/>
</linearGradient>
<linearGradient id="paint3_linear" x1="90.2519" y1="79.3872" x2="5.4685" y2="161.374" gradientUnits="userSpaceOnUse">
<stop stop-color="#FFF0B5"/>
<stop offset="0.3" stop-color="#9BE0CD"/>
<stop offset="0.58" stop-color="#42D1E2"/>
<stop offset="0.62" stop-color="#3DC1D0"/>
<stop offset="0.72" stop-color="#2F96A2"/>
<stop offset="0.85" stop-color="#1A5158"/>
<stop offset="1"/>
</linearGradient>
<linearGradient id="paint4_linear" x1="-4392.22" y1="21448.3" x2="-9715.53" y2="30484.3" gradientUnits="userSpaceOnUse">
<stop/>
<stop offset="0.15" stop-color="#1A5158"/>
<stop offset="0.28" stop-color="#2F96A2"/>
<stop offset="0.38" stop-color="#3DC1D0"/>
<stop offset="0.42" stop-color="#42D1E2"/>
<stop offset="0.7" stop-color="#9BE0CD"/>
<stop offset="1" stop-color="#FFF0B5"/>
</linearGradient>
<linearGradient id="paint5_linear" x1="-4038.7" y1="86812.7" x2="22382.1" y2="155651" gradientUnits="userSpaceOnUse">
<stop stop-color="#FFF0B5"/>
<stop offset="0.3" stop-color="#9BE0CD"/>
<stop offset="0.58" stop-color="#42D1E2"/>
<stop offset="0.62" stop-color="#3DC1D0"/>
<stop offset="0.72" stop-color="#2F96A2"/>
<stop offset="0.85" stop-color="#1A5158"/>
<stop offset="1"/>
</linearGradient>
<linearGradient id="paint6_linear" x1="-7617.53" y1="187753" x2="-53485.9" y2="138573" gradientUnits="userSpaceOnUse">
<stop stop-color="#FFF0B5"/>
<stop offset="0.3" stop-color="#9BE0CD"/>
<stop offset="0.58" stop-color="#42D1E2"/>
<stop offset="0.62" stop-color="#3DC1D0"/>
<stop offset="0.72" stop-color="#2F96A2"/>
<stop offset="0.85" stop-color="#1A5158"/>
<stop offset="1"/>
</linearGradient>
<linearGradient id="paint7_linear" x1="-13680.4" y1="2579.52" x2="-26510.3" y2="2579.52" gradientUnits="userSpaceOnUse">
<stop stop-color="#42D1E2"/>
<stop offset="0.11" stop-color="#3DC1D0"/>
<stop offset="0.34" stop-color="#2F96A2"/>
<stop offset="0.66" stop-color="#1A5158"/>
<stop offset="1"/>
</linearGradient>
<linearGradient id="paint8_linear" x1="-7054.41" y1="469.099" x2="-9387.69" y2="-1069.09" gradientUnits="userSpaceOnUse">
<stop/>
<stop offset="0.15" stop-color="#1A5158"/>
<stop offset="0.28" stop-color="#2F96A2"/>
<stop offset="0.38" stop-color="#3DC1D0"/>
<stop offset="0.42" stop-color="#42D1E2"/>
<stop offset="0.7" stop-color="#9BE0CD"/>
<stop offset="1" stop-color="#FFF0B5"/>
</linearGradient>
<linearGradient id="paint9_linear" x1="-4453.54" y1="643.611" x2="-6985.34" y2="4162.59" gradientUnits="userSpaceOnUse">
<stop stop-color="#FFF0B5"/>
<stop offset="0.3" stop-color="#9BE0CD"/>
<stop offset="0.58" stop-color="#42D1E2"/>
<stop offset="0.62" stop-color="#3DC1D0"/>
<stop offset="0.72" stop-color="#2F96A2"/>
<stop offset="0.85" stop-color="#1A5158"/>
<stop offset="1"/>
</linearGradient>
<linearGradient id="paint10_linear" x1="-2480.15" y1="2460.46" x2="-2682.2" y2="3152.8" gradientUnits="userSpaceOnUse">
<stop stop-color="#42D1E2"/>
<stop offset="0.11" stop-color="#3DC1D0"/>
<stop offset="0.34" stop-color="#2F96A2"/>
<stop offset="0.66" stop-color="#1A5158"/>
<stop offset="1"/>
</linearGradient>
<linearGradient id="paint11_linear" x1="-9245.62" y1="17037.9" x2="-11142" y2="17037.9" gradientUnits="userSpaceOnUse">
<stop stop-color="#6B77B6"/>
<stop offset="0.15" stop-color="#1A5158"/>
<stop offset="0.28" stop-color="#2F96A2"/>
<stop offset="0.38" stop-color="#3DC1D0"/>
<stop offset="0.42" stop-color="#42D1E2"/>
<stop offset="0.7" stop-color="#9BE0CD"/>
<stop offset="1" stop-color="#FFF0B5"/>
</linearGradient>
<linearGradient id="paint12_linear" x1="-5903.6" y1="2710.74" x2="-6531.28" y2="2710.74" gradientUnits="userSpaceOnUse">
<stop stop-color="#FFF0B5"/>
<stop offset="0.3" stop-color="#9BE0CD"/>
<stop offset="0.58" stop-color="#42D1E2"/>
<stop offset="0.62" stop-color="#3DC1D0"/>
<stop offset="0.72" stop-color="#2F96A2"/>
<stop offset="0.85" stop-color="#1A5158"/>
<stop offset="1"/>
</linearGradient>
<linearGradient id="paint13_linear" x1="-1365.97" y1="39341" x2="-2547.2" y2="36238" gradientUnits="userSpaceOnUse">
<stop stop-color="#FFF0B5"/>
<stop offset="0.3" stop-color="#9BE0CD"/>
<stop offset="0.58" stop-color="#42D1E2"/>
<stop offset="0.62" stop-color="#3DC1D0"/>
<stop offset="0.72" stop-color="#2F96A2"/>
<stop offset="0.85" stop-color="#1A5158"/>
<stop offset="1"/>
</linearGradient>
<clipPath id="clip0">
<rect width="238.941" height="546" fill="white" transform="matrix(-1 0 0 1 238.94 0)"/>
</clipPath>
</defs>
</svg>
