<svg width="22" height="22" viewBox="0 0 22 22" fill="none" xmlns="http://www.w3.org/2000/svg">
<g clip-path="url(#clip0)">
<path d="M15.228 18.5458C16.3533 18.5458 17.2655 17.6335 17.2655 16.5082C17.2655 15.3829 16.3533 14.4707 15.228 14.4707C14.1027 14.4707 13.1904 15.3829 13.1904 16.5082C13.1904 17.6335 14.1027 18.5458 15.228 18.5458Z" fill="#FFCEBF"/>
<path d="M17.4499 21.9999H13.0059V20.7669C13.0059 19.5397 14.0007 18.5449 15.2279 18.5449C16.455 18.5449 17.4499 19.5397 17.4499 20.7669V21.9999H17.4499Z" fill="#3C87D0"/>
<path d="M19.6723 18.5458C20.7976 18.5458 21.7098 17.6335 21.7098 16.5082C21.7098 15.3829 20.7976 14.4707 19.6723 14.4707C18.547 14.4707 17.6348 15.3829 17.6348 16.5082C17.6348 17.6335 18.547 18.5458 19.6723 18.5458Z" fill="#FFCEBF"/>
<path d="M21.8942 21.9999H17.4502V20.7669C17.4502 19.5397 18.445 18.5449 19.6722 18.5449C20.8994 18.5449 21.8942 19.5397 21.8942 20.7669V21.9999H21.8942Z" fill="#3C87D0"/>
<path d="M14.3082 6.59716H16.1475C16.2674 6.24039 16.466 5.91525 16.7285 5.64545C17.1146 5.2485 17.3447 4.69906 17.3191 4.09578C17.2732 3.0149 16.3912 2.1367 15.3101 2.09532C14.1166 2.04965 13.1348 3.0036 13.1348 4.18687C13.1348 4.75432 13.3607 5.26874 13.7275 5.64562C13.9899 5.91529 14.1883 6.24039 14.3082 6.59703V6.59716Z" fill="#FDB97E"/>
<path d="M14.3086 6.59766H16.148V7.3509C16.148 7.85883 15.7362 8.2706 15.2283 8.2706C14.7203 8.2706 14.3086 7.85883 14.3086 7.3509V6.59766Z" fill="#537983"/>
<path d="M15.2282 1.42205C15.0466 1.42205 14.8994 1.27488 14.8994 1.09325V0.328797C14.8994 0.147168 15.0466 0 15.2282 0C15.4098 0 15.557 0.147168 15.557 0.328797V1.09325C15.557 1.27484 15.4098 1.42205 15.2282 1.42205Z" fill="#FEA95C"/>
<path d="M13.4338 1.93058C13.3496 1.93058 13.2655 1.89849 13.2013 1.83425L12.6607 1.29366C12.5324 1.16527 12.5323 0.957084 12.6608 0.828693C12.7891 0.700346 12.9973 0.700303 13.1257 0.828736L13.6663 1.36933C13.7947 1.49772 13.7947 1.7059 13.6663 1.83429C13.6021 1.89844 13.5179 1.93058 13.4338 1.93058Z" fill="#FEA95C"/>
<path d="M17.0222 1.93058C16.938 1.93058 16.8538 1.89849 16.7897 1.83429C16.6613 1.7059 16.6613 1.49772 16.7896 1.36933L17.3302 0.828736C17.4586 0.700303 17.6668 0.700346 17.7952 0.828693C17.9236 0.957084 17.9236 1.16527 17.7952 1.29366L17.2547 1.83425C17.1905 1.89844 17.1063 1.93058 17.0222 1.93058Z" fill="#FEA95C"/>
<path d="M19.0024 3.44275H18.238C18.0563 3.44275 17.9092 3.29558 17.9092 3.11395C17.9092 2.93232 18.0563 2.78516 18.238 2.78516H19.0024C19.1841 2.78516 19.3312 2.93232 19.3312 3.11395C19.3312 3.29558 19.184 3.44275 19.0024 3.44275Z" fill="#FEA95C"/>
<path d="M12.2183 3.44275H11.4538C11.2722 3.44275 11.125 3.29558 11.125 3.11395C11.125 2.93232 11.2722 2.78516 11.4538 2.78516H12.2183C12.3999 2.78516 12.5471 2.93232 12.5471 3.11395C12.5471 3.29558 12.3999 3.44275 12.2183 3.44275Z" fill="#FEA95C"/>
<path d="M18.4251 11.993H18.064V9.79541C18.064 9.45643 17.7892 9.18164 17.4502 9.18164H12.8852C12.5463 9.18164 12.2715 9.45643 12.2715 9.79541C12.2715 10.1344 12.5463 10.4092 12.8852 10.4092H16.8365V11.9931H16.4755C16.3372 11.9931 16.2547 12.1472 16.3314 12.2622L17.3063 13.7244C17.3748 13.8272 17.5258 13.8272 17.5943 13.7244L18.5692 12.2622C18.6458 12.1471 18.5633 11.993 18.4251 11.993Z" fill="#3C87D0"/>
<path d="M2.01516 13.9668C0.961008 13.9668 0.106445 14.8214 0.106445 15.8755V19.1489H11.5553V15.8755C11.5553 14.8214 10.7007 13.9668 9.64658 13.9668C9.57164 13.9668 1.95775 13.9668 2.01516 13.9668Z" fill="#C4E2FF"/>
<path d="M9.6465 13.9668C9.62562 13.9668 9.01856 13.9668 8.15527 13.9668C9.20943 13.9668 10.064 14.8214 10.064 15.8755V19.1489H11.5552V15.8755C11.5552 14.8214 10.7007 13.9668 9.6465 13.9668Z" fill="#B3DAFE"/>
<path d="M4.0625 10.291V13.1576L5.82439 14.3322L7.58628 13.1576V10.291H4.0625Z" fill="#FFBFB1"/>
<path d="M10.0766 6.12448C10.0569 6.12448 10.0374 6.12517 10.0179 6.12599C9.68134 4.11376 7.93204 2.58008 5.82425 2.58008C3.71646 2.58008 1.96716 4.11376 1.63063 6.12599C1.61112 6.12522 1.59157 6.12448 1.57189 6.12448C0.774437 6.12448 0.12793 6.77095 0.12793 7.56841C0.12793 8.36586 0.774395 9.01237 1.57189 9.01237C1.59162 9.01237 1.61112 9.01168 1.63063 9.01087C1.96716 11.0231 3.71646 12.5567 5.82425 12.5567C7.93204 12.5567 9.68134 11.0231 10.0179 9.01087C10.0374 9.01164 10.0569 9.01237 10.0766 9.01237C10.8741 9.01237 11.5206 8.36591 11.5206 7.56841C11.5206 6.77091 10.8741 6.12448 10.0766 6.12448Z" fill="#FFCEBF"/>
<path d="M10.0766 6.12448C10.0569 6.12448 10.0374 6.12517 10.0179 6.12599C9.68134 4.11376 7.93204 2.58008 5.82425 2.58008C3.71646 2.58008 1.96716 4.11376 1.63063 6.12599C1.61112 6.12522 1.59157 6.12448 1.57189 6.12448C0.774437 6.12448 0.12793 6.77095 0.12793 7.56841C0.12793 8.36586 0.774395 9.01237 1.57189 9.01237C1.59162 9.01237 1.61112 9.01168 1.63063 9.01087C1.96716 11.0231 3.71646 12.5567 5.82425 12.5567C7.93204 12.5567 9.68134 11.0231 10.0179 9.01087C10.0374 9.01164 10.0569 9.01237 10.0766 9.01237C10.8741 9.01237 11.5206 8.36591 11.5206 7.56841C11.5206 6.77091 10.8741 6.12448 10.0766 6.12448Z" fill="#FFCEBF"/>
<path d="M10.0768 6.12444C10.0571 6.12444 10.0376 6.12513 10.0181 6.12595C9.68154 4.11372 7.93224 2.58008 5.82445 2.58008C5.6133 2.58008 5.40598 2.59615 5.20312 2.62588C7.0256 2.89285 8.47257 4.31533 8.77538 6.12599C8.79488 6.12521 8.81443 6.12448 8.83411 6.12448C9.63157 6.12448 10.2781 6.77095 10.2781 7.56841C10.2781 8.36586 9.63161 9.01237 8.83411 9.01237C8.81439 9.01237 8.79488 9.01168 8.77538 9.01091C8.47257 10.8216 7.0256 12.2441 5.20312 12.511C5.40602 12.5407 5.61335 12.5568 5.82445 12.5568C7.93224 12.5568 9.68154 11.0232 10.0181 9.01095C10.0376 9.01173 10.0571 9.01241 10.0768 9.01241C10.8743 9.01241 11.5208 8.36595 11.5208 7.56845C11.5208 6.77095 10.8743 6.12444 10.0768 6.12444Z" fill="#FFBFB1"/>
<path d="M3.74872 8.59691C3.56713 8.59691 3.41992 8.44974 3.41992 8.26811V7.48505C3.41992 7.30342 3.56713 7.15625 3.74872 7.15625C3.9303 7.15625 4.07752 7.30342 4.07752 7.48505V8.26811C4.07752 8.44974 3.9303 8.59691 3.74872 8.59691Z" fill="#384949"/>
<path d="M7.90009 8.59691C7.7185 8.59691 7.57129 8.44974 7.57129 8.26811V7.48505C7.57129 7.30342 7.7185 7.15625 7.90009 7.15625C8.08167 7.15625 8.22888 7.30342 8.22888 7.48505V8.26811C8.22888 8.44974 8.08167 8.59691 7.90009 8.59691Z" fill="#384949"/>
<path d="M5.82464 10.8302C5.14539 10.8302 4.59277 10.2776 4.59277 9.59833C4.59277 9.4167 4.73998 9.26953 4.92157 9.26953C5.10316 9.26953 5.25037 9.4167 5.25037 9.59833C5.25037 9.91496 5.50801 10.1726 5.82464 10.1726C6.14132 10.1726 6.39896 9.91496 6.39896 9.59833C6.39896 9.4167 6.54618 9.26953 6.72776 9.26953C6.90935 9.26953 7.05656 9.4167 7.05656 9.59833C7.05656 10.2776 6.50394 10.8302 5.82464 10.8302Z" fill="#FFB09E"/>
<path d="M8.73692 1.17732C8.419 0.667578 7.85353 0.328125 7.20852 0.328125H3.74958C1.98726 0.328125 0.558594 1.75679 0.558594 3.51911V6.12629H6.5985C7.21647 6.12629 7.77992 5.89348 8.20652 5.51106C8.5048 5.88579 8.96453 6.12629 9.48067 6.12629H11.0908V3.56453C11.0908 2.25712 10.04 1.19571 8.73692 1.17732Z" fill="#C4573A"/>
<path d="M5.82397 14.332L4.9209 15.2749L5.24823 16.5576H6.39975L6.72709 15.2749L5.82397 14.332Z" fill="#FD544D"/>
<path d="M5.24827 16.5566L4.73926 19.1477H6.90858L6.39957 16.5566H5.24827Z" fill="#FD544D"/>
<path d="M4.06258 13.1582L2.57324 13.9673L4.67446 15.5335L5.82447 14.3328L4.06258 13.1582Z" fill="#B3DAFE"/>
<path d="M7.58611 13.1582L9.07545 13.9673L6.97423 15.5335L5.82422 14.3328L7.58611 13.1582Z" fill="#B3DAFE"/>
<path d="M8.80493 9.57034H8.25978C8.06131 9.57034 7.90039 9.40943 7.90039 9.21095C7.90039 9.01248 8.06131 8.85156 8.25978 8.85156H8.80493C9.0034 8.85156 9.16432 9.01248 9.16432 9.21095C9.16432 9.40943 9.00344 9.57034 8.80493 9.57034Z" fill="#FFB09E"/>
<path d="M3.38891 9.57034H2.84377C2.64529 9.57034 2.48438 9.40943 2.48438 9.21095C2.48438 9.01248 2.64529 8.85156 2.84377 8.85156H3.38891C3.58738 8.85156 3.7483 9.01248 3.7483 9.21095C3.7483 9.40943 3.58743 9.57034 3.38891 9.57034Z" fill="#FFB09E"/>
<path d="M7.58611 13.1582L9.07545 13.9673L6.97423 15.5335L5.82422 14.3328L7.58611 13.1582Z" fill="#B3DAFE"/>
<path d="M8.73643 1.17732C8.4185 0.667578 7.85303 0.328125 7.20803 0.328125H5.7168C6.3618 0.328125 6.92727 0.667535 7.2452 1.17732C8.54827 1.19566 9.59911 2.25708 9.59911 3.56453V6.12629H11.0903V3.56453C11.0903 2.25712 10.0395 1.19571 8.73643 1.17732Z" fill="#A74B30"/>
<path d="M7.58655 13.1582L6.91697 13.6046L7.58466 13.9673L6.35352 14.8849L6.97467 15.5335L9.07589 13.9673L7.58655 13.1582Z" fill="#8AC9FE"/>
<path d="M17.3193 4.09575C17.2734 3.01487 16.3914 2.13672 15.3103 2.0953C15.1319 2.08847 14.9584 2.10441 14.792 2.13969C15.7068 2.33468 16.4086 3.13484 16.4494 4.09575C16.475 4.69899 16.245 5.24847 15.8588 5.64542C15.5964 5.91522 15.3978 6.24032 15.2779 6.59714H16.1478C16.2677 6.24037 16.4663 5.91522 16.7287 5.64542C17.1148 5.24847 17.3449 4.69903 17.3193 4.09575Z" fill="#FEA95C"/>
<path d="M15.2787 6.59766V7.3509C15.2787 7.70144 15.0824 8.00604 14.7939 8.16125C14.9235 8.2309 15.0715 8.2706 15.2289 8.2706C15.7368 8.2706 16.1485 7.85883 16.1485 7.35094V6.5977H15.2787V6.59766Z" fill="#3E5959"/>
<path d="M15.2287 14.4707C15.012 14.4707 14.8033 14.5049 14.6074 14.5675C15.4288 14.8303 16.0236 15.5997 16.0236 16.5082C16.0236 17.4168 15.4288 18.1862 14.6074 18.449C14.8034 18.5117 15.0121 18.5458 15.2287 18.5458C16.3541 18.5458 17.2663 17.6335 17.2663 16.5082C17.2663 15.3829 16.3541 14.4707 15.2287 14.4707Z" fill="#FFBFB1"/>
<path d="M19.6721 14.4707C19.4554 14.4707 19.2467 14.5049 19.0508 14.5676C19.8721 14.8303 20.467 15.5997 20.467 16.5083C20.467 17.4169 19.8722 18.1863 19.0508 18.449C19.2467 18.5117 19.4554 18.5459 19.6722 18.5459C20.7975 18.5459 21.7097 17.6336 21.7097 16.5083C21.7097 15.3829 20.7974 14.4707 19.6721 14.4707Z" fill="#FFBFB1"/>
<path d="M15.2287 18.5449C15.013 18.5449 14.8046 18.5762 14.6074 18.6336C15.5321 18.9025 16.2081 19.7555 16.2081 20.7669V21.9999H17.4508V20.7669C17.4508 19.5397 16.4559 18.5449 15.2287 18.5449Z" fill="#0078C8"/>
<path d="M19.6731 18.5449C19.4574 18.5449 19.249 18.5762 19.0518 18.6336C19.9764 18.9025 20.6524 19.7555 20.6524 20.7669V21.9999H21.8951V20.7669C21.8952 19.5397 20.9003 18.5449 19.6731 18.5449Z" fill="#0078C8"/>
</g>
<defs>
<clipPath id="clip0">
<rect width="22" height="22" fill="white"/>
</clipPath>
</defs>
</svg>
