<svg width="261" height="111" viewBox="0 0 261 111" fill="none" xmlns="http://www.w3.org/2000/svg">
<rect width="261" height="111" rx="7" fill="#F8F9FB"/>
<path fill-rule="evenodd" clip-rule="evenodd" d="M37 36H56.0286L56.0271 55.0286H37V36Z" fill="#F65314"/>
<path fill-rule="evenodd" clip-rule="evenodd" d="M57.9715 36H77C77 42.3429 77.0011 48.6857 76.9989 55.0286C70.6572 55.0275 64.3143 55.0286 57.9726 55.0286C57.9704 48.6857 57.9715 42.3429 57.9715 36Z" fill="#7FBB41"/>
<path fill-rule="evenodd" clip-rule="evenodd" d="M208.594 43.2503C210.349 42.1087 212.615 42.002 214.592 42.546C214.609 43.7212 214.594 44.8971 214.6 46.0727C213.66 45.6593 212.555 45.3895 211.567 45.7952C210.783 46.1063 210.316 46.9109 210.194 47.7152C210.047 48.7357 210.143 49.7699 210.118 50.7964C212.125 50.8008 214.131 50.7975 216.138 50.7986C216.153 49.4957 216.122 48.1917 216.156 46.8888C217.52 46.5009 218.87 46.065 220.227 45.656C220.239 47.3723 220.212 49.09 220.243 50.8078C221.599 50.7882 222.957 50.8034 224.314 50.7986V54.1407C222.952 54.0842 221.589 54.1252 220.227 54.1208C220.232 56.0423 220.227 57.9634 220.229 59.8853C220.25 60.9493 220.172 62.019 220.296 63.0798C220.371 63.705 220.599 64.3978 221.185 64.7211C222.167 65.2707 223.413 65.0308 224.314 64.4273V67.8019C223.138 68.3127 221.824 68.4685 220.552 68.3781C219.345 68.2888 218.095 67.8503 217.308 66.8899C216.398 65.8055 216.164 64.3369 216.145 62.9631C216.135 60.0148 216.146 57.0661 216.141 54.1163C214.133 54.1149 212.125 54.1141 210.118 54.1174C210.115 58.7448 210.116 63.3724 210.116 68.0001H206.001C206.001 63.3732 205.995 58.7485 206.003 54.1222C205.049 54.1038 204.094 54.1267 203.14 54.1071C203.143 53.0091 203.147 51.9095 203.137 50.81C204.087 50.7882 205.038 50.7975 205.99 50.8045C206.059 49.3436 205.837 47.841 206.273 46.4182C206.642 45.1337 207.463 43.9748 208.594 43.2503ZM120.482 43.4902C121.312 43.3643 122.21 43.6478 122.76 44.297C123.405 45.0079 123.524 46.1391 123.046 46.9703C122.518 47.9071 121.336 48.3426 120.306 48.1178C119.238 47.9259 118.348 46.9323 118.395 45.825C118.365 44.6595 119.339 43.6205 120.482 43.4898V43.4902ZM88.9427 43.9999H94.9279C96.7907 48.7305 98.6672 53.4557 100.533 58.186C101.009 59.3693 101.455 60.5655 101.954 61.7392C104.351 55.8286 106.782 49.9327 109.16 44.0135C111.079 43.9825 112.999 44.0065 114.919 44.0021C114.914 52.0011 114.916 59.9997 114.918 67.9986C113.533 67.9953 112.149 68.0105 110.765 67.9905C110.779 62.088 110.763 56.1851 110.772 50.2811C110.774 50.0157 110.765 49.7503 110.746 49.4857C110.665 49.609 110.593 49.7371 110.531 49.8699C108.152 55.9116 105.728 61.9367 103.363 67.9846C102.378 68.0204 101.392 67.9872 100.406 68.0027C97.9522 61.961 95.5291 55.905 93.088 49.8581C93.0237 49.7323 92.9555 49.6101 92.8809 49.4927C92.8307 52.0786 92.8731 54.667 92.8595 57.2536C92.8602 60.8353 92.8573 64.417 92.8602 67.9986C91.5544 68.002 90.2482 67.9986 88.9427 68.0001C88.9416 59.9997 88.9405 51.9996 88.9427 43.9999ZM131.808 50.7827C133.794 50.2169 135.936 50.2398 137.921 50.8008C138.331 50.9152 138.727 51.0739 139.095 51.2902C139.072 52.6008 139.095 53.913 139.082 55.2251C137.755 54.2112 136.072 53.569 134.385 53.7816C133.046 53.9026 131.768 54.5976 130.967 55.6798C129.937 57.0215 129.699 58.8031 129.877 60.4444C130.009 61.7289 130.541 63.0126 131.54 63.8641C132.577 64.7861 134.032 65.1127 135.39 65.0101C136.732 64.8558 137.998 64.2874 139.082 63.4942C139.094 64.7366 139.077 65.979 139.092 67.2213C137.409 68.2227 135.392 68.4807 133.466 68.3866C131.496 68.2821 129.531 67.5358 128.105 66.1506C126.555 64.6569 125.714 62.5265 125.615 60.3931C125.514 58.1745 125.966 55.8603 127.242 54.0078C128.312 52.427 129.985 51.3083 131.808 50.7827ZM176.762 50.521C178.665 50.1859 180.657 50.4317 182.458 51.1141C182.461 52.3761 182.458 53.6362 182.459 54.897C181.201 54.0318 179.664 53.5664 178.137 53.6203C177.368 53.6502 176.522 53.9761 176.171 54.7073C175.892 55.4307 176.086 56.3792 176.768 56.8126C177.935 57.5932 179.327 57.9246 180.536 58.6237C181.488 59.1589 182.411 59.8579 182.894 60.8663C183.8 62.7542 183.416 65.2493 181.823 66.6574C180.302 68.0787 178.111 68.4718 176.096 68.3965C174.665 68.3039 173.228 68.0215 171.912 67.4361C171.918 66.1096 171.904 64.7838 171.919 63.4581C173.025 64.2616 174.302 64.8363 175.652 65.0695C176.593 65.2223 177.616 65.2297 178.493 64.8089C179.332 64.3919 179.482 63.1997 178.984 62.4704C178.518 61.9082 177.833 61.599 177.188 61.2948C175.975 60.7497 174.701 60.2935 173.636 59.4767C172.887 58.8924 172.32 58.0697 172.098 57.1414C171.769 55.7736 171.872 54.2319 172.667 53.0364C173.576 51.6431 175.154 50.8078 176.762 50.521ZM148.297 51.0628C149.433 50.3804 150.876 50.3232 152.117 50.7406C152.111 52.1133 152.117 53.4852 152.113 54.8578C151.302 54.3326 150.289 54.1071 149.332 54.2046C148.163 54.3371 147.238 55.2339 146.758 56.263C146.237 57.3518 146.138 58.5835 146.171 59.7745C146.171 62.5161 146.173 65.2581 146.171 68.0001H142.114C142.111 62.2696 142.119 56.5383 142.111 50.8078C143.465 50.7904 144.82 50.7975 146.174 50.8041C146.168 51.7885 146.174 52.7721 146.17 53.7576C146.61 52.6868 147.265 51.6467 148.297 51.0625V51.0628ZM118.769 50.8041C120.134 50.7986 121.5 50.7853 122.864 50.8111C122.848 56.5409 122.863 62.2707 122.857 68.0001H118.771C118.768 62.2685 118.773 56.5368 118.769 50.8045V50.8041ZM159.69 50.4867C161.665 50.2353 163.748 50.3475 165.582 51.1817C167.173 51.8992 168.462 53.2261 169.176 54.815C169.938 56.5055 170.123 58.4056 169.994 60.24C169.867 62.0304 169.305 63.8249 168.185 65.2478C167.039 66.7589 165.311 67.7827 163.461 68.1633C161.879 68.4925 160.224 68.491 158.642 68.1588C156.75 67.7539 154.998 66.6559 153.888 65.0581C152.585 63.2067 152.215 60.8526 152.38 58.634C152.492 56.7517 153.078 54.8545 154.28 53.3782C155.597 51.7243 157.616 50.7484 159.69 50.4867ZM160.918 53.7532C159.934 53.8078 158.94 54.1407 158.21 54.8213C157.204 55.7326 156.745 57.0901 156.621 58.41C156.483 59.8616 156.583 61.3919 157.246 62.7151C157.761 63.7426 158.709 64.5498 159.825 64.8433C160.922 65.1278 162.116 65.1038 163.179 64.6956C164.088 64.3417 164.808 63.5939 165.201 62.7095C165.795 61.3974 165.854 59.9222 165.781 58.5063C165.679 57.2119 165.311 55.8559 164.36 54.921C163.471 54.0215 162.154 53.672 160.918 53.7532ZM192.492 50.4808C194.545 50.2265 196.726 50.3641 198.6 51.3109C200.235 52.128 201.502 53.6048 202.134 55.3118C202.63 56.618 202.804 58.0284 202.774 59.4191C202.778 61.4967 202.217 63.6293 200.913 65.2773C199.693 66.8729 197.825 67.9097 195.854 68.2352C193.926 68.5471 191.889 68.4663 190.057 67.7451C188.201 67.015 186.658 65.5242 185.876 63.6887C185.062 61.8182 184.976 59.7129 185.23 57.7143C185.496 55.7149 186.401 53.7609 187.944 52.4318C189.208 51.3223 190.835 50.6937 192.492 50.4808ZM193.603 53.7565C192.464 53.8203 191.335 54.3109 190.599 55.1974C189.792 56.1475 189.445 57.4009 189.352 58.6226C189.255 59.8841 189.352 61.1907 189.84 62.37C190.246 63.3599 191.016 64.2202 192.01 64.641C192.932 65.0378 193.969 65.1083 194.954 64.961C195.872 64.8259 196.761 64.3874 197.359 63.6673C197.952 62.9509 198.265 62.0478 198.423 61.1428C198.622 59.9277 198.624 58.6765 198.389 57.4673C198.18 56.4365 197.723 55.4126 196.899 54.729C196.006 53.944 194.765 53.6756 193.603 53.7565Z" fill="#787878"/>
<path fill-rule="evenodd" clip-rule="evenodd" d="M37 56.9705C43.3429 56.9727 49.6857 56.9697 56.0286 56.9727C56.0297 63.3155 56.0286 69.6573 56.0286 76.0001H37V56.9705Z" fill="#00A1F1"/>
<path fill-rule="evenodd" clip-rule="evenodd" d="M57.9728 56.9726C64.3145 56.9704 70.6574 56.9715 77.0002 56.9715V76H57.9717C57.9728 69.6572 57.9706 63.3143 57.9728 56.9726Z" fill="#FFBB00"/>
</svg>
