<svg width="61" height="52" viewBox="0 0 61 52" fill="none" xmlns="http://www.w3.org/2000/svg">
<path fill-rule="evenodd" clip-rule="evenodd" d="M10.5061 6.07826H6.77739V2.34957C6.77739 2.15651 6.62089 2 6.42783 2C6.23477 2 6.07826 2.15651 6.07826 2.34957V6.07826H2.34957C2.15651 6.07826 2 6.23477 2 6.42783C2 6.62089 2.15651 6.77739 2.34957 6.77739H6.07826V10.5061C6.07826 10.6992 6.23477 10.8557 6.42783 10.8557C6.62089 10.8557 6.77739 10.6992 6.77739 10.5061V6.77739H10.5061C10.6992 6.77739 10.8557 6.62089 10.8557 6.42783C10.8557 6.23477 10.6992 6.07826 10.5061 6.07826Z" fill="black" stroke="black" stroke-width="2.28218"/>
<path fill-rule="evenodd" clip-rule="evenodd" d="M59.1047 14.9337H55.376V11.205C55.376 11.012 55.2195 10.8555 55.0265 10.8555C54.8334 10.8555 54.6769 11.012 54.6769 11.205V14.9337H50.9482C50.7551 14.9337 50.5986 15.0902 50.5986 15.2833C50.5986 15.4764 50.7551 15.6329 50.9482 15.6329H54.6769V19.3616C54.6769 19.5546 54.8334 19.7111 55.0265 19.7111C55.2195 19.7111 55.376 19.5546 55.376 19.3616V15.6329H59.1047C59.2978 15.6329 59.4543 15.4764 59.4543 15.2833C59.4543 15.0902 59.2978 14.9337 59.1047 14.9337Z" fill="black" stroke="black" stroke-width="2.28218"/>
<path d="M35.1969 36.5908C35.0255 36.4031 34.8087 36.2627 34.5846 36.1457C34.0966 35.8913 33.563 35.737 33.0332 35.5977V39.7032C33.8932 39.606 34.8805 39.2939 35.332 38.4911C35.5476 38.1076 35.5904 37.6364 35.5026 37.2095C35.455 36.9782 35.3566 36.7658 35.1969 36.5908Z" fill="black"/>
<path d="M35.3281 38.5015C35.3302 38.4981 35.3313 38.4959 35.3335 38.4922C35.3317 38.4953 35.3299 38.4983 35.3281 38.5015Z" fill="black"/>
<path d="M29 30.0277C28.8521 30.2436 28.7594 30.4889 28.7338 30.7496C28.7082 31.0108 28.7225 31.3014 28.8218 31.5473C28.9163 31.7817 29.1142 31.9547 29.3186 32.094C29.5478 32.25 29.8 32.3718 30.0568 32.475C30.2723 32.5617 30.5146 32.6447 30.7759 32.7248V29.0098C30.1159 29.1506 29.3948 29.4513 29 30.0277Z" fill="black"/>
<path d="M35.35 38.4609C35.3446 38.4705 35.3387 38.4806 35.333 38.4912C35.3397 38.4789 35.345 38.4698 35.35 38.4609Z" fill="black"/>
<path d="M35.3711 38.4223C35.3728 38.4193 35.373 38.419 35.3711 38.4223V38.4223Z" fill="black"/>
<path d="M34.4798 16.0898C37.9712 13.1568 40.3041 6.5493 38.8684 6.26031C36.9608 5.87616 32.8183 7.56058 30.816 7.85735C27.9762 8.20023 24.8832 4.77785 23.147 6.68549C21.7354 8.23652 24.1591 13.8771 27.9509 16.3345C16.6381 21.8945 0.737251 49.8065 28.4772 51.8317C66.8601 54.6341 47.6404 21.5079 34.4798 16.0898ZM37.7761 38.1024C37.6581 39.1906 37.0814 40.1747 36.2194 40.8427C35.3092 41.5481 34.1676 41.8762 33.0333 41.9681V43.1705C33.0333 43.4922 32.8928 43.8033 32.652 44.0163C32.3209 44.3092 31.8345 44.3814 31.4328 44.1963C31.0361 44.0138 30.7755 43.607 30.7755 43.1705V41.8564C30.581 41.8194 30.3879 41.7755 30.1971 41.7231C29.137 41.4318 28.1537 40.8641 27.4354 40.0241C27.0776 39.6054 26.7859 39.1303 26.5842 38.6175C26.5315 38.4834 26.4845 38.3469 26.4434 38.2089C26.4061 38.084 26.3677 37.957 26.3544 37.8267C26.332 37.6082 26.3753 37.3853 26.4772 37.1907C26.6865 36.7904 27.1275 36.5486 27.5779 36.5888C28.0211 36.6281 28.4096 36.9356 28.5491 37.3581C28.5921 37.4883 28.6212 37.6216 28.6695 37.7504C28.7173 37.8782 28.7751 38.0025 28.8431 38.1209C28.9772 38.354 29.1452 38.5689 29.3388 38.7554C29.7377 39.1397 30.2458 39.3895 30.7755 39.5381V35.0712C29.7397 34.8031 28.6706 34.4567 27.8153 33.7917C27.3996 33.4683 27.0469 33.0666 26.8159 32.5911C26.5721 32.0892 26.4711 31.5301 26.467 30.9748C26.4628 30.411 26.57 29.8521 26.8052 29.3384C27.0255 28.8573 27.3427 28.4255 27.7316 28.0675C28.5631 27.3021 29.6677 26.8752 30.7756 26.7184V26.6201V25.4703C30.7756 25.1487 30.9161 24.8374 31.157 24.6245C31.4881 24.3317 31.9743 24.2593 32.3761 24.4444C32.7727 24.627 33.0334 25.0338 33.0334 25.4703V26.6201V26.7116C33.181 26.7302 33.3282 26.7524 33.4747 26.779C34.5626 26.9758 35.6267 27.4251 36.4223 28.2095C36.7992 28.581 37.1078 29.0237 37.3247 29.5064C37.3853 29.6411 37.4383 29.7789 37.4842 29.9194C37.527 30.0504 37.57 30.1853 37.5904 30.322C37.623 30.5402 37.5897 30.7657 37.4963 30.9654C37.305 31.3745 36.8758 31.635 36.4242 31.6157C35.9806 31.5963 35.5786 31.3074 35.4198 30.8927C35.3725 30.7694 35.3488 30.6388 35.3006 30.5158C35.2518 30.3913 35.1888 30.2725 35.1161 30.1603C34.9748 29.9422 34.7918 29.7551 34.5828 29.601C34.1303 29.2669 33.5815 29.0928 33.0331 28.9955V33.2702C33.6848 33.4262 34.3371 33.5964 34.9616 33.8426C35.9053 34.2148 36.7996 34.7855 37.3148 35.6853C37.2349 35.5451 37.1571 35.4085 37.3175 35.6899C37.4749 35.9664 37.3998 35.8346 37.3207 35.6961C37.7306 36.4183 37.8652 37.282 37.7761 38.1024Z" fill="black"/>
<path d="M35.3157 38.5195C35.3091 38.5313 35.3034 38.5417 35.2988 38.5496C35.3027 38.5427 35.3085 38.5325 35.3157 38.5195Z" fill="black"/>
<circle cx="6.58978" cy="18.3622" r="1.45794" fill="black"/>
</svg>
