<svg width="61" height="52" viewBox="0 0 61 52" fill="none" xmlns="http://www.w3.org/2000/svg">
<path fill-rule="evenodd" clip-rule="evenodd" d="M10.5061 6.07826H6.77739V2.34957C6.77739 2.15651 6.62089 2 6.42783 2C6.23477 2 6.07826 2.15651 6.07826 2.34957V6.07826H2.34957C2.15651 6.07826 2 6.23477 2 6.42783C2 6.62089 2.15651 6.77739 2.34957 6.77739H6.07826V10.5061C6.07826 10.6992 6.23477 10.8557 6.42783 10.8557C6.62089 10.8557 6.77739 10.6992 6.77739 10.5061V6.77739H10.5061C10.6992 6.77739 10.8557 6.62089 10.8557 6.42783C10.8557 6.23477 10.6992 6.07826 10.5061 6.07826Z" fill="black" stroke="black" stroke-width="2.28218"/>
<path fill-rule="evenodd" clip-rule="evenodd" d="M59.1037 14.9337H55.375V11.205C55.375 11.012 55.2185 10.8555 55.0255 10.8555C54.8324 10.8555 54.6759 11.012 54.6759 11.205V14.9337H50.9472C50.7542 14.9337 50.5977 15.0902 50.5977 15.2833C50.5977 15.4764 50.7542 15.6329 50.9472 15.6329H54.6759V19.3616C54.6759 19.5546 54.8324 19.7111 55.0255 19.7111C55.2185 19.7111 55.375 19.5546 55.375 19.3616V15.6329H59.1037C59.2968 15.6329 59.4533 15.4764 59.4533 15.2833C59.4533 15.0902 59.2968 14.9337 59.1037 14.9337Z" fill="black" stroke="black" stroke-width="2.28218"/>
<path d="M35.1989 36.5908C35.0275 36.4031 34.8106 36.2627 34.5865 36.1457C34.0986 35.8913 33.565 35.737 33.0352 35.5977V39.7032C33.8951 39.606 34.8824 39.2939 35.334 38.4911C35.5495 38.1076 35.5924 37.6364 35.5046 37.2095C35.457 36.9782 35.3586 36.7658 35.1989 36.5908Z" fill="black"/>
<path d="M35.332 38.5006C35.3341 38.4971 35.3352 38.4949 35.3374 38.4912C35.3356 38.4943 35.3338 38.4974 35.332 38.5006Z" fill="black"/>
<path d="M29 30.0277C28.8521 30.2436 28.7594 30.4889 28.7338 30.7496C28.7082 31.0108 28.7225 31.3014 28.8218 31.5473C28.9163 31.7817 29.1142 31.9547 29.3186 32.094C29.5478 32.25 29.8 32.3718 30.0568 32.475C30.2723 32.5617 30.5146 32.6447 30.7759 32.7248V29.0098C30.1159 29.1506 29.3948 29.4513 29 30.0277Z" fill="black"/>
<path d="M35.3529 38.4609C35.3475 38.4705 35.3417 38.4806 35.3359 38.4912C35.3426 38.4789 35.3479 38.4698 35.3529 38.4609Z" fill="black"/>
<path d="M35.375 38.4233C35.3767 38.4202 35.3769 38.42 35.375 38.4233V38.4233Z" fill="black"/>
<path d="M34.4817 16.0898C37.9731 13.1568 40.3061 6.5493 38.8704 6.26031C36.9627 5.87616 32.8202 7.56058 30.818 7.85735C27.9781 8.20023 24.8851 4.77785 23.149 6.68549C21.7374 8.23652 24.161 13.8771 27.9529 16.3345C16.6401 21.8945 0.739204 49.8065 28.4791 51.8317C66.862 54.6341 47.6423 21.5079 34.4817 16.0898ZM37.7781 38.1024C37.6601 39.1906 37.0834 40.1747 36.2213 40.8427C35.3111 41.5481 34.1695 41.8762 33.0352 41.9681V43.1705C33.0352 43.4922 32.8947 43.8033 32.6539 44.0163C32.3229 44.3092 31.8365 44.3814 31.4347 44.1963C31.0381 44.0138 30.7775 43.607 30.7775 43.1705V41.8564C30.583 41.8194 30.3899 41.7755 30.1991 41.7231C29.139 41.4318 28.1557 40.8641 27.4374 40.0241C27.0796 39.6054 26.7879 39.1303 26.5862 38.6175C26.5335 38.4834 26.4865 38.3469 26.4453 38.2089C26.4081 38.084 26.3696 37.957 26.3563 37.8267C26.334 37.6082 26.3773 37.3853 26.4791 37.1907C26.6884 36.7904 27.1295 36.5486 27.5798 36.5888C28.023 36.6281 28.4115 36.9356 28.551 37.3581C28.594 37.4883 28.6232 37.6216 28.6715 37.7504C28.7193 37.8782 28.7771 38.0025 28.845 38.1209C28.9791 38.354 29.1472 38.5689 29.3407 38.7554C29.7396 39.1397 30.2478 39.3895 30.7775 39.5381V35.0712C29.7417 34.8031 28.6725 34.4567 27.8172 33.7917C27.4015 33.4683 27.0488 33.0666 26.8178 32.5911C26.5741 32.0892 26.4731 31.5301 26.469 30.9748C26.4648 30.411 26.5719 29.8521 26.8071 29.3384C27.0274 28.8573 27.3446 28.4255 27.7335 28.0675C28.5651 27.3021 29.6697 26.8752 30.7776 26.7184V26.6201V25.4703C30.7776 25.1487 30.9181 24.8374 31.1589 24.6245C31.49 24.3317 31.9762 24.2593 32.3781 24.4444C32.7746 24.627 33.0354 25.0338 33.0354 25.4703V26.6201V26.7116C33.183 26.7302 33.3302 26.7524 33.4766 26.779C34.5646 26.9758 35.6287 27.4251 36.4243 28.2095C36.8012 28.581 37.1097 29.0237 37.3267 29.5064C37.3873 29.6411 37.4403 29.7789 37.4862 29.9194C37.5289 30.0504 37.5719 30.1853 37.5923 30.322C37.625 30.5402 37.5917 30.7657 37.4983 30.9654C37.3069 31.3745 36.8777 31.635 36.4262 31.6157C35.9826 31.5963 35.5806 31.3074 35.4217 30.8927C35.3744 30.7694 35.3508 30.6388 35.3025 30.5158C35.2538 30.3913 35.1907 30.2725 35.118 30.1603C34.9768 29.9422 34.7937 29.7551 34.5848 29.601C34.1323 29.2669 33.5834 29.0928 33.035 28.9955V33.2702C33.6868 33.4262 34.3391 33.5964 34.9635 33.8426C35.9073 34.2148 36.8016 34.7855 37.3167 35.6853C37.2368 35.5451 37.1591 35.4085 37.3194 35.6899C37.4769 35.9664 37.4017 35.8346 37.3227 35.6961C37.7325 36.4183 37.8672 37.282 37.7781 38.1024Z" fill="black"/>
<path d="M35.3176 38.5205C35.311 38.5323 35.3053 38.5426 35.3008 38.5505C35.3047 38.5437 35.3105 38.5335 35.3176 38.5205Z" fill="black"/>
<circle cx="6.59076" cy="18.3613" r="1.45794" fill="black"/>
</svg>
