<svg width="261" height="111" viewBox="0 0 261 111" fill="none" xmlns="http://www.w3.org/2000/svg">
<rect width="261" height="111" rx="7" fill="#F8F9FB"/>
<path fill-rule="evenodd" clip-rule="evenodd" d="M191.864 52.5421C191.737 52.5674 191.611 52.846 191.611 52.9978C191.585 54.0113 191.56 56.6966 191.56 58.5204C191.56 58.5712 191.636 58.6725 191.712 58.6725C192.092 58.6978 193.004 58.723 193.789 58.723C194.878 58.723 195.512 58.5712 195.867 58.4194C196.778 57.9632 197.209 56.9752 197.209 55.8857C197.209 53.4288 195.486 52.4913 192.928 52.4913C192.75 52.4661 192.244 52.4661 191.864 52.5421ZM198.4 63.8657C198.4 61.3578 196.55 59.9644 193.207 59.9644C193.055 59.9644 191.991 59.9391 191.737 59.9896C191.661 60.0152 191.56 60.0659 191.56 60.142C191.56 61.9403 191.535 64.8032 191.611 65.9177C191.661 66.3989 192.016 67.083 192.447 67.2856C192.902 67.539 193.941 67.5895 194.651 67.5895C196.652 67.5895 198.4 66.475 198.4 63.8657ZM186.696 51.149C186.949 51.149 187.709 51.2247 189.66 51.2247C191.509 51.2247 192.979 51.1742 194.777 51.1742C196.981 51.1742 200.021 51.9593 200.021 55.2526C200.021 56.8739 198.881 58.166 197.386 58.7993C197.311 58.8246 197.311 58.8751 197.386 58.9004C199.514 59.4326 201.389 60.7497 201.389 63.2322C201.389 65.6643 199.869 67.2096 197.665 68.1723C196.322 68.7548 194.651 68.9574 192.953 68.9574C191.661 68.9574 188.191 68.8056 186.266 68.8564C186.063 68.7801 186.443 67.8681 186.62 67.7163C187.076 67.6908 187.431 67.6655 187.912 67.5135C188.596 67.3364 188.672 67.1335 188.773 66.095C188.824 65.2084 188.824 62.0669 188.824 59.8378C188.824 56.7726 188.85 54.6954 188.824 53.6822C188.799 52.897 188.52 52.6434 187.963 52.4913C187.532 52.4156 186.823 52.314 186.24 52.2382C186.113 52.1114 186.544 51.25 186.696 51.149ZM172.079 66.9057C172.687 67.3866 173.878 67.5892 174.942 67.5892C176.31 67.5892 177.678 67.3364 178.995 66.1453C180.338 64.9297 181.275 63.0551 181.275 60.0659C181.275 57.203 180.186 54.8724 177.956 53.5048C176.69 52.7192 175.069 52.3903 173.194 52.3903C172.637 52.3903 172.105 52.4156 171.775 52.5674C171.699 52.6181 171.522 52.846 171.522 52.9725C171.471 53.4793 171.471 57.3804 171.471 59.6605C171.471 62.0163 171.471 65.3097 171.522 65.6896C171.522 66.0698 171.699 66.6523 172.079 66.9057H172.079ZM166.329 51.1487C166.81 51.1487 168.659 51.2247 169.546 51.2247C171.142 51.2247 172.282 51.149 175.296 51.149C177.83 51.149 179.958 51.8328 181.478 53.1246C183.327 54.7206 184.29 56.9247 184.29 59.6097C184.29 63.435 182.542 65.6391 180.793 66.9057C179.046 68.1975 176.766 68.9574 173.523 68.9574C171.801 68.9574 168.837 68.9069 166.379 68.8813H166.354C166.228 68.6535 166.557 67.7668 166.759 67.7416C167.418 67.6655 167.595 67.64 167.925 67.5137C168.457 67.3109 168.558 67.0322 168.634 66.095C168.71 64.347 168.685 62.2445 168.685 59.8631C168.685 58.166 168.71 54.8472 168.659 53.7832C168.583 52.8968 168.204 52.6687 167.443 52.5166C167.063 52.4408 166.557 52.3392 165.848 52.2635C165.746 52.0859 166.202 51.3008 166.329 51.149V51.1487Z" fill="#8E714E"/>
<path fill-rule="evenodd" clip-rule="evenodd" d="M135.676 67.8933C135.043 67.8172 134.587 67.7162 134.03 67.4628C133.954 67.4121 133.827 67.1589 133.827 67.0574C133.776 66.1707 133.776 63.6375 133.776 61.9405C133.776 60.5723 133.549 59.3817 132.966 58.5459C132.282 57.5829 131.294 57.0259 130.027 57.0259C128.913 57.0259 127.418 57.7857 126.177 58.8497C126.151 58.875 125.949 59.0526 125.974 58.7737C125.974 58.4951 126.025 57.9378 126.05 57.5576C126.076 57.2029 125.873 57.0259 125.873 57.0259C125.062 57.4311 122.782 57.9631 121.946 58.0388C121.338 58.1659 121.186 58.7484 121.82 58.951H121.845C122.529 59.1536 122.985 59.3817 123.339 59.6099C123.593 59.8125 123.567 60.0911 123.567 60.3192C123.593 62.2188 123.593 65.1322 123.517 66.7282C123.492 67.3615 123.314 67.5894 122.858 67.6907L122.909 67.6654C122.554 67.7415 122.275 67.8172 121.845 67.868C121.693 68.0201 121.693 68.8307 121.845 69.0081C122.123 69.0081 123.593 68.932 124.809 68.932C126.481 68.932 127.342 69.0081 127.773 69.0081C127.95 68.8055 128.001 68.0453 127.899 67.868C127.418 67.8428 127.063 67.7923 126.734 67.6907C126.278 67.5891 126.151 67.3615 126.126 66.8295C126.076 65.4866 126.076 62.6495 126.076 60.7244C126.076 60.1924 126.227 59.939 126.379 59.7869C126.962 59.2804 127.899 58.9258 128.735 58.9258C129.546 58.9258 130.078 59.1792 130.483 59.5086C131.04 59.9643 131.218 60.6231 131.294 61.1043C131.42 62.1936 131.37 64.3468 131.37 66.2215C131.37 67.2347 131.294 67.4881 130.914 67.6146C130.736 67.6907 130.281 67.7922 129.749 67.8425C129.571 68.0201 129.622 68.8055 129.749 68.9828C130.483 68.9828 131.345 68.9068 132.611 68.9068C134.182 68.9068 135.195 68.9828 135.601 68.9828C135.727 68.8307 135.778 68.0961 135.676 67.8933ZM142.693 58.2167C141.351 58.2167 140.515 59.2552 140.515 60.8762C140.515 62.523 141.249 64.4229 143.327 64.4229C143.681 64.4229 144.34 64.2708 144.644 63.9161C145.125 63.4604 145.455 62.5482 145.455 61.5855C145.455 59.483 144.416 58.2164 142.693 58.2164V58.2167ZM142.516 69.4132C142.01 69.4132 141.655 69.5653 141.427 69.6921C140.363 70.3757 139.882 71.0345 139.882 71.8202C139.882 72.5545 140.16 73.137 140.768 73.6437C141.503 74.2771 142.516 74.5812 143.808 74.5812C146.392 74.5812 147.532 73.1878 147.532 71.8202C147.532 70.8572 147.05 70.2239 146.063 69.8695C145.353 69.5653 144.062 69.4132 142.516 69.4132ZM142.693 75.9999C141.148 75.9999 140.033 75.6705 139.071 74.9359C138.133 74.2265 137.728 73.1625 137.728 72.4279C137.728 72.2253 137.779 71.6678 138.235 71.1613C138.513 70.8572 139.122 70.2747 140.566 69.2867C140.616 69.2614 140.641 69.2362 140.641 69.1851C140.641 69.1346 140.591 69.0838 140.54 69.0588C139.35 68.6029 138.995 67.868 138.893 67.4628V67.4121C138.868 67.26 138.818 67.1082 139.046 66.9561C139.223 66.8295 139.476 66.6775 139.755 66.5004C140.185 66.2467 140.641 65.9681 140.92 65.74C140.971 65.6895 140.971 65.639 140.971 65.5882C140.971 65.5374 140.92 65.4866 140.869 65.4616C139.096 64.8789 138.21 63.5615 138.21 61.5855C138.21 60.2937 138.792 59.1284 139.831 58.3938C140.54 57.8365 142.313 57.1524 143.479 57.1524H143.555C144.745 57.1777 145.404 57.4311 146.341 57.7605C146.848 57.9378 147.329 58.0136 147.988 58.0136C148.976 58.0136 149.407 57.7097 149.761 57.3553C149.787 57.4058 149.837 57.5326 149.863 57.8618C149.888 58.1912 149.787 58.6724 149.533 59.0271C149.331 59.3057 148.875 59.5086 148.419 59.5086H148.292C147.836 59.4578 147.633 59.407 147.633 59.407L147.532 59.4578C147.507 59.5086 147.532 59.5591 147.557 59.6351L147.583 59.6859C147.633 59.9137 147.735 60.5976 147.735 60.7752C147.735 62.8524 146.899 63.7641 146.012 64.4481C145.151 65.0814 144.163 65.4866 143.048 65.5882C143.023 65.5882 142.922 65.5882 142.693 65.6134C142.567 65.6134 142.39 65.639 142.364 65.639H142.339C142.136 65.6895 141.63 65.9429 141.63 66.3733C141.63 66.7532 141.858 67.2095 142.947 67.2855C143.175 67.3108 143.402 67.3108 143.656 67.3363C145.1 67.4373 146.899 67.5641 147.735 67.8428C148.9 68.2732 149.634 69.3119 149.634 70.5533C149.634 72.4282 148.292 74.176 146.063 75.265C144.973 75.7465 143.884 75.9999 142.693 75.9999ZM157.133 58.3433C156.601 58.3433 156.12 58.4695 155.765 58.7229C154.777 59.331 154.27 60.547 154.27 62.3201C154.27 65.639 155.942 67.9696 158.324 67.9696C159.033 67.9696 159.59 67.7667 160.071 67.3615C160.806 66.7532 161.186 65.5374 161.186 63.8401C161.186 60.547 159.539 58.343 157.133 58.343L157.133 58.3433ZM157.589 69.1854C153.282 69.1854 151.737 66.0189 151.737 63.055C151.737 60.9778 152.573 59.3817 154.245 58.2417C155.436 57.5071 156.854 57.1019 158.121 57.1019C161.414 57.1019 163.719 59.4578 163.719 62.8524C163.719 65.1575 162.807 66.9813 161.059 68.0961C160.223 68.6534 158.78 69.1854 157.589 69.1854H157.589ZM112.447 58.343C111.915 58.343 111.433 58.4695 111.078 58.7229C110.091 59.331 109.584 60.547 109.584 62.3201C109.584 65.639 111.256 67.9696 113.637 67.9696C114.346 67.9696 114.904 67.7667 115.385 67.3615C116.12 66.7532 116.5 65.5374 116.5 63.8401C116.5 60.547 114.878 58.343 112.447 58.343ZM112.903 69.1854C108.596 69.1854 107.051 66.0189 107.051 63.055C107.051 60.9778 107.887 59.3817 109.558 58.2417C110.749 57.5071 112.168 57.1019 113.435 57.1019C116.728 57.1019 119.033 59.4578 119.033 62.8524C119.033 65.1575 118.121 66.9813 116.373 68.0961C115.562 68.6534 114.118 69.1854 112.903 69.1854ZM83.9475 68.932C83.8967 68.8563 83.8459 68.6281 83.8715 68.3495C83.8715 68.1466 83.9223 68.0201 83.9475 67.9696C84.4795 67.8933 84.7582 67.8172 85.062 67.7415C85.5688 67.6146 85.7714 67.3363 85.7966 66.703C85.8729 65.183 85.8729 62.2949 85.8474 60.2937V60.2429C85.8474 60.015 85.8474 59.7361 85.5688 59.5335C85.1633 59.2804 84.6821 59.0526 84.0488 58.8747C83.821 58.7992 83.6689 58.6724 83.6941 58.5206C83.6941 58.3685 83.8462 58.1912 84.1756 58.1404C85.0115 58.0644 87.1898 57.5326 88.0512 57.1524C88.102 57.2029 88.178 57.3553 88.178 57.5579L88.1528 57.8362C88.1272 58.1151 88.102 58.4446 88.102 58.7737C88.102 58.875 88.2036 58.951 88.3046 58.951C88.3554 58.951 88.4061 58.9258 88.4567 58.9002C90.0779 57.6336 91.5471 57.1777 92.307 57.1777C93.5486 57.1777 94.5113 57.7605 95.2459 58.9763C95.2964 59.0526 95.3472 59.0779 95.4232 59.0779C95.4737 59.0779 95.5495 59.0526 95.575 59.0018C97.0697 57.8618 98.5645 57.1777 99.5522 57.1777C101.908 57.1777 103.301 58.9258 103.301 61.8897C103.301 62.7256 103.301 63.8148 103.276 64.8031C103.276 65.6895 103.251 66.5001 103.251 67.0829C103.251 67.2092 103.428 67.6146 103.707 67.6907C104.061 67.868 104.543 67.9441 105.176 68.0454H105.201C105.252 68.2227 105.151 68.8812 105.05 69.0081C104.897 69.0081 104.669 69.0081 104.416 68.9828C103.775 68.9493 103.133 68.9324 102.491 68.932C100.92 68.932 100.11 68.9573 99.324 69.0081C99.2738 68.8055 99.2483 68.1974 99.324 68.0454C99.7803 67.9696 100.008 67.8933 100.287 67.8175C100.794 67.6654 100.92 67.4373 100.946 66.7787C100.946 66.2975 101.047 62.1936 100.895 61.2056C100.743 60.1924 99.9829 59.0018 98.3108 59.0018C97.6775 59.0018 96.6898 59.2552 95.7271 59.9895C95.6766 60.0403 95.6255 60.1668 95.6255 60.2429V60.2684C95.7271 60.8001 95.7271 61.4085 95.7271 62.3457V63.9922C95.7271 65.1322 95.7016 66.1962 95.7271 67.0066C95.7271 67.5641 96.0565 67.6907 96.3352 67.7922C96.4872 67.8172 96.5883 67.8428 96.7151 67.868C96.9429 67.9188 97.171 67.9696 97.5257 68.0454C97.5765 68.1469 97.5765 68.4761 97.5005 68.7547C97.4749 68.9068 97.4241 68.9825 97.3989 69.0081C96.5377 68.9828 95.6511 68.9573 94.3592 68.9573C93.9793 68.9573 93.3205 68.9828 92.7632 68.9828C92.307 68.9828 91.8765 69.0081 91.6234 69.0081C91.5979 68.9573 91.5471 68.7802 91.5471 68.5013C91.5471 68.2735 91.5979 68.0961 91.6487 68.0454C91.7752 68.0201 91.8765 67.9948 92.0034 67.9948C92.307 67.9441 92.5606 67.8933 92.8137 67.8428C93.2447 67.7162 93.3965 67.4881 93.4218 66.9308C93.4978 65.6642 93.5738 62.0418 93.3965 61.1296C93.0926 59.6604 92.2567 58.9258 90.9138 58.9258C90.1287 58.9258 89.1405 59.3057 88.3301 59.914C88.2033 60.015 88.102 60.2681 88.102 60.4963V61.991C88.102 63.8148 88.102 66.0949 88.1272 67.0829C88.1528 67.3865 88.2538 67.7415 88.8366 67.868C88.9634 67.8933 89.166 67.9441 89.4194 67.9696L89.8751 68.0454C89.9261 68.1974 89.9006 68.8055 89.7993 69.0081C89.5459 69.0081 89.242 68.9828 88.8871 68.9828C88.3554 68.9573 87.6713 68.932 86.9114 68.932C86.0248 68.932 85.3915 68.9573 84.8847 68.9828C84.53 68.932 84.2514 68.932 83.9475 68.932Z" fill="#442D22"/>
<path fill-rule="evenodd" clip-rule="evenodd" d="M70.6226 75.012L69.5842 74.657C69.5842 74.657 69.711 69.3628 67.8108 68.9829C66.5445 67.5134 68.0139 6.66502 72.5736 68.78C72.5736 68.78 71.0028 69.5651 70.7242 70.908C70.42 72.2254 70.6226 75.012 70.6226 75.012Z" fill="white"/>
<path fill-rule="evenodd" clip-rule="evenodd" d="M70.6226 75.012L69.5842 74.657C69.5842 74.657 69.711 69.3628 67.8108 68.9829C66.5445 67.5134 68.0139 6.66502 72.5736 68.78C72.5736 68.78 71.0028 69.5651 70.7242 70.908C70.42 72.2254 70.6226 75.012 70.6226 75.012Z" fill="#A6A385"/>
<path fill-rule="evenodd" clip-rule="evenodd" d="M71.18 69.8948C71.18 69.8948 80.2746 63.9162 78.1463 51.4778C76.0946 42.4346 71.256 39.4707 70.724 38.3306C70.1415 37.52 69.584 36.1016 69.584 36.1016L69.9642 61.2562C69.9642 61.2817 69.1788 68.9574 71.1803 69.8951" fill="white"/>
<path fill-rule="evenodd" clip-rule="evenodd" d="M71.18 69.8948C71.18 69.8948 80.2746 63.9162 78.1463 51.4778C76.0946 42.4346 71.256 39.4707 70.724 38.3306C70.1415 37.52 69.584 36.1016 69.584 36.1016L69.9642 61.2562C69.9642 61.2817 69.1788 68.9574 71.1803 69.8951" fill="#499D4A"/>
<path fill-rule="evenodd" clip-rule="evenodd" d="M69.0523 70.224C69.0523 70.224 60.5149 64.3975 61.0217 54.1381C61.5029 43.8785 67.532 38.8374 68.6973 37.9254C69.4575 37.1148 69.4827 36.8106 69.5335 36C70.0655 37.14 69.9642 53.0489 70.04 54.9232C70.2678 62.1429 69.6348 68.8564 69.0523 70.224Z" fill="white"/>
<path fill-rule="evenodd" clip-rule="evenodd" d="M69.0523 70.224C69.0523 70.224 60.5149 64.3975 61.0217 54.1381C61.5029 43.8785 67.532 38.8374 68.6973 37.9254C69.4575 37.1148 69.4827 36.8106 69.5335 36C70.0655 37.14 69.9642 53.0489 70.04 54.9232C70.2678 62.1429 69.6348 68.8564 69.0523 70.224Z" fill="#58AA50"/>
</svg>
