<svg width="42" height="36" viewBox="0 0 42 36" fill="none" xmlns="http://www.w3.org/2000/svg">
<path d="M4.49791 3.47758C5.67643 2.69017 7.40621 2.8422 8.14746 3.95163C8.15108 3.9554 13.8472 12.4954 15.2491 14.5961C15.2519 14.6006 15.2534 14.6055 15.2563 14.6099L15.5495 15.0486C15.6893 15.2578 15.9722 15.314 16.1813 15.1743C16.3904 15.0346 16.4467 14.7517 16.3069 14.5426L16.2311 14.4291C15.4055 13.1487 15.7561 11.4383 17.0278 10.5886C18.3121 9.73046 20.0492 10.076 20.9074 11.3605L22.0344 13.0434C22.1721 13.2494 22.4506 13.3048 22.6566 13.1672C22.8626 13.0296 22.9179 12.7511 22.7802 12.5451L22.7151 12.4492C21.9337 11.2798 22.5247 9.70434 23.6935 8.9234C24.9781 8.06512 26.7101 8.41388 27.5683 9.69836L28.7119 11.3999C28.8458 11.6003 29.1169 11.6542 29.3173 11.5203C29.5178 11.3864 29.5716 11.1154 29.4377 10.9149L29.3497 10.7861C28.6392 9.72269 29.245 8.13839 30.3767 7.38221C31.661 6.52412 33.3981 6.86961 34.2563 8.15399L37.1185 12.4218C39.7736 16.3956 42.2269 23.413 32.7132 29.7695C21.3748 37.3452 16.023 32.6078 12.0595 26.2985C11.1034 24.7767 11.7982 23.0366 12.8479 22.3353L14.678 25.0743C14.9082 25.4188 15.1739 25.2993 15.2452 25.2517C15.3164 25.2041 15.5213 25.0107 15.291 24.666C15.0688 24.3335 3.72626 7.35732 3.72626 7.35732C2.86807 6.07269 3.21353 4.33574 4.49791 3.47758ZM3.22799 1.57691C0.897662 3.1339 0.268489 6.29658 1.82555 8.627L10.4337 21.5107C9.22546 23.0712 8.81146 25.4252 10.1238 27.5142C12.1766 30.7821 15.1515 34.6653 19.9741 35.6954C24.0452 36.565 28.6276 35.2482 33.9831 31.6699C38.7998 28.4517 41.4156 24.6548 41.7576 20.3845C41.9979 17.3853 41.051 14.1927 39.0191 11.1516L36.1547 6.88049C34.5999 4.5534 31.4372 3.92422 29.1068 5.48128C28.5771 5.83515 28.1086 6.29552 27.7326 6.82076C26.1176 5.91609 24.0638 5.92653 22.4235 7.02254C21.8387 7.41323 21.3557 7.89626 20.9829 8.43467C19.3814 7.57957 17.3703 7.61018 15.7575 8.68772C15.3536 8.95764 14.9956 9.27843 14.6905 9.64027C14.4274 9.24588 14.1575 8.84142 13.8868 8.43553L11.2579 4.49485C10.5417 3.42148 10.2149 2.93151 10.0434 2.68456L10.0477 2.6817C8.63036 0.559944 5.50718 0.0540751 3.22799 1.57691Z" fill="black"/>
</svg>
