<svg width="51" height="51" viewBox="0 0 51 51" fill="none" xmlns="http://www.w3.org/2000/svg">
<path d="M48.6819 25.7143V18.5462C48.6819 16.1156 46.7965 14.1389 44.4145 13.9472L37.7577 2.32009C37.1408 1.24475 36.1447 0.476161 34.9527 0.157013C33.7664 -0.159961 32.5259 0.00651282 31.4642 0.624488L8.64427 13.9098H4.63639C2.07941 13.9098 0 15.9891 0 18.5462V46.3644C0 48.9213 2.0793 51.0008 4.63639 51.0008H44.0455C46.6025 51.0008 48.6819 48.9215 48.6819 46.3644V39.1963C50.0281 38.7162 51 37.4417 51 35.9326V28.978C51 27.4689 50.0281 26.1944 48.6819 25.7143ZM41.7208 13.9098H31.6181L39.1952 9.49848L41.7208 13.9098ZM38.0435 7.48677L27.0109 13.9098H22.4347L36.8992 5.48832L38.0435 7.48677ZM32.6311 2.62794C33.1552 2.32118 33.7675 2.23968 34.3528 2.39594C34.9448 2.55437 35.4384 2.93698 35.7451 3.47237L35.7475 3.47661L17.8276 13.9098H13.2517L32.6311 2.62794ZM46.3636 46.3644C46.3636 47.6423 45.3234 48.6825 44.0455 48.6825H4.63639C3.3585 48.6825 2.31825 47.6423 2.31825 46.3644V18.5462C2.31825 17.2683 3.3585 16.2281 4.63639 16.2281H44.0455C45.3234 16.2281 46.3636 17.2683 46.3636 18.5462V25.5008H39.4091C35.5741 25.5008 32.4545 28.6203 32.4545 32.4553C32.4545 36.2903 35.5741 39.4098 39.4091 39.4098H46.3636V46.3644ZM48.6819 35.9326C48.6819 36.572 48.1623 37.0917 47.5227 37.0917H39.4091C36.8521 37.0917 34.7727 35.0124 34.7727 32.4553C34.7727 29.8983 36.852 27.8189 39.4091 27.8189H47.5227C48.1622 27.8189 48.6819 28.3384 48.6819 28.978V35.9326Z" fill="#83C6F2"/>
<path d="M39.409 30.1367C38.1311 30.1367 37.0908 31.177 37.0908 32.4549C37.0908 33.7328 38.1311 34.773 39.409 34.773C40.6869 34.773 41.7271 33.7328 41.7271 32.4549C41.7272 31.177 40.687 30.1367 39.409 30.1367Z" fill="#83C6F2"/>
</svg>
