<svg width="106" height="106" viewBox="0 0 106 106" fill="none" xmlns="http://www.w3.org/2000/svg">
<circle cx="53" cy="53" r="53" fill="#74D7F4"/>
<g clip-path="url(#clip0)">
<path d="M60.3645 45.8317C60.3645 43.2223 62.4879 41.0988 65.0974 41.0988C67.7069 41.0988 69.8303 43.2221 69.8303 45.8317C69.8303 48.4412 67.7068 50.5646 65.0974 50.5646C62.4879 50.5646 60.3645 48.4412 60.3645 45.8317ZM61.7176 45.8317C61.7176 47.6957 63.2334 49.2115 65.0974 49.2115C66.9613 49.2115 68.4771 47.6955 68.4771 45.8317C68.4771 43.9678 66.9612 42.452 65.0974 42.452C63.2334 42.452 61.7176 43.9678 61.7176 45.8317Z" fill="white" stroke="white" stroke-width="0.6"/>
<path d="M64.8503 73.1875L64.6607 72.955C64.6434 72.9691 64.6258 72.9821 64.6079 72.9938L64.6079 72.9938L64.606 72.995C64.5696 73.0193 64.5306 73.0401 64.4897 73.0569L64.4897 73.0569L64.4881 73.0575C64.4455 73.0753 64.4042 73.088 64.3656 73.0953L64.3656 73.0952L64.3612 73.0961C64.3172 73.1051 64.2727 73.1097 64.2305 73.1097C64.1882 73.1097 64.1438 73.1051 64.0998 73.0961L64.0998 73.0961L64.0953 73.0953C64.0567 73.088 64.0154 73.0753 63.9728 73.0575L63.9728 73.0575L63.9712 73.0569C63.9303 73.0401 63.8913 73.0193 63.8549 72.995L63.8549 72.995L63.8524 72.9933C63.8355 72.9823 63.8182 72.9696 63.8007 72.9554C63.7836 72.9413 63.7673 72.9266 63.7522 72.9114C63.721 72.8802 63.6932 72.8463 63.67 72.8108L63.67 72.8108L63.6686 72.8087C63.6443 72.7723 63.6234 72.7332 63.6067 72.6924L63.6067 72.6924L63.606 72.6908C63.5883 72.6482 63.5755 72.6069 63.5683 72.5682L63.5683 72.5682L63.5674 72.5638C63.5585 72.5198 63.5539 72.4754 63.5539 72.4331C63.5539 72.3908 63.5585 72.3464 63.5674 72.3024L63.5675 72.3024L63.5683 72.298C63.5755 72.2594 63.5883 72.218 63.606 72.1754L63.606 72.1754L63.6067 72.1738C63.6234 72.133 63.6443 72.094 63.6686 72.0575L63.6686 72.0575L63.67 72.0554C63.6932 72.0199 63.721 71.986 63.7522 71.9548C63.7834 71.9236 63.8173 71.8958 63.8528 71.8726L63.8528 71.8726L63.8549 71.8712C63.8913 71.8469 63.9304 71.8261 63.9712 71.8093L63.9712 71.8093L63.9728 71.8087C64.0154 71.7909 64.0567 71.7782 64.0953 71.7709L64.0953 71.771L64.0993 71.7702C64.1862 71.7527 64.2748 71.7527 64.3616 71.7702L64.3616 71.7702L64.3656 71.7709C64.4042 71.7782 64.4455 71.7909 64.4881 71.8087L64.4881 71.8087L64.4897 71.8093C64.5306 71.8261 64.5696 71.8469 64.606 71.8712L64.606 71.8712L64.6082 71.8726C64.6437 71.8958 64.6776 71.9236 64.7088 71.9548C64.74 71.986 64.7678 72.0199 64.791 72.0554L64.791 72.0554L64.7924 72.0575C64.8167 72.094 64.8375 72.133 64.8542 72.1738L64.8542 72.1738L64.855 72.1756C64.8726 72.2178 64.886 72.2607 64.8945 72.3023L64.8945 72.3024C64.9028 72.3434 64.907 72.3878 64.907 72.4331C64.907 72.4785 64.9028 72.5228 64.8945 72.5638C64.886 72.6054 64.8726 72.6483 64.8549 72.6908L64.8549 72.6908L64.8542 72.6924C64.8375 72.7332 64.8167 72.7723 64.7924 72.8087L64.7924 72.8087L64.791 72.8108C64.7678 72.8463 64.74 72.8802 64.7088 72.9114C64.6932 72.927 64.677 72.9416 64.6603 72.9553L64.8503 73.1875ZM64.8503 73.1875C64.875 73.1673 64.8985 73.1459 64.9209 73.1235M64.8503 73.1875C64.8254 73.2078 64.7994 73.227 64.7725 73.2446C64.7197 73.2798 64.6631 73.3101 64.6035 73.3345C64.5449 73.3589 64.4834 73.3784 64.4209 73.3901C64.3584 73.4028 64.2939 73.4097 64.2305 73.4097C64.167 73.4097 64.1025 73.4028 64.04 73.3901C63.9775 73.3784 63.916 73.3589 63.8574 73.3345C63.7979 73.3101 63.7412 73.2798 63.6885 73.2446C63.6615 73.2271 63.6355 73.2078 63.6106 73.1875C63.586 73.1673 63.5624 73.1459 63.54 73.1235H64.9209M64.9209 73.1235C64.9658 73.0786 65.0068 73.0288 65.042 72.9751M64.9209 73.1235L65.042 72.9751M65.042 72.9751C65.0771 72.9224 65.1074 72.8657 65.1318 72.8062C65.1563 72.7476 65.1758 72.686 65.1885 72.6235C65.2012 72.561 65.207 72.4966 65.207 72.4331C65.207 72.3696 65.2012 72.3052 65.1885 72.2427C65.1758 72.1801 65.1563 72.1186 65.1318 72.0601L65.042 72.9751ZM64.04 71.4761C63.9775 71.4878 63.916 71.5073 63.8574 71.5317C63.7979 71.5562 63.7412 71.5864 63.6885 71.6216C63.6348 71.6567 63.585 71.6978 63.54 71.7427C63.4951 71.7876 63.4541 71.8374 63.4189 71.8911L64.04 71.4761ZM63.2734 72.6235C63.2852 72.686 63.3047 72.7476 63.3291 72.8062C63.3535 72.8657 63.3838 72.9224 63.4189 72.9751L63.2734 72.6235Z" fill="white" stroke="white" stroke-width="0.6"/>
<path d="M49.5518 34.48C49.5967 34.4351 49.6377 34.3843 49.6729 34.3315C49.708 34.2778 49.7383 34.2212 49.7627 34.1626C49.7871 34.104 49.8066 34.0425 49.8184 33.98C49.8311 33.9165 49.8379 33.853 49.8379 33.7896C49.8379 33.7251 49.8311 33.6616 49.8184 33.5981C49.8066 33.5356 49.7871 33.4741 49.7627 33.4155C49.7383 33.3569 49.708 33.3003 49.6729 33.2466L49.5518 34.48ZM49.5518 34.48C49.5068 34.5249 49.457 34.5659 49.4033 34.6011L49.5518 34.48ZM49.0518 32.8315L48.992 33.1255C49.0365 33.1346 49.0793 33.1476 49.119 33.1641L49.119 33.1641L49.1206 33.1648C49.1614 33.1815 49.2005 33.2024 49.2369 33.2267L49.2369 33.2267L49.239 33.2281C49.2745 33.2513 49.3084 33.2791 49.3396 33.3103C49.3693 33.3399 49.3977 33.3748 49.4225 33.412C49.4477 33.4506 49.4689 33.4905 49.4858 33.5309C49.5035 33.5735 49.5163 33.6148 49.5235 33.6534L49.5235 33.6534L49.5242 33.657C49.5334 33.7028 49.5379 33.7466 49.5379 33.7896C49.5379 33.8314 49.5334 33.8751 49.5242 33.9211L49.5242 33.9211L49.5235 33.9247C49.5163 33.9633 49.5035 34.0046 49.4858 34.0472C49.4689 34.0876 49.4477 34.1275 49.4225 34.1662C49.3977 34.2033 49.3693 34.2382 49.3396 34.2678C49.3084 34.2991 49.2745 34.3268 49.239 34.3501L49.239 34.3501L49.2369 34.3515C49.2005 34.3757 49.1614 34.3966 49.1206 34.4133L49.1206 34.4133L49.119 34.414C49.0793 34.4305 49.0365 34.4436 48.992 34.4526C48.948 34.4615 48.9036 34.4661 48.8613 34.4661C48.819 34.4661 48.7746 34.4615 48.7306 34.4526C48.6866 34.4437 48.6435 34.4307 48.6019 34.4137C48.5613 34.3967 48.522 34.3757 48.4857 34.3515L48.4858 34.3515L48.4836 34.3501C48.4481 34.3268 48.4142 34.2991 48.383 34.2678C48.3538 34.2386 48.325 34.2035 48.2981 34.1646C48.2748 34.1286 48.2545 34.0895 48.2369 34.0472C48.2191 34.0046 48.2064 33.9633 48.1992 33.9247L48.1992 33.9247L48.1985 33.9211C48.1893 33.8751 48.1848 33.8314 48.1848 33.7896C48.1848 33.7466 48.1893 33.7029 48.1985 33.657L48.1985 33.657L48.1992 33.6534C48.2064 33.6148 48.2191 33.5735 48.2369 33.5309C48.2545 33.4886 48.2748 33.4495 48.2981 33.4135C48.325 33.3746 48.3538 33.3395 48.383 33.3103C48.4142 33.2791 48.4481 33.2513 48.4836 33.2281L48.4836 33.2281L48.4857 33.2267C48.5221 33.2025 48.5613 33.1814 48.6019 33.1645C48.6434 33.1475 48.6865 33.1345 48.7304 33.1256C48.8172 33.1081 48.9057 33.1081 48.9925 33.1256L49.0518 32.8315ZM49.0518 32.8315C48.9258 32.8062 48.7969 32.8062 48.6709 32.8315L49.4033 32.9771C49.3506 32.9419 49.2939 32.9116 49.2344 32.8872C49.1758 32.8628 49.1143 32.8442 49.0518 32.8315ZM47.8848 33.7896C47.8848 33.853 47.8916 33.9165 47.9043 33.98L48.0488 33.2466C48.0137 33.3003 47.9844 33.3569 47.96 33.4155C47.9355 33.4741 47.916 33.5356 47.9043 33.5981C47.8916 33.6616 47.8848 33.7251 47.8848 33.7896Z" fill="white" stroke="white" stroke-width="0.6"/>
<path d="M72.5438 32.8158C71.9582 30.3403 69.7313 28.4922 67.0793 28.4922H36.4392C31.7858 28.4921 28 32.2779 28 36.9312V67.5714C28 70.6145 30.4333 73.0982 33.4563 73.1835C34.0418 75.659 36.2688 77.5071 38.9207 77.5071H72.3838C75.4806 77.5071 78 74.9877 78 71.8909V64.522V38.4278C78 35.3849 75.5667 32.9011 72.5438 32.8158ZM76.0469 71.8911C76.0469 73.9109 74.4036 75.5542 72.3838 75.5542H38.9207C37.3572 75.5542 36.0201 74.5693 35.4954 73.1877C35.3422 72.7844 35.2576 72.3476 35.2576 71.8911V71.2346V66.7103L46.4612 47.7138C46.8023 47.1354 47.4106 46.7978 48.078 46.8085C48.7494 46.82 49.3419 47.1788 49.663 47.7686L54.4868 56.6262L61.4986 69.5015C61.6758 69.8269 62.011 70.0111 62.3571 70.0111C62.5149 70.0111 62.675 69.9728 62.8233 69.892C63.297 69.634 63.4719 69.0409 63.214 68.5673L60.9386 64.3891C61.9376 64.4352 62.9202 64.1116 63.7027 63.4625L68.0944 59.8193C68.7987 59.2351 69.8387 59.2607 70.5133 59.8792L70.7426 60.0894L72.6957 61.8797L76.0469 64.9517V71.8911ZM76.0469 62.302L72.6956 59.23L70.7425 57.7428C69.4699 57.2105 67.9568 57.3957 66.8474 58.316L62.4557 61.9592C61.9727 62.36 61.342 62.5219 60.7256 62.4034C60.1092 62.2851 59.5835 61.9009 59.2833 61.3497L56.2021 55.6919L54.4815 52.5326V52.5325L51.3783 46.8343C50.7164 45.6189 49.4951 44.8792 48.1114 44.8556C46.7281 44.8339 45.4819 45.5295 44.7789 46.7215L35.2575 62.8655V38.4278C35.2575 36.408 36.9008 34.7647 38.9206 34.7647H44.955C45.4943 34.7647 45.9315 34.3275 45.9315 33.7882C45.9315 33.2488 45.4943 32.8116 44.955 32.8116H38.9206C35.8238 32.8116 33.3044 35.3311 33.3044 38.4278V66.4436V71.2202C31.4301 71.0613 29.9531 69.4861 29.9531 67.5714V36.9312C29.9531 33.3548 32.8628 30.4452 36.4392 30.4452H67.0793C68.6428 30.4452 69.9799 31.4301 70.5046 32.8117H52.7675C52.2281 32.8117 51.7909 33.2489 51.7909 33.7883C51.7909 34.3276 52.2281 34.7648 52.7675 34.7648H70.7424L72.6955 34.7791C74.5699 34.9379 76.0469 36.5131 76.0469 38.4278V62.302Z" fill="white" stroke="white" stroke-width="0.6"/>
</g>
<defs>
<clipPath id="clip0">
<rect width="50" height="50" fill="white" transform="translate(28 28)"/>
</clipPath>
</defs>
</svg>
