<svg width="51" height="51" viewBox="0 0 51 51" fill="none" xmlns="http://www.w3.org/2000/svg">
<g clip-path="url(#clip0)">
<path d="M12.9729 13.7734L8.55451 14.1148C7.32504 14.2098 6.23004 14.8542 5.55012 15.8826L0.454439 23.5896C-0.0612344 24.3695 -0.143212 25.3456 0.235002 26.2006C0.613315 27.0556 1.39076 27.6515 2.31463 27.7946L6.36023 28.4212C7.30661 23.3989 9.57211 18.389 12.9729 13.7734Z" fill="black"/>
<path d="M22.5791 44.6401L23.2057 48.6857C23.3489 49.6095 23.9447 50.387 24.7997 50.7652C25.1554 50.9226 25.5319 51.0003 25.9065 51.0003C26.4328 51.0003 26.9553 50.847 27.4108 50.5458L35.1179 45.4502C36.1464 44.7701 36.7908 43.6751 36.8856 42.4458L37.2269 38.0273C32.6113 41.4283 27.6015 43.6938 22.5791 44.6401Z" fill="black"/>
<path d="M21.0586 41.8361C21.1991 41.8361 21.3403 41.8245 21.4812 41.801C23.5854 41.4492 25.6134 40.8565 27.548 40.0808L10.9203 23.4531C10.1446 25.3876 9.55192 27.4157 9.20011 29.5199C9.06145 30.3493 9.33966 31.1943 9.93422 31.789L19.2122 41.0669C19.7058 41.5605 20.3721 41.8361 21.0586 41.8361Z" fill="black"/>
<path d="M46.9334 22.6115C51.0023 14.745 51.153 6.43203 50.9403 2.53335C50.8675 1.19749 49.8025 0.132479 48.4665 0.0596655C47.8317 0.0250018 47.0794 0 46.2314 0C41.8719 0 34.9739 0.660306 28.3884 4.06662C23.1548 6.77368 16.2921 12.7344 12.2432 20.5678C12.291 20.6051 12.3377 20.6448 12.3817 20.6888L30.3113 38.6184C30.3553 38.6624 30.3948 38.709 30.4322 38.7568C38.2656 34.7078 44.2263 27.8451 46.9334 22.6115ZM29.6533 10.7816C32.5659 7.86898 37.3054 7.86868 40.2182 10.7816C41.6293 12.1926 42.4063 14.0687 42.4063 16.0642C42.4063 18.0596 41.6293 19.9358 40.2182 21.3467C38.7621 22.8029 36.8486 23.5311 34.9358 23.5313C33.0224 23.5314 31.1098 22.8033 29.6533 21.3467C28.2422 19.9358 27.4651 18.0596 27.4651 16.0642C27.4651 14.0687 28.2422 12.1926 29.6533 10.7816Z" fill="black"/>
<path d="M31.767 19.2338C33.5146 20.9814 36.3584 20.9815 38.1061 19.2338C38.9527 18.3871 39.4189 17.2615 39.4189 16.0642C39.4189 14.8669 38.9527 13.7413 38.1061 12.8947C37.2323 12.0209 36.0844 11.584 34.9365 11.584C33.7887 11.584 32.6408 12.0209 31.7671 12.8947C30.9205 13.7413 30.4541 14.8669 30.4541 16.0642C30.4541 17.2615 30.9204 18.3872 31.767 19.2338Z" fill="black"/>
<path d="M1.52446 42.0286C1.90686 42.0286 2.28926 41.8828 2.58092 41.5909L7.45909 36.7128C8.0426 36.1292 8.0426 35.1833 7.45909 34.5997C6.87568 34.0162 5.92959 34.0162 5.34608 34.5997L0.467907 39.4779C-0.115604 40.0614 -0.115604 41.0074 0.467907 41.5909C0.759663 41.8827 1.14206 42.0286 1.52446 42.0286Z" fill="black"/>
<path d="M11.9303 39.0704C11.3469 38.4869 10.4008 38.4869 9.81733 39.0704L0.43861 48.4492C-0.144901 49.0327 -0.144901 49.9787 0.43861 50.5622C0.730366 50.8539 1.11277 50.9998 1.49517 50.9998C1.87757 50.9998 2.25997 50.8539 2.55162 50.5621L11.9302 41.1835C12.5139 40.5999 12.5139 39.654 11.9303 39.0704Z" fill="black"/>
<path d="M14.2864 43.5411L9.40834 48.4193C8.82483 49.0028 8.82483 49.9488 9.40834 50.5323C9.70009 50.8241 10.0825 50.97 10.4648 50.97C10.8471 50.97 11.2296 50.8242 11.5213 50.5323L16.3994 45.6542C16.9829 45.0707 16.9829 44.1247 16.3994 43.5411C15.816 42.9576 14.8699 42.9576 14.2864 43.5411Z" fill="black"/>
</g>
<defs>
<clipPath id="clip0">
<rect width="51" height="51" fill="white"/>
</clipPath>
</defs>
</svg>
