<svg width="23" height="23" viewBox="0 0 23 23" fill="none" xmlns="http://www.w3.org/2000/svg">
<path d="M11.9492 18.2383C11.9492 18.4864 11.7481 18.6875 11.5 18.6875C11.2519 18.6875 11.0508 18.4864 11.0508 18.2383C11.0508 17.9902 11.2519 17.7891 11.5 17.7891C11.7481 17.7891 11.9492 17.9902 11.9492 18.2383Z" fill="white"/>
<path d="M21.5176 14.1953C21.5176 12.709 20.3085 11.5 18.8223 11.5C17.336 11.5 16.127 12.709 16.127 14.1953C16.127 15.6816 17.336 16.8906 18.8223 16.8906C20.3085 16.8906 21.5176 15.6816 21.5176 14.1953ZM18.8223 15.9922C17.8315 15.9922 17.0254 15.1861 17.0254 14.1953C17.0254 13.2046 17.8315 12.3984 18.8223 12.3984C19.813 12.3984 20.6191 13.2046 20.6191 14.1953C20.6191 15.1861 19.813 15.9922 18.8223 15.9922Z" fill="white"/>
<path d="M18.8223 16.8906C17.6903 16.8906 16.5614 17.3605 15.7925 18.1225C14.7803 16.7924 13.2197 15.9922 11.5 15.9922C9.85316 15.9922 8.25738 16.7436 7.20768 18.1225C6.43857 17.3607 5.30991 16.8906 4.17773 16.8906C1.91322 16.8906 0 18.7421 0 20.9336V21.832C0 22.0802 0.201096 22.2812 0.449219 22.2812H22.5508C22.7989 22.2812 23 22.0802 23 21.832V20.9336C23 18.7421 21.0868 16.8906 18.8223 16.8906ZM0.898438 20.9336C0.898438 19.229 2.40016 17.7891 4.17773 17.7891C5.1504 17.7891 6.11499 18.22 6.71214 18.9051C6.31731 19.6677 6.10938 20.5177 6.10938 21.3828H0.898438V20.9336ZM11.5 16.8906C13.9997 16.8906 15.9922 18.9188 15.9922 21.3828H7.00781C7.00781 18.886 9.04105 16.8906 11.5 16.8906ZM22.1016 21.3828H16.8906C16.8906 20.5177 16.6827 19.6677 16.2879 18.9051C16.885 18.22 17.8496 17.7891 18.8223 17.7891C20.5998 17.7891 22.1016 19.229 22.1016 20.9336V21.3828Z" fill="white"/>
<path d="M6.87305 14.1953C6.87305 12.709 5.66402 11.5 4.17773 11.5C2.69145 11.5 1.48242 12.709 1.48242 14.1953C1.48242 15.6816 2.69145 16.8906 4.17773 16.8906C5.66402 16.8906 6.87305 15.6816 6.87305 14.1953ZM4.17773 15.9922C3.187 15.9922 2.38086 15.1861 2.38086 14.1953C2.38086 13.2046 3.187 12.3984 4.17773 12.3984C5.16847 12.3984 5.97461 13.2046 5.97461 14.1953C5.97461 15.1861 5.16847 15.9922 4.17773 15.9922Z" fill="white"/>
<path d="M15.0938 12.3984C15.0938 10.4168 13.4817 8.80469 11.5 8.80469C9.51835 8.80469 7.90625 10.4168 7.90625 12.3984C7.90625 14.3801 9.51835 15.9922 11.5 15.9922C13.4817 15.9922 15.0938 14.3801 15.0938 12.3984ZM11.5 15.0938C10.0137 15.0938 8.80469 13.8847 8.80469 12.3984C8.80469 10.9122 10.0137 9.70312 11.5 9.70312C12.9863 9.70312 14.1953 10.9122 14.1953 12.3984C14.1953 13.8847 12.9863 15.0938 11.5 15.0938Z" fill="white"/>
<path d="M15.0552 3.33141C15.0024 3.16875 14.8618 3.0503 14.6925 3.02573L12.7549 2.74445L11.8873 0.970734C11.812 0.81649 11.6555 0.71875 11.4839 0.71875C11.3123 0.71875 11.1558 0.81649 11.0803 0.970558L10.2129 2.74445L8.27532 3.02556C8.10599 3.05013 7.96543 3.16875 7.91261 3.33141C7.8598 3.49408 7.90384 3.67254 8.02632 3.79186L9.42943 5.15935L9.09831 7.09046C9.06935 7.25892 9.13867 7.42931 9.27712 7.52968C9.41469 7.6297 9.59789 7.64391 9.7502 7.5639L11.4839 6.6523L13.2183 7.5639C13.3696 7.64356 13.5529 7.63023 13.6914 7.52968C13.8297 7.42913 13.899 7.25892 13.87 7.09029L13.5386 5.15935L14.9415 3.79186C15.064 3.67254 15.108 3.49408 15.0552 3.33141ZM12.7421 4.68082C12.6363 4.784 12.5878 4.93281 12.6129 5.07845L12.8303 6.34522L11.6929 5.74719C11.562 5.67841 11.4056 5.67841 11.2747 5.74719L10.1377 6.34522L10.3549 5.07845C10.3798 4.93263 10.3314 4.784 10.2256 4.68082L9.30537 3.78397L10.5767 3.59937C10.7237 3.57813 10.8506 3.48548 10.9157 3.35212L11.4839 2.19047L12.0519 3.35212C12.1172 3.48566 12.2441 3.57813 12.3909 3.59937L13.6624 3.78397L12.7421 4.68082Z" fill="white"/>
<path d="M21.7689 6.69827C21.7161 6.53561 21.5755 6.41716 21.4062 6.39259L20.0935 6.20185L19.5065 5.01212C19.4309 4.85876 19.2749 4.76172 19.1038 4.76172C19.1038 4.76172 19.1038 4.76172 19.1036 4.76172C18.9327 4.76172 18.7765 4.85876 18.7009 5.01212L18.1136 6.20185L16.8006 6.39259C16.6315 6.41716 16.4909 6.53561 16.4381 6.69827C16.3851 6.86094 16.4292 7.0394 16.5516 7.15872L17.5015 8.08506L17.2772 9.39236C17.2485 9.56081 17.3176 9.73103 17.4561 9.83157C17.5943 9.93212 17.7777 9.94546 17.929 9.86597L19.1036 9.24882L20.2779 9.86597C20.4291 9.94546 20.6127 9.93212 20.751 9.83157C20.8892 9.7312 20.9584 9.56081 20.9296 9.39236L20.7053 8.08506L21.6554 7.15872C21.7779 7.0394 21.8217 6.86094 21.7689 6.69827ZM19.9092 7.60671C19.8032 7.70989 19.755 7.85852 19.7801 8.00417L19.8903 8.64711L19.3128 8.34371C19.1819 8.27493 19.0255 8.27493 18.8948 8.34371L18.3168 8.64729L18.4271 8.00417C18.4521 7.85852 18.4038 7.70989 18.298 7.60671L17.8305 7.15083L18.4764 7.05712C18.6228 7.03589 18.7493 6.94394 18.8148 6.81145L19.1036 6.22624L19.3923 6.81128C19.4577 6.94394 19.5842 7.03589 19.7306 7.05712L20.3765 7.15083L19.9092 7.60671Z" fill="white"/>
<path d="M6.49547 6.69827C6.44265 6.53561 6.30209 6.41716 6.13276 6.39259L4.82002 6.20185L4.23305 5.01212C4.15742 4.85876 4.00142 4.76172 3.83033 4.76172C3.65925 4.76172 3.50307 4.85876 3.42744 5.01212L2.84012 6.20185L1.52721 6.39259C1.35805 6.41716 1.2175 6.53561 1.16468 6.69827C1.11168 6.86094 1.15573 7.0394 1.27821 7.15872L2.22806 8.08506L2.00398 9.39236C1.97503 9.56081 2.04434 9.73103 2.18261 9.83157C2.32089 9.93212 2.50426 9.94546 2.6557 9.86597L3.83016 9.24882L5.00445 9.86597C5.15676 9.94598 5.33996 9.93159 5.47753 9.83157C5.6158 9.7312 5.68512 9.56081 5.65616 9.39236L5.4319 8.08506L6.38193 7.15872C6.50441 7.0394 6.54828 6.86094 6.49547 6.69827ZM4.63559 7.60671C4.52978 7.70989 4.48153 7.85852 4.50644 8.00417L4.61682 8.64711L4.03915 8.34371C3.90842 8.27492 3.75207 8.27492 3.62134 8.34371L3.04315 8.64729L3.15352 8.00417C3.17862 7.85852 3.13019 7.70989 3.02437 7.60671L2.55691 7.15083L3.20301 7.05712C3.34918 7.03589 3.4757 6.94394 3.54115 6.81145L3.82998 6.22624L4.11864 6.81128C4.18409 6.94394 4.31061 7.03589 4.45696 7.05712L5.10289 7.15083L4.63559 7.60671Z" fill="white"/>
<path d="M13.4694 18.3774C13.262 18.241 12.9835 18.2987 12.8473 18.5062C12.711 18.7134 12.7687 18.9919 12.9761 19.1282C13.3915 19.4011 13.7235 19.7815 13.9362 20.2283C14.0425 20.452 14.3103 20.5476 14.5347 20.4408C14.7588 20.3343 14.8539 20.0661 14.7474 19.8422C14.4642 19.247 14.0221 18.7404 13.4694 18.3774Z" fill="white"/>
</svg>
