<svg width="261" height="111" viewBox="0 0 261 111" fill="none" xmlns="http://www.w3.org/2000/svg">
<rect width="261" height="111" rx="7" fill="#F8F9FB"/>
<path d="M197.22 63.7252C197.22 66.6532 198.976 68.0762 202.177 68.0762C203.163 68.0515 204.142 67.9126 205.096 67.6622V64.2622C204.486 64.4562 203.85 64.5527 203.21 64.5482C201.892 64.5482 201.403 64.1342 201.403 62.8912V57.6912H205.223V54.1912H201.403V49.7662L197.229 50.6722V54.1982H194.457V57.6982H197.219L197.22 63.7252ZM184.207 63.8042C184.207 62.8982 185.113 62.4572 186.481 62.4572C187.317 62.462 188.15 62.5661 188.961 62.7672V64.5282C188.162 64.9664 187.263 65.1896 186.351 65.1762C185.01 65.1762 184.208 64.6592 184.208 63.8042H184.207ZM185.485 68.1282C186.822 68.1789 188.142 67.8077 189.256 67.0672V67.8972H193.386V59.1182C193.386 55.7792 191.142 53.9472 187.398 53.9472C185.186 53.977 183.008 54.4889 181.014 55.4472L182.514 58.5302C183.808 57.904 185.211 57.5345 186.646 57.4422C188.365 57.4422 189.254 58.1142 189.254 59.4882V60.1602C188.242 59.8975 187.2 59.7667 186.154 59.7712C182.64 59.7712 180.524 61.2482 180.524 63.8912C180.524 66.2992 182.434 68.1362 185.481 68.1362L185.485 68.1282ZM162.781 67.9052H167.223V60.8052H174.66V67.9052H179.114V49.7712H174.677V56.7372H167.24V49.7712H162.798L162.781 67.9052ZM145.874 61.0352C145.873 60.5803 145.961 60.1296 146.134 59.7088C146.307 59.2881 146.561 58.9054 146.882 58.5828C147.202 58.2602 147.583 58.0039 148.003 57.8286C148.423 57.6532 148.873 57.5623 149.328 57.561C149.373 57.5608 149.419 57.5616 149.464 57.5632C150.526 57.542 151.557 57.922 152.351 58.6272V63.4162C151.967 63.7814 151.513 64.0666 151.018 64.2554C150.522 64.4442 149.994 64.5329 149.464 64.5162C148.542 64.5454 147.645 64.2069 146.972 63.5753C146.3 62.9436 145.905 62.0705 145.876 61.148C145.875 61.1144 145.874 61.0808 145.874 61.0472V61.0352ZM152.407 67.9102H156.539V48.8652L152.367 49.7712V54.9252C151.432 54.3736 150.382 54.0449 149.3 53.9646C148.217 53.8843 147.13 54.0546 146.124 54.4623C145.117 54.8699 144.218 55.504 143.497 56.3152C142.775 57.1264 142.25 58.0931 141.962 59.14C141.675 60.187 141.632 61.2862 141.838 62.3522C142.044 63.4183 142.493 64.4226 143.15 65.2872C143.806 66.1518 144.654 66.8534 145.625 67.3376C146.597 67.8218 147.667 68.0756 148.753 68.0792C150.071 68.0856 151.356 67.6688 152.419 66.8902L152.407 67.9102ZM133.447 57.3752C134.095 57.383 134.722 57.5985 135.238 57.9898C135.754 58.3812 136.13 58.9278 136.312 59.5492H130.612C130.766 58.9189 131.131 58.3601 131.646 57.9648C132.16 57.5696 132.794 57.3616 133.443 57.3752H133.447ZM126.404 61.0692C126.414 62.0121 126.61 62.9437 126.98 63.811C127.35 64.6783 127.887 65.4642 128.56 66.1239C129.234 66.7836 130.031 67.3041 130.906 67.6557C131.781 68.0074 132.716 68.1833 133.659 68.1734C133.719 68.1728 133.779 68.1714 133.839 68.1692C135.937 68.2353 137.981 67.4933 139.547 66.0962L136.786 63.6252C136.425 63.9755 135.996 64.2481 135.526 64.4265C135.056 64.6048 134.554 64.685 134.051 64.6622C133.337 64.6819 132.634 64.4847 132.034 64.0966C131.435 63.7085 130.967 63.1477 130.692 62.4882H140.427V61.4502C140.427 57.0992 137.51 53.9672 133.533 53.9672C131.67 53.942 129.874 54.6578 128.538 55.9572C127.203 57.2566 126.439 59.0333 126.413 60.8962C126.413 60.9512 126.413 61.0062 126.413 61.0612L126.404 61.0692ZM119.207 53.5782C119.496 53.5444 119.789 53.5721 120.066 53.6594C120.343 53.7468 120.599 53.8919 120.816 54.0852C121.033 54.2784 121.207 54.5155 121.326 54.7807C121.445 55.046 121.507 55.3335 121.507 55.6242C121.507 55.915 121.445 56.2025 121.326 56.4677C121.207 56.733 121.033 56.9701 120.816 57.1633C120.599 57.3566 120.343 57.5017 120.066 57.589C119.789 57.6764 119.496 57.7041 119.207 57.6702H114.814V53.5782H119.207ZM110.367 67.8992H114.809V61.2992H118.19L121.6 67.8992H126.567L122.589 60.6472C123.601 60.2335 124.466 59.527 125.073 58.6183C125.68 57.7096 126.002 56.6401 125.997 55.5472C125.997 52.2842 123.441 49.7732 119.613 49.7732H110.367V67.8992Z" fill="black"/>
<path d="M86.175 61.435C89.247 61.435 93.691 60.8 93.691 57.135C93.7002 56.8523 93.6747 56.5695 93.615 56.293L91.785 48.326C91.363 46.573 90.992 45.777 87.923 44.238C85.541 43.017 80.353 41 78.819 41C77.39 41 76.975 42.847 75.271 42.847C73.631 42.847 72.413 41.468 70.879 41.468C69.406 41.468 68.446 42.475 67.704 44.546C67.704 44.546 65.639 50.387 65.374 51.234C65.3318 51.3897 65.3136 51.5508 65.32 51.712C65.32 53.982 74.233 61.426 86.175 61.426V61.435ZM94.162 58.626C94.3891 59.4405 94.5315 60.2763 94.587 61.12C94.587 64.567 90.722 66.481 85.642 66.481C74.161 66.486 64.1 59.739 64.1 55.279C64.1 54.66 64.2263 54.0475 64.471 53.479C60.345 53.681 55 54.42 55 59.153C55 66.9 73.314 76.458 87.815 76.458C98.933 76.458 101.736 71.415 101.736 67.433C101.736 64.301 99.036 60.745 94.166 58.623" fill="#EE0000"/>
<path d="M94.162 58.6231C94.3891 59.4376 94.5315 60.2733 94.587 61.1171C94.587 64.5641 90.722 66.4781 85.642 66.4781C74.161 66.4851 64.104 59.7381 64.104 55.2781C64.1041 54.6591 64.2303 54.0466 64.475 53.4781L65.375 51.2471C65.3338 51.3995 65.3156 51.5572 65.321 51.7151C65.321 53.9851 74.234 61.4291 86.176 61.4291C89.248 61.4291 93.692 60.7941 93.692 57.1291C93.7012 56.8463 93.6757 56.5636 93.616 56.2871L94.162 58.6231Z" fill="black"/>
</svg>
