<svg width="51" height="51" viewBox="0 0 51 51" fill="none" xmlns="http://www.w3.org/2000/svg">
<g clip-path="url(#clip0_2615:360)">
<path d="M12.9729 13.7725L8.55451 14.1138C7.32504 14.2088 6.23004 14.8532 5.55012 15.8817L0.454439 23.5886C-0.0612344 24.3685 -0.143212 25.3446 0.235002 26.1996C0.613315 27.0547 1.39076 27.6505 2.31463 27.7937L6.36023 28.4202C7.30661 23.3979 9.57211 18.388 12.9729 13.7725Z" fill="black"/>
<path d="M22.5801 44.6401L23.2067 48.6857C23.3499 49.6095 23.9457 50.387 24.8007 50.7652C25.1564 50.9226 25.5329 51.0003 25.9075 51.0003C26.4337 51.0003 26.9563 50.847 27.4118 50.5458L35.1189 45.4502C36.1474 44.7701 36.7917 43.6751 36.8866 42.4458L37.2279 38.0273C32.6123 41.4283 27.6024 43.6938 22.5801 44.6401Z" fill="black"/>
<path d="M21.0576 41.8361C21.1981 41.8361 21.3393 41.8245 21.4803 41.801C23.5844 41.4492 25.6124 40.8565 27.547 40.0808L10.9194 23.4531C10.1436 25.3876 9.55095 27.4157 9.19913 29.5199C9.06047 30.3493 9.33868 31.1943 9.93324 31.789L19.2112 41.0669C19.7048 41.5605 20.3711 41.8361 21.0576 41.8361Z" fill="black"/>
<path d="M46.9324 22.6115C51.0013 14.745 51.152 6.43203 50.9393 2.53335C50.8665 1.19749 49.8015 0.132479 48.4656 0.0596655C47.8307 0.0250018 47.0784 0 46.2304 0C41.871 0 34.973 0.660306 28.3874 4.06662C23.1538 6.77368 16.2911 12.7344 12.2422 20.5678C12.29 20.6051 12.3367 20.6448 12.3807 20.6888L30.3103 38.6184C30.3543 38.6624 30.3939 38.709 30.4312 38.7568C38.2646 34.7078 44.2253 27.8451 46.9324 22.6115ZM29.6523 10.7816C32.5649 7.86898 37.3044 7.86868 40.2173 10.7816C41.6283 12.1926 42.4054 14.0687 42.4054 16.0642C42.4054 18.0596 41.6283 19.9358 40.2173 21.3467C38.7611 22.8029 36.8476 23.5311 34.9348 23.5313C33.0214 23.5314 31.1089 22.8033 29.6523 21.3467C28.2412 19.9358 27.4641 18.0596 27.4641 16.0642C27.4641 14.0687 28.2412 12.1926 29.6523 10.7816Z" fill="black"/>
<path d="M31.766 19.2338C33.5136 20.9814 36.3575 20.9815 38.1051 19.2338C38.9517 18.3871 39.418 17.2615 39.418 16.0642C39.418 14.8669 38.9517 13.7413 38.1051 12.8947C37.2313 12.0209 36.0834 11.584 34.9355 11.584C33.7877 11.584 32.6398 12.0209 31.7661 12.8947C30.9195 13.7413 30.4531 14.8669 30.4531 16.0642C30.4531 17.2615 30.9194 18.3872 31.766 19.2338Z" fill="black"/>
<path d="M1.52349 42.0286C1.90589 42.0286 2.28829 41.8828 2.57994 41.5909L7.45811 36.7128C8.04163 36.1292 8.04163 35.1833 7.45811 34.5997C6.8747 34.0162 5.92861 34.0162 5.3451 34.5997L0.466931 39.4779C-0.116581 40.0614 -0.116581 41.0074 0.466931 41.5909C0.758686 41.8827 1.14109 42.0286 1.52349 42.0286Z" fill="black"/>
<path d="M11.9294 39.0704C11.346 38.4869 10.3999 38.4869 9.81635 39.0704L0.437634 48.4492C-0.145878 49.0327 -0.145878 49.9787 0.437634 50.5622C0.72939 50.8539 1.11179 50.9998 1.49419 50.9998C1.87659 50.9998 2.25899 50.8539 2.55065 50.5621L11.9293 41.1835C12.5129 40.5999 12.5129 39.654 11.9294 39.0704Z" fill="black"/>
<path d="M14.2864 43.5411L9.40834 48.4193C8.82483 49.0028 8.82483 49.9488 9.40834 50.5323C9.70009 50.8241 10.0825 50.97 10.4648 50.97C10.8471 50.97 11.2296 50.8242 11.5213 50.5323L16.3994 45.6542C16.9829 45.0707 16.9829 44.1247 16.3994 43.5411C15.816 42.9576 14.8699 42.9576 14.2864 43.5411Z" fill="black"/>
</g>
<defs>
<clipPath id="clip0_2615:360">
<rect width="51" height="51" fill="white"/>
</clipPath>
</defs>
</svg>
