<svg width="61" height="61" viewBox="0 0 61 61" fill="none" xmlns="http://www.w3.org/2000/svg">
<circle cx="30.5" cy="30.5" r="30.5" fill="#051A26"/>
<path d="M23.2062 27.296C22.1843 28.8711 21.4603 30.5412 21.0773 32.2301L19.8674 32.0427C19.8674 32.0427 19.8674 32.0427 19.8674 32.0427C19.6522 32.0094 19.473 31.872 19.3849 31.6729L23.2062 27.296ZM23.2062 27.296L22.4196 27.3568C22.4196 27.3568 22.4196 27.3568 22.4196 27.3568C22.063 27.3844 21.7482 27.5696 21.551 27.8679L21.551 27.8679L19.4358 31.067M23.2062 27.296L19.4358 31.067M19.4358 31.067C19.3157 31.2487 19.2968 31.4737 19.3849 31.6728L19.4358 31.067Z" stroke="white" stroke-opacity="0.89"/>
<path d="M34.2935 26.7058L34.2935 26.7058C34.0286 26.4409 33.6811 26.3081 33.3314 26.3081C32.9816 26.3081 32.6341 26.4409 32.3693 26.7058L32.3693 26.7058C32.1116 26.9635 31.9707 27.3035 31.9707 27.6679C31.9707 28.0323 32.1116 28.3724 32.3692 28.63L32.0157 28.9836L32.3692 28.63C32.8994 29.1602 33.7633 29.1602 34.2935 28.6301L34.2935 26.7058ZM34.2935 26.7058C34.5512 26.9634 34.692 27.3035 34.692 27.6679C34.692 28.0323 34.5512 28.3723 34.2935 28.63L34.2935 26.7058Z" stroke="white" stroke-opacity="0.89"/>
<path d="M32.874 38.198L32.8132 38.9846L32.8132 38.9846C32.7857 39.3411 32.6004 39.6559 32.3022 39.8531C32.3022 39.8532 32.3022 39.8532 32.3022 39.8532L29.1029 41.9683L29.1029 41.9684C28.9961 42.039 28.8752 42.0741 28.7543 42.0741C28.6681 42.0741 28.5808 42.0563 28.4971 42.0193L28.4971 42.0193C28.298 41.9312 28.1606 41.752 28.1273 41.5368C28.1273 41.5367 28.1273 41.5367 28.1273 41.5367L27.9399 40.3269C29.6288 39.9439 31.2989 39.2199 32.874 38.198Z" stroke="white" stroke-opacity="0.89"/>
<path d="M22.5983 37.9755L22.5984 37.9756C22.6453 38.0225 22.6453 38.0986 22.5983 38.1455L22.5983 38.1456L18.7052 42.0387L18.7051 42.0388C18.6817 42.0622 18.6518 42.0739 18.6202 42.0739C18.5886 42.0739 18.5588 42.0622 18.5352 42.0387C18.4883 41.9917 18.4883 41.9156 18.5352 41.8687L22.4283 37.9756C22.4753 37.9286 22.5514 37.9286 22.5983 37.9755Z" stroke="white" stroke-opacity="0.89"/>
<path d="M22.2598 41.8563L22.2598 41.8563L24.2847 39.8314C24.3317 39.7844 24.4078 39.7844 24.4547 39.8313L24.4547 39.8314C24.5017 39.8783 24.5017 39.9544 24.4547 40.0014L22.4298 42.0263L22.4297 42.0264C22.4062 42.0499 22.3764 42.0615 22.3448 42.0615C22.3134 42.0615 22.2834 42.0499 22.2598 42.0263C22.2129 41.9794 22.2129 41.9033 22.2598 41.8563Z" stroke="white" stroke-opacity="0.89"/>
<path d="M27.665 37.8585C28.2434 37.7618 28.8086 37.619 29.3582 37.4373L23.5637 31.6428C23.382 32.1925 23.2392 32.7577 23.1425 33.3362L27.665 37.8585ZM27.665 37.8585C27.6338 37.8637 27.6027 37.8663 27.5718 37.8663M27.665 37.8585L27.5718 37.8663M27.5718 37.8663C27.4205 37.8663 27.2708 37.8052 27.1589 37.6934C27.1589 37.6934 27.1589 37.6934 27.1589 37.6934L23.3076 33.8421M27.5718 37.8663L23.3076 33.8421M23.3076 33.8421L23.3076 33.8421C23.1727 33.7071 23.1121 33.5179 23.1425 33.3362L23.3076 33.8421Z" stroke="white" stroke-opacity="0.89"/>
<path d="M38.9213 21.524L38.9213 21.524C39.2211 21.5404 39.4598 21.779 39.4761 22.0788C39.5623 23.6592 39.4976 27.0057 37.868 30.1564C36.8254 32.172 34.5505 34.8228 31.5587 36.47L24.5302 29.4414C26.1773 26.4497 28.8281 24.1748 30.8438 23.1322C33.4791 21.769 36.2533 21.5 38.0207 21.5C38.3629 21.5 38.6661 21.5101 38.9213 21.524ZM33.3319 31.2679H33.3319C34.2526 31.2678 35.1759 30.9169 35.8782 30.2146C36.5577 29.5352 36.9329 28.6292 36.9329 27.6683C36.9329 26.7074 36.5577 25.8014 35.8782 25.1219C34.4738 23.7175 32.1898 23.7176 30.7855 25.1219C30.106 25.8014 29.7308 26.7073 29.7308 27.6683C29.7308 28.6292 30.106 29.5352 30.7855 30.2146C31.488 30.9171 32.4109 31.268 33.3319 31.2679Z" stroke="white" stroke-opacity="0.89"/>
<path d="M19.547 37.911L19.5469 37.9111C19.5235 37.9345 19.4936 37.9462 19.462 37.9462C19.4305 37.9462 19.4006 37.9346 19.377 37.911C19.3301 37.864 19.3301 37.7879 19.377 37.7409L21.402 35.716C21.4489 35.669 21.525 35.6691 21.5719 35.716L21.572 35.716C21.6189 35.763 21.6189 35.8391 21.572 35.886L19.547 37.911Z" stroke="white" stroke-opacity="0.89"/>
</svg>
