<svg width="261" height="111" viewBox="0 0 261 111" fill="none" xmlns="http://www.w3.org/2000/svg">
<rect width="261" height="111" rx="7" fill="#F8F9FB"/>
<path d="M122.05 30.9802C124.999 27.9076 129.105 26.0019 133.645 26.0019C139.681 26.0019 144.947 29.3676 147.751 34.364C150.189 33.2752 152.886 32.6694 155.724 32.6694C166.61 32.6694 175.436 41.5722 175.436 52.5536C175.436 63.5363 166.61 72.439 155.724 72.439C154.42 72.4398 153.119 72.3101 151.841 72.0521C149.372 76.4572 144.666 79.4335 139.264 79.4335C137.003 79.4335 134.864 78.9112 132.96 77.9825C130.457 83.8711 124.624 88 117.826 88C110.747 88 104.714 83.5207 102.398 77.2387C101.386 77.4536 100.337 77.5656 99.2615 77.5656C90.833 77.5657 84 70.6624 84 62.1453C84 56.4377 87.07 51.4542 91.6314 48.788C90.6923 46.6272 90.17 44.2423 90.17 41.7349C90.17 31.94 98.1218 24 107.93 24C113.688 24 118.806 26.7379 122.05 30.9802Z" fill="#00A1E0"/>
<path d="M97.2438 57.1888C97.1865 57.3386 97.2647 57.3699 97.2829 57.3959C97.4548 57.5209 97.6294 57.6109 97.8052 57.7111C98.7378 58.206 99.6184 58.3506 100.539 58.3506C102.415 58.3506 103.579 57.3529 103.579 55.7469V55.7157C103.579 54.2307 102.265 53.6915 101.032 53.3021L100.871 53.25C99.9414 52.9478 99.1391 52.6874 99.1391 52.0751V52.0426C99.1391 51.519 99.608 51.1334 100.335 51.1334C101.142 51.1334 102.101 51.4018 102.718 51.743C102.718 51.743 102.899 51.8602 102.966 51.6844C103.002 51.5906 103.315 50.7492 103.348 50.658C103.383 50.559 103.32 50.486 103.256 50.4469C102.552 50.0184 101.577 49.7253 100.569 49.7253L100.382 49.7266C98.665 49.7266 97.4668 50.7635 97.4668 52.2496V52.2809C97.4668 53.8478 98.7888 54.3557 100.028 54.71L100.227 54.7713C101.129 55.0487 101.907 55.287 101.907 55.9227V55.954C101.907 56.5349 101.402 56.9673 100.586 56.9673C100.27 56.9673 99.2603 56.9608 98.1702 56.2717C98.0385 56.1948 97.9617 56.1389 97.8601 56.0776C97.8068 56.0438 97.6726 55.9851 97.614 56.1623L97.2438 57.1888ZM124.702 57.1888C124.645 57.3386 124.723 57.3699 124.741 57.3959C124.913 57.5209 125.088 57.6109 125.263 57.7111C126.196 58.206 127.077 58.3506 127.997 58.3506C129.873 58.3506 131.037 57.3529 131.037 55.7469V55.7157C131.037 54.2307 129.723 53.6915 128.49 53.3021L128.329 53.25C127.399 52.9478 126.597 52.6874 126.597 52.0751V52.0426C126.597 51.519 127.066 51.1334 127.793 51.1334C128.6 51.1334 129.559 51.4018 130.176 51.743C130.176 51.743 130.357 51.8602 130.424 51.6844C130.46 51.5906 130.773 50.7492 130.805 50.658C130.841 50.559 130.778 50.486 130.714 50.4469C130.01 50.0184 129.035 49.7253 128.027 49.7253L127.84 49.7266C126.123 49.7266 124.925 50.7635 124.925 52.2496V52.2809C124.925 53.8478 126.247 54.3557 127.485 54.71L127.685 54.7713C128.587 55.0487 129.366 55.287 129.366 55.9227V55.954C129.366 56.5349 128.86 56.9673 128.044 56.9673C127.728 56.9673 126.718 56.9608 125.628 56.2717C125.497 56.1948 125.418 56.1414 125.319 56.0776C125.286 56.0555 125.127 55.9943 125.072 56.1623L124.702 57.1888ZM143.447 54.043C143.447 54.9508 143.278 55.6659 142.944 56.1713C142.615 56.6715 142.116 56.915 141.42 56.915C140.724 56.915 140.227 56.6728 139.903 56.1713C139.575 55.6672 139.408 54.9508 139.408 54.043C139.408 53.1365 139.575 52.4227 139.903 51.9225C140.227 51.4276 140.724 51.1866 141.42 51.1866C142.116 51.1866 142.615 51.4276 142.946 51.9225C143.278 52.4226 143.447 53.1364 143.447 54.043ZM145.013 52.3602C144.859 51.8404 144.619 51.3819 144.3 51.0003C143.981 50.6174 143.577 50.31 143.098 50.086C142.62 49.8633 142.055 49.75 141.42 49.75C140.785 49.75 140.219 49.8633 139.741 50.086C139.262 50.31 138.858 50.6175 138.538 51.0003C138.22 51.3833 137.98 51.8417 137.825 52.3602C137.673 52.8772 137.596 53.4425 137.596 54.043C137.596 54.6435 137.673 55.2101 137.825 55.7258C137.98 56.2442 138.219 56.7028 138.539 57.0856C138.858 57.4686 139.263 57.7747 139.741 57.9921C140.221 58.2097 140.785 58.3204 141.42 58.3204C142.055 58.3204 142.619 58.2097 143.098 57.9921C143.576 57.7747 143.981 57.4685 144.3 57.0856C144.619 56.704 144.859 56.2455 145.013 55.7258C145.166 55.2088 145.243 54.6421 145.243 54.043C145.243 53.4438 145.166 52.8772 145.013 52.3602ZM157.869 56.6726C157.817 56.5202 157.67 56.5775 157.67 56.5775C157.442 56.6648 157.2 56.7455 156.942 56.7859C156.68 56.8262 156.392 56.8471 156.083 56.8471C155.326 56.8471 154.724 56.6218 154.293 56.1763C153.86 55.7308 153.618 55.0106 153.62 54.0363C153.623 53.1493 153.837 52.4823 154.221 51.9745C154.603 51.4691 155.184 51.2098 155.959 51.2098C156.605 51.2098 157.097 51.2841 157.613 51.4469C157.613 51.4469 157.736 51.5003 157.795 51.3388C157.932 50.9584 158.033 50.6862 158.179 50.2681C158.221 50.1496 158.119 50.0988 158.083 50.0844C157.88 50.005 157.4 49.8761 157.038 49.8214C156.7 49.7693 156.304 49.7419 155.863 49.7419C155.205 49.7419 154.619 49.8539 154.118 50.078C153.618 50.3007 153.193 50.608 152.857 50.9911C152.521 51.374 152.266 51.8324 152.095 52.3508C151.926 52.8679 151.84 53.4358 151.84 54.0363C151.84 55.3349 152.19 56.3846 152.882 57.1532C153.575 57.9243 154.616 58.3163 155.973 58.3163C156.775 58.3163 157.598 58.1536 158.19 57.9204C158.19 57.9204 158.303 57.8656 158.254 57.7342L157.869 56.6726ZM160.609 53.1733C160.683 52.6692 160.822 52.2498 161.037 51.9229C161.361 51.4267 161.856 51.1545 162.552 51.1545C163.248 51.1545 163.707 51.4279 164.037 51.9229C164.256 52.2498 164.351 52.6875 164.389 53.1733H160.609ZM165.88 52.0648C165.747 51.5633 165.417 51.0566 165.201 50.8248C164.86 50.4575 164.527 50.2009 164.196 50.0576C163.763 49.8726 163.245 49.7502 162.677 49.7502C162.015 49.7502 161.415 49.861 160.928 50.0902C160.439 50.3195 160.029 50.6321 159.707 51.0216C159.386 51.4096 159.143 51.872 158.99 52.3969C158.835 52.9193 158.756 53.4885 158.756 54.0888C158.756 54.6998 158.837 55.269 158.997 55.7808C159.159 56.2967 159.417 56.7512 159.766 57.1276C160.114 57.5067 160.562 57.8037 161.098 58.0106C161.631 58.2165 162.279 58.3233 163.022 58.3219C164.553 58.3167 165.359 57.9755 165.691 57.7918C165.75 57.7593 165.806 57.702 165.735 57.5379L165.389 56.5674C165.337 56.4229 165.19 56.4763 165.19 56.4763C164.81 56.6169 164.271 56.8696 163.014 56.8671C162.192 56.8658 161.583 56.6235 161.201 56.2444C160.809 55.8563 160.618 55.2857 160.584 54.4809L165.884 54.4861C165.884 54.4861 166.023 54.4835 166.037 54.348C166.043 54.2908 166.22 53.2592 165.88 52.0648ZM118.164 53.1733C118.239 52.6692 118.378 52.2498 118.592 51.9229C118.917 51.4267 119.412 51.1545 120.107 51.1545C120.803 51.1545 121.263 51.4279 121.593 51.9229C121.811 52.2498 121.906 52.6875 121.944 53.1733H118.164ZM123.434 52.0648C123.301 51.5633 122.973 51.0566 122.757 50.8248C122.415 50.4575 122.082 50.2009 121.751 50.0576C121.319 49.8726 120.8 49.7502 120.232 49.7502C119.572 49.7502 118.97 49.861 118.483 50.0902C117.995 50.3195 117.584 50.6321 117.263 51.0216C116.941 51.4096 116.699 51.872 116.545 52.3969C116.391 52.9193 116.312 53.4885 116.312 54.0888C116.312 54.6998 116.393 55.269 116.553 55.7808C116.714 56.2967 116.972 56.7512 117.321 57.1276C117.669 57.5067 118.117 57.8037 118.654 58.0106C119.187 58.2165 119.834 58.3233 120.578 58.3219C122.108 58.3167 122.914 57.9755 123.246 57.7918C123.305 57.7593 123.361 57.702 123.291 57.5379L122.946 56.5674C122.892 56.4229 122.745 56.4763 122.745 56.4763C122.366 56.6169 121.828 56.8696 120.569 56.8671C119.748 56.8658 119.138 56.6235 118.757 56.2444C118.365 55.8563 118.173 55.2857 118.139 54.4809L123.439 54.4861C123.439 54.4861 123.579 54.4835 123.593 54.348C123.598 54.2908 123.775 53.2592 123.434 52.0648ZM106.708 56.6436C106.501 56.4781 106.472 56.4364 106.402 56.3296C106.298 56.1668 106.245 55.935 106.245 55.6406C106.245 55.1743 106.398 54.8395 106.717 54.6142C106.714 54.6156 107.173 54.217 108.254 54.2313C109.014 54.2417 109.692 54.3537 109.692 54.3537V56.7634H109.694C109.694 56.7634 109.02 56.9079 108.262 56.9535C107.184 57.0186 106.704 56.6423 106.708 56.6436ZM108.817 52.9197C108.602 52.904 108.323 52.8949 107.99 52.8949C107.535 52.8949 107.096 52.9522 106.685 53.0629C106.271 53.1736 105.898 53.3469 105.578 53.576C105.258 53.8044 104.995 54.1035 104.809 54.45C104.622 54.7991 104.526 55.2107 104.526 55.6718C104.526 56.1407 104.607 56.5484 104.769 56.8819C104.93 57.2166 105.163 57.4953 105.46 57.7103C105.755 57.9252 106.118 58.0827 106.54 58.1778C106.956 58.2729 107.427 58.3211 107.943 58.3211C108.486 58.3211 109.028 58.2769 109.553 58.1869C110.073 58.0983 110.711 57.9693 110.888 57.9291C111.012 57.8991 111.136 57.8674 111.259 57.834C111.391 57.8015 111.38 57.6607 111.38 57.6607L111.378 52.8141C111.378 51.7512 111.094 50.9632 110.535 50.4748C109.979 49.9877 109.159 49.7414 108.101 49.7414C107.703 49.7414 107.064 49.7962 106.681 49.873C106.681 49.873 105.523 50.097 105.046 50.4696C105.046 50.4696 104.942 50.5347 104.999 50.6806L105.374 51.6888C105.421 51.819 105.548 51.7747 105.548 51.7747C105.548 51.7747 105.588 51.7591 105.635 51.7317C106.655 51.1769 107.944 51.1938 107.944 51.1938C108.517 51.1938 108.958 51.3084 109.255 51.5363C109.544 51.7577 109.691 52.0924 109.691 52.7984V53.0224C109.235 52.9574 108.817 52.9197 108.817 52.9197ZM151.563 50.1888C151.603 50.0689 151.519 50.0116 151.484 49.9986C151.394 49.9635 150.943 49.8684 150.595 49.8463C149.93 49.8059 149.56 49.9179 149.229 50.0664C148.901 50.2148 148.536 50.4545 148.333 50.7267V50.082C148.333 49.9921 148.269 49.9205 148.18 49.9205H146.822C146.733 49.9205 146.67 49.9921 146.67 50.082V57.9869C146.67 58.0755 146.742 58.1485 146.831 58.1485H148.223C148.266 58.1482 148.307 58.1311 148.337 58.1008C148.367 58.0705 148.384 58.0296 148.384 57.9869V54.0378C148.384 53.5076 148.442 52.9789 148.56 52.6467C148.674 52.3184 148.83 52.0554 149.023 51.8665C149.217 51.6789 149.437 51.5474 149.678 51.4732C149.924 51.3976 150.197 51.3728 150.39 51.3728C150.667 51.3728 150.972 51.4444 150.972 51.4444C151.073 51.4561 151.131 51.3936 151.164 51.3012C151.256 51.0589 151.514 50.3334 151.563 50.1888Z" fill="white"/>
<path d="M138.493 46.5255C138.324 46.4734 138.17 46.4381 137.97 46.4004C137.766 46.364 137.524 46.3457 137.249 46.3457C136.291 46.3457 135.535 46.6166 135.005 47.1506C134.478 47.6821 134.119 48.4909 133.94 49.5551L133.874 49.9133H132.671C132.671 49.9133 132.525 49.9081 132.494 50.067L132.297 51.1702C132.283 51.2745 132.328 51.3408 132.469 51.3408H133.64L132.452 57.9732C132.36 58.5073 132.253 58.9462 132.134 59.2796C132.018 59.6079 131.905 59.854 131.764 60.0338C131.629 60.2058 131.501 60.3333 131.28 60.4076C131.097 60.4688 130.886 60.4975 130.656 60.4975C130.528 60.4975 130.358 60.4765 130.231 60.4505C130.106 60.4257 130.04 60.3984 129.945 60.358C129.945 60.358 129.808 60.306 129.753 60.4427C129.71 60.556 129.398 61.4143 129.36 61.5199C129.323 61.6254 129.376 61.7075 129.442 61.7322C129.598 61.7869 129.714 61.8233 129.926 61.8741C130.221 61.9432 130.47 61.9471 130.703 61.9471C131.19 61.9471 131.635 61.8781 132.004 61.7453C132.374 61.6111 132.697 61.3779 132.983 61.0627C133.292 60.7214 133.486 60.3646 133.671 59.8762C133.855 59.3942 134.012 58.795 134.137 58.097L135.332 51.3408H137.077C137.077 51.3408 137.224 51.346 137.254 51.1859L137.452 50.084C137.465 49.9785 137.421 49.9134 137.279 49.9134H135.584C135.594 49.8757 135.67 49.279 135.865 48.7177C135.948 48.4794 136.104 48.2853 136.236 48.1524C136.366 48.0221 136.516 47.9297 136.68 47.8762C136.848 47.8215 137.04 47.7955 137.249 47.7955C137.408 47.7955 137.566 47.8137 137.684 47.8384C137.848 47.8737 137.912 47.8919 137.955 47.905C138.128 47.957 138.152 47.9063 138.186 47.823L138.591 46.7106C138.633 46.5905 138.53 46.5397 138.493 46.5255ZM114.817 57.9876C114.817 58.0762 114.753 58.1478 114.664 58.1478H113.259C113.17 58.1478 113.108 58.0762 113.108 57.9876V46.6766C113.108 46.5881 113.17 46.5164 113.259 46.5164H114.664C114.753 46.5164 114.817 46.5881 114.817 46.6766V57.9876Z" fill="white"/>
</svg>
