<svg width="261" height="111" viewBox="0 0 261 111" fill="none" xmlns="http://www.w3.org/2000/svg">
<rect width="261" height="111" rx="7" fill="#F8F9FB"/>
<path fill-rule="evenodd" clip-rule="evenodd" d="M106.288 54.0944L102.925 53.3699C101.217 53.0077 100.286 51.9728 100.286 50.4204C100.286 48.454 101.993 47.0051 104.322 47.0051C107.479 47.0051 108.41 49.3337 108.669 50.0581C108.72 50.3169 108.876 50.5239 109.134 50.6274C109.341 50.7309 109.6 50.7309 109.807 50.6791L111.567 50.0581C112.032 49.9029 112.239 49.4372 112.136 48.9715C111.67 47.3673 109.962 43.5898 104.27 43.5898C100.027 43.5898 96.4566 46.8499 96.4566 50.6791C96.4566 53.9909 98.6299 56.423 102.252 57.1992L105.46 57.9236C107.427 58.3376 108.565 59.5277 108.565 61.0801C108.565 63.0982 106.909 64.3402 104.27 64.3402C101.165 64.3402 99.6648 62.2703 99.2509 60.3557C99.1474 59.89 98.6817 59.5795 98.2159 59.6312C98.1642 59.6312 98.1642 59.6312 98.1124 59.683L96.1461 60.3039C95.7321 60.4592 95.4734 60.8732 95.5251 61.2871C96.1461 64.4954 98.7334 67.8589 104.27 67.8589C108.927 67.8589 112.446 64.8059 112.446 60.7697C112.446 57.4061 110.221 54.9223 106.288 54.0944ZM126.366 57.1992C126.366 57.2509 126.366 57.3027 126.314 57.3544C126.263 57.4061 126.211 57.4061 126.159 57.4061H118.966C118.915 57.4061 118.863 57.3544 118.811 57.3544C118.759 57.3027 118.759 57.2509 118.759 57.1992C119.07 55.6985 120.363 54.1979 122.485 54.1979C124.607 54.1461 126.056 55.2845 126.366 57.1992ZM122.485 50.7826C118.708 50.7826 114.775 53.9391 114.775 59.269C114.775 61.8046 115.603 64.0297 117.207 65.5821C118.656 67.031 120.674 67.8589 122.847 67.8589C126.107 67.8589 128.746 66.1513 129.885 63.3052C129.988 63.0465 129.988 62.7878 129.885 62.5808C129.781 62.3738 129.574 62.1668 129.367 62.1151L127.763 61.5459C127.349 61.3906 126.832 61.5976 126.676 62.0116C126.004 63.6157 124.71 64.4437 122.847 64.4437C120.622 64.4437 118.915 62.943 118.604 60.7179C118.604 60.6662 118.604 60.6144 118.656 60.5627C118.656 60.5627 118.708 60.5109 118.811 60.5109H129.316C129.781 60.5109 130.195 60.1487 130.195 59.683V59.2173C130.247 54.0426 127.246 50.7826 122.485 50.7826ZM140.389 63.4087C137.854 63.4087 136.301 61.6493 136.301 58.855C136.301 56.0607 137.905 54.3014 140.389 54.3014C142.77 54.3014 144.425 56.1125 144.425 58.855C144.374 61.5459 142.77 63.4087 140.389 63.4087ZM147.065 51.3001H145.15C144.684 51.3001 144.27 51.714 144.27 52.2315C144.27 52.2832 144.219 52.3867 144.167 52.3867C144.115 52.3867 144.063 52.4385 144.012 52.3867C143.028 51.507 141.631 51.0413 139.924 51.0413C135.629 51.0413 132.524 54.3531 132.524 58.855C132.524 63.357 135.629 66.6688 139.924 66.6688C141.528 66.6688 142.977 66.1513 143.96 65.2199C144.012 65.1681 144.115 65.1681 144.115 65.1681C144.167 65.1681 144.219 65.2199 144.219 65.3233V65.996C144.219 69.1526 142.821 70.6015 139.872 70.6015C138.009 70.6015 136.508 69.4631 136.146 67.6519C136.094 67.3932 135.939 67.238 135.732 67.0827C135.525 66.9275 135.266 66.9275 135.059 66.9792L133.197 67.3932C132.731 67.4967 132.42 67.9624 132.524 68.4799C133.197 71.7399 136.146 73.965 139.872 73.965C142.666 73.965 144.788 73.1371 146.185 71.4294C147.323 70.0323 147.944 68.1177 147.944 65.8926V52.1798C147.996 51.714 147.582 51.3001 147.065 51.3001ZM169.678 50.8343C167.556 50.8343 165.849 51.6105 164.71 53.1112C164.658 53.1629 164.607 53.2147 164.555 53.2147C164.503 53.2147 164.451 53.1629 164.451 53.1629C163.52 51.714 161.864 50.8343 159.949 50.8343C158.449 50.8343 156.948 51.3518 155.965 52.2832C155.913 52.335 155.81 52.335 155.758 52.335C155.706 52.2832 155.654 52.2315 155.654 52.1798C155.654 51.6623 155.241 51.3001 154.775 51.3001H152.912C152.446 51.3001 152.032 51.714 152.032 52.1798V66.4618C152.032 66.9792 152.446 67.3415 152.912 67.3415H154.827C155.292 67.3415 155.706 66.9275 155.706 66.4618V57.7684C155.706 55.6468 157 54.2496 158.915 54.2496C161.45 54.2496 161.812 56.216 161.812 57.4061V66.5135C161.812 67.031 162.226 67.3932 162.692 67.3932H164.607C165.072 67.3932 165.486 66.9792 165.486 66.5135V57.7166C165.486 55.6468 166.78 54.1979 168.695 54.1979C171.23 54.1979 171.592 56.1642 171.592 57.3544V66.4618C171.592 66.9792 172.006 67.3415 172.472 67.3415H174.387C174.904 67.3415 175.266 66.9275 175.266 66.4618V57.0439C175.318 52.749 172.472 50.8343 169.678 50.8343ZM182.511 57.4061C182.459 57.4061 182.407 57.3544 182.356 57.3544C182.304 57.3027 182.304 57.2509 182.304 57.1992C182.614 55.6985 183.908 54.1979 186.03 54.1979C188.099 54.1979 189.548 55.3363 189.859 57.1992C189.859 57.2509 189.859 57.3027 189.807 57.3544C189.755 57.4061 189.704 57.4061 189.652 57.4061H182.511ZM186.03 50.8343C182.252 50.8343 178.319 53.9909 178.319 59.3208C178.319 61.8563 179.147 64.0814 180.751 65.6338C182.2 67.0827 184.219 67.8589 186.392 67.8589C189.652 67.8589 192.239 66.1513 193.429 63.3052C193.533 63.0465 193.533 62.7878 193.429 62.5808C193.326 62.3738 193.119 62.1668 192.912 62.1151L191.308 61.5459C190.842 61.3906 190.376 61.5976 190.221 62.0116C189.548 63.6157 188.255 64.4437 186.392 64.4437C184.167 64.4437 182.459 62.943 182.149 60.7179C182.149 60.6662 182.149 60.6144 182.2 60.5627C182.2 60.5627 182.252 60.5109 182.356 60.5109H192.86C193.326 60.5109 193.74 60.1487 193.74 59.683V59.2173C193.74 54.0426 190.79 50.7826 186.03 50.8343ZM205.072 50.8343C203.468 50.8343 202.071 51.4036 200.984 52.4385C200.933 52.4902 200.881 52.4902 200.777 52.4902C200.726 52.4385 200.674 52.3867 200.674 52.335V52.2315C200.674 51.714 200.26 51.3518 199.794 51.3518H197.931C197.414 51.3518 197.052 51.7658 197.052 52.2315V66.5135C197.052 67.031 197.466 67.3932 197.931 67.3932H199.846C200.363 67.3932 200.726 66.9792 200.726 66.5135V58.1306C200.726 56.2677 201.554 54.2496 203.934 54.2496C206.056 54.2496 207.142 55.4398 207.142 57.7684V66.4618C207.142 66.9792 207.556 67.3415 208.022 67.3415H209.936C210.454 67.3415 210.816 66.9275 210.816 66.4618V57.3026C210.92 53.3182 208.695 50.8343 205.072 50.8343ZM219.924 54.7153H222.2C222.718 54.7153 223.08 54.3014 223.08 53.8356V52.1798C223.08 51.6623 222.666 51.3001 222.2 51.3001H219.924C219.82 51.3001 219.717 51.1966 219.717 51.1448V47.3673C219.717 46.8499 219.303 46.4876 218.837 46.4876H217.181C216.664 46.4876 216.301 46.9016 216.301 47.3673V49.3337C216.301 50.2651 215.939 51.3518 214.283 51.3518H213.973C213.455 51.3518 213.093 51.7658 213.093 52.2315V53.8874C213.093 54.4049 213.507 54.7671 213.973 54.7671H215.836C215.939 54.7671 216.043 54.8706 216.043 54.9223V62.8395C216.043 65.7373 217.802 67.5484 220.7 67.5484C221.476 67.5484 222.097 67.445 222.407 67.3932C222.821 67.2897 223.08 66.9275 223.08 66.5135V65.0129C223.08 64.4954 222.666 64.1332 222.2 64.1332H222.097C221.89 64.1332 221.683 64.1849 221.528 64.1849C220.234 64.1849 219.717 63.7192 219.717 62.4255V54.9223C219.717 54.8188 219.82 54.7153 219.924 54.7153Z" fill="#43AF79"/>
<path fill-rule="evenodd" clip-rule="evenodd" d="M63.8564 62.3221H39.0699C37.9314 62.3221 37 61.3907 37 60.2522C37 59.1138 37.9314 58.1824 39.0699 58.1824H63.8564C64.9948 58.1824 65.9263 59.1138 65.9263 60.2522C65.9263 61.3907 64.9948 62.3221 63.8564 62.3221Z" fill="#93C8A2"/>
<path fill-rule="evenodd" clip-rule="evenodd" d="M58.5781 75.0001C56.5599 75.0001 54.5418 74.6896 52.6272 74.1204C51.5405 73.7581 50.9196 72.6197 51.2818 71.5331C51.644 70.4464 52.7825 69.8254 53.8691 70.1876C55.3698 70.6534 56.9739 70.9121 58.5781 70.9121C65.5638 70.8603 71.6699 66.3584 73.7398 59.6314C74.0502 58.5447 75.2404 57.9237 76.3271 58.2342C77.4138 58.5447 78.0347 59.7349 77.7242 60.8215C75.0852 69.308 67.4267 75.0001 58.5781 75.0001Z" fill="#43AF79"/>
<path fill-rule="evenodd" clip-rule="evenodd" d="M78.0351 51.8177H53.2486C52.1101 51.8177 51.1787 50.8863 51.1787 49.7478C51.1787 48.6094 52.1101 47.678 53.2486 47.678H78.0351C79.1735 47.678 80.105 48.6094 80.105 49.7478C80.105 50.8863 79.1735 51.8177 78.0351 51.8177Z" fill="#93C8A2"/>
<path fill-rule="evenodd" clip-rule="evenodd" d="M41.3985 51.8176C40.26 51.8176 39.3286 50.8862 39.3286 49.7477C39.3286 49.5407 39.3804 49.3338 39.4321 49.1268C42.0194 40.6921 49.7296 35 58.5783 35C60.5964 35 62.6145 35.3105 64.5291 35.8797C65.6158 36.2419 66.2368 37.3803 65.8745 38.467C65.5123 39.5537 64.3739 40.1746 63.2872 39.8124C61.7866 39.3467 60.1824 39.088 58.5783 39.088C51.5408 39.088 45.4347 43.5899 43.4166 50.3169C43.1061 51.1966 42.3299 51.8176 41.3985 51.8176Z" fill="#43AF79"/>
<path fill-rule="evenodd" clip-rule="evenodd" d="M72.9121 41.8306C72.9121 42.969 71.9807 43.9005 70.8423 43.9005C69.7039 43.9005 68.7724 42.969 68.7724 41.8306C68.7724 40.6922 69.7039 39.7607 70.8423 39.7607C71.9807 39.7607 72.9121 40.6922 72.9121 41.8306ZM48.3326 68.1178C48.3326 69.2562 47.4011 70.1876 46.2627 70.1876C45.1243 70.1876 44.1929 69.2562 44.1929 68.1178C44.1929 66.9794 45.1243 66.0479 46.2627 66.0479C47.4011 66.0479 48.3326 66.9794 48.3326 68.1178Z" fill="#93C8A2"/>
</svg>
