<svg width="173" height="173" viewBox="0 0 173 173" fill="none" xmlns="http://www.w3.org/2000/svg">
<path d="M109.649 0L106.662 1.52975L86.4782 11.8828L63.2999 0.0145L49.1696 21.8878L23.1638 23.2001L21.8661 49.2131L0 63.3507L11.8828 86.5218L0.0145 109.7L21.8878 123.83L23.2001 149.836L49.2131 151.134L63.3507 173L86.5218 161.117L109.7 172.986L123.83 151.112L149.836 149.8L151.134 123.787L173 109.649L161.117 86.4782L172.986 63.2999L151.112 49.1696L149.8 23.1638L123.787 21.8661L109.649 0ZM107.061 9.67153L119.618 29.0943L142.724 30.2398L143.891 53.3457L163.314 65.8954L152.78 86.4782L163.328 107.061L143.906 119.618L142.76 142.724L119.654 143.891L107.105 163.314L86.5218 152.78L65.9389 163.328L53.3819 143.906L30.2761 142.76L29.1088 119.654L9.68603 107.105L20.2203 86.5218L9.67153 65.9389L29.0943 53.3819L30.2398 30.2761L53.3457 29.1088L65.8954 9.68603L86.4782 20.2203L107.061 9.67153ZM114.246 62.2414L95.3124 80.5949L76.379 98.9483L58.8122 81.3815L50.9386 89.255L76.2557 114.572L121.996 70.2382L114.246 62.2414Z" fill="white"/>
</svg>
