<svg width="51" height="51" viewBox="0 0 51 51" fill="none" xmlns="http://www.w3.org/2000/svg">
<mask id="path-1-inside-1" fill="white">
<path d="M50.2529 24.753H46.3584V14.7512C46.3584 14.3386 46.024 14.0041 45.6113 14.0041C45.1986 14.0041 44.8642 14.3386 44.8642 14.7512V24.753H43.2644V1.49415H44.8642V11.496C44.8642 11.9085 45.1986 12.243 45.6113 12.243C46.024 12.243 46.3584 11.9085 46.3584 11.496V0.747073C46.3584 0.33449 46.024 0 45.6113 0H42.5173C42.1046 0 41.7703 0.33449 41.7703 0.747073V3.09428H31.6883C31.2756 3.09428 30.9412 3.42877 30.9412 3.84135V6.18876H22.4062C21.7352 6.32771 21.5281 6.71479 21.7847 7.3502L24.6022 11.5766L21.7847 15.8031C21.5281 16.4385 21.7352 16.8256 22.4062 16.9645H34.7478C35.1605 16.9645 35.4948 16.6301 35.4948 16.2175V13.8708H41.7703V24.753H37.8765C37.4638 24.753 37.1294 25.0875 37.1294 25.5001V30.9408H33.3165C32.9038 30.9408 32.5694 31.2753 32.5694 31.6879C32.5694 32.1004 32.9038 32.4349 33.3165 32.4349H37.1294V49.5061H26.2472V32.4349H30.0602C30.4729 32.4349 30.8073 32.1004 30.8073 31.6879C30.8073 31.2753 30.4729 30.9408 30.0602 30.9408H25.5001C25.0874 30.9408 24.753 31.2753 24.753 31.6879V37.1294H13.1237C12.711 37.1294 12.3766 37.4639 12.3766 37.8765V43.3173H8.10027C7.68758 43.3173 7.35319 43.6518 7.35319 44.0644C7.35319 44.477 7.68758 44.8114 8.10027 44.8114H12.3765V49.5061H1.49415V44.8114H4.84402C5.25671 44.8114 5.5911 44.477 5.5911 44.0644C5.5911 43.6518 5.25671 43.3173 4.84402 43.3173H0.747073C0.33439 43.3173 0 43.6518 0 44.0644V50.2531C0 50.6657 0.33439 51.0002 0.747073 51.0002L50.2529 51C50.6656 51 51 50.6655 51 50.2529V25.5001C51 25.0875 50.6656 24.753 50.2529 24.753ZM34.0008 15.4704H23.8022L26.1217 11.991C26.289 11.7401 26.289 11.4132 26.1217 11.1623L23.8022 7.6829H30.9412V13.1237C30.9412 13.5363 31.2756 13.8708 31.6883 13.8708H34.0008V15.4704ZM32.4353 12.3766V4.58842H41.7704V12.3766H32.4353ZM13.8708 38.6236H24.753V49.5059H13.8708V38.6236ZM49.5059 49.5059H38.6237L38.6236 26.2472H49.5059V49.5059Z"/>
</mask>
<path d="M50.2529 24.753H46.3584V14.7512C46.3584 14.3386 46.024 14.0041 45.6113 14.0041C45.1986 14.0041 44.8642 14.3386 44.8642 14.7512V24.753H43.2644V1.49415H44.8642V11.496C44.8642 11.9085 45.1986 12.243 45.6113 12.243C46.024 12.243 46.3584 11.9085 46.3584 11.496V0.747073C46.3584 0.33449 46.024 0 45.6113 0H42.5173C42.1046 0 41.7703 0.33449 41.7703 0.747073V3.09428H31.6883C31.2756 3.09428 30.9412 3.42877 30.9412 3.84135V6.18876H22.4062C21.7352 6.32771 21.5281 6.71479 21.7847 7.3502L24.6022 11.5766L21.7847 15.8031C21.5281 16.4385 21.7352 16.8256 22.4062 16.9645H34.7478C35.1605 16.9645 35.4948 16.6301 35.4948 16.2175V13.8708H41.7703V24.753H37.8765C37.4638 24.753 37.1294 25.0875 37.1294 25.5001V30.9408H33.3165C32.9038 30.9408 32.5694 31.2753 32.5694 31.6879C32.5694 32.1004 32.9038 32.4349 33.3165 32.4349H37.1294V49.5061H26.2472V32.4349H30.0602C30.4729 32.4349 30.8073 32.1004 30.8073 31.6879C30.8073 31.2753 30.4729 30.9408 30.0602 30.9408H25.5001C25.0874 30.9408 24.753 31.2753 24.753 31.6879V37.1294H13.1237C12.711 37.1294 12.3766 37.4639 12.3766 37.8765V43.3173H8.10027C7.68758 43.3173 7.35319 43.6518 7.35319 44.0644C7.35319 44.477 7.68758 44.8114 8.10027 44.8114H12.3765V49.5061H1.49415V44.8114H4.84402C5.25671 44.8114 5.5911 44.477 5.5911 44.0644C5.5911 43.6518 5.25671 43.3173 4.84402 43.3173H0.747073C0.33439 43.3173 0 43.6518 0 44.0644V50.2531C0 50.6657 0.33439 51.0002 0.747073 51.0002L50.2529 51C50.6656 51 51 50.6655 51 50.2529V25.5001C51 25.0875 50.6656 24.753 50.2529 24.753ZM34.0008 15.4704H23.8022L26.1217 11.991C26.289 11.7401 26.289 11.4132 26.1217 11.1623L23.8022 7.6829H30.9412V13.1237C30.9412 13.5363 31.2756 13.8708 31.6883 13.8708H34.0008V15.4704ZM32.4353 12.3766V4.58842H41.7704V12.3766H32.4353ZM13.8708 38.6236H24.753V49.5059H13.8708V38.6236ZM49.5059 49.5059H38.6237L38.6236 26.2472H49.5059V49.5059Z" fill="#83C6F2"/>
<path d="M46.3584 24.753H44.5998V26.5117H46.3584V24.753ZM44.8642 24.753V26.5117H46.6229V24.753H44.8642ZM43.2644 24.753H41.5058V26.5117H43.2644V24.753ZM43.2644 1.49415V-0.264481H41.5058V1.49415H43.2644ZM44.8642 1.49415H46.6229V-0.264481H44.8642V1.49415ZM41.7703 3.09428V4.85291H43.5289V3.09428H41.7703ZM30.9412 6.18876V7.94738H32.6998V6.18876H30.9412ZM22.4062 6.18876V4.43013H22.226L22.0496 4.46667L22.4062 6.18876ZM21.7847 7.3502L20.154 8.00872L20.2214 8.17578L20.3214 8.3257L21.7847 7.3502ZM24.6022 11.5766L26.0655 12.5521L26.7158 11.5766L26.0655 10.6012L24.6022 11.5766ZM21.7847 15.8031L20.3214 14.8276L20.2214 14.9775L20.154 15.1446L21.7847 15.8031ZM22.4062 16.9645L22.0496 18.6866L22.226 18.7232H22.4062V16.9645ZM35.4948 13.8708V12.1121H33.7362V13.8708H35.4948ZM41.7703 13.8708H43.5289V12.1121H41.7703V13.8708ZM41.7703 24.753V26.5117H43.5289V24.753H41.7703ZM37.1294 30.9408V32.6994H38.8881V30.9408H37.1294ZM37.1294 32.4349H38.8881V30.6763H37.1294V32.4349ZM37.1294 49.5061V51.2647H38.8881V49.5061H37.1294ZM26.2472 49.5061H24.4885V51.2647H26.2472V49.5061ZM26.2472 32.4349V30.6763H24.4885V32.4349H26.2472ZM24.753 37.1294V38.8881H26.5117V37.1294H24.753ZM12.3766 43.3173V45.0759H14.1352V43.3173H12.3766ZM12.3765 44.8114H14.1351V43.0528H12.3765V44.8114ZM12.3765 49.5061V51.2647H14.1351V49.5061H12.3765ZM1.49415 49.5061H-0.264481V51.2647H1.49415V49.5061ZM1.49415 44.8114V43.0528H-0.264481V44.8114H1.49415ZM0.747073 51.0002V52.7588H0.74708L0.747073 51.0002ZM50.2529 51V49.2414H50.2529L50.2529 51ZM34.0008 15.4704V17.229H35.7594V15.4704H34.0008ZM23.8022 15.4704L22.3389 14.4949L20.5162 17.229H23.8022V15.4704ZM26.1217 11.991L24.6586 11.0152L24.6584 11.0155L26.1217 11.991ZM26.1217 11.1623L24.6584 12.1378L24.6586 12.1381L26.1217 11.1623ZM23.8022 7.6829V5.92427H20.5162L22.3389 8.65839L23.8022 7.6829ZM30.9412 7.6829H32.6998V5.92427H30.9412V7.6829ZM34.0008 13.8708H35.7594V12.1121H34.0008V13.8708ZM32.4353 12.3766H30.6767V14.1352H32.4353V12.3766ZM32.4353 4.58842V2.8298H30.6767V4.58842H32.4353ZM41.7704 4.58842H43.529V2.8298H41.7704V4.58842ZM41.7704 12.3766V14.1352H43.529V12.3766H41.7704ZM13.8708 38.6236V36.865H12.1121V38.6236H13.8708ZM24.753 38.6236H26.5117V36.865H24.753V38.6236ZM24.753 49.5059V51.2645H26.5117V49.5059H24.753ZM13.8708 49.5059H12.1121V51.2645H13.8708V49.5059ZM49.5059 49.5059V51.2645H51.2645V49.5059H49.5059ZM38.6237 49.5059L36.8651 49.5059L36.8651 51.2645H38.6237V49.5059ZM38.6236 26.2472V24.4885H36.865L36.865 26.2472L38.6236 26.2472ZM49.5059 26.2472H51.2645V24.4885H49.5059V26.2472ZM50.2529 22.9944H46.3584V26.5117H50.2529V22.9944ZM48.117 24.753V14.7512H44.5998V24.753H48.117ZM48.117 14.7512C48.117 13.3675 46.9954 12.2455 45.6113 12.2455V15.7628C45.0526 15.7628 44.5998 15.3097 44.5998 14.7512H48.117ZM45.6113 12.2455C44.2272 12.2455 43.1056 13.3675 43.1056 14.7512H46.6229C46.6229 15.3097 46.17 15.7628 45.6113 15.7628V12.2455ZM43.1056 14.7512V24.753H46.6229V14.7512H43.1056ZM44.8642 22.9944H43.2644V26.5117H44.8642V22.9944ZM45.023 24.753V1.49415H41.5058V24.753H45.023ZM43.2644 3.25277H44.8642V-0.264481H43.2644V3.25277ZM43.1056 1.49415V11.496H46.6229V1.49415H43.1056ZM43.1056 11.496C43.1056 12.8797 44.2272 14.0017 45.6113 14.0017V10.4844C46.17 10.4844 46.6229 10.9374 46.6229 11.496H43.1056ZM45.6113 14.0017C46.9954 14.0017 48.117 12.8797 48.117 11.496H44.5998C44.5998 10.9374 45.0526 10.4844 45.6113 10.4844V14.0017ZM48.117 11.496V0.747073H44.5998V11.496H48.117ZM48.117 0.747073C48.117 -0.636621 46.9954 -1.75863 45.6113 -1.75863V1.75863C45.0526 1.75863 44.5998 1.3056 44.5998 0.747073H48.117ZM45.6113 -1.75863H42.5173V1.75863H45.6113V-1.75863ZM42.5173 -1.75863C41.1332 -1.75863 40.0116 -0.636621 40.0116 0.747073H43.5289C43.5289 1.3056 43.0761 1.75863 42.5173 1.75863V-1.75863ZM40.0116 0.747073V3.09428H43.5289V0.747073H40.0116ZM41.7703 1.33565H31.6883V4.85291H41.7703V1.33565ZM31.6883 1.33565C30.3042 1.33565 29.1826 2.45766 29.1826 3.84135H32.6998C32.6998 4.39988 32.247 4.85291 31.6883 4.85291V1.33565ZM29.1826 3.84135V6.18876H32.6998V3.84135H29.1826ZM30.9412 4.43013H22.4062V7.94738H30.9412V4.43013ZM22.0496 4.46667C21.4901 4.58254 20.6576 4.89303 20.1971 5.75349C19.7366 6.61395 19.94 7.47887 20.154 8.00872L23.4153 6.69169C23.3727 6.58613 23.5515 6.93981 23.2981 7.41313C23.0448 7.88646 22.6514 7.93392 22.7629 7.91084L22.0496 4.46667ZM20.3214 8.3257L23.1389 12.5521L26.0655 10.6012L23.2479 6.37471L20.3214 8.3257ZM23.1389 10.6012L20.3214 14.8276L23.2479 16.7786L26.0655 12.5521L23.1389 10.6012ZM20.154 15.1446C19.94 15.6744 19.7366 16.5393 20.1971 17.3998C20.6576 18.2603 21.4901 18.5708 22.0496 18.6866L22.7629 15.2425C22.6514 15.2194 23.0448 15.2668 23.2981 15.7402C23.5515 16.2135 23.3727 16.5672 23.4153 16.4616L20.154 15.1446ZM22.4062 18.7232H34.7478V15.2059H22.4062V18.7232ZM34.7478 18.7232C36.1319 18.7232 37.2535 17.6012 37.2535 16.2175H33.7362C33.7362 15.6589 34.189 15.2059 34.7478 15.2059V18.7232ZM37.2535 16.2175V13.8708H33.7362V16.2175H37.2535ZM35.4948 15.6294H41.7703V12.1121H35.4948V15.6294ZM40.0116 13.8708V24.753H43.5289V13.8708H40.0116ZM41.7703 22.9944H37.8765V26.5117H41.7703V22.9944ZM37.8765 22.9944C36.4924 22.9944 35.3708 24.1164 35.3708 25.5001H38.8881C38.8881 26.0586 38.4352 26.5117 37.8765 26.5117V22.9944ZM35.3708 25.5001V30.9408H38.8881V25.5001H35.3708ZM37.1294 29.1822H33.3165V32.6994H37.1294V29.1822ZM33.3165 29.1822C31.9324 29.1822 30.8108 30.3042 30.8108 31.6879H34.328C34.328 32.2464 33.8752 32.6994 33.3165 32.6994V29.1822ZM30.8108 31.6879C30.8108 33.0716 31.9324 34.1936 33.3165 34.1936V30.6763C33.8752 30.6763 34.328 31.1293 34.328 31.6879H30.8108ZM33.3165 34.1936H37.1294V30.6763H33.3165V34.1936ZM35.3708 32.4349V49.5061H38.8881V32.4349H35.3708ZM37.1294 47.7474H26.2472V51.2647H37.1294V47.7474ZM28.0058 49.5061V32.4349H24.4885V49.5061H28.0058ZM26.2472 34.1936H30.0602V30.6763H26.2472V34.1936ZM30.0602 34.1936C31.4443 34.1936 32.5659 33.0716 32.5659 31.6879H29.0487C29.0487 31.1293 29.5015 30.6763 30.0602 30.6763V34.1936ZM32.5659 31.6879C32.5659 30.3042 31.4443 29.1822 30.0602 29.1822V32.6994C29.5015 32.6994 29.0487 32.2464 29.0487 31.6879H32.5659ZM30.0602 29.1822H25.5001V32.6994H30.0602V29.1822ZM25.5001 29.1822C24.116 29.1822 22.9944 30.3042 22.9944 31.6879H26.5117C26.5117 32.2464 26.0588 32.6994 25.5001 32.6994V29.1822ZM22.9944 31.6879V37.1294H26.5117V31.6879H22.9944ZM24.753 35.3708H13.1237V38.8881H24.753V35.3708ZM13.1237 35.3708C11.7396 35.3708 10.618 36.4928 10.618 37.8765H14.1352C14.1352 38.435 13.6824 38.8881 13.1237 38.8881V35.3708ZM10.618 37.8765V43.3173H14.1352V37.8765H10.618ZM12.3766 41.5587H8.10027V45.0759H12.3766V41.5587ZM8.10027 41.5587C6.71617 41.5587 5.59457 42.6807 5.59457 44.0644H9.11182C9.11182 44.6229 8.659 45.0759 8.10027 45.0759V41.5587ZM5.59457 44.0644C5.59457 45.4481 6.71617 46.5701 8.10027 46.5701V43.0528C8.659 43.0528 9.11182 43.5058 9.11182 44.0644H5.59457ZM8.10027 46.5701H12.3765V43.0528H8.10027V46.5701ZM10.6179 44.8114V49.5061H14.1351V44.8114H10.6179ZM12.3765 47.7474H1.49415V51.2647H12.3765V47.7474ZM3.25277 49.5061V44.8114H-0.264481V49.5061H3.25277ZM1.49415 46.5701H4.84402V43.0528H1.49415V46.5701ZM4.84402 46.5701C6.22812 46.5701 7.34972 45.4481 7.34972 44.0644H3.83247C3.83247 43.5058 4.28529 43.0528 4.84402 43.0528V46.5701ZM7.34972 44.0644C7.34972 42.6807 6.22812 41.5587 4.84402 41.5587V45.0759C4.28529 45.0759 3.83247 44.6229 3.83247 44.0644H7.34972ZM4.84402 41.5587H0.747073V45.0759H4.84402V41.5587ZM0.747073 41.5587C-0.637026 41.5587 -1.75863 42.6807 -1.75863 44.0644H1.75863C1.75863 44.6229 1.30581 45.0759 0.747073 45.0759V41.5587ZM-1.75863 44.0644V50.2531H1.75863V44.0644H-1.75863ZM-1.75863 50.2531C-1.75863 51.6368 -0.637026 52.7588 0.747073 52.7588V49.2416C1.30581 49.2416 1.75863 49.6946 1.75863 50.2531H-1.75863ZM0.74708 52.7588L50.2529 52.7586L50.2529 49.2414L0.747066 49.2416L0.74708 52.7588ZM50.2529 52.7586C51.637 52.7586 52.7586 51.6366 52.7586 50.2529H49.2414C49.2414 49.6944 49.6942 49.2414 50.2529 49.2414V52.7586ZM52.7586 50.2529V25.5001H49.2414V50.2529H52.7586ZM52.7586 25.5001C52.7586 24.1164 51.637 22.9944 50.2529 22.9944V26.5117C49.6942 26.5117 49.2414 26.0586 49.2414 25.5001H52.7586ZM34.0008 13.7118H23.8022V17.229H34.0008V13.7118ZM25.2654 16.4459L27.5849 12.9665L24.6584 11.0155L22.3389 14.4949L25.2654 16.4459ZM27.5848 12.9668C28.1462 12.125 28.1462 11.0283 27.5848 10.1865L24.6586 12.1381C24.4319 11.7981 24.4319 11.3552 24.6586 11.0152L27.5848 12.9668ZM27.5849 10.1868L25.2654 6.70741L22.3389 8.65839L24.6584 12.1378L27.5849 10.1868ZM23.8022 9.44153H30.9412V5.92427H23.8022V9.44153ZM29.1826 7.6829V13.1237H32.6998V7.6829H29.1826ZM29.1826 13.1237C29.1826 14.5074 30.3042 15.6294 31.6883 15.6294V12.1121C32.247 12.1121 32.6998 12.5652 32.6998 13.1237H29.1826ZM31.6883 15.6294H34.0008V12.1121H31.6883V15.6294ZM32.2422 13.8708V15.4704H35.7594V13.8708H32.2422ZM34.194 12.3766V4.58842H30.6767V12.3766H34.194ZM32.4353 6.34705H41.7704V2.8298H32.4353V6.34705ZM40.0117 4.58842V12.3766H43.529V4.58842H40.0117ZM41.7704 10.618H32.4353V14.1352H41.7704V10.618ZM13.8708 40.3822H24.753V36.865H13.8708V40.3822ZM22.9944 38.6236V49.5059H26.5117V38.6236H22.9944ZM24.753 47.7472H13.8708V51.2645H24.753V47.7472ZM15.6294 49.5059V38.6236H12.1121V49.5059H15.6294ZM49.5059 47.7472H38.6237V51.2645H49.5059V47.7472ZM40.3823 49.5058L40.3822 26.2472L36.865 26.2472L36.8651 49.5059L40.3823 49.5058ZM38.6236 28.0058H49.5059V24.4885H38.6236V28.0058ZM47.7472 26.2472V49.5059H51.2645V26.2472H47.7472Z" fill="#83C6F2" mask="url(#path-1-inside-1)"/>
</svg>
