<svg width="56" height="56" viewBox="0 0 56 56" fill="none" xmlns="http://www.w3.org/2000/svg">
<path d="M28.9635 1.92734C24.6374 1.92734 20.3727 2.96962 16.5507 4.95045L12.0817 0.481277C11.6865 0.0858108 11.117 -0.0813124 10.5707 0.0376232C10.0244 0.156559 9.57609 0.545235 9.38082 1.06917L7.12411 7.12426L1.06912 9.38086C0.545192 9.57613 0.156516 10.0245 0.03758 10.5708C-0.0812461 11.117 0.0857675 11.6864 0.481234 12.0818L4.9503 16.5509C2.96946 20.3729 1.92719 24.6376 1.92719 28.9636C1.92719 43.8715 14.0556 56 28.9635 56C43.8714 56 56 43.8715 56 28.9636C56 14.0557 43.8714 1.92734 28.9635 1.92734ZM28.9635 37.8617C33.8699 37.8617 37.8616 33.8701 37.8616 28.9636C37.8616 24.0571 33.8699 20.0656 28.9635 20.0656C27.1026 20.0656 25.374 20.6408 23.9443 21.6213L19.8136 17.4906C22.325 15.4838 25.5063 14.2819 28.9635 14.2819C37.059 14.2819 43.6452 20.8681 43.6452 28.9636C43.6452 37.0591 37.059 43.6454 28.9635 43.6454C20.868 43.6454 14.2818 37.0591 14.2818 28.9636C14.2818 25.5065 15.4837 22.3251 17.4904 19.8138L21.6211 23.9444C20.6406 25.3742 20.0654 27.1027 20.0654 28.9636C20.0654 33.87 24.0571 37.8617 28.9635 37.8617ZM30.1251 27.802L26.3314 24.0083C27.117 23.5894 28.0129 23.351 28.9635 23.351C32.0583 23.351 34.5761 25.8688 34.5761 28.9635C34.5761 32.0582 32.0583 34.576 28.9635 34.576C25.8687 34.576 23.3509 32.0582 23.3509 28.9635C23.3509 28.0128 23.5893 27.1172 24.0083 26.3315L27.8019 30.1252C28.1227 30.4459 28.5431 30.6063 28.9635 30.6063C29.3839 30.6063 29.8043 30.4458 30.125 30.1252C30.7667 29.4837 30.7667 28.4435 30.1251 27.802ZM11.5666 4.61248L17.0945 10.1406L16.3839 14.0607L10.3092 7.98616L11.5666 4.61248ZM4.61244 11.5666L7.98611 10.3093L14.0608 16.3839L10.1405 17.0947L4.61244 11.5666ZM28.9635 52.7145C15.8673 52.7145 5.2127 42.0599 5.2127 28.9636C5.2127 25.5161 5.9664 22.1136 7.40535 19.0059L8.4255 20.026C8.73631 20.337 9.15532 20.5073 9.58704 20.5073C9.6844 20.5073 9.78242 20.4986 9.8801 20.481L13.5002 19.8247C11.9107 22.5041 10.9964 25.6288 10.9964 28.9636C10.9964 38.8708 19.0564 46.9309 28.9636 46.9309C38.8707 46.9309 46.9309 38.8708 46.9309 28.9636C46.9309 19.0565 38.8707 10.9963 28.9636 10.9963C25.6288 10.9963 22.504 11.9107 19.8247 13.5002L20.4809 9.88015C20.577 9.35008 20.407 8.80644 20.0261 8.42554L19.0059 7.40539C22.1136 5.96644 25.5161 5.21275 28.9637 5.21275C42.06 5.21275 52.7146 15.8673 52.7146 28.9635C52.7145 42.0599 42.0597 52.7145 28.9635 52.7145Z" fill="#83C6F2"/>
</svg>
