<svg width="48" height="49" viewBox="0 0 48 49" fill="none" xmlns="http://www.w3.org/2000/svg">
<rect width="47.0464" height="48.6576" fill="#83C6F2"/>
<path d="M29.4019 36.723C29.4016 36.7199 29.4013 36.7168 29.4009 36.7138L26.6722 12.8301L25.2703 13.4303C24.7545 13.6512 24.2126 13.7615 23.6708 13.7615C23.1289 13.7615 22.5871 13.6512 22.0715 13.4304L20.6694 12.8301L17.9407 36.7138C17.9403 36.7168 17.94 36.7199 17.9397 36.723C17.8434 37.669 18.14 38.6281 18.7532 39.3546L20.9764 41.9882C21.6478 42.7836 22.6298 43.2397 23.6708 43.2397C24.7117 43.2397 25.6937 42.7836 26.3651 41.9882L28.5883 39.3546C29.2016 38.6281 29.4981 37.669 29.4019 36.723Z" fill="white"/>
<path d="M27.4331 4.72656H19.9086C19.2855 4.72656 18.7803 5.23175 18.7803 5.85488V7.93513C18.7803 8.9279 19.3051 9.79407 20.1174 10.1417L22.9587 11.3584C23.4179 11.5551 23.9238 11.555 24.3833 11.3584L27.2244 10.1417C28.0366 9.79407 28.5615 8.9279 28.5615 7.93513V5.85488C28.5615 5.23175 28.0563 4.72656 27.4331 4.72656Z" fill="white"/>
</svg>
