<svg width="52" height="52" viewBox="0 0 52 52" fill="none" xmlns="http://www.w3.org/2000/svg">
<path d="M26 0C11.6406 0 0 11.6406 0 26C0 40.3594 11.6406 52 26 52C40.3594 52 52 40.3594 52 26C51.9837 11.6474 40.3526 0.01625 26 0ZM26 50.2667C12.5979 50.2667 1.73333 39.4021 1.73333 26C1.73333 12.5979 12.5979 1.73333 26 1.73333C39.4021 1.73333 50.2667 12.5979 50.2667 26C50.2514 39.3957 39.3957 50.2514 26 50.2667Z" fill="#83C6F2"/>
<path d="M25.9997 4.33398C14.0335 4.33398 4.33301 14.0345 4.33301 26.0007C4.33301 37.9668 14.0335 47.6673 25.9997 47.6673C37.9658 47.6673 47.6663 37.9668 47.6663 26.0007C47.653 14.04 37.9603 4.34731 25.9997 4.33398ZM25.9997 45.934C14.9908 45.934 6.06634 37.0095 6.06634 26.0007C6.06634 14.9918 14.9908 6.06732 25.9997 6.06732C37.0085 6.06732 45.933 14.9918 45.933 26.0007C45.9205 37.0044 37.0034 45.9215 25.9997 45.934Z" fill="#83C6F2"/>
<path d="M26.8661 8.66602H25.1328V10.3993H26.8661V8.66602Z" fill="#83C6F2"/>
<path d="M26.8661 41.5996H25.1328V43.3329H26.8661V41.5996Z" fill="#83C6F2"/>
<path d="M18.0822 10.5574L16.582 11.4238L17.4484 12.924L18.9486 12.0576L18.0822 10.5574Z" fill="#83C6F2"/>
<path d="M34.5441 39.073L33.0439 39.9395L33.9104 41.4396L35.4105 40.5732L34.5441 39.073Z" fill="#83C6F2"/>
<path d="M11.4214 16.5829L10.5547 18.084L12.0558 18.9507L12.9224 17.4496L11.4214 16.5829Z" fill="#83C6F2"/>
<path d="M39.9399 33.0536L39.0732 34.5547L40.5743 35.4214L41.441 33.9203L39.9399 33.0536Z" fill="#83C6F2"/>
<path d="M10.4003 25.1328H8.66699V26.8661H10.4003V25.1328Z" fill="#83C6F2"/>
<path d="M43.3339 25.1328H41.6006V26.8661H43.3339V25.1328Z" fill="#83C6F2"/>
<path d="M12.0559 33.0515L10.5547 33.918L11.4212 35.4192L12.9224 34.5527L12.0559 33.0515Z" fill="#83C6F2"/>
<path d="M40.5743 16.5826L39.0732 17.4492L39.9399 18.9503L41.441 18.0836L40.5743 16.5826Z" fill="#83C6F2"/>
<path d="M17.4436 39.076L16.5771 40.5762L18.0773 41.4426L18.9437 39.9424L17.4436 39.076Z" fill="#83C6F2"/>
<path d="M33.9152 10.5585L33.0488 12.0586L34.549 12.925L35.4154 11.4249L33.9152 10.5585Z" fill="#83C6F2"/>
<path d="M25.1331 12.1328V25.5089L16.8867 30.4567L17.7794 31.9422L26.4461 26.7422C26.7068 26.5856 26.8664 26.3037 26.8664 25.9995V12.1328H25.1331Z" fill="#83C6F2"/>
</svg>
