<svg width="24" height="23" viewBox="0 0 24 23" fill="none" xmlns="http://www.w3.org/2000/svg">
<path fill-rule="evenodd" clip-rule="evenodd" d="M14.6063 5.8533C14.1852 5.85312 13.7694 5.94643 13.3887 6.1265C13.0081 6.30657 12.6722 6.56889 12.4053 6.89455C12.1384 7.2202 11.9471 7.60106 11.8452 8.00962C11.7434 8.41818 11.7335 8.84427 11.8163 9.25711C11.8448 9.40015 11.839 9.54792 11.7993 9.68827C11.7596 9.82862 11.6871 9.95754 11.5879 10.0644C11.4886 10.1713 11.3654 10.2531 11.2284 10.3031C11.0914 10.3531 10.9445 10.3699 10.7997 10.3521C8.81781 10.1086 6.94953 9.29393 5.42254 8.00729C5.45111 8.56215 5.64375 9.15204 6.06127 9.76957L6.6871 10.695L5.65941 11.1328L5.46125 11.2176C5.60872 11.3862 5.78569 11.5586 5.98385 11.7291C6.24876 11.9558 6.52901 12.164 6.82259 12.3522L6.83273 12.3586H6.83365L8.26043 13.2241L6.76729 13.9706C6.69355 14.0075 6.61982 14.0407 6.54608 14.0702C6.86715 14.337 7.22084 14.5618 7.59866 14.7393L8.87981 15.3449L7.80696 16.2703C7.22168 16.7754 6.63272 17.1523 5.86864 17.3514C7.04051 17.9756 8.3484 18.3008 9.67616 18.298C14.1058 18.298 17.6728 14.7633 17.6728 10.4323V9.95299L18.0645 9.6774C18.6765 9.24789 19.1088 8.66722 19.4185 8.00268H17.4276L17.1769 7.47732C16.946 6.99128 16.5821 6.58069 16.1272 6.29323C15.6724 6.00576 15.1453 5.85322 14.6072 5.8533H14.6063ZM4.20959 12.5817C4.12262 12.6813 4.05809 12.7984 4.0204 12.9252C3.98271 13.0519 3.97273 13.1853 3.99115 13.3162C4.0953 14.0545 4.53679 14.6905 5.02529 15.1762C5.15801 15.308 5.29995 15.4343 5.44927 15.555L5.38014 15.5735C4.93681 15.6841 4.33863 15.7071 3.34228 15.6103C3.15412 15.5919 2.96484 15.6317 2.80009 15.7245C2.63535 15.8172 2.50311 15.9584 2.42131 16.1288C2.33951 16.2993 2.3121 16.4908 2.3428 16.6773C2.3735 16.8639 2.46083 17.0365 2.59294 17.1717C3.51535 18.1145 4.61725 18.863 5.83363 19.3731C7.05002 19.8831 8.35624 20.1444 9.67523 20.1414C14.9409 20.1414 19.2599 16.0528 19.5042 10.8931C20.6932 9.89492 21.2877 8.5428 21.6084 7.31418C21.6441 7.17782 21.648 7.03509 21.6198 6.89698C21.5917 6.75887 21.5322 6.62905 21.4461 6.51751C21.3599 6.40597 21.2493 6.31567 21.1228 6.25357C20.9962 6.19147 20.8572 6.15922 20.7162 6.1593H18.5475C18.017 5.3356 17.2417 4.69882 16.3307 4.33843C15.4196 3.97804 14.4186 3.91216 13.4681 4.15005C12.5177 4.38793 11.6657 4.91763 11.0319 5.6647C10.398 6.41177 10.0141 7.33866 9.93423 8.31514C8.23523 7.87286 6.71506 6.91491 5.58291 5.5731C5.48265 5.45455 5.35407 5.36326 5.20909 5.30768C5.06412 5.2521 4.90746 5.23405 4.75364 5.2552C4.59983 5.27634 4.45385 5.336 4.32925 5.42864C4.20465 5.52127 4.10547 5.64388 4.04092 5.78509C3.48237 7.00357 3.37546 8.40823 3.99852 9.83685L3.78285 9.92902C3.57646 10.017 3.40923 10.1772 3.31251 10.3796C3.21579 10.582 3.19623 10.8128 3.25748 11.0286C3.42892 11.6295 3.81418 12.1604 4.20867 12.5817H4.20959Z" fill="#CECECE"/>
</svg>
