<svg width="24" height="23" viewBox="0 0 24 23" fill="none" xmlns="http://www.w3.org/2000/svg">
<path fill-rule="evenodd" clip-rule="evenodd" d="M5.38409 0.638672C4.21074 0.638672 3.08544 1.10478 2.25576 1.93447C1.42607 2.76415 0.959961 3.88945 0.959961 5.0628V18.3352C0.959961 19.5085 1.42607 20.6338 2.25576 21.4635C3.08544 22.2932 4.21074 22.7593 5.38409 22.7593H18.6565C19.8298 22.7593 20.9551 22.2932 21.7848 21.4635C22.6145 20.6338 23.0806 19.5085 23.0806 18.3352V5.0628C23.0806 3.88945 22.6145 2.76415 21.7848 1.93447C20.9551 1.10478 19.8298 0.638672 18.6565 0.638672H5.38409ZM3.17203 5.0628C3.17203 4.47612 3.40508 3.91348 3.81992 3.49864C4.23477 3.08379 4.79741 2.85074 5.38409 2.85074H18.6565C19.2432 2.85074 19.8058 3.08379 20.2206 3.49864C20.6355 3.91348 20.8685 4.47612 20.8685 5.0628V18.3352C20.8685 18.9219 20.6355 19.4845 20.2206 19.8994C19.8058 20.3142 19.2432 20.5473 18.6565 20.5473H5.38409C4.79741 20.5473 4.23477 20.3142 3.81992 19.8994C3.40508 19.4845 3.17203 18.9219 3.17203 18.3352V5.0628ZM8.70219 10.593C8.70219 10.2996 8.58566 10.0183 8.37824 9.81088C8.17082 9.60346 7.88949 9.48693 7.59615 9.48693C7.30282 9.48693 7.02149 9.60346 6.81407 9.81088C6.60665 10.0183 6.49012 10.2996 6.49012 10.593V17.2292C6.49012 17.5225 6.60665 17.8038 6.81407 18.0112C7.02149 18.2187 7.30282 18.3352 7.59615 18.3352C7.88949 18.3352 8.17082 18.2187 8.37824 18.0112C8.58566 17.8038 8.70219 17.5225 8.70219 17.2292V10.593ZM9.2552 6.72185C9.2552 7.16186 9.08041 7.58384 8.76928 7.89497C8.45815 8.20611 8.03616 8.3809 7.59615 8.3809C7.15615 8.3809 6.73416 8.20611 6.42303 7.89497C6.1119 7.58384 5.93711 7.16186 5.93711 6.72185C5.93711 6.28184 6.1119 5.85986 6.42303 5.54872C6.73416 5.23759 7.15615 5.0628 7.59615 5.0628C8.03616 5.0628 8.45815 5.23759 8.76928 5.54872C9.08041 5.85986 9.2552 6.28184 9.2552 6.72185ZM12.0203 9.48693C12.3963 9.48693 12.7281 9.67496 12.9272 9.96031C13.4973 9.64963 14.1361 9.48687 14.7854 9.48693C17.1744 9.48693 18.6565 11.6171 18.6565 13.4366V17.2292C18.6565 17.5225 18.5399 17.8038 18.3325 18.0112C18.1251 18.2187 17.8438 18.3352 17.5504 18.3352C17.2571 18.3352 16.9758 18.2187 16.7684 18.0112C16.5609 17.8038 16.4444 17.5225 16.4444 17.2292V13.4355C16.4444 12.586 15.7144 11.6979 14.7854 11.6979C14.2058 11.6979 13.5654 12.0131 13.1263 12.763V17.2292C13.1263 17.5225 13.0098 17.8038 12.8024 18.0112C12.5949 18.2187 12.3136 18.3352 12.0203 18.3352C11.7269 18.3352 11.4456 18.2187 11.2382 18.0112C11.0308 17.8038 10.9143 17.5225 10.9143 17.2292V10.593C10.9143 10.2996 11.0308 10.0183 11.2382 9.81088C11.4456 9.60346 11.7269 9.48693 12.0203 9.48693Z" fill="#CECECE"/>
</svg>
