<svg width="61" height="61" viewBox="0 0 61 61" fill="none" xmlns="http://www.w3.org/2000/svg">
<circle cx="30.5" cy="30.5" r="30.5" fill="#051A26"/>
<path d="M40.0456 29.5883V26.6367C40.0456 25.6359 39.2692 24.8219 38.2884 24.743L35.5474 19.9553C35.2933 19.5125 34.8832 19.1961 34.3924 19.0647C33.9039 18.9341 33.3931 19.0027 32.9559 19.2571L23.5594 24.7276H21.9091C20.8562 24.7276 20 25.5838 20 26.6367V38.0913C20 39.1442 20.8562 40.0004 21.9091 40.0004H38.1364C39.1893 40.0004 40.0456 39.1442 40.0456 38.0913V35.1397C40.5999 34.942 41.0001 34.4172 41.0001 33.7958V30.9322C41.0001 30.3108 40.5999 29.786 40.0456 29.5883ZM37.1792 24.7276H33.0193L36.1393 22.9112L37.1792 24.7276ZM35.665 22.0828L31.1222 24.7276H29.2378L35.1939 21.2599L35.665 22.0828ZM33.4364 20.0821C33.6522 19.9558 33.9043 19.9222 34.1453 19.9866C34.3891 20.0518 34.5923 20.2093 34.7186 20.4298L34.7196 20.4316L27.3408 24.7276H25.4566L33.4364 20.0821ZM39.091 38.0913C39.091 38.6175 38.6626 39.0458 38.1364 39.0458H21.9091C21.3829 39.0458 20.9546 38.6175 20.9546 38.0913V26.6367C20.9546 26.1105 21.3829 25.6822 21.9091 25.6822H38.1364C38.6626 25.6822 39.091 26.1105 39.091 26.6367V29.5004H36.2273C34.6482 29.5004 33.3637 30.7849 33.3637 32.364C33.3637 33.9431 34.6482 35.2276 36.2273 35.2276H39.091V38.0913ZM40.0456 33.7958C40.0456 34.0591 39.8316 34.2731 39.5683 34.2731H36.2273C35.1745 34.2731 34.3182 33.4169 34.3182 32.364C34.3182 31.3111 35.1744 30.4549 36.2273 30.4549H39.5683C39.8316 30.4549 40.0456 30.6688 40.0456 30.9322V33.7958Z" fill="white"/>
<path d="M36.228 31.4095C35.7018 31.4095 35.2734 31.8379 35.2734 32.3641C35.2734 32.8903 35.7018 33.3186 36.228 33.3186C36.7542 33.3186 37.1825 32.8903 37.1825 32.3641C37.1825 31.8379 36.7542 31.4095 36.228 31.4095Z" fill="white"/>
</svg>
