<svg width="109" height="27" viewBox="0 0 109 27" fill="none" xmlns="http://www.w3.org/2000/svg">
<path fill-rule="evenodd" clip-rule="evenodd" d="M10.5514 9.64706L15.3749 12.0588L20.1985 9.64706V0H10.5514V9.64706ZM0 18.1657L5.11216 26.3468L13.2933 21.2347L13.2939 15.5465L8.18117 13.0535L0 18.1657ZM30.9234 18.1657L25.8112 26.3468L17.63 21.2347L17.6295 15.5465L22.7422 13.0535L30.9234 18.1657Z" fill="#1E202A"/>
<path d="M60.5107 4.20221H57.2437L52.2905 12.4751L47.3637 4.20221H44.0967L50.7361 15.2678V22.6449H53.845V15.2678L60.5107 4.20221Z" fill="#051A26"/>
<path d="M71.9724 3.33276V9.73503C70.7077 8.68116 69.1006 8.07518 67.2827 8.07518C62.9618 8.07518 59.8792 11.2631 59.8792 15.5577C59.8792 19.7995 62.9618 23.0138 67.2827 23.0138C69.2587 23.0138 71.0239 22.2761 72.2885 21.0378L72.6837 22.6713H74.8969V3.33276H71.9724ZM67.4934 20.221C64.8324 20.221 62.8564 18.2187 62.8564 15.5313C62.8564 12.8703 64.8324 10.8679 67.4934 10.8679C70.1808 10.8679 72.1568 12.8703 72.1568 15.5313C72.1568 18.1923 70.1808 20.221 67.4934 20.221Z" fill="#051A26"/>
<path d="M92.5881 15.584C92.5881 11.4476 89.69 8.07518 85.3164 8.07518C81.1536 8.07518 78.0183 11.2895 78.0183 15.5313C78.0183 19.7995 81.1536 23.0138 85.3164 23.0138C88.5044 23.0138 91.1127 21.1695 92.2456 18.166H89.163C88.399 19.4833 87.0289 20.2737 85.3164 20.2737C82.9979 20.2737 81.338 18.851 80.9692 16.5325H92.5091C92.5618 16.2163 92.5881 15.9002 92.5881 15.584ZM85.3164 10.7362C87.5032 10.7362 89.1103 12.0008 89.6373 14.1613H81.0482C81.5225 12.0535 83.1296 10.7362 85.3164 10.7362Z" fill="#051A26"/>
<path d="M105.004 8.41769L100.841 18.9827L96.5726 8.41769H93.4901L99.4971 22.6449H102.158L108.007 8.41769H105.004Z" fill="#051A26"/>
</svg>
