<svg width="102" height="179" viewBox="0 0 102 179" fill="none" xmlns="http://www.w3.org/2000/svg">
<g opacity="0.13">
<path d="M45.8911 33.7065C31.0344 20.975 12.1068 14.792 -7.40191 16.2915L-7.32995 17.2257C32.429 14.1629 67.2623 44.0133 70.3252 83.7723C71.8089 103.032 65.7038 121.717 53.1375 136.381C40.5711 151.045 23.0386 159.944 3.78169 161.424L3.85364 162.358C23.3654 160.855 41.1191 151.843 53.8505 136.986C66.582 122.129 72.765 103.202 71.2655 83.6932C69.7598 64.1916 60.7478 46.4379 45.8911 33.7065Z" fill="#010833"/>
<path d="M42.5918 37.5572C29.3264 26.1894 11.7382 19.8732 -7.01169 21.3176L-6.93973 22.2518C30.0432 19.4028 62.4504 47.1741 65.3029 84.1601C68.1519 121.143 40.3775 153.554 3.39459 156.403L3.46654 157.337C40.9663 154.448 69.1259 121.588 66.2401 84.0846C64.7927 65.3383 55.8536 48.922 42.5918 37.5572Z" fill="#010833"/>
<path d="M39.3328 41.3604C26.5205 30.3809 10.1978 25.0503 -6.62759 26.3431L-6.55563 27.2773C10.0211 26.0003 26.0981 31.2565 38.7177 42.0709C51.3409 52.8884 58.9944 67.9742 60.2709 84.5443C61.5479 101.121 56.2917 117.198 45.4773 129.818C34.6598 142.441 19.574 150.094 3.0039 151.371L3.07588 152.305C19.8977 151.009 35.2144 143.238 46.1939 130.426C57.1734 117.613 62.504 101.291 61.2112 84.4652C59.9128 67.6535 52.1451 52.3399 39.3328 41.3604Z" fill="#010833"/>
<path d="M36.0336 45.2095C24.7306 35.5234 9.74015 30.1401 -6.2403 31.3711L-6.16833 32.3053C25.2758 29.883 52.827 53.4931 55.2493 84.9372C57.6716 116.381 34.0616 143.933 2.61747 146.355L2.68942 147.289C34.6503 144.827 58.6487 116.823 56.1835 84.8652C54.9525 68.8847 47.3367 54.8957 36.0336 45.2095Z" fill="#010833"/>
<path d="M32.7562 49.0338C22.4343 40.1884 8.74246 35.2683 -5.85327 36.3927L-5.78131 37.3268C22.8934 35.1179 48.0149 56.6458 50.2203 85.3174C52.4292 113.992 30.9014 139.114 2.22972 141.319L2.30169 142.253C31.4865 140.005 53.4058 114.427 51.1575 85.2419C50.0372 70.6558 43.0781 57.8792 32.7562 49.0338Z" fill="#010833"/>
<path d="M29.4783 52.8596C20.134 44.852 7.74136 40.4016 -5.46305 41.4188L-5.39109 42.3529C20.5076 40.3578 43.2029 59.8066 45.198 85.7053C46.1647 98.2538 42.1872 110.427 33.9992 119.982C25.8112 129.536 14.3911 135.331 1.84262 136.298L1.91459 137.232C14.7118 136.25 26.3592 130.334 34.7092 120.59C43.0593 110.846 47.1178 98.4269 46.1322 85.6333C45.115 72.4289 38.8226 60.8672 29.4783 52.8596Z" fill="#010833"/>
<path d="M26.2009 56.6842C17.8378 49.5174 6.74737 45.5331 -5.07895 46.4442L-5.00699 47.3784C18.1223 45.5966 38.3879 62.9632 40.1696 86.0925C41.9514 109.222 24.5848 129.487 1.45552 131.269L1.52748 132.203C25.1735 130.382 42.9284 109.663 41.1068 86.0169C40.1968 74.2039 34.5641 63.851 26.2009 56.6842Z" fill="#010833"/>
<path d="M-0.254894 163.274L-2.72975 131.191L-4.46335 133.214L-2.28145 161.538L-0.254894 163.274Z" fill="#010833"/>
<path d="M-4.03685 160.033L-5.97071 134.973L-7.73183 137.028L-6.09195 158.272L-4.03685 160.033Z" fill="#010833"/>
<path d="M-7.85092 156.765L-9.23612 138.784L-11.0003 140.842L-9.90603 155.004L-7.85092 156.765Z" fill="#010833"/>
</g>
</svg>
