<svg width="127" height="127" viewBox="0 0 127 127" fill="none" xmlns="http://www.w3.org/2000/svg">
<g opacity="0.1">
<path d="M74.7158 52.2842V0H22.4316V52.2842V104.568H74.7158H127V52.2842H74.7158Z" fill="#FF9D00"/>
<path d="M106.704 127.001H0V20.2969H54.4195V72.581H106.704V127.001ZM2.13535 124.865H104.568V74.7164H52.2842V22.4322H2.13535V124.865Z" fill="#010833"/>
<path d="M85.6602 0.566406H82.4785V45.9427H85.6602V0.566406Z" fill="#FFC200"/>
<path d="M93.7627 0.554688H90.5811V45.931H93.7627V0.554688Z" fill="#FFC200"/>
<path d="M101.856 0.566406H98.6748V45.9427H101.856V0.566406Z" fill="#FFC200"/>
<path d="M109.949 0.566406H106.768V45.9427H109.949V0.566406Z" fill="#FFC200"/>
<path d="M118.043 0.554688H114.861V45.931H118.043V0.554688Z" fill="#FFC200"/>
<path d="M126.041 0.566406H122.955V45.9427H126.041V0.566406Z" fill="#FFC200"/>
</g>
</svg>
