<svg width="938" height="611" viewBox="0 0 938 611" fill="none" xmlns="http://www.w3.org/2000/svg">
<g opacity="0.1">
<path d="M68.937 517.944V452.909H3.90198V517.944V582.979H68.937H133.972V517.944H68.937Z" fill="#FF9D00"/>
<path d="M108.726 610.881H-24V478.155H43.6911V543.19H108.726V610.881ZM-21.3439 608.225H106.07V545.846H41.035V480.811H-21.3439V608.225Z" fill="#010833"/>
<path d="M82.5499 453.612H78.5923V510.054H82.5499V453.612Z" fill="#FFC200"/>
<path d="M92.6301 453.599H88.6725V510.042H92.6301V453.599Z" fill="#FFC200"/>
<path d="M102.697 453.612H98.7395V510.055H102.697V453.612Z" fill="#FFC200"/>
<path d="M112.763 453.612H108.806V510.055H112.763V453.612Z" fill="#FFC200"/>
<path d="M122.83 453.599H118.873V510.042H122.83V453.599Z" fill="#FFC200"/>
<path d="M132.778 453.612H128.94V510.055H132.778V453.612Z" fill="#FFC200"/>
</g>
<path fill-rule="evenodd" clip-rule="evenodd" d="M682.672 212.337L673.253 227.716L658.121 218.104V207.377L667.54 202.664L682.672 212.337ZM645.055 196.277L653.927 200.804L662.8 196.277V178.108H645.055V196.277ZM625.608 212.337L635.027 227.716L650.16 218.104V207.377L640.74 202.664L625.608 212.337Z" stroke="#787B7D" stroke-opacity="0.25" stroke-width="0.632998" stroke-miterlimit="10"/>
<path fill-rule="evenodd" clip-rule="evenodd" d="M682.488 153.614L673.069 168.993L657.998 159.381V148.653L667.417 143.941L682.488 153.614ZM644.871 137.554L653.744 142.08L662.616 137.554V119.385H644.871V137.554ZM625.424 153.614L634.844 168.993L649.915 159.381V148.653L640.495 143.941L625.424 153.614Z" stroke="#787B7D" stroke-opacity="0.25" stroke-width="0.632998" stroke-miterlimit="10"/>
<path fill-rule="evenodd" clip-rule="evenodd" d="M682.253 94.8906L672.833 110.269L657.762 100.657V89.9298L667.182 85.217L682.253 94.8906ZM644.696 78.892L653.569 83.4188L662.441 78.892V60.7231H644.696V78.892ZM625.188 94.8906L634.608 110.269L649.679 100.657V89.9298L640.26 85.217L625.188 94.8906Z" stroke="#787B7D" stroke-opacity="0.25" stroke-width="0.632998" stroke-miterlimit="10"/>
<path fill-rule="evenodd" clip-rule="evenodd" d="M682.064 36.2294L672.645 51.6079L657.513 41.9963V31.2686L666.932 26.5559L682.064 36.2294ZM644.447 20.1689L653.319 24.6956L662.253 20.1689V2H644.447V20.1689ZM625 36.2294L634.42 51.6079L649.552 41.9963V31.2686L640.132 26.5559L625 36.2294Z" stroke="#787B7D" stroke-opacity="0.25" stroke-width="0.632998" stroke-miterlimit="10"/>
<path fill-rule="evenodd" clip-rule="evenodd" d="M838.687 212.337L829.267 227.716L814.135 218.104V207.377L823.555 202.664L838.687 212.337ZM801.069 196.277L809.942 200.804L818.815 196.277V178.108H801.069V196.277ZM781.623 212.337L791.042 227.716L806.174 218.104V207.377L796.755 202.664L781.623 212.337Z" stroke="#787B7D" stroke-opacity="0.25" stroke-width="0.632998" stroke-miterlimit="10"/>
<path fill-rule="evenodd" clip-rule="evenodd" d="M838.503 153.614L829.083 168.993L814.012 159.381V148.653L823.432 143.941L838.503 153.614ZM800.886 137.554L809.758 142.08L818.631 137.554V119.385H800.886V137.554ZM781.439 153.614L790.858 168.993L805.93 159.381V148.653L796.51 143.941L781.439 153.614Z" stroke="#787B7D" stroke-opacity="0.25" stroke-width="0.632998" stroke-miterlimit="10"/>
<path fill-rule="evenodd" clip-rule="evenodd" d="M838.267 94.8906L828.848 110.269L813.777 100.657V89.9298L823.196 85.217L838.267 94.8906ZM800.711 78.892L809.583 83.4188L818.456 78.892V60.7231H800.711V78.892ZM781.203 94.8906L790.623 110.269L805.694 100.657V89.9298L796.274 85.217L781.203 94.8906Z" stroke="#787B7D" stroke-opacity="0.25" stroke-width="0.632998" stroke-miterlimit="10"/>
<path fill-rule="evenodd" clip-rule="evenodd" d="M838.079 36.2294L828.66 51.6079L813.528 41.9963V31.2686L822.947 26.5559L838.079 36.2294ZM800.462 20.1689L809.335 24.6956L818.268 20.1689V2H800.462V20.1689ZM781.015 36.2294L790.435 51.6079L805.567 41.9963V31.2686L796.147 26.5559L781.015 36.2294Z" stroke="#787B7D" stroke-opacity="0.25" stroke-width="0.632998" stroke-miterlimit="10"/>
<path fill-rule="evenodd" clip-rule="evenodd" d="M731.714 180.96L722.295 196.339L707.224 186.727V176L716.643 171.287L731.714 180.96ZM694.158 164.9L703.03 169.427L711.903 164.9V146.731H694.097V164.9H694.158ZM674.65 180.96L684.13 196.339L699.202 186.727V176L689.782 171.287L674.65 180.96Z" stroke="#787B7D" stroke-opacity="0.25" stroke-width="0.632998" stroke-miterlimit="10"/>
<path fill-rule="evenodd" clip-rule="evenodd" d="M731.539 122.237L722.119 137.616L707.048 128.004V117.276L716.468 112.564L731.539 122.237ZM693.921 106.177L702.794 110.703L711.667 106.177V88.0078H693.861V106.177H693.921ZM674.475 122.237L683.894 137.616L698.965 128.004V117.276L689.546 112.564L674.475 122.237Z" stroke="#787B7D" stroke-opacity="0.25" stroke-width="0.632998" stroke-miterlimit="10"/>
<path fill-rule="evenodd" clip-rule="evenodd" d="M731.35 63.5136L721.93 78.8921L706.798 69.2805V58.5528L716.218 53.8401L731.35 63.5136ZM693.732 47.5151L702.605 52.0418L711.478 47.5151V29.3462H693.672V47.5151H693.732ZM674.286 63.5136L683.705 78.8921L698.777 69.2805V58.5528L689.357 53.8401L674.286 63.5136Z" stroke="#787B7D" stroke-opacity="0.25" stroke-width="0.632998" stroke-miterlimit="10"/>
<path fill-rule="evenodd" clip-rule="evenodd" d="M887.731 180.96L878.311 196.339L863.24 186.727V176L872.66 171.287L887.731 180.96ZM850.174 164.9L859.047 169.427L867.919 164.9V146.731H850.113V164.9H850.174ZM830.667 180.96L840.147 196.339L855.218 186.727V176L845.799 171.287L830.667 180.96Z" stroke="#787B7D" stroke-opacity="0.25" stroke-width="0.632998" stroke-miterlimit="10"/>
<path fill-rule="evenodd" clip-rule="evenodd" d="M887.555 122.237L878.136 137.616L863.064 128.004V117.276L872.484 112.564L887.555 122.237ZM849.938 106.177L858.81 110.703L867.683 106.177V88.0078H849.877V106.177H849.938ZM830.491 122.237L839.911 137.616L854.982 128.004V117.276L845.562 112.564L830.491 122.237Z" stroke="#787B7D" stroke-opacity="0.25" stroke-width="0.632998" stroke-miterlimit="10"/>
<path fill-rule="evenodd" clip-rule="evenodd" d="M887.365 63.5136L877.946 78.8921L862.813 69.2805V58.5528L872.233 53.8401L887.365 63.5136ZM849.748 47.5151L858.62 52.0418L867.493 47.5151V29.3462H849.687V47.5151H849.748ZM830.301 63.5136L839.72 78.8921L854.792 69.2805V58.5528L845.372 53.8401L830.301 63.5136Z" stroke="#787B7D" stroke-opacity="0.25" stroke-width="0.632998" stroke-miterlimit="10"/>
<path fill-rule="evenodd" clip-rule="evenodd" d="M780.757 213.516L771.338 228.894L756.267 219.282V208.555L765.686 203.842L780.757 213.516ZM743.14 197.455L752.013 201.982L760.885 197.455V179.286H743.079V197.455H743.14ZM723.693 213.516L733.113 228.894L748.184 219.282V208.555L738.764 203.842L723.693 213.516Z" stroke="#787B7D" stroke-opacity="0.25" stroke-width="0.632998" stroke-miterlimit="10"/>
<path fill-rule="evenodd" clip-rule="evenodd" d="M780.514 154.792L771.094 170.171L756.023 160.559V149.832L765.442 145.119L780.514 154.792ZM742.957 138.732L751.829 143.259L760.702 138.732V120.563H742.896V138.732H742.957ZM723.449 154.792L732.869 170.171L747.94 160.559V149.832L738.521 145.119L723.449 154.792Z" stroke="#787B7D" stroke-opacity="0.25" stroke-width="0.632998" stroke-miterlimit="10"/>
<path fill-rule="evenodd" clip-rule="evenodd" d="M780.341 96.0688L770.922 111.447L755.85 101.836V91.108L765.27 86.3953L780.341 96.0688ZM742.724 80.0703L751.596 84.597L760.469 80.0703V61.9014H742.663V80.0703H742.724ZM723.277 96.0688L732.696 111.447L747.768 101.836V91.108L738.348 86.3953L723.277 96.0688Z" stroke="#787B7D" stroke-opacity="0.25" stroke-width="0.632998" stroke-miterlimit="10"/>
<path fill-rule="evenodd" clip-rule="evenodd" d="M780.088 37.4076L770.668 52.7861L755.597 43.1746V32.4469L765.016 27.7341L780.088 37.4076ZM742.531 21.3471L751.404 25.8738L760.276 21.3471V3.17822H742.47V21.3471H742.531ZM723.023 37.4076L732.443 52.7861L747.514 43.1746V32.4469L738.156 27.7341L723.023 37.4076Z" stroke="#787B7D" stroke-opacity="0.25" stroke-width="0.632998" stroke-miterlimit="10"/>
<path fill-rule="evenodd" clip-rule="evenodd" d="M936.772 213.516L927.352 228.894L912.281 219.282V208.555L921.701 203.842L936.772 213.516ZM899.154 197.455L908.027 201.982L916.9 197.455V179.286H899.094V197.455H899.154ZM879.708 213.516L889.127 228.894L904.198 219.282V208.555L894.779 203.842L879.708 213.516Z" stroke="#787B7D" stroke-opacity="0.25" stroke-width="0.632998" stroke-miterlimit="10"/>
<path fill-rule="evenodd" clip-rule="evenodd" d="M936.53 154.792L927.11 170.171L912.039 160.559V149.832L921.458 145.119L936.53 154.792ZM898.973 138.732L907.846 143.259L916.718 138.732V120.563H898.912V138.732H898.973ZM879.465 154.792L888.885 170.171L903.956 160.559V149.832L894.537 145.119L879.465 154.792Z" stroke="#787B7D" stroke-opacity="0.25" stroke-width="0.632998" stroke-miterlimit="10"/>
<path fill-rule="evenodd" clip-rule="evenodd" d="M936.356 96.0688L926.936 111.447L911.865 101.836V91.108L921.285 86.3953L936.356 96.0688ZM898.738 80.0703L907.611 84.597L916.484 80.0703V61.9014H898.678V80.0703H898.738ZM879.292 96.0688L888.711 111.447L903.782 101.836V91.108L894.363 86.3953L879.292 96.0688Z" stroke="#787B7D" stroke-opacity="0.25" stroke-width="0.632998" stroke-miterlimit="10"/>
<path fill-rule="evenodd" clip-rule="evenodd" d="M936.105 37.4076L926.685 52.7861L911.614 43.1746V32.4469L921.033 27.7341L936.105 37.4076ZM898.548 21.3471L907.421 25.8738L916.293 21.3471V3.17822H898.487V21.3471H898.548ZM879.04 37.4076L888.46 52.7861L903.531 43.1746V32.4469L894.172 27.7341L879.04 37.4076Z" stroke="#787B7D" stroke-opacity="0.25" stroke-width="0.632998" stroke-miterlimit="10"/>
<path fill-rule="evenodd" clip-rule="evenodd" d="M57.6721 211.337L48.2526 226.716L33.1205 217.104V206.377L42.5401 201.664L57.6721 211.337ZM20.0546 195.277L28.9273 199.804L37.7999 195.277V177.108H20.0546V195.277ZM0.607788 211.337L10.0274 226.716L25.1594 217.104V206.377L15.7399 201.664L0.607788 211.337Z" stroke="#787B7D" stroke-opacity="0.25" stroke-width="0.632998" stroke-miterlimit="10"/>
<path fill-rule="evenodd" clip-rule="evenodd" d="M57.4884 152.614L48.0688 167.993L32.9975 158.381V147.653L42.4171 142.941L57.4884 152.614ZM19.8709 136.554L28.7435 141.08L37.6162 136.554V118.385H19.8709V136.554ZM0.424072 152.614L9.84364 167.993L24.9149 158.381V147.653L15.4954 142.941L0.424072 152.614Z" stroke="#787B7D" stroke-opacity="0.25" stroke-width="0.632998" stroke-miterlimit="10"/>
<path fill-rule="evenodd" clip-rule="evenodd" d="M57.2528 93.8906L47.8333 109.269L32.762 99.6575V88.9298L42.1815 84.217L57.2528 93.8906ZM19.6961 77.892L28.5687 82.4188L37.4414 77.892V59.7231H19.6961V77.892ZM0.188477 93.8906L9.60805 109.269L24.6794 99.6575V88.9298L15.2598 84.217L0.188477 93.8906Z" stroke="#787B7D" stroke-opacity="0.25" stroke-width="0.632998" stroke-miterlimit="10"/>
<path fill-rule="evenodd" clip-rule="evenodd" d="M57.0644 35.2294L47.6448 50.6079L32.5127 40.9963V30.2686L41.9323 25.5559L57.0644 35.2294ZM19.4469 19.1689L28.3195 23.6956L37.2529 19.1689V1H19.4469V19.1689ZM0 35.2294L9.41957 50.6079L24.5516 40.9963V30.2686L15.1321 25.5559L0 35.2294Z" stroke="#787B7D" stroke-opacity="0.25" stroke-width="0.632998" stroke-miterlimit="10"/>
<path fill-rule="evenodd" clip-rule="evenodd" d="M213.687 211.337L204.267 226.716L189.135 217.104V206.377L198.555 201.664L213.687 211.337ZM176.069 195.277L184.942 199.804L193.814 195.277V177.108H176.069V195.277ZM156.622 211.337L166.042 226.716L181.174 217.104V206.377L171.754 201.664L156.622 211.337Z" stroke="#787B7D" stroke-opacity="0.25" stroke-width="0.632998" stroke-miterlimit="10"/>
<path fill-rule="evenodd" clip-rule="evenodd" d="M213.503 152.614L204.083 167.993L189.012 158.381V147.653L198.432 142.941L213.503 152.614ZM175.886 136.554L184.758 141.08L193.631 136.554V118.385H175.886V136.554ZM156.439 152.614L165.858 167.993L180.93 158.381V147.653L171.51 142.941L156.439 152.614Z" stroke="#787B7D" stroke-opacity="0.25" stroke-width="0.632998" stroke-miterlimit="10"/>
<path fill-rule="evenodd" clip-rule="evenodd" d="M213.267 93.8906L203.848 109.269L188.776 99.6575V88.9298L198.196 84.217L213.267 93.8906ZM175.711 77.892L184.583 82.4188L193.456 77.892V59.7231H175.711V77.892ZM156.203 93.8906L165.623 109.269L180.694 99.6575V88.9298L171.274 84.217L156.203 93.8906Z" stroke="#787B7D" stroke-opacity="0.25" stroke-width="0.632998" stroke-miterlimit="10"/>
<path fill-rule="evenodd" clip-rule="evenodd" d="M213.079 35.2294L203.66 50.6079L188.528 40.9963V30.2686L197.947 25.5559L213.079 35.2294ZM175.462 19.1689L184.334 23.6956L193.268 19.1689V1H175.462V19.1689ZM156.015 35.2294L165.435 50.6079L180.567 40.9963V30.2686L171.147 25.5559L156.015 35.2294Z" stroke="#787B7D" stroke-opacity="0.25" stroke-width="0.632998" stroke-miterlimit="10"/>
<path fill-rule="evenodd" clip-rule="evenodd" d="M106.714 179.96L97.2948 195.339L82.2235 185.727V175L91.6431 170.287L106.714 179.96ZM69.1576 163.9L78.0303 168.427L86.9029 163.9V145.731H69.0969V163.9H69.1576ZM49.65 179.96L59.1304 195.339L74.2017 185.727V175L64.7821 170.287L49.65 179.96Z" stroke="#787B7D" stroke-opacity="0.25" stroke-width="0.632998" stroke-miterlimit="10"/>
<path fill-rule="evenodd" clip-rule="evenodd" d="M106.539 121.237L97.1193 136.616L82.048 127.004V116.276L91.4675 111.564L106.539 121.237ZM68.9213 105.177L77.794 109.703L86.6666 105.177V87.0078H68.8606V105.177H68.9213ZM49.4745 121.237L58.8941 136.616L73.9654 127.004V116.276L64.5458 111.564L49.4745 121.237Z" stroke="#787B7D" stroke-opacity="0.25" stroke-width="0.632998" stroke-miterlimit="10"/>
<path fill-rule="evenodd" clip-rule="evenodd" d="M106.35 62.5136L96.9303 77.8921L81.7982 68.2805V57.5528L91.2178 52.8401L106.35 62.5136ZM68.7324 46.5151L77.605 51.0418L86.4776 46.5151V28.3462H68.6716V46.5151H68.7324ZM49.2855 62.5136L58.7051 77.8921L73.7764 68.2805V57.5528L64.3568 52.8401L49.2855 62.5136Z" stroke="#787B7D" stroke-opacity="0.25" stroke-width="0.632998" stroke-miterlimit="10"/>
<path fill-rule="evenodd" clip-rule="evenodd" d="M262.731 179.96L253.311 195.339L238.24 185.727V175L247.659 170.287L262.731 179.96ZM225.174 163.9L234.047 168.427L242.919 163.9V145.731H225.113V163.9H225.174ZM205.666 179.96L215.147 195.339L230.218 185.727V175L220.798 170.287L205.666 179.96Z" stroke="#787B7D" stroke-opacity="0.25" stroke-width="0.632998" stroke-miterlimit="10"/>
<path fill-rule="evenodd" clip-rule="evenodd" d="M262.555 121.237L253.135 136.616L238.064 127.004V116.276L247.484 111.564L262.555 121.237ZM224.938 105.177L233.81 109.703L242.683 105.177V87.0078H224.877V105.177H224.938ZM205.491 121.237L214.91 136.616L229.982 127.004V116.276L220.562 111.564L205.491 121.237Z" stroke="#787B7D" stroke-opacity="0.25" stroke-width="0.632998" stroke-miterlimit="10"/>
<path fill-rule="evenodd" clip-rule="evenodd" d="M262.365 62.5136L252.945 77.8921L237.813 68.2805V57.5528L247.233 52.8401L262.365 62.5136ZM224.747 46.5151L233.62 51.0418L242.493 46.5151V28.3462H224.687V46.5151H224.747ZM205.301 62.5136L214.72 77.8921L229.792 68.2805V57.5528L220.372 52.8401L205.301 62.5136Z" stroke="#787B7D" stroke-opacity="0.25" stroke-width="0.632998" stroke-miterlimit="10"/>
<path fill-rule="evenodd" clip-rule="evenodd" d="M155.757 212.516L146.338 227.894L131.267 218.282V207.555L140.686 202.842L155.757 212.516ZM118.14 196.455L127.013 200.982L135.885 196.455V178.286H118.079V196.455H118.14ZM98.6931 212.516L108.113 227.894L123.184 218.282V207.555L113.764 202.842L98.6931 212.516Z" stroke="#787B7D" stroke-opacity="0.25" stroke-width="0.632998" stroke-miterlimit="10"/>
<path fill-rule="evenodd" clip-rule="evenodd" d="M155.514 153.792L146.094 169.171L131.023 159.559V148.832L140.442 144.119L155.514 153.792ZM117.957 137.732L126.829 142.259L135.702 137.732V119.563H117.896V137.732H117.957ZM98.4492 153.792L107.869 169.171L122.94 159.559V148.832L113.521 144.119L98.4492 153.792Z" stroke="#787B7D" stroke-opacity="0.25" stroke-width="0.632998" stroke-miterlimit="10"/>
<path fill-rule="evenodd" clip-rule="evenodd" d="M155.341 95.0688L145.922 110.447L130.85 100.836V90.108L140.27 85.3953L155.341 95.0688ZM117.724 79.0703L126.596 83.597L135.469 79.0703V60.9014H117.663V79.0703H117.724ZM98.277 95.0688L107.697 110.447L122.768 100.836V90.108L113.348 85.3953L98.277 95.0688Z" stroke="#787B7D" stroke-opacity="0.25" stroke-width="0.632998" stroke-miterlimit="10"/>
<path fill-rule="evenodd" clip-rule="evenodd" d="M155.088 36.4076L145.668 51.7861L130.597 42.1746V31.4469L140.016 26.7341L155.088 36.4076ZM117.531 20.3471L126.404 24.8738L135.276 20.3471V2.17822H117.47V20.3471H117.531ZM98.0234 36.4076L107.443 51.7861L122.514 42.1746V31.4469L113.156 26.7341L98.0234 36.4076Z" stroke="#787B7D" stroke-opacity="0.25" stroke-width="0.632998" stroke-miterlimit="10"/>
<path fill-rule="evenodd" clip-rule="evenodd" d="M311.772 212.516L302.352 227.894L287.281 218.282V207.555L296.7 202.842L311.772 212.516ZM274.154 196.455L283.027 200.982L291.899 196.455V178.286H274.093V196.455H274.154ZM254.707 212.516L264.127 227.894L279.198 218.282V207.555L269.779 202.842L254.707 212.516Z" stroke="#787B7D" stroke-opacity="0.25" stroke-width="0.632998" stroke-miterlimit="10"/>
<path fill-rule="evenodd" clip-rule="evenodd" d="M311.53 153.792L302.11 169.171L287.039 159.559V148.832L296.458 144.119L311.53 153.792ZM273.973 137.732L282.845 142.259L291.718 137.732V119.563H273.912V137.732H273.973ZM254.465 153.792L263.885 169.171L278.956 159.559V148.832L269.537 144.119L254.465 153.792Z" stroke="#787B7D" stroke-opacity="0.25" stroke-width="0.632998" stroke-miterlimit="10"/>
<path fill-rule="evenodd" clip-rule="evenodd" d="M311.356 95.0688L301.936 110.447L286.865 100.836V90.108L296.284 85.3953L311.356 95.0688ZM273.738 79.0703L282.611 83.597L291.483 79.0703V60.9014H273.677V79.0703H273.738ZM254.291 95.0688L263.711 110.447L278.782 100.836V90.108L269.363 85.3953L254.291 95.0688Z" stroke="#787B7D" stroke-opacity="0.25" stroke-width="0.632998" stroke-miterlimit="10"/>
<path fill-rule="evenodd" clip-rule="evenodd" d="M311.105 36.4076L301.685 51.7861L286.614 42.1746V31.4469L296.033 26.7341L311.105 36.4076ZM273.548 20.3471L282.42 24.8738L291.293 20.3471V2.17822H273.487V20.3471H273.548ZM254.04 36.4076L263.46 51.7861L278.531 42.1746V31.4469L269.172 26.7341L254.04 36.4076Z" stroke="#787B7D" stroke-opacity="0.25" stroke-width="0.632998" stroke-miterlimit="10"/>
<path fill-rule="evenodd" clip-rule="evenodd" d="M369.672 211.337L360.253 226.716L345.12 217.104V206.377L354.54 201.664L369.672 211.337ZM332.055 195.277L340.927 199.804L349.8 195.277V177.108H332.055V195.277ZM312.608 211.337L322.027 226.716L337.159 217.104V206.377L327.74 201.664L312.608 211.337Z" stroke="#787B7D" stroke-opacity="0.25" stroke-width="0.632998" stroke-miterlimit="10"/>
<path fill-rule="evenodd" clip-rule="evenodd" d="M369.488 152.614L360.069 167.993L344.998 158.381V147.653L354.417 142.941L369.488 152.614ZM331.871 136.554L340.744 141.08L349.616 136.554V118.385H331.871V136.554ZM312.424 152.614L321.844 167.993L336.915 158.381V147.653L327.495 142.941L312.424 152.614Z" stroke="#787B7D" stroke-opacity="0.25" stroke-width="0.632998" stroke-miterlimit="10"/>
<path fill-rule="evenodd" clip-rule="evenodd" d="M369.253 93.8906L359.833 109.269L344.762 99.6575V88.9298L354.182 84.217L369.253 93.8906ZM331.696 77.892L340.569 82.4188L349.441 77.892V59.7231H331.696V77.892ZM312.188 93.8906L321.608 109.269L336.679 99.6575V88.9298L327.26 84.217L312.188 93.8906Z" stroke="#787B7D" stroke-opacity="0.25" stroke-width="0.632998" stroke-miterlimit="10"/>
<path fill-rule="evenodd" clip-rule="evenodd" d="M369.064 35.2294L359.645 50.6079L344.513 40.9963V30.2686L353.932 25.5559L369.064 35.2294ZM331.447 19.1689L340.319 23.6956L349.253 19.1689V1H331.447V19.1689ZM312 35.2294L321.42 50.6079L336.552 40.9963V30.2686L327.132 25.5559L312 35.2294Z" stroke="#787B7D" stroke-opacity="0.25" stroke-width="0.632998" stroke-miterlimit="10"/>
<path fill-rule="evenodd" clip-rule="evenodd" d="M525.687 211.337L516.267 226.716L501.135 217.104V206.377L510.555 201.664L525.687 211.337ZM488.069 195.277L496.942 199.804L505.815 195.277V177.108H488.069V195.277ZM468.623 211.337L478.042 226.716L493.174 217.104V206.377L483.755 201.664L468.623 211.337Z" stroke="#787B7D" stroke-opacity="0.25" stroke-width="0.632998" stroke-miterlimit="10"/>
<path fill-rule="evenodd" clip-rule="evenodd" d="M525.503 152.614L516.083 167.993L501.012 158.381V147.653L510.432 142.941L525.503 152.614ZM487.886 136.554L496.758 141.08L505.631 136.554V118.385H487.886V136.554ZM468.439 152.614L477.858 167.993L492.93 158.381V147.653L483.51 142.941L468.439 152.614Z" stroke="#787B7D" stroke-opacity="0.25" stroke-width="0.632998" stroke-miterlimit="10"/>
<path fill-rule="evenodd" clip-rule="evenodd" d="M525.267 93.8906L515.848 109.269L500.777 99.6575V88.9298L510.196 84.217L525.267 93.8906ZM487.711 77.892L496.583 82.4188L505.456 77.892V59.7231H487.711V77.892ZM468.203 93.8906L477.623 109.269L492.694 99.6575V88.9298L483.274 84.217L468.203 93.8906Z" stroke="#787B7D" stroke-opacity="0.25" stroke-width="0.632998" stroke-miterlimit="10"/>
<path fill-rule="evenodd" clip-rule="evenodd" d="M525.079 35.2294L515.66 50.6079L500.528 40.9963V30.2686L509.947 25.5559L525.079 35.2294ZM487.462 19.1689L496.335 23.6956L505.268 19.1689V1H487.462V19.1689ZM468.015 35.2294L477.435 50.6079L492.567 40.9963V30.2686L483.147 25.5559L468.015 35.2294Z" stroke="#787B7D" stroke-opacity="0.25" stroke-width="0.632998" stroke-miterlimit="10"/>
<path fill-rule="evenodd" clip-rule="evenodd" d="M418.714 179.96L409.295 195.339L394.223 185.727V175L403.643 170.287L418.714 179.96ZM381.158 163.9L390.03 168.427L398.903 163.9V145.731H381.097V163.9H381.158ZM361.65 179.96L371.13 195.339L386.202 185.727V175L376.782 170.287L361.65 179.96Z" stroke="#787B7D" stroke-opacity="0.25" stroke-width="0.632998" stroke-miterlimit="10"/>
<path fill-rule="evenodd" clip-rule="evenodd" d="M418.539 121.237L409.119 136.616L394.048 127.004V116.276L403.468 111.564L418.539 121.237ZM380.921 105.177L389.794 109.703L398.667 105.177V87.0078H380.861V105.177H380.921ZM361.474 121.237L370.894 136.616L385.965 127.004V116.276L376.546 111.564L361.474 121.237Z" stroke="#787B7D" stroke-opacity="0.25" stroke-width="0.632998" stroke-miterlimit="10"/>
<path fill-rule="evenodd" clip-rule="evenodd" d="M418.35 62.5136L408.93 77.8921L393.798 68.2805V57.5528L403.218 52.8401L418.35 62.5136ZM380.732 46.5151L389.605 51.0418L398.478 46.5151V28.3462H380.672V46.5151H380.732ZM361.286 62.5136L370.705 77.8921L385.776 68.2805V57.5528L376.357 52.8401L361.286 62.5136Z" stroke="#787B7D" stroke-opacity="0.25" stroke-width="0.632998" stroke-miterlimit="10"/>
<path fill-rule="evenodd" clip-rule="evenodd" d="M574.731 179.96L565.311 195.339L550.24 185.727V175L559.66 170.287L574.731 179.96ZM537.174 163.9L546.047 168.427L554.919 163.9V145.731H537.113V163.9H537.174ZM517.667 179.96L527.147 195.339L542.218 185.727V175L532.799 170.287L517.667 179.96Z" stroke="#787B7D" stroke-opacity="0.25" stroke-width="0.632998" stroke-miterlimit="10"/>
<path fill-rule="evenodd" clip-rule="evenodd" d="M574.555 121.237L565.136 136.616L550.064 127.004V116.276L559.484 111.564L574.555 121.237ZM536.938 105.177L545.81 109.703L554.683 105.177V87.0078H536.877V105.177H536.938ZM517.491 121.237L526.911 136.616L541.982 127.004V116.276L532.562 111.564L517.491 121.237Z" stroke="#787B7D" stroke-opacity="0.25" stroke-width="0.632998" stroke-miterlimit="10"/>
<path fill-rule="evenodd" clip-rule="evenodd" d="M574.365 62.5136L564.946 77.8921L549.813 68.2805V57.5528L559.233 52.8401L574.365 62.5136ZM536.748 46.5151L545.62 51.0418L554.493 46.5151V28.3462H536.687V46.5151H536.748ZM517.301 62.5136L526.72 77.8921L541.792 68.2805V57.5528L532.372 52.8401L517.301 62.5136Z" stroke="#787B7D" stroke-opacity="0.25" stroke-width="0.632998" stroke-miterlimit="10"/>
<path fill-rule="evenodd" clip-rule="evenodd" d="M467.757 212.516L458.338 227.894L443.267 218.282V207.555L452.686 202.842L467.757 212.516ZM430.14 196.455L439.013 200.982L447.885 196.455V178.286H430.079V196.455H430.14ZM410.693 212.516L420.113 227.894L435.184 218.282V207.555L425.764 202.842L410.693 212.516Z" stroke="#787B7D" stroke-opacity="0.25" stroke-width="0.632998" stroke-miterlimit="10"/>
<path fill-rule="evenodd" clip-rule="evenodd" d="M467.514 153.792L458.094 169.171L443.023 159.559V148.832L452.442 144.119L467.514 153.792ZM429.957 137.732L438.829 142.259L447.702 137.732V119.563H429.896V137.732H429.957ZM410.449 153.792L419.869 169.171L434.94 159.559V148.832L425.521 144.119L410.449 153.792Z" stroke="#787B7D" stroke-opacity="0.25" stroke-width="0.632998" stroke-miterlimit="10"/>
<path fill-rule="evenodd" clip-rule="evenodd" d="M467.341 95.0688L457.922 110.447L442.85 100.836V90.108L452.27 85.3953L467.341 95.0688ZM429.724 79.0703L438.596 83.597L447.469 79.0703V60.9014H429.663V79.0703H429.724ZM410.277 95.0688L419.697 110.447L434.768 100.836V90.108L425.348 85.3953L410.277 95.0688Z" stroke="#787B7D" stroke-opacity="0.25" stroke-width="0.632998" stroke-miterlimit="10"/>
<path fill-rule="evenodd" clip-rule="evenodd" d="M467.088 36.4076L457.668 51.7861L442.597 42.1746V31.4469L452.016 26.7341L467.088 36.4076ZM429.531 20.3471L438.404 24.8738L447.276 20.3471V2.17822H429.47V20.3471H429.531ZM410.023 36.4076L419.443 51.7861L434.514 42.1746V31.4469L425.156 26.7341L410.023 36.4076Z" stroke="#787B7D" stroke-opacity="0.25" stroke-width="0.632998" stroke-miterlimit="10"/>
<path fill-rule="evenodd" clip-rule="evenodd" d="M623.772 212.516L614.352 227.894L599.281 218.282V207.555L608.701 202.842L623.772 212.516ZM586.154 196.455L595.027 200.982L603.9 196.455V178.286H586.094V196.455H586.154ZM566.708 212.516L576.127 227.894L591.198 218.282V207.555L581.779 202.842L566.708 212.516Z" stroke="#787B7D" stroke-opacity="0.25" stroke-width="0.632998" stroke-miterlimit="10"/>
<path fill-rule="evenodd" clip-rule="evenodd" d="M623.53 153.792L614.11 169.171L599.039 159.559V148.832L608.458 144.119L623.53 153.792ZM585.973 137.732L594.846 142.259L603.718 137.732V119.563H585.912V137.732H585.973ZM566.465 153.792L575.885 169.171L590.956 159.559V148.832L581.537 144.119L566.465 153.792Z" stroke="#787B7D" stroke-opacity="0.25" stroke-width="0.632998" stroke-miterlimit="10"/>
<path fill-rule="evenodd" clip-rule="evenodd" d="M623.356 95.0688L613.936 110.447L598.865 100.836V90.108L608.285 85.3953L623.356 95.0688ZM585.738 79.0703L594.611 83.597L603.484 79.0703V60.9014H585.678V79.0703H585.738ZM566.292 95.0688L575.711 110.447L590.782 100.836V90.108L581.363 85.3953L566.292 95.0688Z" stroke="#787B7D" stroke-opacity="0.25" stroke-width="0.632998" stroke-miterlimit="10"/>
<path fill-rule="evenodd" clip-rule="evenodd" d="M623.105 36.4076L613.685 51.7861L598.614 42.1746V31.4469L608.033 26.7341L623.105 36.4076ZM585.548 20.3471L594.421 24.8738L603.293 20.3471V2.17822H585.487V20.3471H585.548ZM566.04 36.4076L575.46 51.7861L590.531 42.1746V31.4469L581.172 26.7341L566.04 36.4076Z" stroke="#787B7D" stroke-opacity="0.25" stroke-width="0.632998" stroke-miterlimit="10"/>
</svg>
