<svg width="159" height="159" viewBox="0 0 159 159" fill="none" xmlns="http://www.w3.org/2000/svg">
<g opacity="0.1">
<path d="M65.589 65.9437V0.908691H130.624V65.9437V130.979H65.589H0.554001V65.9437H65.589Z" fill="#FF9D00"/>
<path d="M25.7997 158.881H158.526V26.1548H90.8348V91.1898H25.7997V158.881ZM155.87 156.225H28.4559V93.8459H93.4909V28.8109H155.87V156.225Z" fill="#010833"/>
<path d="M51.976 1.61206H55.9336V58.0545H51.976V1.61206Z" fill="#FFC200"/>
<path d="M41.8959 1.59937H45.8535V58.0418H41.8959V1.59937Z" fill="#FFC200"/>
<path d="M31.829 1.6123H35.7866V58.0548H31.829V1.6123Z" fill="#FFC200"/>
<path d="M21.7626 1.6123H25.7202V58.0548H21.7626V1.6123Z" fill="#FFC200"/>
<path d="M11.6957 1.59937H15.6533V58.0418H11.6957V1.59937Z" fill="#FFC200"/>
<path d="M1.74834 1.6123H5.58643V58.0548H1.74834V1.6123Z" fill="#FFC200"/>
</g>
</svg>
