<svg width="1439" height="219" viewBox="0 0 1439 219" fill="none" xmlns="http://www.w3.org/2000/svg">
<path opacity="0.07" d="M630.493 189.097C630.493 158.927 655.129 134.479 685.531 134.479C715.933 134.479 740.57 158.927 740.57 189.097H630.493Z" fill="#FFC200"/>
<g opacity="0.1">
<path d="M68.9369 125.944V60.9087H3.90186V125.944V190.979H68.9369H133.972V125.944H68.9369Z" fill="#FF9D00"/>
<path d="M108.726 218.881H-24V86.1548H43.6911V151.19H108.726V218.881ZM-21.3439 216.225H106.07V153.846H41.035V88.8109H-21.3439V216.225Z" fill="#010833"/>
<path d="M82.5499 61.6118H78.5923V118.054H82.5499V61.6118Z" fill="#FFC200"/>
<path d="M92.63 61.5991H88.6724V118.042H92.63V61.5991Z" fill="#FFC200"/>
<path d="M102.697 61.6123H98.7393V118.055H102.697V61.6123Z" fill="#FFC200"/>
<path d="M112.763 61.6123H108.806V118.055H112.763V61.6123Z" fill="#FFC200"/>
<path d="M122.83 61.5991H118.873V118.042H122.83V61.5991Z" fill="#FFC200"/>
<path d="M132.778 61.6123H128.939V118.055H132.778V61.6123Z" fill="#FFC200"/>
</g>
<g opacity="0.13">
<path d="M1329.6 192.281C1300.37 192.281 1272.9 180.897 1252.23 160.237L1253.22 159.247C1295.34 201.362 1363.85 201.362 1405.97 159.247C1426.37 138.846 1437.6 111.721 1437.6 82.8776C1437.6 54.0337 1426.37 26.9023 1405.97 6.50809L1406.96 5.51855C1427.62 26.1865 1439 53.6618 1439 82.8846C1439 112.107 1427.62 139.583 1406.96 160.251C1386.3 180.904 1358.82 192.281 1329.6 192.281Z" fill="#010833"/>
<path d="M1329.6 184.708C1303.5 184.708 1277.42 174.778 1257.56 154.917L1258.55 153.927C1297.72 193.101 1361.47 193.101 1400.65 153.927C1439.82 114.753 1439.82 51.0017 1400.65 11.8274L1401.64 10.8379C1441.36 50.5596 1441.36 115.195 1401.64 154.924C1381.78 174.778 1355.68 184.708 1329.6 184.708Z" fill="#010833"/>
<path d="M1329.6 177.227C1304.4 177.227 1280.7 167.409 1262.88 149.591L1263.87 148.601C1281.43 166.16 1304.77 175.824 1329.59 175.824C1354.42 175.824 1377.76 166.153 1395.31 148.601C1412.87 131.042 1422.54 107.7 1422.54 82.8778C1422.54 58.0483 1412.86 34.7065 1395.31 17.1546L1396.3 16.165C1414.12 33.9836 1423.94 57.6833 1423.94 82.8848C1423.94 108.086 1414.12 131.779 1396.3 149.605C1378.49 167.409 1354.8 177.227 1329.6 177.227Z" fill="#010833"/>
<path d="M1329.6 169.655C1307.36 169.655 1285.13 161.191 1268.2 144.264L1269.19 143.274C1302.5 176.582 1356.69 176.582 1390 143.274C1423.31 109.967 1423.31 55.7743 1390 22.4671L1390.99 21.4775C1424.84 55.3322 1424.84 110.416 1390.99 144.264C1374.06 161.191 1351.83 169.655 1329.6 169.655Z" fill="#010833"/>
<path d="M1329.6 162.131C1309.29 162.131 1288.98 154.405 1273.52 138.944L1274.51 137.955C1304.89 168.328 1354.3 168.328 1384.67 137.955C1415.04 107.581 1415.04 58.1673 1384.67 27.8006L1385.66 26.811C1416.57 57.7252 1416.57 108.037 1385.66 138.951C1370.21 154.405 1349.9 162.131 1329.6 162.131Z" fill="#010833"/>
<path d="M1329.6 154.608C1311.22 154.608 1292.84 147.611 1278.85 133.625L1279.84 132.635C1307.27 160.068 1351.91 160.068 1379.35 132.635C1392.64 119.343 1399.96 101.672 1399.96 82.8778C1399.96 64.0837 1392.64 46.4124 1379.35 33.1204L1380.34 32.1309C1393.9 45.6825 1401.36 63.7117 1401.36 82.8778C1401.36 102.044 1393.89 120.073 1380.34 133.625C1366.35 147.611 1347.98 154.608 1329.6 154.608Z" fill="#010833"/>
<path d="M1329.6 147.085C1313.15 147.085 1296.7 140.825 1284.17 128.298L1285.16 127.308C1309.66 151.808 1349.52 151.808 1374.02 127.308C1398.52 102.808 1398.52 62.9463 1374.02 38.4466L1375.01 37.457C1400.06 62.5041 1400.06 103.257 1375.01 128.305C1362.5 140.818 1346.05 147.085 1329.6 147.085Z" fill="#010833"/>
<path d="M1373.25 0.486816L1369.2 4.52916V0.486816H1373.25Z" fill="#010833"/>
<path d="M1380.74 0.486816L1369.2 12.0314V7.98902L1376.7 0.486816H1380.74Z" fill="#010833"/>
<path d="M1403.19 0.486816L1369.2 34.4678V30.4886L1399.2 0.486816H1403.19Z" fill="#010833"/>
<path d="M1395.75 0.486816L1369.2 27.0287V22.9864L1391.71 0.486816H1395.75Z" fill="#010833"/>
<path d="M1388.25 0.486816L1369.2 19.5336V15.4842L1384.2 0.486816H1388.25Z" fill="#010833"/>
</g>
</svg>
