<svg width="134" height="159" viewBox="0 0 134 159" fill="none" xmlns="http://www.w3.org/2000/svg">
<g opacity="0.1">
<path d="M68.9374 65.9432V0.908203H3.90234V65.9432V130.978H68.9374H133.972V65.9432H68.9374Z" fill="#FF9D00"/>
<path d="M108.726 158.88H-24V26.1543H43.6911V91.1893H108.726V158.88ZM-21.3439 156.224H106.07V93.8454H41.035V28.8104H-21.3439V156.224Z" fill="#010833"/>
<path d="M82.5504 1.61328H78.5928V58.0558H82.5504V1.61328Z" fill="#FFC200"/>
<path d="M92.6305 1.59961H88.6729V58.0421H92.6305V1.59961Z" fill="#FFC200"/>
<path d="M102.698 1.61328H98.7402V58.0558H102.698V1.61328Z" fill="#FFC200"/>
<path d="M112.763 1.61328H108.806V58.0558H112.763V1.61328Z" fill="#FFC200"/>
<path d="M122.831 1.59961H118.873V58.0421H122.831V1.59961Z" fill="#FFC200"/>
<path d="M132.779 1.61328H128.94V58.0558H132.779V1.61328Z" fill="#FFC200"/>
</g>
</svg>
