<svg width="159" height="158" viewBox="0 0 159 158" fill="none" xmlns="http://www.w3.org/2000/svg">
<g opacity="0.1">
<path d="M65.7619 65.035V0H130.797V65.035V130.07H65.7619H0.726852V65.035H65.7619Z" fill="#FF9D00"/>
<path d="M25.9731 157.972H158.699V25.2461H91.0081V90.2811H25.9731V157.972ZM156.043 155.316H28.6292V92.9372H93.6642V27.9022H156.043V155.316Z" fill="#010833"/>
<path d="M52.1488 0.705078H56.1064V57.1476H52.1488V0.705078Z" fill="#FFC200"/>
<path d="M42.0688 0.691406H46.0264V57.1339H42.0688V0.691406Z" fill="#FFC200"/>
<path d="M32.0014 0.705078H35.959V57.1476H32.0014V0.705078Z" fill="#FFC200"/>
<path d="M21.9359 0.705078H25.8936V57.1476H21.9359V0.705078Z" fill="#FFC200"/>
<path d="M11.8686 0.691406H15.8262V57.1339H11.8686V0.691406Z" fill="#FFC200"/>
<path d="M1.9207 0.705078H5.75879V57.1476H1.9207V0.705078Z" fill="#FFC200"/>
</g>
</svg>
