<svg width="1413" height="351" viewBox="0 0 1413 351" fill="none" xmlns="http://www.w3.org/2000/svg">
<path fill-rule="evenodd" clip-rule="evenodd" d="M11.4325 267.058C14.4646 267.058 17.3725 265.854 19.5166 263.71C21.6606 261.566 22.8651 258.658 22.8651 255.626C22.8651 252.594 21.6606 249.686 19.5166 247.542C17.3725 245.398 14.4646 244.193 11.4325 244.193C8.40043 244.193 5.49253 245.398 3.34851 247.542C1.2045 249.686 0 252.594 0 255.626C0 258.658 1.2045 261.566 3.34851 263.71C5.49253 265.854 8.40043 267.058 11.4325 267.058ZM1402.45 350.901C1408.06 350.901 1412.61 346.351 1412.61 340.738C1412.61 338.042 1411.54 335.457 1409.63 333.551C1407.73 331.646 1405.14 330.575 1402.45 330.576C1399.75 330.575 1397.17 331.646 1395.26 333.551C1393.35 335.457 1392.28 338.042 1392.28 340.738C1392.28 342.073 1392.54 343.395 1393.05 344.628C1393.57 345.861 1394.31 346.982 1395.26 347.925C1396.2 348.869 1397.32 349.618 1398.56 350.128C1399.79 350.639 1401.11 350.901 1402.45 350.901Z" fill="#6EBBF0" fill-opacity="0.2"/>
<path fill-rule="evenodd" clip-rule="evenodd" d="M1036.86 36.9742L1032.64 0.289062L1063.68 11.5852L1036.86 36.9742Z" fill="#6EBBF0" fill-opacity="0.2"/>
<path fill-rule="evenodd" clip-rule="evenodd" d="M1320.01 82.1582L1324.22 118.843L1293.19 107.547L1320.01 82.1582Z" fill="#FF9E99"/>
</svg>
