<svg width="1413" height="643" viewBox="0 0 1413 643" fill="none" xmlns="http://www.w3.org/2000/svg">
<path fill-rule="evenodd" clip-rule="evenodd" d="M271.267 33.4619L259.408 35.6396C257.399 36.0069 255.836 33.9158 256.759 32.0937L262.127 21.4981L256.332 11.1006C255.329 9.30211 256.839 7.13892 258.873 7.45769L270.936 9.3559L279.26 0.754284C280.683 -0.714957 283.174 0.082631 283.477 2.10677L285.211 13.7203L296.239 18.8981C298.075 19.7613 298.146 22.3456 296.361 23.3084L286.109 28.8299L284.671 40.715C284.427 42.7287 281.995 43.6063 280.522 42.2131L271.267 33.4619V33.4619Z" fill="#FF9E99"/>
<path fill-rule="evenodd" clip-rule="evenodd" d="M20.9632 51.0545C26.9288 51.0545 31.7654 46.2189 31.7654 40.2534C31.7654 34.2879 26.9288 29.4512 20.9632 29.4512C14.9977 29.4512 10.1621 34.2879 10.1621 40.2534C10.1621 46.2189 14.9977 51.0556 20.9632 51.0556V51.0545ZM224.04 642.999C230.006 642.999 234.842 638.164 234.842 632.198C234.842 626.233 230.006 621.396 224.04 621.396C218.075 621.396 213.238 626.233 213.238 632.198C213.238 638.164 218.075 642.999 224.04 642.999Z" fill="#F8B100"/>
<path fill-rule="evenodd" clip-rule="evenodd" d="M11.4325 286.058C14.4646 286.058 17.3725 284.854 19.5166 282.71C21.6606 280.566 22.8651 277.658 22.8651 274.626C22.8651 271.594 21.6606 268.686 19.5166 266.542C17.3725 264.398 14.4646 263.193 11.4325 263.193C8.40043 263.193 5.49253 264.398 3.34851 266.542C1.2045 268.686 0 271.594 0 274.626C0 277.658 1.2045 280.566 3.34851 282.71C5.49253 284.854 8.40043 286.058 11.4325 286.058ZM1402.45 369.901C1408.06 369.901 1412.61 365.351 1412.61 359.738C1412.61 357.042 1411.54 354.457 1409.63 352.551C1407.73 350.646 1405.14 349.575 1402.45 349.576C1399.75 349.575 1397.17 350.646 1395.26 352.551C1393.35 354.457 1392.28 357.042 1392.28 359.738C1392.28 361.073 1392.54 362.395 1393.05 363.628C1393.57 364.861 1394.31 365.982 1395.26 366.925C1396.2 367.869 1397.32 368.618 1398.56 369.128C1399.79 369.639 1401.11 369.901 1402.45 369.901Z" fill="#6EBBF0" fill-opacity="0.2"/>
<path fill-rule="evenodd" clip-rule="evenodd" d="M127.032 458.823C134.047 458.823 139.734 453.135 139.734 446.12C139.734 439.104 134.047 433.416 127.032 433.416C120.015 433.416 114.328 439.104 114.328 446.12C114.328 453.135 120.015 458.823 127.032 458.823Z" fill="#F15B2A" fill-opacity="0.2"/>
</svg>
