<svg width="1426" height="1390" viewBox="0 0 1426 1390" fill="none" xmlns="http://www.w3.org/2000/svg">
<g opacity="0.08">
<path d="M96.3385 1299H6V1389.47H96.3385V1299Z" fill="#FF9D00"/>
<path d="M70.6196 1324.75H31.7207V1363.7H70.6196V1324.75Z" fill="#114A82"/>
</g>
<g opacity="0.1">
<path d="M1332.76 241.035V176H1397.8V241.035V306.07H1332.76H1267.73V241.035H1332.76Z" fill="#FF9D00"/>
<path d="M1292.97 333.972H1425.7V201.246H1358.01V266.281H1292.97V333.972ZM1423.04 331.316H1295.63V268.937H1360.66V203.902H1423.04V331.316Z" fill="#010833"/>
<path d="M1319.15 176.705H1323.11V233.148H1319.15V176.705Z" fill="#FFC200"/>
<path d="M1309.07 176.691H1313.03V233.134H1309.07V176.691Z" fill="#FFC200"/>
<path d="M1299 176.705H1302.96V233.148H1299V176.705Z" fill="#FFC200"/>
<path d="M1288.94 176.705H1292.89V233.148H1288.94V176.705Z" fill="#FFC200"/>
<path d="M1278.87 176.691H1282.83V233.134H1278.87V176.691Z" fill="#FFC200"/>
<path d="M1268.92 176.705H1272.76V233.148H1268.92V176.705Z" fill="#FFC200"/>
</g>
<g opacity="0.13">
<path d="M60.7452 212.763C40.19 233.534 12.7728 245.057 -16.4506 245.215L-16.458 243.815C43.1005 243.504 91.2947 194.802 90.9831 135.244C90.8321 106.393 79.4553 79.3271 58.9532 59.0385C38.451 38.7498 11.2629 27.652 -17.5834 27.8079L-17.5907 26.4085C11.6377 26.2556 39.169 37.4955 59.9405 58.0507C80.712 78.606 92.2345 106.023 92.3924 135.247C92.5403 164.46 81.3004 191.991 60.7452 212.763Z" fill="#010833"/>
<path d="M55.3632 207.436C37.0096 225.983 11.6024 237.539 -16.4847 237.686L-16.492 236.287C38.9081 235.997 83.7455 190.688 83.4605 135.283C83.1706 79.8828 37.8564 35.0404 -17.5436 35.3303L-17.551 33.931C38.6232 33.637 84.5659 79.1013 84.8649 135.28C85.0069 163.363 73.7118 188.894 55.3632 207.436Z" fill="#010833"/>
<path d="M50.045 202.175C32.3183 220.088 8.67428 230.023 -16.5296 230.16L-16.5369 228.76C8.29481 228.63 31.5823 218.837 49.0424 201.193C66.5074 183.544 76.0519 160.15 75.922 135.328C75.7921 110.497 65.9983 87.2092 48.3545 69.7492C30.7057 52.2841 7.31204 42.7396 -17.5098 42.8695L-17.5171 41.4701C7.68187 41.3382 31.4336 51.0298 49.3467 68.7564C67.2599 86.4831 77.1945 110.127 77.3314 135.331C77.4582 160.515 67.7716 184.262 50.045 202.175Z" fill="#010833"/>
<path d="M44.6631 196.849C29.0245 212.652 7.37001 222.502 -16.5685 222.627L-16.5758 221.228C30.5271 220.981 68.6461 182.461 68.3996 135.358C68.1531 88.2554 29.633 50.1364 -17.4699 50.3829L-17.4773 48.9836C30.3998 48.733 69.5534 87.4789 69.7989 135.351C69.9242 159.29 60.3016 181.046 44.6631 196.849Z" fill="#010833"/>
<path d="M39.3148 191.555C25.0338 205.987 5.25563 214.988 -16.6086 215.103L-16.6159 213.703C26.3384 213.478 61.0957 178.355 60.866 135.406C60.6412 92.4516 25.5182 57.6943 -17.4312 57.924L-17.4385 56.5246C26.2801 56.2958 62.0416 91.685 62.2704 135.404C62.3897 157.253 53.5959 177.124 39.3148 191.555Z" fill="#010833"/>
<path d="M33.9677 186.265C21.0393 199.33 3.13742 207.472 -16.6426 207.576L-16.65 206.177C22.1459 205.974 53.5465 174.243 53.3434 135.447C53.245 116.649 45.8331 99.0165 32.4743 85.7968C19.1155 72.577 1.4061 65.35 -17.3914 65.4484L-17.3987 64.049C1.77094 63.9437 19.8334 71.3227 33.4566 84.8041C47.0798 98.2854 54.6425 116.275 54.7428 135.439C54.8463 155.219 46.8962 173.201 33.9677 186.265Z" fill="#010833"/>
<path d="M28.6196 180.972C17.0486 192.665 1.02809 199.955 -16.6876 200.047L-16.6949 198.648C17.9524 198.467 45.9912 170.133 45.8099 135.485C45.6286 100.838 17.2948 72.7992 -17.3526 72.9806L-17.3599 71.5812C18.0615 71.3958 47.0289 100.062 47.2143 135.483C47.3069 153.179 40.1905 169.28 28.6196 180.972Z" fill="#010833"/>
<path d="M-23.8176 25.5484L-23.571 73.6091L-26.3994 70.8102L-26.6214 28.3818L-23.8176 25.5484Z" fill="#010833"/>
</g>
</svg>
