<svg width="1424" height="809" viewBox="0 0 1424 809" fill="none" xmlns="http://www.w3.org/2000/svg">
<g opacity="0.1">
<path d="M1327.06 148.945V83.9102H1392.1V148.945V213.98H1327.06H1262.03V148.945H1327.06Z" fill="#FF9D00"/>
<path d="M1287.27 241.882H1420V109.156H1352.31V174.191H1287.27V241.882ZM1417.34 239.226H1289.93V176.847H1354.96V111.812H1417.34V239.226Z" fill="#010833"/>
<path d="M1313.45 84.6152H1317.41V141.058H1313.45V84.6152Z" fill="#FFC200"/>
<path d="M1303.37 84.6016H1307.33V141.044H1303.37V84.6016Z" fill="#FFC200"/>
<path d="M1293.3 84.6152H1297.26V141.058H1293.3V84.6152Z" fill="#FFC200"/>
<path d="M1283.24 84.6152H1287.2V141.058H1283.24V84.6152Z" fill="#FFC200"/>
<path d="M1273.17 84.6016H1277.13V141.044H1273.17V84.6016Z" fill="#FFC200"/>
<path d="M1263.22 84.6152H1267.06V141.058H1263.22V84.6152Z" fill="#FFC200"/>
</g>
<g opacity="0.13">
<path d="M42.1342 33.7065C27.2775 20.975 8.34998 14.792 -11.1587 16.2915L-11.0868 17.2257C28.6722 14.1629 63.5055 44.0133 66.5683 83.7723C68.052 103.032 61.947 121.717 49.3806 136.381C36.8143 151.045 19.2818 159.944 0.0248554 161.424L0.0968064 162.358C19.6086 160.855 37.3622 151.843 50.0937 136.986C62.8251 122.129 69.0082 103.202 67.5086 83.6932C66.003 64.1916 56.9909 46.4379 42.1342 33.7065Z" fill="#010833"/>
<path d="M38.835 37.5572C25.5696 26.1894 7.98133 19.8732 -10.7685 21.3176L-10.6966 22.2518C26.2864 19.4028 58.6935 47.1741 61.5461 84.1601C64.3951 121.143 36.6207 153.554 -0.36225 156.403L-0.290293 157.337C37.2094 154.448 65.369 121.588 62.4833 84.0846C61.0358 65.3383 52.0968 48.922 38.835 37.5572Z" fill="#010833"/>
<path d="M35.5759 41.3604C22.7637 30.3809 6.44101 25.0503 -10.3844 26.3431L-10.3125 27.2773C6.26427 26.0003 22.3412 31.2565 34.9609 42.0709C47.5841 52.8884 55.2376 67.9742 56.5141 84.5443C57.7911 101.121 52.5348 117.198 41.7204 129.818C30.903 142.441 15.8172 150.094 -0.752935 151.371L-0.680961 152.305C16.1409 151.009 31.4576 143.238 42.4371 130.426C53.4166 117.613 58.7472 101.291 57.4544 84.4652C56.156 67.6535 48.3882 52.3399 35.5759 41.3604Z" fill="#010833"/>
<path d="M32.2768 45.2095C20.9737 35.5234 5.98332 30.1401 -9.99713 31.3711L-9.92517 32.3053C21.5189 29.883 49.0702 53.4931 51.4925 84.9372C53.9148 116.381 30.3047 143.933 -1.13937 146.355L-1.06741 147.289C30.8935 144.827 54.8918 116.823 52.4267 84.8652C51.1956 68.8847 43.5799 54.8957 32.2768 45.2095Z" fill="#010833"/>
<path d="M28.9993 49.0338C18.6774 40.1884 4.98563 35.2683 -9.61011 36.3927L-9.53815 37.3268C19.1366 35.1179 44.2581 56.6458 46.4634 85.3174C48.6724 113.992 27.1445 139.114 -1.52712 141.319L-1.45514 142.253C27.7297 140.005 49.649 114.427 47.4007 85.2419C46.2804 70.6558 39.3212 57.8792 28.9993 49.0338Z" fill="#010833"/>
<path d="M25.7215 52.8596C16.3772 44.852 3.98452 40.4016 -9.21989 41.4188L-9.14792 42.3529C16.7507 40.3578 39.4461 59.8066 41.4412 85.7053C42.4078 98.2538 38.4304 110.427 30.2424 119.982C22.0544 129.536 10.6343 135.331 -1.91422 136.298L-1.84225 137.232C10.955 136.25 22.6024 130.334 30.9524 120.59C39.3024 110.846 43.3609 98.4269 42.3754 85.6333C41.3582 72.4289 35.0658 60.8672 25.7215 52.8596Z" fill="#010833"/>
<path d="M22.4441 56.6842C14.081 49.5174 2.99054 45.5331 -8.83579 46.4442L-8.76383 47.3784C14.3654 45.5966 34.631 62.9632 36.4128 86.0925C38.1945 109.222 20.8279 129.487 -2.30131 131.269L-2.22936 132.203C21.4167 130.382 39.1716 109.663 37.35 86.0169C36.44 74.2039 30.8072 63.851 22.4441 56.6842Z" fill="#010833"/>
<path d="M-4.01173 163.274L-6.48659 131.191L-8.22019 133.214L-6.03829 161.538L-4.01173 163.274Z" fill="#010833"/>
<path d="M-7.79368 160.033L-9.72754 134.973L-11.4887 137.028L-9.84879 158.272L-7.79368 160.033Z" fill="#010833"/>
</g>
<g opacity="0.08">
<path d="M1423.53 718H1333.19V808.473H1423.53V718Z" fill="#FF9D00"/>
<path d="M1397.81 743.754H1358.91V782.703H1397.81V743.754Z" fill="#114A82"/>
</g>
</svg>
