<svg width="137" height="159" viewBox="0 0 137 159" fill="none" xmlns="http://www.w3.org/2000/svg">
<g opacity="0.1">
<path d="M43.0646 93.8458L43.0646 158.881H108.1L108.1 93.8458V28.8108H43.0646L-21.9704 28.8108L-21.9704 93.8458H43.0646Z" fill="#FF9D00"/>
<path d="M3.27533 0.90863L136.001 0.90863L136.001 133.635H68.3103L68.3103 68.5998H3.27533L3.27533 0.90863ZM133.345 3.56474L5.93144 3.56474L5.93144 65.9436H70.9665L70.9665 130.979H133.345L133.345 3.56474Z" fill="#010833"/>
<path d="M29.4516 158.176H33.4092L33.4092 101.733H29.4516L29.4516 158.176Z" fill="#FFC200"/>
<path d="M19.3715 158.189H23.3291L23.3291 101.747H19.3715L19.3715 158.189Z" fill="#FFC200"/>
<path d="M9.3046 158.176H13.2622L13.2622 101.733H9.3046L9.3046 158.176Z" fill="#FFC200"/>
<path d="M-0.761807 158.176H3.1958L3.1958 101.733H-0.761807L-0.761807 158.176Z" fill="#FFC200"/>
</g>
</svg>
